<svg width="123" height="47" viewBox="0 0 123 47" fill="none" xmlns="http://www.w3.org/2000/svg">
<path d="M2.43791 22.1574C4.33791 19.7574 6.53791 17.3574 9.43791 14.6574C12.2379 11.9574 14.8379 9.75741 17.2379 7.95741C19.9379 5.95741 23.4379 5.85741 26.0379 7.95741C28.4379 9.75741 31.0379 11.9574 33.8379 14.6574C36.6379 17.3574 38.9379 19.8574 40.8379 22.1574C43.1379 24.9574 43.1379 27.8574 40.8379 30.6574C38.9379 32.9574 36.7379 35.4574 33.8379 38.1574C31.0379 40.8574 28.4379 43.0574 26.0379 44.8574C23.3379 46.8574 19.9379 46.8574 17.2379 44.8574C14.7379 43.0574 12.2379 40.8574 9.43791 38.1574C6.63791 35.4574 4.33791 32.9574 2.43791 30.6574C0.337913 28.0574 0.237913 24.7574 2.43791 22.1574Z" fill="#1B1464"/>
<path d="M0.437769 26.9574C0.737769 28.2574 1.33777 29.3574 2.33777 30.6574C4.23777 32.9574 6.63777 35.4574 9.43777 38.1574C12.2378 40.8574 14.8378 43.0574 17.2378 44.8574C18.3378 45.7574 19.6378 46.2574 20.9378 46.3574C18.3378 45.7574 14.5378 41.7574 16.5378 34.4574C18.4378 27.5574 21.5378 22.5574 23.1378 19.4574V19.3574C26.2378 13.4574 21.8378 11.3574 18.3378 14.3574C20.8378 10.9574 26.4378 5.35739 28.4378 3.35739C30.4378 1.35739 29.0378 -0.742613 25.1378 0.257387C17.1378 2.65739 7.13777 10.2574 2.43777 19.1574C0.937769 22.1574 0.237769 24.7574 0.437769 26.9574Z" fill="#E11F27"/>
<path d="M63.0383 32.3573H62.9383L58.8383 19.1573H53.2383V36.5573H56.5383V22.2573L56.6383 22.1573L61.3383 36.5573H64.6383L69.3383 22.1573H69.4383V36.5573H72.7383V19.1573H67.1383L63.0383 32.3573ZM83.3383 23.9573C83.3383 22.0573 84.8383 21.5573 86.0383 21.5573C87.2383 21.5573 88.4383 21.8573 89.5383 22.2573L89.8383 19.3573C88.5383 18.9573 87.1383 18.7573 85.6383 18.7573C82.5383 18.7573 79.5383 20.1573 79.5383 24.0573C79.5383 29.8573 87.1383 28.4573 87.1383 31.7573C87.1383 33.3573 85.3383 33.9573 84.0383 33.9573C82.6383 33.9573 81.2383 33.5573 80.1383 32.8573L80.0383 36.1573C81.7383 36.5573 82.6383 36.8573 84.5383 36.8573C88.0383 36.8573 91.0383 35.4573 91.0383 31.5573C91.0383 25.7573 83.3383 27.0573 83.3383 23.9573Z" fill="#231F20"/>
<path d="M98.0381 19.1574H101.538V36.5574H98.0381V19.1574ZM115.438 29.5574H118.938V33.7574C118.438 33.8574 118.038 33.9574 116.738 33.9574C113.338 33.9574 110.938 31.4574 110.938 27.9574C110.938 24.3574 113.338 21.9574 116.838 21.9574C119.038 21.9574 120.138 22.3574 121.138 23.0574L121.838 23.4574L122.138 19.8574L121.738 19.7574C120.438 19.2574 119.238 18.8574 116.738 18.8574C111.238 18.8574 107.438 22.5574 107.438 27.8574C107.438 33.3574 111.138 37.0574 116.738 37.0574C118.738 37.0574 120.438 36.8574 121.938 36.2574L122.238 36.1574V26.6574H115.338V29.5574H115.438Z" fill="#231F20"/>
</svg>
