<?xml version="1.0" encoding="UTF-8"?><svg id="Layer_1" xmlns="http://www.w3.org/2000/svg" viewBox="0 0 347.76 113.56"><defs><style>.cls-1{fill:#ff7420;}</style></defs><path class="cls-1" d="M0,42.14C0,18.76,18.67,.71,41.9,.71s41.9,18.05,41.9,41.43-18.52,41.43-41.9,41.43S0,65.52,0,42.14Zm57.75,0c0-9.73-6.75-16.32-15.85-16.32s-15.69,6.59-15.69,16.32,6.75,16.32,15.69,16.32,15.85-6.59,15.85-16.32Z"/><path class="cls-1" d="M170.74,2.91l-26.84,77.21c-8.32,23.85-23.23,33.74-47.39,32.64v-24.48c11.14,0,16.01-2.35,19.46-9.42L84.59,2.91h29.19l15.85,45.51L141.87,2.91h28.88Z"/><path class="cls-1" d="M218.54,61.29c5.65,0,10.51-1.88,14.28-5.49l18.83,13.18c-7.85,9.89-19.77,14.59-33.74,14.59-27.15,0-43.94-18.05-43.94-41.27S191.24,.71,215.72,.71s40.49,17.73,40.49,41.27c0,3.3-.31,6.43-1.1,9.73h-54.14c3.14,7.53,10.04,9.57,17.58,9.57Zm12.24-27.62c-2.35-8.16-8.47-10.98-14.75-10.98-7.53,0-13.18,3.77-15.38,10.98h30.13Z"/><path class="cls-1" d="M347.76,34.45v46.92h-26.05V37.75c0-8.47-5.02-12.4-11.77-12.4-8,0-12.87,4.87-12.87,14.28v41.74h-26.05V2.91h26.05v7.85c4.39-6.28,12.08-10.04,21.81-10.04,16.16,0,28.88,11.14,28.88,33.74Z"/></svg>