<svg xmlns:xlink="http://www.w3.org/1999/xlink" width="132" height="32" viewBox="0 0 132 32" fill="none" xmlns="http://www.w3.org/2000/svg"> <title fill="none">Tractive Blue Logo</title> <path d="M129.991 10.1289L129.53 9.31829H129.332V10.1289H128.914V8.05008H129.697C129.859 8.05008 129.996 8.07921 130.11 8.13577C130.223 8.19232 130.309 8.26945 130.366 8.36542C130.423 8.46139 130.452 8.56936 130.452 8.68933C130.452 8.82643 130.413 8.94983 130.332 9.05951C130.253 9.16919 130.134 9.24631 129.976 9.28744L130.475 10.1306H129.989L129.991 10.1289ZM129.332 9.00638H129.681C129.795 9.00638 129.879 8.97896 129.936 8.92412C129.993 8.86928 130.02 8.79387 130.02 8.69618C130.02 8.5985 129.993 8.52652 129.936 8.4751C129.881 8.42197 129.795 8.39627 129.681 8.39627H129.332V9.00638Z" fill="#1A73E8"></path> <path d="M129.609 11.3782C128.343 11.3782 127.312 10.3517 127.312 9.09029C127.312 7.82894 128.343 6.80237 129.609 6.80237C130.876 6.80237 131.906 7.82894 131.906 9.09029C131.906 10.3517 130.876 11.3782 129.609 11.3782ZM129.609 7.22739C128.579 7.22739 127.739 8.06373 127.739 9.09029C127.739 10.1169 128.579 10.9532 129.609 10.9532C130.64 10.9532 131.479 10.1186 131.479 9.09029C131.479 8.06201 130.64 7.22739 129.609 7.22739Z" fill="#1A73E8"></path> <path d="M8.98321 14.9961C9.90546 14.9961 10.6522 14.2523 10.6522 13.3337C10.6522 12.4151 9.90546 11.6713 8.98321 11.6713C8.06096 11.6713 7.31421 12.4151 7.31421 13.3337C7.31421 14.2523 8.06096 14.9961 8.98321 14.9961Z" fill="#1A73E8"></path> <path d="M9.80933 9.75184C9.80933 8.82638 10.5492 8.08945 11.4783 8.08945C12.4075 8.08945 13.1473 8.82638 13.1473 9.75184C13.1473 10.6773 12.4075 11.4142 11.4783 11.4142C10.5492 11.4142 9.80933 10.6773 9.80933 9.75184Z" fill="#1A73E8"></path> <path d="M18.1714 14.9961C19.0937 14.9961 19.8404 14.2523 19.8404 13.3337C19.8404 12.4151 19.0937 11.6713 18.1714 11.6713C17.2492 11.6713 16.5024 12.4151 16.5024 13.3337C16.5024 14.2523 17.2492 14.9961 18.1714 14.9961Z" fill="#1A73E8"></path> <path d="M17.3284 9.75184C17.3284 10.6773 16.5885 11.4142 15.6594 11.4142C14.7302 11.4142 13.9904 10.6773 13.9904 9.75184C13.9904 8.82638 14.7302 8.08945 15.6594 8.08945C16.5885 8.08945 17.3284 8.82638 17.3284 9.75184Z" fill="#1A73E8"></path> <path d="M13.5774 0.000312168C6.05832 -0.0511019 -0.118711 6.25569 0.00173203 13.5222C0.00173203 20.7887 7.41761 26.6671 11.788 30.6945C12.2009 31.0887 12.8376 31.5 13.5774 31.5C14.3173 31.5 14.9539 31.0887 15.3669 30.6945C19.72 26.6671 27.1531 20.7887 27.1531 13.5222C27.2564 6.25569 21.0793 -0.0511019 13.5774 0.000312168ZM13.5774 22.6396C8.53601 22.6396 4.44093 18.5608 4.44093 13.5394C4.44093 8.51791 8.53601 4.43906 13.5774 4.43906C18.6189 4.43906 22.7139 8.51791 22.7139 13.5394C22.7139 18.5608 18.6189 22.6396 13.5774 22.6396Z" fill="#1A73E8"></path> <path d="M16.9532 16.2557C16.7588 15.9524 16.4577 15.7382 16.2065 15.4811C15.8813 15.1503 15.637 14.7407 15.4976 14.3003C15.3823 13.9335 15.3359 13.5411 15.1655 13.1983C14.9522 12.7733 14.5478 12.4511 14.0884 12.3208C13.9232 12.2746 13.7529 12.2557 13.5791 12.2557C13.4053 12.2557 13.235 12.2746 13.0698 12.3208C12.6104 12.4511 12.2061 12.7733 11.9927 13.1983C11.8206 13.5411 11.7759 13.9335 11.6606 14.3003C11.5212 14.7424 11.2769 15.1503 10.9517 15.4811C10.7005 15.7382 10.3994 15.9524 10.205 16.2557C9.98473 16.5968 9.92107 17.0269 9.98817 17.4297C10.0622 17.8616 10.2841 18.2677 10.6179 18.5522C10.95 18.8367 11.3974 18.9909 11.8344 18.9601C12.2043 18.9344 12.5536 18.7836 12.9132 18.6996C13.1317 18.6482 13.3571 18.6242 13.5791 18.6225C13.8011 18.6225 14.0265 18.6482 14.245 18.6996C14.6046 18.7819 14.9539 18.9344 15.3238 18.9601C15.7609 18.9909 16.2065 18.835 16.5403 18.5522C16.8741 18.2677 17.0978 17.8616 17.17 17.4297C17.2372 17.0286 17.1752 16.5968 16.9532 16.2557Z" fill="#1A73E8"></path> <path d="M32.5045 7.19315V10.787H37.5081V23.9678H41.598V10.7887H46.722V7.19486H32.5028L32.5045 7.19315Z" fill="#1A73E8"></path> <path d="M56.7547 11.2188L56.7461 11.2565L55.6982 15.4605C55.521 15.3491 55.2853 15.2583 54.9893 15.1846C54.6916 15.1126 54.3837 15.0783 54.0619 15.0783C53.7075 15.0783 53.3788 15.1366 53.076 15.2565C52.7714 15.3765 52.5151 15.5479 52.3051 15.7707C52.0987 15.9952 51.9335 16.2591 51.8131 16.5625C51.6926 16.8658 51.6324 17.2103 51.6324 17.5942V23.9661H47.761V11.2411H51.4156V11.2531L51.4947 13.1863C51.5911 13.0354 51.6978 12.8915 51.8131 12.7492C52.2553 12.206 52.7714 11.7758 53.3651 11.4553C53.5061 11.3782 53.6524 11.3114 53.7986 11.2531C54.2649 11.068 54.7536 10.9772 55.2663 10.9772C55.5537 10.9772 55.8238 11.0012 56.0699 11.0474C56.3194 11.0971 56.5482 11.152 56.7564 11.2154L56.7547 11.2188Z" fill="#1A73E8"></path> <path d="M66.8135 11.2428V12.7835C66.583 12.4853 66.318 12.2145 66.0186 11.9712C65.6435 11.6695 65.2099 11.4279 64.7195 11.2531C64.7075 11.248 64.6954 11.2445 64.6834 11.2411C64.1775 11.0663 63.62 10.9772 63.0109 10.9772C62.4018 10.9772 61.7876 11.0697 61.2335 11.2531C60.8172 11.3919 60.4231 11.5821 60.0498 11.8272C59.1843 12.3945 58.5029 13.1726 58.0039 14.1631C57.5067 15.1554 57.2589 16.2985 57.2589 17.5924C57.2589 18.8864 57.5084 19.9832 58.0039 20.9806C58.5012 21.9815 59.1705 22.763 60.0136 23.332C60.4317 23.6148 60.8791 23.8255 61.354 23.9644C61.834 24.1083 62.3468 24.1786 62.8888 24.1786C63.4308 24.1786 63.9108 24.1083 64.3806 23.9644C64.4287 23.9489 64.4769 23.9335 64.5251 23.9181C65.0396 23.7433 65.5024 23.5016 65.9205 23.2C66.2268 22.9755 66.5004 22.7253 66.7378 22.4494V23.9661H70.6367V11.2411H66.8084L66.8135 11.2428ZM66.5004 19.3799C66.2612 19.8838 65.924 20.2728 65.4921 20.5419C65.0585 20.8144 64.544 20.9498 63.9504 20.9498C63.3568 20.9498 62.8716 20.8144 62.4466 20.5419C62.0216 20.2711 61.6895 19.8821 61.4486 19.3799C61.206 18.8761 61.0873 18.2814 61.0873 17.5959C61.0873 16.9104 61.2077 16.3105 61.4486 15.8101C61.6895 15.3062 62.0216 14.9172 62.4466 14.6344C62.8716 14.3568 63.374 14.2163 63.9504 14.2163C64.5268 14.2163 65.0568 14.3568 65.4921 14.6344C65.924 14.9155 66.2629 15.3062 66.5004 15.8101C66.7413 16.3122 66.8617 16.9086 66.8617 17.5959C66.8617 18.2831 66.7413 18.8761 66.5004 19.3799Z" fill="#1A73E8"></path> <path d="M81.6606 20.2301C81.363 20.4374 81.0395 20.5934 80.6851 20.6979C80.334 20.8025 79.9486 20.8539 79.5322 20.8539C78.9386 20.8539 78.4087 20.7099 77.9441 20.422C77.4778 20.1358 77.113 19.7434 76.8498 19.2481C76.5848 18.7528 76.4523 18.2009 76.4523 17.5942C76.4523 16.9567 76.5797 16.3877 76.8377 15.8942C77.0941 15.3989 77.4572 15.0115 77.92 14.7305C78.3846 14.4511 78.9214 14.3106 79.5322 14.3106C79.9331 14.3106 80.3168 14.3757 80.6851 14.5008C81.055 14.6294 81.3905 14.8042 81.6951 15.0287C81.9996 15.2532 82.2646 15.4931 82.49 15.7468L84.5823 13.2549C84.0213 12.5368 83.2643 11.9764 82.3093 11.5788C82.003 11.4503 81.6882 11.3423 81.363 11.2566C80.673 11.0715 79.9417 10.9807 79.1675 10.9807C78.4689 10.9807 77.8116 11.0732 77.1956 11.2566C76.7225 11.3989 76.2717 11.5925 75.8484 11.8427C74.8711 12.4186 74.0951 13.2052 73.5256 14.2043C72.956 15.2018 72.6721 16.3329 72.6721 17.596C72.6721 18.859 72.956 19.9901 73.5256 20.9876C74.0951 21.985 74.8694 22.7716 75.8484 23.3475C76.3095 23.62 76.7999 23.8256 77.3212 23.9696C77.9011 24.1307 78.5171 24.2112 79.1692 24.2112C79.8729 24.2112 80.5474 24.1307 81.1944 23.9696C81.5677 23.877 81.9308 23.7571 82.2852 23.6114C83.2557 23.2121 84.0127 22.6688 84.5582 21.9816L82.4883 19.4657C82.2319 19.7691 81.9549 20.0244 81.6589 20.2335L81.6606 20.2301Z" fill="#1A73E8"></path> <path d="M94.5378 11.2429V14.2831H92.0584V23.9661H88.2094V14.2831H85.9468V11.2429H88.2094V8.0329H92.0584V11.2429H94.5378Z" fill="#1A73E8"></path> <path d="M115.941 11.2429L115.934 11.2566L110.333 23.9678H107.301L101.964 11.2566L101.959 11.2429H106.217L106.223 11.2566L108.946 18.7853L111.723 11.2566L111.729 11.2429H115.939H115.941Z" fill="#1A73E8"></path> <path d="M127.887 14.8436C127.596 14.0604 127.178 13.3766 126.633 12.8007C126.087 12.2249 125.444 11.7793 124.695 11.4588C124.518 11.3817 124.336 11.3149 124.148 11.2566C123.553 11.0715 122.913 10.9807 122.228 10.9807C121.543 10.9807 120.851 11.0732 120.228 11.2566C120.02 11.3183 119.817 11.3903 119.618 11.4725C118.823 11.7982 118.138 12.2609 117.56 12.8624C116.983 13.4623 116.534 14.1666 116.214 14.9841C115.894 15.7982 115.731 16.6928 115.731 17.6662C115.731 18.9276 116.02 20.0501 116.596 21.0338C117.173 22.0159 117.985 22.7905 119.024 23.356C119.511 23.6234 120.041 23.8256 120.609 23.9662C121.254 24.1273 121.952 24.2078 122.704 24.2078C123.284 24.2078 123.862 24.1393 124.449 24.0039C124.499 23.9919 124.547 23.9799 124.597 23.9662C125.13 23.8325 125.654 23.6405 126.168 23.392C126.729 23.1195 127.259 22.7682 127.756 22.338L125.951 19.7982C125.452 20.1821 124.993 20.4529 124.568 20.614C124.143 20.7733 123.658 20.8539 123.112 20.8539C122.326 20.8539 121.648 20.7099 121.078 20.4237C120.511 20.1341 120.077 19.7331 119.779 19.2121C119.642 18.9721 119.535 18.7151 119.463 18.434H128.236L128.26 17.4023C128.264 17.3098 128.265 17.2155 128.265 17.1247C128.265 16.3055 128.136 15.5428 127.877 14.8385V14.8453L127.887 14.8436ZM124.709 16.2763H119.461C119.516 16.0467 119.588 15.8342 119.683 15.6405C119.905 15.1692 120.237 14.811 120.681 14.5625C121.121 14.314 121.655 14.1906 122.279 14.1906C122.728 14.1906 123.129 14.2798 123.482 14.4563C123.837 14.6311 124.12 14.8744 124.337 15.1864C124.554 15.4983 124.678 15.853 124.711 16.2523V16.278L124.709 16.2763Z" fill="#1A73E8"></path> <path d="M96.4684 11.2429V23.9678H100.319V11.2429H96.4684Z" fill="#1A73E8"></path> <path d="M98.3937 9.03722C99.6618 9.03722 100.691 8.01236 100.691 6.74929C100.691 5.48622 99.6618 4.46136 98.3937 4.46136C97.1256 4.46136 96.0967 5.48622 96.0967 6.74929C96.0967 8.01236 97.1256 9.03722 98.3937 9.03722Z" fill="#1A73E8"></path> </svg>