<svg width="85" height="76" viewBox="0 0 85 76" fill="none" xmlns="http://www.w3.org/2000/svg">
<path d="M14.8246 58.3192C14.6274 58.3192 14.4959 58.2535 14.3645 58.122C8.9745 52.6006 6.0166 45.6331 6.0166 38.4684C6.0166 34.9189 6.67391 31.5009 8.05427 28.2144C8.18573 27.8857 8.58012 27.6885 8.90877 27.8857C9.23743 27.9514 9.43462 28.3458 9.30316 28.6745C7.98854 31.8296 7.33123 35.1161 7.33123 38.4684C7.33123 45.3045 10.1577 51.9433 15.2847 57.2018C15.5476 57.4647 15.5476 57.8591 15.2847 58.122C15.1532 58.2535 14.956 58.3192 14.8246 58.3192Z" fill="#985BEF" stroke="#985BEF" stroke-width="2"/>
<path d="M32.0417 67.3635H31.976C27.5062 66.7062 23.2337 65.3259 19.3556 63.2882C19.0269 63.091 18.8955 62.6966 19.0927 62.368C19.2898 62.0393 19.6842 61.9079 20.0129 62.1051C23.7596 64.077 27.8349 65.4573 32.1732 66.0489C32.5018 66.1147 32.7647 66.4433 32.699 66.772C32.6333 67.1006 32.3046 67.3635 32.0417 67.3635Z" fill="#985BEF" stroke="#985BEF" stroke-width="2"/>
<path d="M46.0473 68.5733C45.7186 68.5733 45.4557 68.3104 45.3899 67.9817C45.3242 67.6531 45.5871 67.3244 45.9815 67.2587C49.3338 66.8643 52.5546 66.0098 55.5783 64.7609C55.9069 64.6294 56.3013 64.7609 56.4328 65.1553C56.5642 65.5497 56.4328 65.8783 56.0384 66.0098C52.8833 67.2587 49.531 68.1132 46.0473 68.5733Z" fill="#985BEF" stroke="#985BEF" stroke-width="2"/>
<path d="M71.1258 57.6374C70.9944 57.6374 70.7972 57.5716 70.6657 57.5059C70.4028 57.243 70.3371 56.8486 70.6 56.5857C73.032 53.825 74.8725 50.7356 75.99 47.449C76.1214 47.1204 76.5158 46.9232 76.8445 47.0547C77.1731 47.1861 77.3703 47.5805 77.2388 47.9092C76.0557 51.3929 74.1495 54.6137 71.586 57.5059C71.5202 57.5716 71.323 57.6374 71.1258 57.6374Z" fill="#985BEF" stroke="#985BEF" stroke-width="2"/>
<path d="M75.6538 31.9467C75.274 31.9467 74.9701 31.6429 74.8941 31.263C74.5142 27.7682 73.4506 24.3494 71.8551 21.1585C71.6272 20.7786 71.7792 20.3227 72.159 20.1708C72.5389 19.9429 72.9947 20.0948 73.1467 20.4747C74.8941 23.8175 75.9577 27.4643 76.3376 31.111C76.4136 31.4909 76.1097 31.8708 75.6538 31.9467Z" fill="#985BEF" stroke="#985BEF" stroke-width="2"/>
<path d="M70.8274 16.5142C70.433 16.5142 70.1701 16.2513 70.1701 15.8569V2.64494L53.8688 9.80963C53.5401 9.9411 53.1457 9.80963 53.0142 9.48098C52.8828 9.15232 53.0142 8.75794 53.3429 8.62647L70.5645 1.06739C70.7617 1.00166 71.0246 1.00166 71.156 1.13312C71.3532 1.26458 71.4847 1.46177 71.4847 1.65897V15.8569C71.4847 16.2513 71.156 16.5142 70.8274 16.5142Z" fill="#985BEF" stroke="#985BEF" stroke-width="2"/>
<path d="M11.2745 18.4921C10.8801 18.4921 10.6172 18.2292 10.6172 17.8348V1.6649C10.6172 1.46771 10.7486 1.20478 10.9458 1.13905C11.0773 1.00759 11.3402 0.941859 11.5374 1.07332L30.4023 9.28972C33.6888 8.43521 37.1068 7.97509 40.6563 7.97509C41.2479 7.97509 41.9052 7.97509 42.4968 8.04083C42.8912 8.04083 43.1541 8.36948 43.1541 8.69814C43.1541 9.09252 42.8255 9.35545 42.4968 9.35545C41.9052 9.35545 41.3136 9.28972 40.7221 9.28972C37.2383 9.28972 33.886 9.74984 30.5995 10.6043C30.468 10.6701 30.2708 10.6043 30.1393 10.6043L11.9318 2.65087V17.8348C11.9318 18.2292 11.6032 18.4921 11.2745 18.4921Z" fill="#985BEF" stroke="#985BEF" stroke-width="2"/>
<path d="M40.46 52.6006C40.0656 52.6006 39.8027 52.3377 39.8027 51.9433V48.6568L34.4127 43.2668C34.2156 43.0696 34.1498 42.8067 34.2813 42.5438C34.4127 42.2808 34.6099 42.1494 34.8729 42.1494H40.46C40.8544 42.1494 41.1173 42.4123 41.1173 42.8067V48.1966C41.1173 48.3281 41.1173 48.3938 41.1173 48.5253V51.8776C41.1173 52.3377 40.8544 52.6006 40.46 52.6006ZM36.5161 43.5297L39.8027 46.8163V43.5297H36.5161Z" fill="#985BEF" stroke="#985BEF" stroke-width="2"/>
<path d="M40.4591 52.6006C40.0647 52.6006 39.8018 52.3377 39.8018 51.9433V42.8724C39.8018 42.478 40.0647 42.2151 40.4591 42.2151H46.0462C46.3091 42.2151 46.5721 42.3466 46.6378 42.6095C46.7693 42.8724 46.7035 43.1353 46.5063 43.3325L41.1164 48.7225V51.9433C41.1164 52.3377 40.8535 52.6006 40.4591 52.6006ZM41.1164 43.5297V46.882L44.4029 43.5297H41.1164Z" fill="#985BEF" stroke="#985BEF" stroke-width="2"/>
<path d="M53.2767 30.5807C50.1216 30.5807 47.0322 28.7402 45.5204 25.7823C45.3232 25.4536 45.4547 25.0593 45.7833 24.8621C46.112 24.6649 46.5064 24.7963 46.7035 25.125C48.0839 27.9514 51.0418 29.529 53.9997 29.2661C57.8121 28.8717 59.6526 25.3879 59.7183 25.1907C59.9155 24.8621 60.3099 24.7306 60.5728 24.9278C60.9015 25.125 61.0329 25.5194 60.8357 25.7823C60.6386 26.2424 58.5352 30.0548 54.0654 30.5149C53.8025 30.5807 53.5396 30.5807 53.2767 30.5807Z" fill="#985BEF" stroke="#985BEF" stroke-width="2"/>
<path d="M27.9049 30.5807C24.7498 30.5807 21.6604 28.7402 20.0829 25.7823C19.8857 25.4536 20.0172 25.0593 20.3458 24.8621C20.6745 24.6649 21.0689 24.7963 21.266 25.125C22.7121 27.8857 25.67 29.4633 28.6279 29.2003C32.4403 28.8059 34.2808 25.3222 34.3465 25.125C34.5437 24.7963 34.9381 24.6649 35.2011 24.8621C35.5297 25.0593 35.6612 25.4536 35.464 25.7166C35.2668 26.1767 33.1634 29.9891 28.6937 30.4492C28.4307 30.5807 28.1678 30.5807 27.9049 30.5807Z" fill="#985BEF" stroke="#985BEF" stroke-width="2"/>
<path d="M25.1945 40.0964C25.1288 40.0964 24.9973 40.0964 24.9316 40.0306L15.5978 35.7581C15.2691 35.6266 15.1377 35.2322 15.2691 34.9036C15.4006 34.5749 15.795 34.4435 16.1236 34.5749L25.4575 38.8475C25.7861 38.9789 25.9176 39.3733 25.7861 39.702C25.7204 39.9649 25.4575 40.0964 25.1945 40.0964Z" fill="#985BEF" stroke="#985BEF" stroke-width="2"/>
<path d="M16.0072 53.8999C15.7443 53.8999 15.5471 53.7684 15.4156 53.5055C15.2841 53.1769 15.4156 52.7825 15.7443 52.651L25.0781 48.3785C25.4067 48.247 25.8011 48.3785 25.9326 48.7071C26.0641 49.0358 25.9326 49.4302 25.6039 49.5616L16.2701 53.8342C16.2044 53.8999 16.0729 53.8999 16.0072 53.8999Z" fill="#985BEF" stroke="#985BEF" stroke-width="2"/>
<path d="M25.276 45.5674H16.0079C15.6135 45.5674 15.3506 45.3045 15.3506 44.9101C15.3506 44.5157 15.6135 44.2528 16.0079 44.2528H25.3417C25.7361 44.2528 25.999 44.5157 25.999 44.9101C25.999 45.3045 25.6704 45.5674 25.276 45.5674Z" fill="#985BEF" stroke="#985BEF" stroke-width="2"/>
<path d="M66.6867 54.5572C66.621 54.5572 66.4895 54.5572 66.4238 54.4915L57.09 50.219C56.7613 50.0875 56.6299 49.6931 56.7613 49.3644C56.8928 49.0358 57.2872 48.9043 57.6158 49.0358L66.9496 53.3083C67.2783 53.4398 67.4098 53.8342 67.2783 54.1628C67.1468 54.4258 66.9497 54.5572 66.6867 54.5572Z" fill="#985BEF" stroke="#985BEF" stroke-width="2"/>
<path d="M57.3724 40.0964C57.1095 40.0964 56.9123 39.9649 56.7808 39.702C56.6494 39.3733 56.7808 38.9789 57.1095 38.8475L66.4433 34.5749C66.772 34.4435 67.1664 34.5749 67.2978 34.9036C67.4293 35.2322 67.2978 35.6266 66.9692 35.7581L57.6354 40.0306C57.5696 40.0964 57.5039 40.0964 57.3724 40.0964Z" fill="#985BEF" stroke="#985BEF" stroke-width="2"/>
<path d="M66.6865 45.5674H57.3526C56.9582 45.5674 56.6953 45.3045 56.6953 44.9101C56.6953 44.5157 56.9582 44.2528 57.3526 44.2528H66.6865C67.0808 44.2528 67.3438 44.5157 67.3438 44.9101C67.3438 45.3045 67.0808 45.5674 66.6865 45.5674Z" fill="#985BEF" stroke="#985BEF" stroke-width="2"/>
<path d="M16.5997 21.5755C16.2053 21.5755 15.9424 21.3126 15.9424 20.9182V8.95513C15.9424 8.75793 16.0738 8.49501 16.271 8.42928C16.4682 8.29781 16.6654 8.29781 16.9284 8.36355L26.6566 12.7018C26.9852 12.8333 27.1167 13.2277 26.9852 13.5563C26.8538 13.885 26.4594 14.0164 26.1307 13.885L17.3227 10.0068V20.9839C17.257 21.3126 16.9284 21.5755 16.5997 21.5755Z" fill="#985BEF" stroke="#985BEF" stroke-width="2"/>
<path d="M66.292 21.5755C65.8977 21.5755 65.6347 21.3126 65.6347 20.9182V9.94109L56.8268 13.8192C56.4981 13.9507 56.1037 13.8192 55.9723 13.4906C55.8408 13.1619 55.9723 12.7675 56.3009 12.6361L66.0291 8.29781C66.2263 8.23208 66.4892 8.23208 66.6864 8.36355C66.8836 8.49501 67.0151 8.6922 67.0151 8.88939V20.9182C66.9494 21.3126 66.6864 21.5755 66.292 21.5755Z" fill="#985BEF" stroke="#985BEF" stroke-width="2"/>
<path d="M47.9528 57.6619C47.6899 57.6619 47.427 57.5305 47.3613 57.2675C46.2438 54.5726 43.6803 52.7321 40.7881 52.6663C37.7645 52.5349 34.9381 54.4411 33.7549 57.2675C33.6235 57.5962 33.2291 57.7934 32.9004 57.6619C32.5718 57.5305 32.3746 57.1361 32.506 56.8074C33.8864 53.4551 37.1729 51.286 40.7881 51.3517C44.2062 51.4832 47.2298 53.5866 48.5444 56.8074C48.6759 57.1361 48.5444 57.5305 48.15 57.6619C48.0843 57.6619 48.0186 57.6619 47.9528 57.6619Z" fill="#985BEF" stroke="#985BEF" stroke-width="2"/>
<path d="M48.5123 14.0321C45.0286 14.0321 42.1364 11.2714 42.0049 7.78766C41.9392 6.07865 42.5308 4.36963 43.7139 3.12074C44.8971 1.80612 46.4747 1.08307 48.2494 1.01734C49.9584 0.951612 51.6674 1.54319 52.9163 2.72635C54.2309 3.90951 54.954 5.48706 55.0197 7.2618C55.0854 8.97081 54.4939 10.6798 53.3107 11.9287C52.1275 13.2433 50.55 13.9664 48.7752 14.0321C48.7095 14.0321 48.6438 14.0321 48.5123 14.0321ZM48.5781 2.26624C48.5123 2.26624 48.4466 2.26624 48.3809 2.26624C47.0005 2.33197 45.6859 2.92355 44.7656 3.97525C43.8454 5.02694 43.3196 6.34157 43.3853 7.72192C43.5168 10.6141 45.9488 12.849 48.841 12.7175C50.2213 12.6518 51.536 12.0602 52.4562 11.0085C53.3764 9.95678 53.9023 8.64216 53.8365 7.2618C53.7708 5.88145 53.1792 4.56683 52.1275 3.64659C51.0758 2.79209 49.8269 2.26624 48.5781 2.26624Z" fill="#985BEF" stroke="#985BEF" stroke-width="2"/>
<path d="M7.51232 28.0321C4.02857 28.0321 1.1364 25.2714 1.00494 21.7877C0.939207 20.0786 1.53079 18.3696 2.71395 17.1207C3.89711 15.8061 5.47466 15.0831 7.2494 15.0173C8.95841 14.9516 10.6674 15.5432 11.9163 16.7264C13.2309 17.9095 13.954 19.4871 14.0197 21.2618C14.0854 22.9708 13.4939 24.6798 12.3107 25.9287C11.1275 27.2433 9.54999 27.9664 7.77525 28.0321C7.70952 28.0321 7.64379 28.0321 7.51232 28.0321ZM7.57805 16.2662C7.51232 16.2662 7.44659 16.2662 7.38086 16.2662C6.0005 16.332 4.68588 16.9235 3.76565 17.9752C2.84541 19.0269 2.31956 20.3416 2.38529 21.7219C2.51675 24.6141 4.94881 26.849 7.84098 26.7175C9.22133 26.6518 10.536 26.0602 11.4562 25.0085C12.3764 23.9568 12.9023 22.6422 12.8365 21.2618C12.7708 19.8814 12.1792 18.5668 11.1275 17.6466C10.0758 16.7921 8.82695 16.2662 7.57805 16.2662Z" fill="#985BEF" stroke="#985BEF" stroke-width="2"/>
<path d="M76.5123 46.0321C73.0286 46.0321 70.1364 43.2714 70.0049 39.7877C69.9392 38.0786 70.5308 36.3696 71.7139 35.1207C72.8971 33.8061 74.4747 33.0831 76.2494 33.0173C77.9584 32.9516 79.6674 33.5432 80.9163 34.7264C82.2309 35.9095 82.954 37.4871 83.0197 39.2618C83.0854 40.9708 82.4939 42.6798 81.3107 43.9287C80.1275 45.2433 78.55 45.9664 76.7752 46.0321C76.7095 46.0321 76.6438 46.0321 76.5123 46.0321ZM76.5781 34.2662C76.5123 34.2662 76.4466 34.2662 76.3809 34.2662C75.0005 34.332 73.6859 34.9235 72.7656 35.9752C71.8454 37.0269 71.3196 38.3416 71.3853 39.7219C71.5168 42.6141 73.9488 44.849 76.841 44.7175C78.2213 44.6518 79.536 44.0602 80.4562 43.0085C81.3764 41.9568 81.9023 40.6422 81.8365 39.2618C81.7708 37.8814 81.1792 36.5668 80.1275 35.6466C79.0758 34.7921 77.8269 34.2662 76.5781 34.2662Z" fill="#985BEF" stroke="#985BEF" stroke-width="2"/>
<path d="M39.5123 74.0321C36.0286 74.0321 33.1364 71.2714 33.0049 67.7877C32.9392 66.0786 33.5308 64.3696 34.7139 63.1207C35.8971 61.8061 37.4747 61.0831 39.2494 61.0173C40.9584 60.9516 42.6674 61.5432 43.9163 62.7264C45.2309 63.9095 45.954 65.4871 46.0197 67.2618C46.0854 68.9708 45.4939 70.6798 44.3107 71.9287C43.1275 73.2433 41.55 73.9664 39.7752 74.0321C39.7095 74.0321 39.6438 74.0321 39.5123 74.0321ZM39.5781 62.2662C39.5123 62.2662 39.4466 62.2662 39.3809 62.2662C38.0005 62.332 36.6859 62.9235 35.7656 63.9752C34.8454 65.0269 34.3196 66.3416 34.3853 67.7219C34.5168 70.6141 36.9488 72.849 39.841 72.7175C41.2213 72.6518 42.536 72.0602 43.4562 71.0085C44.3764 69.9568 44.9023 68.6422 44.8365 67.2618C44.7708 65.8814 44.1792 64.5668 43.1275 63.6466C42.0758 62.7921 40.8269 62.2662 39.5781 62.2662Z" fill="#985BEF" stroke="#985BEF" stroke-width="2"/>
<path d="M64.5123 70.0321C61.0286 70.0321 58.1364 67.2714 58.0049 63.7877C57.9392 62.0786 58.5308 60.3696 59.7139 59.1207C60.8971 57.8061 62.4747 57.0831 64.2494 57.0173C65.9584 56.9516 67.6674 57.5432 68.9163 58.7264C70.2309 59.9095 70.954 61.4871 71.0197 63.2618C71.0854 64.9708 70.4939 66.6798 69.3107 67.9287C68.1275 69.2433 66.55 69.9664 64.7752 70.0321C64.7095 70.0321 64.6438 70.0321 64.5123 70.0321ZM64.5781 58.2662C64.5123 58.2662 64.4466 58.2662 64.3809 58.2662C63.0005 58.332 61.6859 58.9235 60.7656 59.9752C59.8454 61.0269 59.3196 62.3416 59.3853 63.7219C59.5168 66.6141 61.9488 68.849 64.841 68.7175C66.2213 68.6518 67.536 68.0602 68.4562 67.0085C69.3764 65.9568 69.9023 64.6422 69.8365 63.2618C69.7708 61.8814 69.1792 60.5668 68.1275 59.6466C67.0758 58.7921 65.8269 58.2662 64.5781 58.2662Z" fill="#985BEF" stroke="#985BEF" stroke-width="2"/>
</svg>
