<svg width="63" height="56" viewBox="0 0 63 56" fill="none" xmlns="http://www.w3.org/2000/svg">
<path d="M61.3807 54.7543H1.61929C1.24772 54.7543 1 54.5066 1 54.135V1.61929C1 1.24772 1.24772 1 1.61929 1H61.3807C61.7523 1 62 1.24772 62 1.61929V54.135C62 54.4447 61.7523 54.7543 61.3807 54.7543ZM2.23858 53.5157H60.7614V2.23858H2.23858V53.5157Z" fill="#985BEF" stroke="#985BEF" stroke-width="2"/>
<path d="M52.401 12.4568H9.97964C9.60807 12.4568 9.36035 12.2091 9.36035 11.8376C9.36035 11.466 9.60807 11.2183 9.97964 11.2183H52.401C52.7725 11.2183 53.0202 11.466 53.0202 11.8376C53.0202 12.2091 52.7106 12.4568 52.401 12.4568Z" fill="#985BEF" stroke="#985BEF" stroke-width="2"/>
<path d="M52.401 26.886H9.97964C9.60807 26.886 9.36035 26.6383 9.36035 26.2668C9.36035 25.8952 9.60807 25.6475 9.97964 25.6475H52.401C52.7725 25.6475 53.0202 25.8952 53.0202 26.2668C53.0202 26.6383 52.7106 26.886 52.401 26.886Z" fill="#985BEF" stroke="#985BEF" stroke-width="2"/>
<path d="M52.401 41.3157H9.97964C9.60807 41.3157 9.36035 41.068 9.36035 40.6964C9.36035 40.3249 9.60807 40.0771 9.97964 40.0771H52.401C52.7725 40.0771 53.0202 40.3249 53.0202 40.6964C53.0202 41.068 52.7106 41.3157 52.401 41.3157Z" fill="#985BEF" stroke="#985BEF" stroke-width="2"/>
</svg>
