<svg width="108" height="81" viewBox="0 0 108 81" fill="none" xmlns="http://www.w3.org/2000/svg">
<path d="M41.1004 79.9531C40.8004 79.9531 40.6004 79.8531 40.4004 79.6531L15.7004 55.0531C15.5004 54.8531 15.4004 54.6531 15.4004 54.3531C15.4004 54.0531 15.5004 53.8531 15.7004 53.6531L43.9004 25.4531C44.3004 25.0531 44.9004 25.0531 45.3004 25.4531C45.7004 25.8531 45.7004 26.4531 45.3004 26.8531L17.9004 54.2531L41.8004 78.1531C42.2004 78.5531 42.2004 79.1531 41.8004 79.5531C41.6004 79.8531 41.3004 79.9531 41.1004 79.9531Z" fill="#985BEF" stroke="#985BEF" stroke-width="2"/>
<path d="M19.3 72.0531C19 72.0531 18.8 71.9531 18.6 71.7531L1.3 54.4531C1.1 54.2531 1 54.0531 1 53.7531C1 53.4531 1.1 53.2531 1.3 53.0531L21.1 33.2531C21.5 32.8531 22.1 32.8531 22.5 33.2531C22.9 33.6531 22.9 34.2531 22.5 34.6531L3.4 53.7531L20 70.3531C20.4 70.7531 20.4 71.3531 20 71.7531C19.8 71.9531 19.6 72.0531 19.3 72.0531Z" fill="#985BEF" stroke="#985BEF" stroke-width="2"/>
<path d="M48.5001 55.2531C45.3001 55.2531 42.1001 55.1531 38.8001 55.0531C38.2001 55.0531 37.8001 54.5531 37.9001 54.0531C37.9001 53.4531 38.4001 53.0531 38.9001 53.1531C76.2001 55.0531 102.7 46.1531 104.1 36.5531C105.4 27.5531 84.6001 12.1531 48.8001 2.95308C48.3001 2.85308 47.9001 2.25308 48.1001 1.75308C48.2001 1.25308 48.8001 0.853084 49.3001 1.05308C82.8001 9.65308 107.7 25.3531 106.1 36.8531C104.6 47.4531 79.6001 55.2531 48.5001 55.2531Z" fill="#985BEF" stroke="#985BEF" stroke-width="2"/>
</svg>
