<svg width="82" height="86" viewBox="0 0 82 86" fill="none" xmlns="http://www.w3.org/2000/svg">
<path d="M56.7842 69.3242C55.3593 69.3242 54.3302 69.0853 53.9345 69.0057L49.6599 67.8114C49.2641 67.7317 49.0266 67.254 49.1058 66.8559C49.185 66.4578 49.6599 66.2189 50.0557 66.2986L54.3302 67.4929C55.1218 67.6521 59.3172 68.5279 62.9585 65.7412C65.3333 63.9099 66.2832 61.4417 66.5998 60.1678C66.9956 58.8938 67.4705 56.5052 66.5206 53.7185C65.6499 50.9317 63.8292 49.1801 62.8793 48.4635C61.3753 47.2692 59.9505 45.9952 58.6048 44.6417C56.705 42.8104 55.2801 41.218 54.0136 39.7848C51.6389 37.1573 50.0557 35.4057 47.2852 34.2114C45.9395 33.654 44.5146 33.3355 42.9314 33.1763C42.7731 33.1763 42.6148 33.1763 42.3773 33.1763H39.211C38.6569 33.1763 38.1028 33.2559 37.5487 33.3355C36.203 33.654 34.9365 34.1317 33.7491 34.6891C30.8202 36.1223 29.0787 37.8739 26.5457 40.581C26.1499 41.0587 25.6749 41.5365 25.2 42.0142C22.6669 44.6417 19.8964 47.2692 17.0467 49.7374C16.1759 50.454 14.5928 51.9668 13.9595 54.3554C13.2471 56.9829 13.8012 59.2123 14.2761 60.2474C14.3553 60.4066 14.3553 60.4862 14.4345 60.6455C14.8302 61.7602 16.0176 64.4673 18.9465 66.2189C21.8753 67.9706 24.725 67.6521 25.9124 67.4929C26.3082 67.4132 26.7832 67.7317 26.8623 68.1298C26.9415 68.5279 26.6248 69.0057 26.229 69.0853C24.9625 69.3241 21.5587 69.6426 18.2341 67.6521C14.8302 65.6616 13.4846 62.4768 13.0096 61.2824C13.0096 61.2028 12.9304 61.0436 12.9304 60.964C12.4555 59.69 11.7431 57.0625 12.6138 54.0369C13.4054 51.1706 15.226 49.4189 16.2551 48.6227C19.0256 46.1545 21.717 43.6066 24.2501 40.9791C24.725 40.5014 25.2 40.0237 25.5958 39.5459C28.208 36.8388 30.0286 34.8483 33.2741 33.3355C34.5407 32.6986 35.9655 32.2208 37.3904 31.9023C38.0236 31.7431 38.7361 31.6635 39.3693 31.6635H42.5357C42.7731 31.6635 42.9314 31.6635 43.1689 31.6635C44.8312 31.8227 46.4936 32.1412 47.9976 32.7782C51.0848 34.0521 52.9054 36.0426 55.3593 38.7497C56.6258 40.1033 57.9715 41.6957 59.8713 43.527C61.217 44.8009 62.6419 46.0749 63.9876 47.2692C65.0958 48.145 67.1539 50.1355 68.183 53.3204C69.212 56.5052 68.6579 59.3715 68.2621 60.7251C67.8663 62.2379 66.8373 65.0246 64.0667 67.1744C61.4545 68.926 58.7631 69.3242 56.7842 69.3242Z" fill="#985BEF" stroke="#985BEF" stroke-width="2"/>
<path d="M28.8411 27.0454C23.3792 27.0454 18.9463 20.9146 18.9463 13.4303C18.9463 8.17528 21.0836 3.39803 24.4874 1.16865C24.7248 1.00941 25.0415 1.00941 25.279 1.08903C25.5164 1.24827 25.6747 1.48713 25.7539 1.72599C26.1497 5.78666 27.6537 8.17528 28.8411 8.17528C30.0285 8.17528 31.5325 5.78666 31.9283 1.72599C31.9283 1.48713 32.0866 1.16865 32.4032 1.08903C32.6407 0.929786 32.9573 1.00941 33.1948 1.16865C36.5986 3.39803 38.7359 8.2549 38.7359 13.4303C38.7359 20.9146 34.303 27.0454 28.8411 27.0454ZM24.3291 3.31841C21.9543 5.5478 20.5295 9.28998 20.5295 13.4303C20.5295 20.0388 24.2499 25.453 28.8411 25.453C33.4323 25.453 37.1527 20.0388 37.1527 13.4303C37.1527 9.28998 35.6487 5.5478 33.3531 3.31841C32.7198 7.21983 30.9784 9.7677 28.9202 9.7677C26.8621 9.7677 25.0415 7.21983 24.3291 3.31841Z" fill="#985BEF" stroke="#985BEF" stroke-width="2"/>
<path d="M10.6345 41.8549C8.65558 41.8549 6.59746 40.8198 4.93514 38.9886C3.03534 36.9184 1.76881 33.9724 1.2147 30.7876C0.581432 26.7269 1.37302 22.7459 3.27281 20.1184C3.43113 19.8795 3.74776 19.7203 4.0644 19.7999C4.38103 19.8795 4.61851 20.1184 4.69766 20.4369C5.41009 24.3383 7.07241 26.6473 8.25979 26.4881C9.60548 26.4085 10.9512 23.2236 10.7929 18.6852C10.7929 18.3667 10.9512 18.1279 11.1886 17.9686C11.4261 17.8094 11.7428 17.8094 11.9802 17.9686C15.0674 19.7203 17.4422 23.6217 18.0754 28.1601C19.1045 34.9279 16.1756 41.0587 11.5053 41.7753C11.2678 41.8549 10.9512 41.8549 10.6345 41.8549ZM3.66861 22.6663C2.71871 24.816 2.40207 27.6824 2.79787 30.5487C3.27282 33.4947 4.38103 36.1222 6.12251 37.9535C7.70568 39.7051 9.60548 40.5013 11.347 40.2625C15.1466 39.7051 17.5213 34.3705 16.5714 28.4786C16.0965 24.8957 14.5133 21.8701 12.4552 20.1184C12.2969 24.5772 10.7137 27.8416 8.41811 28.0009C6.51831 28.2397 4.69766 26.09 3.66861 22.6663Z" fill="#985BEF" stroke="#985BEF" stroke-width="2"/>
<path d="M69.9243 41.7753C69.4494 41.7753 69.0536 41.6957 68.5787 41.616C63.9875 40.581 61.4544 34.2909 62.9584 27.6028C63.9083 23.3032 66.3622 19.7203 69.2911 18.0483C69.5285 17.889 69.8452 17.889 70.1618 18.1279C70.3993 18.2871 70.5576 18.6056 70.4784 18.9241C69.8452 23.144 70.7951 26.09 72.0616 26.3288C73.3281 26.5677 75.3863 24.3383 76.5736 20.2777C76.6528 19.9592 76.8903 19.7999 77.2069 19.7203C77.5235 19.6407 77.8402 19.7999 77.9985 20.0388C80.0566 22.8255 80.6899 27.0454 79.74 31.3449C79.0275 34.5298 77.5235 37.3961 75.5446 39.307C73.6448 40.8995 71.745 41.7753 69.9243 41.7753ZM68.6578 20.3573C66.6789 22.0293 65.1748 24.7364 64.4624 27.9213C63.1959 33.8132 65.1748 39.2274 68.8953 40.1032C70.6368 40.5013 72.5366 39.7848 74.278 38.1923C76.0987 36.4407 77.4444 33.8928 78.0777 31.0265C78.7901 27.9213 78.5526 24.7364 77.4444 22.4274C75.9404 26.1696 73.7239 28.399 71.6658 27.9213C69.5285 27.3639 68.4203 24.4179 68.6578 20.3573Z" fill="#985BEF" stroke="#985BEF" stroke-width="2"/>
<path d="M52.3518 27.0454C46.8899 27.0454 42.457 20.9146 42.457 13.4303C42.457 8.09566 44.5943 3.39803 48.0773 1.16865C48.3147 1.00941 48.6314 1.00941 48.8689 1.08903C49.1063 1.24827 49.2646 1.48713 49.3438 1.72599C49.6604 5.78666 51.1644 8.17528 52.3518 8.17528C53.5392 8.17528 55.0432 5.78666 55.439 1.72599C55.439 1.48713 55.5973 1.16865 55.9139 1.08903C56.1514 0.929786 56.4681 1.00941 56.7055 1.16865C60.1093 3.39803 62.2466 8.2549 62.2466 13.4303C62.2466 20.9146 57.8137 27.0454 52.3518 27.0454ZM47.919 3.31841C45.5442 5.5478 44.1194 9.28998 44.1194 13.4303C44.1194 20.0388 47.8398 25.453 52.431 25.453C57.0222 25.453 60.7426 20.0388 60.7426 13.4303C60.7426 9.28998 59.2386 5.5478 56.943 3.31841C56.3097 7.21983 54.5683 9.7677 52.5101 9.7677C50.2937 9.7677 48.5522 7.21983 47.919 3.31841Z" fill="#985BEF" stroke="#985BEF" stroke-width="2"/>
<path d="M25.8806 76.2512C25.7223 76.2512 25.6432 76.2512 25.4849 76.1715C25.0891 75.9327 24.9307 75.455 25.1682 75.1365C26.6722 72.2701 28.572 69.8815 30.9468 68.0502C34.8255 65.0246 38.6251 64.308 42.3456 63.5915C45.7494 62.9545 48.9949 62.3971 52.0029 60.0085C54.7734 57.7791 56.8315 54.5147 58.0981 50.1355C58.2564 49.7374 58.6522 49.4986 59.048 49.5782C59.4438 49.7374 59.6812 50.1355 59.6021 50.5336C58.2564 55.2313 56.04 58.8142 52.9528 61.2824C49.6281 63.9099 46.066 64.5469 42.583 65.1839C39.1001 65.8208 35.4588 66.4578 31.8967 69.3242C29.7594 70.9962 27.9388 73.2256 26.5931 75.8531C26.4348 76.0919 26.1973 76.2512 25.8806 76.2512Z" fill="#985BEF" stroke="#985BEF" stroke-width="2"/>
<path d="M39.812 85.0094C39.6537 85.0094 39.4954 84.9298 39.3371 84.8502C38.9413 84.6113 38.8621 84.1336 39.1788 83.7355C40.9203 81.2673 42.0285 78.6398 42.5034 75.9327C43.3742 71.4739 42.2659 67.891 41.2369 64.4673C40.2078 61.1232 39.1788 57.6199 39.9704 53.4C40.6828 49.5782 42.8201 45.9156 46.3822 42.5715C46.6988 42.2531 47.1738 42.2531 47.4904 42.5715C47.807 42.89 47.807 43.3677 47.4904 43.6862C44.2449 46.7914 42.1868 50.1355 41.5535 53.7185C40.8411 57.5403 41.791 60.6455 42.8201 63.9895C43.9283 67.6521 45.0365 71.3943 44.1657 76.2512C43.6116 79.1971 42.4243 81.9839 40.5245 84.6113C40.3662 84.9298 40.1287 85.0094 39.812 85.0094Z" fill="#985BEF" stroke="#985BEF" stroke-width="2"/>
<path d="M53.9026 52.6834C53.7443 52.6834 53.586 52.6834 53.5068 52.6038L43.9287 46.7118C43.5329 46.473 43.4537 45.9952 43.6912 45.5971C43.9287 45.199 44.4036 45.1194 44.7994 45.3583L54.3776 51.1706C54.7734 51.4095 54.8525 51.8872 54.615 52.2853C54.4567 52.5241 54.2193 52.6834 53.9026 52.6834Z" fill="#985BEF" stroke="#985BEF" stroke-width="2"/>
<path d="M49.7862 55.9478C49.6279 55.9478 49.4696 55.9478 49.3904 55.8682L41.4746 51.0114C41.0788 50.7725 40.9996 50.2948 41.2371 49.8967C41.4746 49.4986 41.9495 49.4189 42.3453 49.6578L50.2611 54.5147C50.6569 54.7535 50.7361 55.2313 50.4986 55.6294C50.2611 55.7886 50.0237 55.9478 49.7862 55.9478Z" fill="#985BEF" stroke="#985BEF" stroke-width="2"/>
<path d="M44.641 58.5753C44.4826 58.5753 44.3243 58.5753 44.2452 58.4957L40.0498 55.9478C39.654 55.709 39.5748 55.2313 39.8123 54.8332C40.0498 54.435 40.5247 54.3554 40.9205 54.5943L45.1159 57.1422C45.5117 57.381 45.5908 57.8587 45.3534 58.2568C45.1951 58.4161 44.8784 58.5753 44.641 58.5753Z" fill="#985BEF" stroke="#985BEF" stroke-width="2"/>
<path d="M43.5329 73.3848C43.3746 73.3848 43.2163 73.3848 43.1371 73.3052L38.4668 70.4388C38.071 70.2 37.9918 69.7223 38.2293 69.3242C38.4668 68.926 38.9417 68.8464 39.3375 69.0853L44.0078 71.9516C44.4036 72.1905 44.4828 72.6682 44.2453 73.0663C44.087 73.2256 43.8495 73.3848 43.5329 73.3848Z" fill="#985BEF" stroke="#985BEF" stroke-width="2"/>
<path d="M42.8999 78.799C42.7416 78.799 42.5832 78.799 42.5041 78.7194L34.0341 73.4644C33.6383 73.2256 33.5592 72.7478 33.7967 72.3497C34.0341 71.9516 34.5091 71.872 34.9049 72.1109L43.3748 77.2862C43.7706 77.5251 43.8498 78.0028 43.6123 78.4009C43.3748 78.6398 43.1373 78.799 42.8999 78.799Z" fill="#985BEF" stroke="#985BEF" stroke-width="2"/>
<path d="M40.8411 83.417C40.6828 83.417 40.5244 83.417 40.4453 83.3374L29.5214 76.6493C29.1257 76.4104 29.0465 75.9327 29.284 75.5346C29.5214 75.1365 29.9964 75.0568 30.3922 75.2957L41.316 81.9839C41.7118 82.2227 41.791 82.7004 41.5535 83.0985C41.3952 83.2578 41.0786 83.417 40.8411 83.417Z" fill="#985BEF" stroke="#985BEF" stroke-width="2"/>
</svg>
