<svg width="121" height="102" viewBox="0 0 121 102" fill="none" xmlns="http://www.w3.org/2000/svg">
<path d="M109.734 100.504H91.948C91.2973 100.504 90.8635 100.068 90.8635 99.4145C90.8635 98.7606 91.2973 98.3247 91.948 98.3247H109.734C113.855 98.3247 117.217 94.9463 117.217 90.805V29.7755C117.217 25.6342 113.855 22.2558 109.734 22.2558H10.6092C6.48807 22.2558 3.12606 25.6342 3.12606 29.7755V90.805C3.12606 94.9463 6.48807 98.3247 10.6092 98.3247H57.8942C58.5449 98.3247 58.9787 98.7606 58.9787 99.4145C58.9787 100.068 58.5449 100.504 57.8942 100.504H10.6092C5.2951 100.504 0.957031 96.1451 0.957031 90.805V29.7755C0.957031 24.4354 5.2951 20.0762 10.6092 20.0762H109.734C115.048 20.0762 119.386 24.4354 119.386 29.7755V90.805C119.386 96.1451 115.048 100.504 109.734 100.504Z" fill="black" stroke="black" stroke-width="1.91471"/>
<path d="M60.171 100.504C38.1553 100.504 20.1523 82.4134 20.1523 60.2902C20.1523 38.1671 38.1553 20.0762 60.171 20.0762C82.1867 20.0762 100.19 38.1671 100.19 60.2902C100.19 82.4134 82.1867 100.504 60.171 100.504ZM60.171 22.2558C39.3483 22.2558 22.3214 39.3658 22.3214 60.2902C22.3214 81.2146 39.3483 98.3247 60.171 98.3247C80.9937 98.3247 98.0206 81.2146 98.0206 60.2902C98.0206 39.3658 80.9937 22.2558 60.171 22.2558Z" fill="black" stroke="black" stroke-width="1.91471"/>
<path d="M60.3886 90.1514C44.0124 90.1514 30.6729 76.7467 30.6729 60.2905C30.6729 43.8344 44.0124 30.4297 60.3886 30.4297C76.7648 30.4297 90.1044 43.8344 90.1044 60.2905C90.1044 76.7467 76.8733 90.1514 60.3886 90.1514ZM60.3886 32.5003C45.2054 32.5003 32.8419 44.9242 32.8419 60.1816C32.8419 75.4389 45.2054 87.9718 60.3886 87.9718C75.5718 87.9718 87.9353 75.5479 87.9353 60.2905C87.9353 45.0332 75.6803 32.5003 60.3886 32.5003Z" fill="black" stroke="black" stroke-width="1.91471"/>
<path d="M88.4769 10.0025H32.4074C31.9736 10.0025 31.5397 9.67553 31.4313 9.23961C31.3228 8.80368 31.4313 8.25878 31.7566 8.04081L40.5412 1.17499C40.6497 1.06601 40.975 0.957031 41.1919 0.957031H79.4754C79.6923 0.957031 79.9092 1.06601 80.1261 1.17499L89.1276 8.04081C89.4529 8.36776 89.6698 8.80368 89.4529 9.23961C89.236 9.67553 88.9107 10.0025 88.4769 10.0025ZM35.5525 7.82285H85.2233L79.0416 3.13666H41.5173L35.5525 7.82285Z" fill="black" stroke="black" stroke-width="1.91471"/>
</svg>
