<svg width="75" height="77" viewBox="0 0 75 77" fill="none" xmlns="http://www.w3.org/2000/svg">
<g clip-path="url(#clip0_177_2503)">
<path d="M12.4608 65.1661C12.3041 65.1661 12.1473 65.0862 11.9906 65.0062C4.38871 58.7695 0 49.8941 0 40.6989C0 34.4621 1.95925 28.4652 5.64263 23.188C5.87774 22.8681 6.34796 22.7082 6.73981 23.028C7.05329 23.2679 7.13166 23.7477 6.89655 24.1475C3.44828 29.1049 1.5674 34.8619 1.5674 40.6989C1.5674 49.4143 5.721 57.81 13.0094 63.7269C13.3229 63.9668 13.4013 64.5265 13.1661 64.8463C12.931 65.0862 12.6959 65.1661 12.4608 65.1661Z" fill="#985BEF" stroke="#985BEF"/>
<path d="M64.1854 63.647C63.9503 63.647 63.7935 63.5671 63.6368 63.4071C63.3233 63.0873 63.4017 62.6075 63.7152 62.2877C69.9848 56.4507 73.433 48.7747 73.433 40.6989C73.433 35.0219 71.7089 29.4248 68.339 24.5473C68.2606 24.3874 68.1823 24.2275 68.1823 24.0676V1.99903L49.1384 10.5546C48.9033 10.7145 48.6681 10.7945 48.433 10.7145C41.5365 8.7955 33.7779 8.71554 26.7246 10.6345C26.5678 10.7145 26.3327 10.6345 26.176 10.6345L7.05373 1.99903V23.6678C7.05373 24.1475 6.74025 24.4674 6.27003 24.4674C5.79981 24.4674 5.48633 24.1475 5.48633 23.6678V0.799653C5.48633 0.559778 5.64307 0.239944 5.87818 0.159986C6.11329 6.87339e-05 6.3484 -0.0798897 6.58351 0.0800272L26.6462 9.03538C33.6995 7.11637 41.5365 7.19633 48.5898 9.11533L68.6525 0.0800272C68.8876 6.874e-05 69.2011 6.87339e-05 69.3578 0.159986C69.5929 0.239944 69.7497 0.559778 69.7497 0.799653V23.8277C73.1979 28.945 75.0004 34.782 75.0004 40.6989C75.0004 49.1745 71.3954 57.3303 64.734 63.4871C64.5772 63.567 64.3421 63.647 64.1854 63.647Z" fill="#985BEF" stroke="#985BEF"/>
<path d="M6.27003 24.8671C5.79981 24.8671 5.48633 24.5472 5.48633 24.0675V23.6677C5.48633 23.1879 5.79981 22.8681 6.27003 22.8681C6.74025 22.8681 7.05373 23.1879 7.05373 23.6677V24.0675C7.05373 24.5472 6.74025 24.8671 6.27003 24.8671Z" fill="#985BEF" stroke="#985BEF"/>
<path d="M15.6742 32.3032C15.5175 32.3032 15.4391 32.3032 15.2823 32.2232C14.8905 31.9834 14.7338 31.5036 14.9689 31.1838C15.204 30.704 17.4767 26.4662 22.2573 25.9865C26.019 25.5867 29.7024 27.6656 31.5049 31.1838C31.74 31.5836 31.5833 32.0633 31.1914 32.3032C30.7996 32.5431 30.3294 32.3832 30.0943 31.9834C28.5269 29.0249 25.4704 27.2658 22.3356 27.6656C18.3388 28.1454 16.3795 31.8235 16.3012 31.9834C16.2228 32.1433 15.9877 32.3032 15.6742 32.3032Z" fill="#985BEF" stroke="#985BEF"/>
<path d="M42.6332 32.3032C42.4764 32.3032 42.3981 32.3032 42.2413 32.2232C41.8495 31.9834 41.6927 31.5036 41.9278 31.1838C42.163 30.704 44.4357 26.4662 49.2162 25.9865C52.8996 25.5867 56.6614 27.6656 58.4639 31.1838C58.699 31.5836 58.5423 32.0633 58.1504 32.3032C57.7586 32.5431 57.2884 32.3832 57.0532 31.9834C55.4858 29.0249 52.4294 27.2658 49.2946 27.6656C45.2978 28.1454 43.3385 31.8235 43.2601 31.9834C43.1818 32.1433 42.9467 32.3032 42.6332 32.3032Z" fill="#985BEF" stroke="#985BEF"/>
<path d="M11.2857 22.4683C10.8154 22.4683 10.502 22.1485 10.502 21.6687V8.71545C10.502 8.47557 10.6587 8.15574 10.8938 8.07578C11.1289 7.91586 11.364 7.91586 11.6775 7.99582L21.944 12.6334C22.3358 12.7933 22.4925 13.2731 22.3358 13.6729C22.1791 14.0727 21.7088 14.2326 21.317 14.0727L12.0694 9.91482V21.6687C12.0694 22.1485 11.7559 22.4683 11.2857 22.4683Z" fill="#985BEF" stroke="#985BEF"/>
<path d="M64.1854 22.4683C63.7152 22.4683 63.4017 22.1485 63.4017 21.6687V9.91482L54.1541 14.0727C53.7622 14.2326 53.292 14.0727 53.1353 13.6729C52.9785 13.2731 53.1353 12.7933 53.5271 12.6334L63.8719 7.91586C64.107 7.8359 64.4205 7.83591 64.6556 7.99582C64.8907 8.15574 65.0475 8.39561 65.0475 8.63549V21.6687C64.9691 22.1485 64.6556 22.4683 64.1854 22.4683Z" fill="#985BEF" stroke="#985BEF"/>
<path d="M61.4424 77H16.3013C15.8311 77 15.5176 76.6801 15.5176 76.2004V54.3717C15.5176 53.892 15.8311 53.5721 16.3013 53.5721H61.5207C61.9909 53.5721 62.3044 53.892 62.3044 54.3717V76.2004C62.226 76.6801 61.9126 77 61.4424 77ZM17.085 75.4008H60.737V55.1713H17.085V75.4008Z" fill="#985BEF" stroke="#985BEF"/>
<path d="M33.6994 73.9615H19.436C18.9658 73.9615 18.6523 73.6417 18.6523 73.162V58.6095C18.6523 58.1298 18.9658 57.8099 19.436 57.8099H33.6994C34.1696 57.8099 34.4831 58.1298 34.4831 58.6095V73.162C34.4831 73.5618 34.0912 73.9615 33.6994 73.9615ZM20.2197 72.3624H32.9157V59.4091H20.2197V72.3624Z" fill="#985BEF" stroke="#985BEF"/>
<path d="M56.8183 60.8484H37.9312C37.4609 60.8484 37.1475 60.5285 37.1475 60.0488C37.1475 59.569 37.4609 59.2492 37.9312 59.2492H56.8183C57.2885 59.2492 57.602 59.569 57.602 60.0488C57.602 60.5285 57.2885 60.8484 56.8183 60.8484Z" fill="#985BEF" stroke="#985BEF"/>
<path d="M56.8183 64.6064H37.9312C37.4609 64.6064 37.1475 64.2866 37.1475 63.8068C37.1475 63.3271 37.4609 63.0073 37.9312 63.0073H56.8183C57.2885 63.0073 57.602 63.3271 57.602 63.8068C57.602 64.2866 57.2885 64.6064 56.8183 64.6064Z" fill="#985BEF" stroke="#985BEF"/>
<path d="M56.8183 68.2845H37.9312C37.4609 68.2845 37.1475 67.9647 37.1475 67.4849C37.1475 67.0052 37.4609 66.6854 37.9312 66.6854H56.8183C57.2885 66.6854 57.602 67.0052 57.602 67.4849C57.602 67.9647 57.2885 68.2845 56.8183 68.2845Z" fill="#985BEF" stroke="#985BEF"/>
<path d="M36.9122 53.0125C36.442 53.0125 36.1285 52.6926 36.1285 52.2129V51.6532L30.0156 45.4164C29.7805 45.1765 29.7021 44.8567 29.8589 44.5369C30.0156 44.217 30.2507 44.0571 30.5642 44.0571H36.9122C37.3824 44.0571 37.6959 44.377 37.6959 44.8567V51.1734C37.6959 51.3334 37.6959 51.4133 37.6959 51.5732V52.2129C37.6959 52.6127 37.3824 53.0125 36.9122 53.0125ZM32.4451 45.6563L36.1285 49.4143V45.6563H32.4451Z" fill="#985BEF" stroke="#985BEF"/>
<path d="M36.9126 53.0125C36.4424 53.0125 36.1289 52.6926 36.1289 52.2129V44.8567C36.1289 44.377 36.4424 44.0571 36.9126 44.0571H43.2606C43.574 44.0571 43.8875 44.217 43.9659 44.5369C44.1226 44.8567 44.0443 45.1765 43.8092 45.4164L37.6963 51.7331V52.2129C37.6963 52.6127 37.3828 53.0125 36.9126 53.0125ZM37.6963 45.6563V49.4143L41.3797 45.6563H37.6963Z" fill="#985BEF" stroke="#985BEF"/>
<path d="M19.5926 42.875C19.5143 42.875 19.3575 42.875 19.2792 42.7951L8.62086 37.8376C8.22901 37.6777 8.07227 37.198 8.22901 36.7982C8.38575 36.3984 8.85597 36.2385 9.24782 36.3984L19.9061 41.3558C20.298 41.5157 20.4547 41.9955 20.298 42.3953C20.1412 42.7151 19.8278 42.875 19.5926 42.875Z" fill="#985BEF" stroke="#985BEF"/>
<path d="M8.93434 54.9874C8.62086 54.9874 8.38575 54.8275 8.22901 54.5076C8.07227 54.1078 8.22901 53.6281 8.62086 53.4682L19.2792 48.5107C19.671 48.3508 20.1412 48.5107 20.298 48.9105C20.4547 49.3103 20.298 49.7901 19.9061 49.95L9.24782 54.9074C9.09108 54.9874 9.01271 54.9874 8.93434 54.9874Z" fill="#985BEF" stroke="#985BEF"/>
<path d="M19.5924 46.7757H8.93409C8.46387 46.7757 8.15039 46.4558 8.15039 45.9761C8.15039 45.4963 8.46387 45.1765 8.93409 45.1765H19.5924C20.0626 45.1765 20.3761 45.4963 20.3761 45.9761C20.3761 46.4558 19.9842 46.7757 19.5924 46.7757Z" fill="#985BEF" stroke="#985BEF"/>
<path d="M66.9276 54.9874C66.8492 54.9874 66.6925 54.9874 66.6141 54.9074L55.9558 49.95C55.564 49.7901 55.4072 49.3103 55.564 48.9105C55.7207 48.5107 56.1909 48.3508 56.5828 48.5107L67.2411 53.4682C67.6329 53.6281 67.7897 54.1078 67.6329 54.5076C67.4762 54.8275 67.2411 54.9874 66.9276 54.9874Z" fill="#985BEF" stroke="#985BEF"/>
<path d="M56.2693 42.875C55.9558 42.875 55.7207 42.7151 55.564 42.3953C55.4072 41.9955 55.564 41.5157 55.9558 41.3558L66.6141 36.3984C67.006 36.2385 67.4762 36.3984 67.6329 36.7982C67.7897 37.198 67.6329 37.6777 67.2411 37.8376L56.5828 42.7951C56.5044 42.875 56.3477 42.875 56.2693 42.875Z" fill="#985BEF" stroke="#985BEF"/>
<path d="M66.9283 46.7757H56.27C55.7998 46.7757 55.4863 46.4558 55.4863 45.9761C55.4863 45.4963 55.7998 45.1765 56.27 45.1765H66.9283C67.3986 45.1765 67.712 45.4963 67.712 45.9761C67.712 46.4558 67.3202 46.7757 66.9283 46.7757Z" fill="#985BEF" stroke="#985BEF"/>
<path d="M19.4361 70.9232C19.3577 70.9232 19.2793 70.9232 19.201 70.8432C18.8091 70.6833 18.574 70.2035 18.7307 69.8037L21.7088 61.4081C21.7872 61.0883 22.1006 60.9283 22.4141 60.8484C22.7276 60.8484 23.0411 61.0083 23.1978 61.3281L26.5677 68.2845L29.8593 61.3281C30.016 61.0083 30.2511 60.8484 30.5646 60.8484C30.8781 60.8484 31.1132 61.0883 31.2699 61.3281L34.4831 69.7238C34.6398 70.1236 34.4047 70.6033 34.0129 70.7632C33.621 70.9232 33.1508 70.6833 32.9941 70.2835L30.4079 63.567L27.1947 70.3634C27.0379 70.6033 26.8028 70.8432 26.4894 70.8432C26.1759 70.8432 25.9408 70.6833 25.784 70.3634L22.4925 63.6469L20.1414 70.2835C20.063 70.6833 19.7495 70.9232 19.4361 70.9232Z" fill="#985BEF" stroke="#985BEF"/>
</g>
<defs>
<clipPath id="clip0_177_2503">
<rect width="75" height="77" fill="white"/>
</clipPath>
</defs>
</svg>
