<svg width="81" height="79" viewBox="0 0 81 79" fill="none" xmlns="http://www.w3.org/2000/svg">
<path d="M40.4671 77.0279C18.6944 77.0279 1 61.7452 1 42.9861C1 36.6893 3.03913 30.5237 6.85429 25.1452V1.66354C6.85429 1.46676 6.98585 1.2044 7.18318 1.13881C7.31474 1.00762 7.57785 0.942032 7.77519 1.07321L29.0216 10.3216C32.7052 9.33772 36.5862 8.87858 40.4671 8.87858C44.4796 8.87858 48.4263 9.40331 52.1757 10.3872L73.4879 1.07321C73.6853 1.00762 73.9484 1.00762 74.0799 1.13881C74.2773 1.26999 74.4088 1.46676 74.4088 1.66354V25.5388C78.0266 30.7861 79.9342 36.8205 79.9342 42.9205C80 61.7452 62.3056 77.0279 40.4671 77.0279ZM8.16986 2.64741V25.2764C8.16986 25.4076 8.10408 25.5388 8.0383 25.6699C4.28893 30.8517 2.31557 36.8205 2.31557 42.9205C2.31557 60.9581 19.418 75.6505 40.4671 75.6505C61.5162 75.6505 78.6187 60.9581 78.6187 42.9205C78.6187 36.9517 76.7769 31.1796 73.2248 26.1291C73.159 25.9979 73.0933 25.8667 73.0933 25.7355V2.64741L52.7019 11.5678C52.5046 11.699 52.3072 11.7646 52.0441 11.699C48.4263 10.7151 44.4796 10.1904 40.4671 10.1904C36.5862 10.1904 32.771 10.7151 29.0874 11.699C28.9559 11.7646 28.7585 11.699 28.627 11.699L8.16986 2.64741Z" fill="#985BEF" stroke="#985BEF" stroke-width="2"/>
<path d="M7.51228 26.3911C7.11761 26.3911 6.85449 26.1288 6.85449 25.7354V25.2763C6.85449 24.8829 7.11761 24.6206 7.51228 24.6206C7.90695 24.6206 8.17006 24.8829 8.17006 25.2763V25.7354C8.17006 26.1288 7.84117 26.3911 7.51228 26.3911Z" fill="#985BEF" stroke="#985BEF" stroke-width="2"/>
<path d="M33.0345 65.3527C29.4167 65.3527 26.5225 62.4667 26.5225 58.8592C26.5225 58.4656 26.7856 58.2033 27.1802 58.2033C27.5749 58.2033 27.838 58.4656 27.838 58.8592C27.838 61.7452 30.2061 64.0409 33.0345 64.0409C36.3235 64.0409 39.0204 61.3516 39.0204 58.0721V54.399L32.9688 48.3646C32.7714 48.1678 32.7056 47.9054 32.8372 47.6431C32.9688 47.3807 33.1661 47.2495 33.4292 47.2495H39.6782C40.0728 47.2495 40.3359 47.5119 40.3359 47.9054V54.0054C40.4017 54.1366 40.4017 54.2678 40.3359 54.3334V58.0721C40.3359 62.1387 37.1128 65.3527 33.0345 65.3527ZM35.0079 48.5613L39.0204 52.5624V48.5613H35.0079Z" fill="#985BEF" stroke="#985BEF" stroke-width="2"/>
<path d="M46.3209 65.3527C42.3085 65.3527 39.0195 62.0731 39.0195 58.0721V47.9054C39.0195 47.5119 39.2826 47.2495 39.6773 47.2495H45.9263C46.1894 47.2495 46.4525 47.3807 46.5183 47.6431C46.6498 47.9054 46.5841 48.1678 46.3867 48.3646L42.9005 51.8409L40.3351 54.4646V58.0721C40.3351 61.3516 43.032 64.0409 46.3209 64.0409C49.2152 64.0409 51.5175 61.6796 51.5175 58.8592C51.5175 58.4656 51.7806 58.2033 52.1752 58.2033C52.5699 58.2033 52.833 58.4656 52.833 58.8592C52.833 62.4667 49.9388 65.3527 46.3209 65.3527ZM40.3351 48.5613V52.5624L44.3476 48.5613H40.3351Z" fill="#985BEF" stroke="#985BEF" stroke-width="2"/>
<path d="M17.3791 34.0657C17.2475 34.0657 17.1817 34.0657 17.0502 34.0002C16.7213 33.8034 16.5897 33.4098 16.7871 33.1475C17.0502 32.6883 19.3524 28.3593 24.3516 27.8346C28.2325 27.441 32.1134 29.5399 34.021 33.1475C34.2184 33.4754 34.0868 33.869 33.7579 34.0657C33.429 34.2625 33.0343 34.1313 32.837 33.8034C31.1926 30.7206 27.8378 28.884 24.4831 29.212C20.1418 29.6711 18.0368 33.6066 17.9711 33.8034C17.9053 33.9346 17.6422 34.0657 17.3791 34.0657Z" fill="#985BEF" stroke="#985BEF" stroke-width="2"/>
<path d="M45.9269 34.0657C45.7954 34.0657 45.7296 34.0657 45.598 34.0002C45.2691 33.8034 45.1376 33.4098 45.3349 33.1475C45.598 32.6883 47.9003 28.3593 52.8994 27.8346C56.7804 27.441 60.6613 29.5399 62.5689 33.1475C62.7662 33.4754 62.6347 33.869 62.3058 34.0657C61.9769 34.2625 61.5822 34.1313 61.3849 33.8034C59.7404 30.7206 56.3857 28.884 53.031 29.212C48.6896 29.6711 46.5847 33.6066 46.5189 33.8034C46.4531 33.9346 46.19 34.0657 45.9269 34.0657Z" fill="#985BEF" stroke="#985BEF" stroke-width="2"/>
<path d="M22.6412 46.1029C22.5755 46.1029 22.4439 46.1029 22.3781 46.0373L11.9193 41.2491C11.5905 41.1179 11.4589 40.7244 11.5905 40.3964C11.722 40.0685 12.1167 39.9373 12.4456 40.0685L22.9044 44.8566C23.2332 44.9878 23.3648 45.3814 23.2332 45.7093C23.1017 45.9717 22.8386 46.1029 22.6412 46.1029Z" fill="#985BEF" stroke="#985BEF" stroke-width="2"/>
<path d="M12.117 60.1066C11.8539 60.1066 11.6566 59.9755 11.525 59.7131C11.3935 59.3851 11.525 58.9916 11.8539 58.8604L22.3127 54.0722C22.6416 53.9411 23.0363 54.0722 23.1678 54.4002C23.2994 54.7282 23.1678 55.1217 22.8389 55.2529L12.3801 60.041C12.3144 60.1066 12.2486 60.1066 12.117 60.1066Z" fill="#985BEF" stroke="#985BEF" stroke-width="2"/>
<path d="M22.6413 50.7911H12.1168C11.7221 50.7911 11.459 50.5288 11.459 50.1354C11.459 49.7419 11.7221 49.4796 12.1168 49.4796H22.5756C22.9702 49.4796 23.2333 49.7419 23.2333 50.1354C23.2333 50.5288 22.9702 50.7911 22.6413 50.7911Z" fill="#985BEF" stroke="#985BEF" stroke-width="2"/>
<path d="M69.1461 60.1066C69.0803 60.1066 68.9488 60.1066 68.883 60.041L58.4242 55.2529C58.0953 55.1217 57.9638 54.7282 58.0953 54.4002C58.2269 54.0722 58.6216 53.9411 58.9505 54.0722L69.4092 58.8604C69.7381 58.9916 69.8697 59.3851 69.7381 59.7131C69.6724 59.9755 69.4092 60.1066 69.1461 60.1066Z" fill="#985BEF" stroke="#985BEF" stroke-width="2"/>
<path d="M58.6873 47.1032C58.4242 47.1032 58.2269 46.972 58.0953 46.7097C57.9638 46.3817 58.0953 45.9882 58.4242 45.857L68.883 41.0688C69.2119 40.9376 69.6066 41.0688 69.7381 41.3968C69.8697 41.7247 69.7381 42.1183 69.4092 42.2495L58.9505 47.0376C58.8847 47.1032 58.8189 47.1032 58.6873 47.1032Z" fill="#985BEF" stroke="#985BEF" stroke-width="2"/>
<path d="M69.1468 50.7911H58.6881C58.2934 50.7911 58.0303 50.5288 58.0303 50.1354C58.0303 49.7419 58.2934 49.4796 58.6881 49.4796H69.1468C69.5415 49.4796 69.8046 49.7419 69.8046 50.1354C69.8046 50.5288 69.5415 50.7911 69.1468 50.7911Z" fill="#985BEF" stroke="#985BEF" stroke-width="2"/>
<path d="M12.774 23.8991C12.3793 23.8991 12.1162 23.6367 12.1162 23.2432V9.79698C12.1162 9.60021 12.2478 9.33784 12.4451 9.27225C12.6424 9.14107 12.8398 9.14107 13.1029 9.20666L24.0221 14.0604C24.351 14.1916 24.4826 14.5851 24.351 14.9131C24.2195 15.2411 23.8248 15.3722 23.4959 15.2411L13.4318 10.8464V23.3088C13.4318 23.6367 13.1687 23.8991 12.774 23.8991Z" fill="#985BEF" stroke="#985BEF" stroke-width="2"/>
<path d="M68.7521 23.8989C68.3574 23.8989 68.0943 23.6366 68.0943 23.243V10.8463L58.096 15.3065C57.7671 15.4377 57.3724 15.3065 57.2408 14.9785C57.1093 14.6506 57.2408 14.257 57.5697 14.1258L68.5547 9.27209C68.7521 9.2065 69.0152 9.2065 69.2125 9.33768C69.4099 9.46886 69.5414 9.66564 69.5414 9.86241V23.3086C69.4099 23.6366 69.081 23.8989 68.7521 23.8989Z" fill="#985BEF" stroke="#985BEF" stroke-width="2"/>
</svg>
