<svg width="111" height="86" viewBox="0 0 111 86" fill="none" xmlns="http://www.w3.org/2000/svg">
<path d="M69.2679 85C49.195 85 32.8164 68.5706 32.8164 48.4353C32.8164 28.3 49.195 11.9941 69.2679 11.9941C89.3409 11.9941 105.719 28.4236 105.719 48.5588C105.719 55.353 103.872 61.9 100.301 67.7059L108.921 81.2941C109.168 81.7883 109.168 82.2824 108.798 82.7765C108.429 83.1471 107.936 83.2706 107.444 83.1471L92.1733 76.8471C85.7697 82.1588 77.642 85 69.2679 85ZM69.2679 14.4647C50.5496 14.4647 35.2793 29.7824 35.2793 48.5588C35.2793 67.3353 50.5496 82.5294 69.2679 82.5294C77.2725 82.5294 85.0308 79.6883 91.1881 74.5C91.5576 74.253 92.0502 74.1294 92.4196 74.253L104.734 79.1941L97.8381 68.2C97.5918 67.8294 97.5918 67.2118 97.8381 66.8412C101.409 61.2824 103.257 54.9824 103.257 48.4353C103.133 29.7824 87.9863 14.4647 69.2679 14.4647Z" fill="#985BEF" stroke="#985BEF" stroke-width="2"/>
<path d="M2.27765 65.9765C1.90821 65.9765 1.66192 65.8529 1.41562 65.6059C1.04618 65.2353 0.923033 64.7412 1.04618 64.3706C3.50912 56.3412 7.20354 44.3588 7.44983 43V2.97647C7.44983 1.86471 8.43501 1 9.54333 1H64.9595C66.0679 1 66.9299 1.86471 66.9299 2.97647V7.67059C66.9299 8.41176 66.4373 8.90588 65.6984 8.90588C64.9595 8.90588 64.4669 8.41176 64.4669 7.67059V3.47059H9.91277V43.1235C9.91277 43.3706 9.91277 43.7412 4.12486 63.0118L20.3803 58.3176C20.5034 58.3176 20.6266 58.3176 20.7497 58.3176H30.232C30.9709 58.3176 31.4635 58.8118 31.4635 59.5529C31.4635 60.2941 30.9709 60.7882 30.232 60.7882H20.8729L2.64709 65.9765C2.52395 65.9765 2.4008 65.9765 2.27765 65.9765Z" fill="#985BEF" stroke="#985BEF" stroke-width="2"/>
<path d="M69.5163 55.7239C65.083 55.7239 61.5117 52.1415 61.5117 47.6945C61.5117 43.2474 65.083 39.665 69.5163 39.665C73.9496 39.665 77.5208 43.2474 77.5208 47.6945C77.5208 52.1415 73.9496 55.7239 69.5163 55.7239ZM69.5163 42.2592C66.4376 42.2592 63.9747 44.7297 63.9747 47.818C63.9747 50.9062 66.4376 53.3768 69.5163 53.3768C72.595 53.3768 75.0579 50.9062 75.0579 47.818C75.0579 44.7297 72.595 42.2592 69.5163 42.2592Z" fill="#985BEF" stroke="#985BEF" stroke-width="2"/>
<path d="M49.0729 55.7239C44.6396 55.7239 41.0684 52.1415 41.0684 47.6945C41.0684 43.2474 44.6396 39.665 49.0729 39.665C53.5062 39.665 57.0775 43.2474 57.0775 47.6945C57.0775 52.1415 53.5062 55.7239 49.0729 55.7239ZM49.0729 42.2592C45.9942 42.2592 43.5313 44.7297 43.5313 47.818C43.5313 50.9062 45.9942 53.3768 49.0729 53.3768C52.1516 53.3768 54.6145 50.9062 54.6145 47.818C54.6145 44.7297 52.1516 42.2592 49.0729 42.2592Z" fill="#985BEF" stroke="#985BEF" stroke-width="2"/>
<path d="M89.4655 55.7239C85.0322 55.7239 81.4609 52.1415 81.4609 47.6945C81.4609 43.2474 85.0322 39.665 89.4655 39.665C93.8988 39.665 97.4701 43.2474 97.4701 47.6945C97.4701 52.1415 93.8988 55.7239 89.4655 55.7239ZM89.4655 42.2592C86.3868 42.2592 83.9239 44.7297 83.9239 47.818C83.9239 50.9062 86.3868 53.3768 89.4655 53.3768C92.5442 53.3768 95.0071 50.9062 95.0071 47.818C95.0071 44.7297 92.5442 42.2592 89.4655 42.2592Z" fill="#985BEF" stroke="#985BEF" stroke-width="2"/>
</svg>
