<svg width="116" height="62" viewBox="0 0 116 62" fill="none" xmlns="http://www.w3.org/2000/svg">
<path d="M56.3664 55.3672C49.8829 55.3672 43.3129 55.0214 36.8294 54.3298C36.0513 54.2434 35.2733 53.8111 34.8411 53.206C34.4088 52.6873 34.2359 51.9957 34.3224 51.3042L35.8784 38.1642C36.0513 36.6946 37.348 35.6572 38.9041 35.8301C48.8455 36.6081 58.0954 36.781 68.0368 36.3488C69.5064 36.2623 70.8031 37.3861 70.8896 38.7693L71.927 51.9957C72.0134 52.6873 71.7541 53.3789 71.3218 53.8976C70.8031 54.5027 70.1116 54.8485 69.2471 54.9349C65.0112 55.1943 60.6888 55.3672 56.3664 55.3672ZM38.6448 37.559C38.1261 37.559 37.6938 37.9048 37.6938 38.4235L36.1378 51.4771C36.1378 51.7364 36.2242 51.9957 36.3107 52.0822C36.4836 52.3415 36.8294 52.5144 37.1752 52.5144C47.8082 53.6382 58.6141 53.8976 69.2471 53.1196C69.5929 53.1196 69.8522 52.9467 70.1116 52.6873C70.198 52.6009 70.3709 52.3415 70.2845 52.0822L69.1606 38.9422C69.0742 38.4235 68.642 37.9913 68.1233 38.0777C58.0954 38.51 48.7591 38.3371 38.7312 37.559C38.6448 37.559 38.6448 37.559 38.6448 37.559Z" fill="#985BEF" stroke="#985BEF" stroke-width="2"/>
<path d="M79.0316 49.8263C78.5129 49.8263 77.9078 49.6534 77.4756 49.3076C77.0433 48.9618 76.6975 48.4431 76.6975 47.838L76.0059 41.5273C75.9195 40.3171 76.784 39.1933 78.0807 39.0204C79.2909 38.8475 80.5012 39.7984 80.5877 41.0086L81.3657 47.3193C81.4521 47.9244 81.2792 48.4431 80.9334 48.9618C80.5012 49.4805 79.9825 49.7398 79.2909 49.8263C79.2045 49.8263 79.118 49.8263 79.0316 49.8263ZM78.34 40.7493C77.9942 40.7493 77.7349 41.0951 77.7349 41.3544L78.4265 47.6651C78.4265 47.838 78.5129 47.9244 78.5994 48.0109C78.7723 48.0973 78.9452 48.1838 79.1181 48.1838C79.2909 48.1838 79.4638 48.0973 79.5503 47.9244C79.6367 47.838 79.6367 47.7515 79.6367 47.5786L78.9452 41.1815C78.8587 40.9222 78.5994 40.7493 78.34 40.7493Z" fill="#985BEF" stroke="#985BEF" stroke-width="2"/>
<path d="M57.9 33.4C29.9 33.4 1 27.3 1 17.2C1 7.1 29.9 1 57.9 1C85.9 1 114.8 7.1 114.8 17.2C114.8 27.3 85.8 33.4 57.9 33.4ZM57.9 3C25 3 3 10.3 3 17.2C3 24.1 25 31.4 57.9 31.4C90.8 31.4 112.8 24.1 112.8 17.2C112.8 10.3 90.7 3 57.9 3Z" fill="#985BEF" stroke="#985BEF" stroke-width="2"/>
<path d="M57.9 60.1999C29.9 60.1999 1 54.1999 1 43.9999C1 43.4999 1.1 42.9999 1.2 42.4999C1.4 41.9999 1.9 41.6999 2.4 41.7999C3 41.9999 3.3 42.4999 3.1 43.0999C3 43.3999 3 43.6999 3 43.9999C3 50.8999 25 58.1999 57.9 58.1999C90.8 58.1999 112.8 50.8999 112.8 43.9999C112.8 43.6999 112.8 43.3999 112.7 43.0999C112.5 42.5999 112.9 41.9999 113.4 41.8999C113.9 41.6999 114.5 42.0999 114.6 42.5999C114.7 43.0999 114.8 43.5999 114.8 44.0999C114.7 54.1999 85.8 60.1999 57.9 60.1999Z" fill="#985BEF" stroke="#985BEF" stroke-width="2"/>
<path d="M2 45C1.4 45 1 44.5 1 44L1.3 18.8C1.3 18.2 1.7 17.8 2.3 17.8C2.9 17.8 3.3 18.3 3.3 18.8L3 44C3 44.6 2.5 45 2 45Z" fill="#985BEF" stroke="#985BEF" stroke-width="2"/>
<path d="M113.7 45C113.1 45 112.7 44.6 112.7 44V17.2C112.7 16.6 113.1 16.2 113.7 16.2C114.3 16.2 114.7 16.6 114.7 17.2V44C114.7 44.6 114.3 45 113.7 45Z" fill="#985BEF" stroke="#985BEF" stroke-width="2"/>
<path d="M25.5996 57.4001C24.9996 57.4001 24.5996 57.0001 24.5996 56.4001V29.6001C24.5996 29.0001 24.9996 28.6001 25.5996 28.6001C26.1996 28.6001 26.5996 29.0001 26.5996 29.6001V56.4001C26.5996 57.0001 26.0996 57.4001 25.5996 57.4001Z" fill="#985BEF" stroke="#985BEF" stroke-width="2"/>
<path d="M88.2002 57.4C87.6002 57.4 87.2002 57 87.2002 56.4V30C87.2002 29.4 87.6002 29 88.2002 29C88.8002 29 89.2002 29.4 89.2002 30V56.5C89.2002 57 88.8002 57.4 88.2002 57.4Z" fill="#985BEF" stroke="#985BEF" stroke-width="2"/>
<path d="M98.5002 28.6001C98.4002 28.6001 98.3002 28.6001 98.2002 28.6001C84.4002 24.4001 70.1002 22.3001 55.7002 22.5001C42.1002 22.6001 29.0002 24.6001 16.7002 28.4001C16.2002 28.6001 15.6002 28.3001 15.5002 27.7001C15.3002 27.2001 15.6002 26.6001 16.2002 26.5001C28.7002 22.7001 42.0002 20.7001 55.8002 20.5001C70.4002 20.3001 84.9002 22.4001 98.9002 26.7001C99.4002 26.9001 99.7002 27.4001 99.6002 27.9001C99.4002 28.3001 99.0002 28.6001 98.5002 28.6001Z" fill="#985BEF" stroke="#985BEF" stroke-width="2"/>
</svg>
