<?xml version="1.0" encoding="utf-8"?>
<!-- Generator: Adobe Illustrator 24.2.1, SVG Export Plug-In . SVG Version: 6.00 Build 0)  -->
<svg version="1.1" id="Layer_1" xmlns="http://www.w3.org/2000/svg" xmlns:xlink="http://www.w3.org/1999/xlink" x="0px" y="0px"
	 viewBox="0 0 92 84" style="enable-background:new 0 0 92 84;" xml:space="preserve">
<style type="text/css">
	.st0{fill:#985BEF;stroke:#985BEF;stroke-width:2.042;}
	.st1{fill:#985BEF;stroke:#985BEF;stroke-width:1.5839;}
</style>
<path class="st0" d="M45.3,75.1c-5,0-10.1-0.5-15-1.4c-0.6-0.1-1.2-0.7-1.5-1.5c-0.3-0.7-0.5-1.6-0.4-2.6l1.2-17.8
	c0.1-2,1.1-3.4,2.3-3.2c7.7,1.1,14.8,1.3,22.4,0.7c1.1-0.1,2.1,1.4,2.2,3.3l0.8,17.9c0.1,0.9-0.1,1.9-0.5,2.6
	c-0.4,0.8-0.9,1.3-1.6,1.4C52,74.9,48.6,75.1,45.3,75.1z M31.7,51c-0.4,0-0.7,0.5-0.7,1.2l-1.2,17.7c0,0.4,0.1,0.7,0.1,0.8
	c0.1,0.4,0.4,0.6,0.7,0.6c8.2,1.5,16.5,1.9,24.7,0.8c0.3,0,0.5-0.2,0.7-0.6c0.1-0.1,0.2-0.5,0.1-0.8l-0.9-17.8
	c-0.1-0.7-0.4-1.3-0.8-1.2C46.7,52.3,39.5,52.1,31.7,51C31.7,51,31.7,51,31.7,51z"/>
<path class="st0" d="M62.8,67.6c-0.4,0-0.9-0.2-1.2-0.7c-0.3-0.5-0.6-1.2-0.6-2l-0.5-8.5C60.4,54.8,61,53.2,62,53
	c0.9-0.2,1.9,1.1,1.9,2.7l0.6,8.5c0.1,0.8-0.1,1.5-0.3,2.2c-0.3,0.7-0.7,1.1-1.3,1.2C62.9,67.6,62.8,67.6,62.8,67.6z M62.2,55.3
	c-0.3,0-0.5,0.5-0.5,0.8l0.5,8.5c0,0.2,0.1,0.4,0.1,0.5c0.1,0.1,0.3,0.2,0.4,0.2c0.1,0,0.3-0.1,0.3-0.4c0.1-0.1,0.1-0.2,0.1-0.5
	l-0.5-8.7C62.6,55.6,62.4,55.3,62.2,55.3z"/>
<path class="st0" d="M46.5,45.4c-21.6,0-43.8-8.3-43.8-21.9S24.9,1.5,46.5,1.5s43.8,8.3,43.8,21.9S68,45.4,46.5,45.4z M46.5,4.2
	c-25.3,0-42.3,9.9-42.3,19.2s16.9,19.2,42.3,19.2s42.3-9.9,42.3-19.2S71.8,4.2,46.5,4.2z"/>
<path class="st0" d="M46.5,81.7c-21.6,0-43.8-8.1-43.8-21.9c0-0.7,0.1-1.4,0.2-2C3,57,3.4,56.6,3.8,56.8c0.5,0.3,0.7,0.9,0.5,1.8
	c-0.1,0.4-0.1,0.8-0.1,1.2C4.2,69.1,21.2,79,46.5,79s42.3-9.9,42.3-19.2c0-0.4,0-0.8-0.1-1.2c-0.2-0.7,0.2-1.5,0.5-1.6
	c0.4-0.3,0.8,0.3,0.9,0.9c0.1,0.7,0.2,1.4,0.2,2C90.2,73.5,68,81.7,46.5,81.7z"/>
<path class="st1" d="M1.8,53C1.3,53,1,52.6,1,52.2l0.2-20c0-0.5,0.3-0.8,0.8-0.8s0.8,0.4,0.8,0.8l-0.2,20C2.6,52.7,2.2,53,1.8,53z"
	/>
<path class="st0" d="M89.5,61.1c-0.5,0-0.8-0.5-0.8-1.4V23.5c0-0.8,0.3-1.4,0.8-1.4s0.8,0.5,0.8,1.4v36.3
	C90.2,60.5,89.9,61.1,89.5,61.1z"/>
<path class="st0" d="M21.6,77.9c-0.5,0-0.8-0.5-0.8-1.4V40.2c0-0.8,0.3-1.4,0.8-1.4c0.5,0,0.8,0.5,0.8,1.4v36.3
	C22.4,77.3,22,77.9,21.6,77.9z"/>
<path class="st0" d="M69.8,77.9c-0.5,0-0.8-0.5-0.8-1.4V40.8c0-0.8,0.3-1.4,0.8-1.4c0.5,0,0.8,0.5,0.8,1.4v35.9
	C70.6,77.3,70.3,77.9,69.8,77.9z"/>
<path class="st0" d="M77.8,38.9c-0.1,0-0.2,0-0.2,0c-10.6-5.7-21.6-8.5-32.7-8.3c-10.5,0.1-20.6,2.8-30,8c-0.4,0.3-0.8-0.1-0.9-0.9
	c-0.2-0.7,0.1-1.5,0.5-1.6c9.6-5.1,19.9-7.9,30.5-8.1c11.2-0.3,22.4,2.6,33.2,8.4c0.4,0.3,0.6,0.9,0.5,1.6
	C78.5,38.5,78.2,38.9,77.8,38.9z"/>
</svg>
