<?xml version="1.0" encoding="utf-8"?>
<!-- Generator: Adobe Illustrator 24.2.1, SVG Export Plug-In . SVG Version: 6.00 Build 0)  -->
<svg version="1.1" id="Layer_1" xmlns="http://www.w3.org/2000/svg" xmlns:xlink="http://www.w3.org/1999/xlink" x="0px" y="0px"
	 viewBox="0 0 92 84" style="enable-background:new 0 0 92 84;" xml:space="preserve">
<style type="text/css">
	.st0{fill:#985BEF;stroke:#985BEF;stroke-width:3.9686;}
</style>
<path class="st0" d="M45.33,63.13c-4.9,0-9.86-0.3-14.76-0.9c-0.59-0.08-1.18-0.45-1.5-0.98c-0.33-0.45-0.46-1.05-0.39-1.65
	l1.18-11.42c0.13-1.28,1.11-2.18,2.29-2.03c7.51,0.68,14.5,0.83,22.01,0.45c1.11-0.08,2.09,0.9,2.16,2.1l0.78,11.5
	c0.07,0.6-0.13,1.2-0.46,1.65c-0.39,0.53-0.91,0.83-1.57,0.9C51.86,62.98,48.59,63.13,45.33,63.13z M31.94,47.65
	c-0.39,0-0.72,0.3-0.72,0.75l-1.18,11.35c0,0.23,0.07,0.45,0.13,0.53c0.13,0.23,0.39,0.38,0.65,0.38c8.03,0.98,16.2,1.2,24.23,0.53
	c0.26,0,0.46-0.15,0.65-0.38c0.07-0.08,0.2-0.3,0.13-0.53l-0.85-11.42c-0.07-0.45-0.39-0.83-0.78-0.75
	c-7.58,0.38-14.63,0.23-22.21-0.45C31.94,47.65,31.94,47.65,31.94,47.65z"/>
<path class="st0" d="M62.45,58.31c-0.39,0-0.85-0.15-1.18-0.45c-0.33-0.3-0.59-0.75-0.59-1.28l-0.52-5.49
	c-0.07-1.05,0.59-2.03,1.57-2.18c0.91-0.15,1.83,0.68,1.89,1.73l0.59,5.49c0.07,0.53-0.07,0.98-0.33,1.43
	c-0.33,0.45-0.72,0.68-1.24,0.75C62.58,58.31,62.52,58.31,62.45,58.31z M61.93,50.42c-0.26,0-0.46,0.3-0.46,0.53l0.52,5.49
	c0,0.15,0.07,0.23,0.13,0.3c0.13,0.08,0.26,0.15,0.39,0.15c0.13,0,0.26-0.08,0.33-0.23c0.07-0.08,0.07-0.15,0.07-0.3l-0.52-5.56
	C62.32,50.57,62.12,50.42,61.93,50.42z"/>
<path class="st0" d="M46.48,44.03c-21.16,0-42.99-5.3-42.99-14.08s21.84-14.08,42.99-14.08s42.99,5.3,42.99,14.08
	S67.56,44.03,46.48,44.03z M46.48,17.61c-24.86,0-41.48,6.35-41.48,12.34s16.62,12.34,41.48,12.34s41.48-6.35,41.48-12.34
	S71.27,17.61,46.48,17.61z"/>
<path class="st0" d="M46.48,67.33c-21.16,0-42.99-5.22-42.99-14.08c0-0.43,0.08-0.87,0.15-1.3c0.15-0.43,0.53-0.7,0.91-0.61
	c0.45,0.17,0.68,0.61,0.53,1.13c-0.08,0.26-0.08,0.52-0.08,0.78c0,6,16.62,12.34,41.48,12.34s41.48-6.35,41.48-12.34
	c0-0.26,0-0.52-0.08-0.78c-0.15-0.43,0.15-0.96,0.53-1.04c0.38-0.17,0.83,0.17,0.91,0.61c0.08,0.43,0.15,0.87,0.15,1.3
	C89.4,62.11,67.56,67.33,46.48,67.33z"/>
<path class="st0" d="M2.62,48.92c-0.47,0-0.78-0.25-0.78-0.51L2.08,35.6c0-0.31,0.31-0.51,0.78-0.51s0.78,0.25,0.78,0.51L3.4,48.41
	C3.4,48.72,3.01,48.92,2.62,48.92z"/>
<path class="st0" d="M88.64,54.12c-0.45,0-0.76-0.35-0.76-0.87V29.95c0-0.52,0.3-0.87,0.76-0.87c0.45,0,0.76,0.35,0.76,0.87v23.29
	C89.4,53.77,89.1,54.12,88.64,54.12z"/>
<path class="st0" d="M22.08,64.89c-0.45,0-0.76-0.35-0.76-0.87V40.73c0-0.52,0.3-0.87,0.76-0.87c0.45,0,0.76,0.35,0.76,0.87v23.29
	C22.84,64.55,22.46,64.89,22.08,64.89z"/>
<path class="st0" d="M69.38,64.89c-0.45,0-0.76-0.35-0.76-0.87V41.08c0-0.52,0.3-0.87,0.76-0.87s0.76,0.35,0.76,0.87v23.03
	C70.13,64.55,69.83,64.89,69.38,64.89z"/>
<path class="st0" d="M77.16,39.86c-0.08,0-0.15,0-0.23,0c-10.43-3.65-21.23-5.48-32.11-5.3c-10.28,0.09-20.17,1.83-29.47,5.13
	c-0.38,0.17-0.83-0.09-0.91-0.61c-0.15-0.43,0.08-0.96,0.53-1.04c9.44-3.3,19.49-5.04,29.92-5.22c11.03-0.17,21.99,1.65,32.56,5.39
	c0.38,0.17,0.6,0.61,0.53,1.04C77.84,39.6,77.54,39.86,77.16,39.86z"/>
</svg>
