<svg width="92" height="84" viewBox="0 0 92 84" fill="none" xmlns="http://www.w3.org/2000/svg">
<path d="M55.9807 82.3999H36.305C30.4341 82.3999 25.6738 77.6397 25.6738 71.7687V42.2553C25.6738 41.7793 25.9912 41.4619 26.4672 41.4619C26.9432 41.4619 27.2606 41.7793 27.2606 42.2553V71.7687C27.2606 76.767 31.3068 80.8132 36.305 80.8132H55.9807C60.9789 80.8132 65.0251 76.767 65.0251 71.7687V42.2553C65.0251 41.7793 65.3424 41.4619 65.8185 41.4619C66.2945 41.4619 66.6118 41.7793 66.6118 42.2553V71.7687C66.6912 77.6397 61.931 82.3999 55.9807 82.3999Z" fill="#985BEF" stroke="#985BEF" stroke-width="2"/>
<path d="M46.1428 42.0173C34.8769 42.0173 25.6738 32.8142 25.6738 21.5483C25.6738 10.2825 34.8769 1 46.1428 1C57.4087 1 66.6118 10.2031 66.6118 21.469C66.6118 32.7349 57.4881 42.0173 46.1428 42.0173ZM46.1428 2.58674C35.7497 2.58674 27.2606 11.0758 27.2606 21.469C27.2606 31.8622 35.7497 40.3513 46.1428 40.3513C56.536 40.3513 65.1044 31.9415 65.1044 21.469C65.1044 10.9965 56.6154 2.58674 46.1428 2.58674Z" fill="#985BEF" stroke="#985BEF" stroke-width="2"/>
<path d="M25.5945 73.673H9.7271C4.88752 73.673 1 69.7854 1 64.9459V41.1447C1 40.6687 1.31735 40.3513 1.79337 40.3513C2.2694 40.3513 2.58674 40.6687 2.58674 41.1447V64.9459C2.58674 68.9127 5.76023 72.0862 9.7271 72.0862H25.5945C25.8326 72.0862 26.1499 72.0862 26.3879 72.0069C26.8639 71.9275 27.1813 72.2449 27.2606 72.7209C27.34 73.1969 27.0226 73.5143 26.5466 73.5936C26.2292 73.673 25.9119 73.673 25.5945 73.673Z" fill="#985BEF" stroke="#985BEF" stroke-width="2"/>
<path d="M17.6608 40.7479C8.4577 40.7479 1 33.2902 1 24.0871C1 14.884 8.4577 7.42627 17.6608 7.42627C21.945 7.42627 26.0706 9.09235 29.1647 12.0278C29.4821 12.3452 29.4821 12.8212 29.1647 13.1386C28.8474 13.4559 28.3713 13.4559 28.054 13.1386C25.2772 10.4411 21.5483 9.01301 17.6608 9.01301C9.33041 9.01301 2.58674 15.7567 2.58674 24.0871C2.58674 32.4175 9.33041 39.1612 17.6608 39.1612C22.4211 39.1612 26.8639 36.9397 29.7201 33.1315C29.9581 32.8142 30.5134 32.7348 30.8308 32.9729C31.1481 33.2109 31.2275 33.7662 30.9895 34.0836C27.816 38.3678 22.8971 40.7479 17.6608 40.7479Z" fill="#985BEF" stroke="#985BEF" stroke-width="2"/>
<path d="M82.0818 73.673H66.2144C65.9764 73.673 65.8177 73.673 65.5797 73.673C65.1037 73.673 64.7863 73.2763 64.8657 72.8003C64.945 72.3242 65.2624 72.0069 65.7384 72.0862C65.897 72.0862 66.0557 72.0862 66.2144 72.0862H82.0818C86.0487 72.0862 89.2222 68.9127 89.2222 64.9459V41.1447C89.2222 40.6687 89.5395 40.3513 90.0156 40.3513C90.4916 40.3513 90.8089 40.6687 90.8089 41.1447V64.9459C90.8089 69.7854 86.8421 73.673 82.0818 73.673Z" fill="#985BEF" stroke="#985BEF" stroke-width="2"/>
<path d="M74.1484 40.7479C68.9122 40.7479 64.0726 38.3678 60.8991 34.1629C60.6611 33.8456 60.7405 33.2902 61.0578 33.0522C61.3752 32.8142 61.9305 32.8935 62.1685 33.2109C65.0247 37.0191 69.3882 39.1612 74.1484 39.1612C82.4789 39.1612 89.2225 32.4175 89.2225 24.0871C89.2225 15.7567 82.4789 9.01301 74.1484 9.01301C70.4989 9.01301 66.9288 10.3617 64.152 12.7419C63.8346 13.0592 63.3586 12.9799 63.0412 12.6625C62.7239 12.3452 62.8032 11.8692 63.1206 11.5518C66.1354 8.85434 70.1023 7.42627 74.1484 7.42627C83.3516 7.42627 90.8093 14.884 90.8093 24.0871C90.8093 33.2902 83.3516 40.7479 74.1484 40.7479Z" fill="#985BEF" stroke="#985BEF" stroke-width="2"/>
</svg>
