<svg width="76" height="75" viewBox="0 0 76 75" fill="none" xmlns="http://www.w3.org/2000/svg">
<path d="M36.1635 74H36.0932C34.4053 74 33.0691 72.9451 32.5065 71.3276L26.6693 52.8314C26.5286 52.4798 26.7396 52.0578 27.1616 51.9171C27.5132 51.7765 27.9352 51.9875 28.0759 52.4094L33.913 70.9056C34.2647 72.1012 35.3196 72.5934 36.1635 72.5934C37.0075 72.5934 38.0624 72.1715 38.4843 70.9759L50.229 38.2736C50.44 37.7813 50.44 37.2187 50.229 36.7264L39.9612 4.09441C39.6096 2.89884 38.5547 2.40655 37.7107 2.40655C36.8668 2.40655 35.8119 2.82852 35.3899 4.02408L23.5749 36.7967C23.3639 37.289 23.3639 37.8516 23.5749 38.3439L25.3331 43.8295C25.4737 44.1811 25.2628 44.6031 24.8408 44.7437C24.4891 44.8844 24.0672 44.6734 23.9265 44.2514L22.1683 38.7659C21.887 37.9923 21.9574 37.078 22.2387 36.3044L34.0537 3.53179C34.6163 1.98459 36.0229 1 37.7107 1C39.3986 1 40.7348 2.05491 41.2974 3.67245L51.6356 36.3044C51.9169 37.078 51.8466 37.9923 51.5653 38.7659L39.7502 71.5385C39.1876 73.0154 37.7811 74 36.1635 74Z" fill="#985BEF" stroke="#985BEF" stroke-width="2"/>
<path d="M37.5703 52.4094C37.1484 52.4094 36.7264 52.3391 36.3044 52.1984L3.53179 40.3834C1.98459 39.8208 1 38.3439 1 36.7264C1 35.1088 2.05491 33.7023 3.67245 33.1397L36.3044 22.8015C37.078 22.5202 37.9923 22.5905 38.7659 22.8718L43.2669 24.4894C43.6185 24.63 43.8295 25.052 43.6888 25.4036C43.5482 25.7553 43.1262 25.9663 42.7746 25.8256L38.2736 24.1377C37.7813 23.9268 37.2187 23.9268 36.7264 24.1377L4.09441 34.4759C2.89884 34.8275 2.40655 35.8824 2.40655 36.7264C2.40655 37.5703 2.82852 38.6252 4.02408 39.0472L36.7967 50.8622C37.289 51.0732 37.8516 51.0732 38.3439 50.8622L70.9759 40.5241C72.1715 40.1724 72.6638 39.1175 72.6638 38.2736C72.6638 37.4296 72.2418 36.3747 71.0462 35.9528L52.1985 29.131C51.8468 28.9903 51.6358 28.5684 51.7765 28.2167C51.9171 27.8651 52.3391 27.6541 52.6908 27.7948L71.5385 34.6165C73.0857 35.1792 74.0703 36.5857 74.0703 38.2736C74.0703 39.9614 73.0154 41.2977 71.3979 41.8603L38.6956 52.1984C38.3439 52.3391 37.9923 52.4094 37.5703 52.4094Z" fill="#985BEF" stroke="#985BEF" stroke-width="2"/>
<path d="M41.157 44.1812H33.3506C33.0693 44.1812 32.8583 44.0405 32.7177 43.8295L28.7793 37.0781C28.6387 36.8671 28.6387 36.5858 28.7793 36.3748L32.7177 29.6234C32.8583 29.4124 33.0693 29.2717 33.3506 29.2717H41.157C41.4383 29.2717 41.6493 29.4124 41.7899 29.6234L45.7283 36.3748C45.8689 36.5858 45.8689 36.8671 45.7283 37.0781L41.7899 43.8295C41.6493 44.0405 41.4383 44.1812 41.157 44.1812ZM33.7726 42.7746H40.8053L44.3217 36.7264L40.8053 30.6783H33.7726L30.2562 36.7264L33.7726 42.7746Z" fill="#985BEF" stroke="#985BEF" stroke-width="2"/>
</svg>
