<svg width="61" height="80" viewBox="0 0 61 80" fill="none" xmlns="http://www.w3.org/2000/svg">
<path d="M25.5195 61.5672C25.3163 61.5672 25.1808 61.5008 25.0454 61.368L18.0689 54.5957C17.7979 54.3302 17.7979 53.9318 18.0689 53.6662C18.3398 53.4006 18.7462 53.4006 19.0171 53.6662L25.5195 60.0401L44.7557 41.184C45.0266 40.9185 45.433 40.9185 45.7039 41.184C45.9749 41.4496 45.9749 41.848 45.7039 42.1136L25.9936 61.4344C25.8582 61.5008 25.655 61.5672 25.5195 61.5672Z" fill="#985BEF" stroke="#985BEF" stroke-width="2"/>
<path d="M54.3059 24.8507C53.9673 24.8507 53.6286 24.5851 53.6286 24.1867C53.1545 11.7046 42.3172 1.94457 29.5834 2.40933C17.5947 2.87409 8.04432 12.1029 7.36699 23.722C7.36699 24.1203 7.02832 24.3859 6.62192 24.3195C6.21553 24.3195 5.94459 23.9876 6.01233 23.5892C6.75739 11.2398 16.8496 1.5462 29.5157 1.01505C42.9945 0.550287 54.4414 10.9078 54.9833 24.1867C55.051 24.5187 54.7123 24.8507 54.3059 24.8507C54.3737 24.8507 54.3737 24.8507 54.3059 24.8507Z" fill="#985BEF"/>
<path d="M54.3059 24.8507C53.9673 24.8507 53.6286 24.5851 53.6286 24.1867C53.1545 11.7046 42.3172 1.94457 29.5834 2.40933C17.5947 2.87409 8.04432 12.1029 7.36699 23.722C7.36699 24.1203 7.02832 24.3859 6.62192 24.3195C6.21553 24.3195 5.94459 23.9876 6.01233 23.5892C6.75739 11.2398 16.8496 1.5462 29.5157 1.01505C42.9945 0.550287 54.4414 10.9078 54.9833 24.1867C55.051 24.5187 54.7123 24.8507 54.3059 24.8507ZM54.3059 24.8507C54.3737 24.8507 54.3737 24.8507 54.3059 24.8507Z" stroke="#985BEF" stroke-width="2"/>
<path d="M42.4526 78.0334H17.6623C8.45063 78.0334 1 70.6636 1 61.6339V27.2416C1 26.8432 1.27093 26.5776 1.67733 26.5776H58.5053C58.9117 26.5776 59.1826 26.8432 59.1826 27.2416V61.7003C59.1826 70.6636 51.6643 78.0334 42.4526 78.0334ZM2.35466 27.9055V61.7003C2.35466 69.9996 9.19569 76.7055 17.6623 76.7055H42.4526C50.9192 76.7055 57.7603 69.9996 57.7603 61.7003V27.9055H2.35466Z" fill="#985BEF" stroke="#985BEF" stroke-width="2"/>
</svg>
