<svg width="76" height="64" viewBox="0 0 76 64" fill="none" xmlns="http://www.w3.org/2000/svg">
<path d="M38.5785 55.3476C37.8351 55.3476 37.0918 55.2857 36.5963 54.7901C35.9149 55.4095 34.8618 55.3476 33.8708 55.3476C33.0655 55.2857 32.2602 55.2857 31.7647 54.6662C31.5788 54.4184 31.455 54.1707 31.393 53.861C29.7205 52.746 28.2339 51.2593 27.1189 49.5869C25.8181 47.6666 25.0128 45.3747 24.7031 43.0209V42.9589V40.9767C24.7031 40.9148 24.7031 40.9148 24.7031 40.8528C24.889 39.9237 25.2606 38.9945 25.8181 38.1893C26.3137 37.384 26.995 36.6407 27.8003 36.0832C27.9242 32.5524 28.2339 28.9597 28.7914 25.4289C29.225 22.6415 29.7825 19.854 30.5258 17.1285V15.8896L29.9683 14.8366C29.1631 13.4119 28.8533 11.8014 29.0392 10.1909V7.837L28.6675 6.16453C28.6675 6.10259 28.6675 6.10259 28.6675 6.04065V3.25319C28.6675 2.88153 28.7294 2.50987 28.8533 2.13821C28.9772 1.82849 29.225 1.45683 29.4728 1.20906C29.4728 1.02323 29.7205 0.961285 29.9064 1.02323C30.7736 1.271 31.5169 1.64266 32.1363 2.20015C32.3841 2.44793 32.6319 2.6957 32.8177 2.94347C33.0035 3.25319 33.2513 3.50097 33.623 3.87263C33.8088 4.1204 33.9946 4.30623 34.2424 4.49206C34.6141 4.36817 34.9857 4.24429 35.3574 4.18234C35.7291 4.1204 36.1627 4.1204 36.5343 4.1204C36.906 4.1204 37.3396 4.1204 37.7112 4.18234C38.0829 4.24429 38.4546 4.36817 38.8262 4.49206C39.074 4.30623 39.2598 4.1204 39.5076 3.93457C39.8793 3.56291 40.127 3.31514 40.3129 3.00542C40.4987 2.75764 40.6845 2.50987 40.9942 2.2621C41.5517 1.70461 42.2951 1.33295 43.2242 1.08517C43.41 1.02323 43.6578 1.08517 43.7817 1.20906C44.0295 1.45683 44.2772 1.76655 44.4011 2.13821C44.525 2.50987 44.6489 2.88153 44.587 3.31514V6.04065C44.587 6.10259 44.587 6.10259 44.587 6.16453L44.2153 7.837V10.1909C44.4011 11.8014 44.0295 13.4119 43.2862 14.8366L42.6667 15.8896V17.0046C43.3481 19.7301 43.9675 22.5176 44.4011 25.305C44.9586 28.8358 45.2683 32.4285 45.3922 35.9593C46.1975 36.5787 46.8169 37.2601 47.3744 38.0654C47.87 38.8707 48.2416 39.7379 48.4894 40.729C48.4894 40.7909 48.4894 40.7909 48.4894 40.8528V42.835V42.897C48.2416 45.2508 47.3744 47.4808 46.0736 49.463C44.9586 51.1354 43.472 52.6221 41.7995 53.7371C41.7376 54.0468 41.6137 54.2946 41.4279 54.5423C40.9323 55.1618 40.127 55.2237 39.3218 55.2237C39.074 55.3476 38.8262 55.3476 38.5785 55.3476ZM36.5343 52.8079C36.844 52.8079 37.0918 53.0557 37.1538 53.3654C37.1538 53.5512 37.2157 53.6751 37.2776 53.7371C37.5254 54.1087 38.3307 54.0468 39.1979 54.0468C39.9412 54.0468 40.2509 53.9848 40.3748 53.799C40.4368 53.6751 40.4987 53.5512 40.4987 53.3654C40.4987 53.1796 40.6226 52.9318 40.8084 52.8699C42.4809 51.8168 43.9056 50.4541 44.9586 48.8435C46.1355 47.0472 46.8789 45.003 47.1266 42.897V40.9767C46.9408 40.1715 46.6311 39.4901 46.1975 38.8087C45.7019 38.0034 45.0825 37.384 44.3392 36.8265C44.1534 36.7026 44.0914 36.5168 44.0914 36.331C43.9675 32.7383 43.6578 29.0836 43.1003 25.5528C42.6667 22.7654 42.1092 19.9779 41.3659 17.2524C41.3659 17.1905 41.3659 17.1285 41.3659 17.1285V15.7658C41.3659 15.6419 41.3659 15.5799 41.4279 15.456L42.1092 14.2172C42.7906 12.9783 43.0384 11.6156 42.9145 10.2528V10.1909V7.71312C42.9145 7.65117 42.9145 7.65117 42.9145 7.58923L43.2862 5.91676V3.19125C43.2862 3.00542 43.2861 2.75764 43.1623 2.57181C43.1623 2.50987 43.1003 2.44793 43.0384 2.38598C42.5428 2.57181 42.1092 2.81959 41.7376 3.19125C41.5517 3.37708 41.3659 3.56291 41.242 3.81068C40.9942 4.1204 40.7465 4.43012 40.3129 4.86372C40.0031 5.17344 39.6315 5.48315 39.1979 5.73093C39.0121 5.85482 38.7643 5.85481 38.5785 5.79287C38.2068 5.60704 37.8351 5.48315 37.4635 5.48315C37.2776 5.35927 36.906 5.35927 36.5963 5.35927C36.5343 5.35927 36.5343 5.35927 36.4724 5.35927C36.1627 5.35927 35.8529 5.35927 35.5432 5.35927C35.1716 5.42121 34.7999 5.5451 34.4282 5.66898C34.2424 5.73093 33.9946 5.73093 33.8088 5.60704C33.4371 5.35927 33.0655 5.04955 32.6938 4.73983C32.2602 4.30623 31.9505 3.93457 31.7647 3.6868C31.5788 3.43902 31.455 3.25319 31.2691 3.06736C30.8975 2.75764 30.4639 2.44793 29.9683 2.2621C29.9064 2.32404 29.9064 2.38598 29.8444 2.44793C29.7825 2.63376 29.7205 2.81959 29.7205 3.06736V5.79287L30.0922 7.46534C30.0922 7.52729 30.0922 7.52729 30.0922 7.58923V10.067V10.1289C29.9683 11.4917 30.2161 12.8544 30.8975 14.0933L31.5788 15.3322C31.6408 15.3941 31.6408 15.518 31.6408 15.6419V17.1285C31.6408 17.1905 31.6408 17.2524 31.6408 17.2524C30.9594 19.9779 30.34 22.7654 29.9064 25.5528C29.3489 29.1455 29.0392 32.7383 28.9153 36.331C28.9153 36.5168 28.7914 36.7026 28.6675 36.8265C27.9242 37.384 27.2428 38.0034 26.8092 38.8087C26.3756 39.4901 26.0659 40.2334 25.8801 40.9767V42.897C26.1278 45.003 26.8711 47.1091 28.0481 48.8435C29.1011 50.4541 30.5878 51.8788 32.1983 52.8699C32.3841 52.9937 32.508 53.1796 32.508 53.3654C32.508 53.5512 32.5699 53.6751 32.6319 53.799C32.7558 53.9848 33.1274 53.9848 33.8088 54.0468C34.676 54.1087 35.4813 54.1087 35.7291 53.7371C35.791 53.6132 35.8529 53.4893 35.8529 53.3654C35.9768 53.0557 36.2246 52.8079 36.5343 52.8079Z" fill="#985BEF" stroke="#985BEF" stroke-width="2"/>
<path d="M73.5145 62.0375H1.59818C1.41235 62.0375 1.22652 61.9136 1.10263 61.7897C0.978744 61.6039 0.978744 61.4181 1.04069 61.2322L12.8099 26.2342C12.8719 25.9864 13.1197 25.8006 13.3674 25.8006H26.6853C27.0569 25.8006 27.3047 26.0484 27.3047 26.42C27.3047 26.7917 27.0569 27.0395 26.6853 27.0395H13.801L2.46539 60.7986H72.4614L53.8165 27.0395H46.3213C45.9497 27.0395 45.7019 26.7917 45.7019 26.42C45.7019 26.0484 45.9497 25.8006 46.3213 25.8006H54.1881C54.4359 25.8006 54.6217 25.9245 54.7456 26.1103L74.01 61.1083C74.1339 61.2942 74.1339 61.5419 74.01 61.7278C73.8861 61.9136 73.7003 62.0375 73.5145 62.0375Z" fill="#985BEF" stroke="#985BEF" stroke-width="2"/>
</svg>
