<svg width="55" height="55" viewBox="0 0 55 55" fill="none" xmlns="http://www.w3.org/2000/svg">
<path d="M47.0084 18.0768L32.2265 6.25131C29.3378 3.9494 24.8243 3.92683 21.9582 6.22874L7.17627 18.0768C5.0549 19.7694 3.76854 23.1546 4.21989 25.8176L7.06343 42.8336C7.7179 46.6476 11.261 49.6491 15.1201 49.6491H39.0419C42.8559 49.6491 46.4667 46.5799 47.1212 42.8111L49.9647 25.795C50.371 23.1546 49.0846 19.7694 47.0084 18.0768ZM28.7736 40.622C28.7736 41.5473 28.0063 42.3146 27.081 42.3146C26.1558 42.3146 25.3885 41.5473 25.3885 40.622V33.8517C25.3885 32.9264 26.1558 32.1591 27.081 32.1591C28.0063 32.1591 28.7736 32.9264 28.7736 33.8517V40.622Z" stroke="#985BEF" stroke-width="3"/>
</svg>
