<svg width="35" height="57" viewBox="0 0 35 57" fill="none" xmlns="http://www.w3.org/2000/svg">
<path d="M28.501 56.0001H5.60054C3.12345 56.0001 1.05078 53.9326 1.05078 51.3482V25.0909C1.05078 22.5582 3.0729 20.439 5.60054 20.439H28.5516C31.0287 20.439 33.1013 22.5065 33.1013 25.0909V51.3482C33.0508 53.8809 31.0287 56.0001 28.501 56.0001ZM5.60054 21.4727C3.67953 21.4727 2.06184 23.075 2.06184 25.0909V51.3482C2.06184 53.3124 3.62898 54.9664 5.60054 54.9664H28.5516C30.4726 54.9664 32.0903 53.3641 32.0903 51.3482V25.0909C32.0903 23.1267 30.5231 21.4727 28.5516 21.4727H5.60054Z" fill="#985BEF" stroke="#985BEF" stroke-width="2"/>
<path d="M30.9273 16.5127H3.12322C1.96051 16.5127 1 15.5306 1 14.3418V12.1709C1 10.9821 1.96051 10 3.12322 10H30.9273C32.09 10 33.0506 10.9821 33.0506 12.1709V14.3418C33.0506 15.5823 32.09 16.5127 30.9273 16.5127ZM3.17378 11.0854C2.56714 11.0854 2.06161 11.6023 2.06161 12.2226V14.3935C2.06161 15.0137 2.56714 15.5306 3.17378 15.5306H30.9779C31.5845 15.5306 32.09 15.0137 32.09 14.3935V12.2226C32.09 11.6023 31.5845 11.0854 30.9779 11.0854H3.17378Z" fill="#985BEF" stroke="#985BEF" stroke-width="2"/>
<path d="M22.6367 5.85865H11.4645C10.7062 5.85865 10.0996 5.2384 10.0996 4.46308V2.39557C10.0996 1.62025 10.7062 1 11.4645 1H22.6367C23.395 1 24.0017 1.62025 24.0017 2.39557V4.46308C24.0017 5.2384 23.395 5.85865 22.6367 5.85865ZM11.4645 2.03376C11.2623 2.03376 11.1107 2.18882 11.1107 2.39557V4.46308C11.1107 4.66983 11.2623 4.82489 11.4645 4.82489H22.6367C22.8389 4.82489 22.9906 4.66983 22.9906 4.46308V2.39557C22.9906 2.18882 22.8389 2.03376 22.6367 2.03376H11.4645Z" fill="#985BEF" stroke="#985BEF" stroke-width="2"/>
<path d="M28.1977 29.1741H6.10612C5.8028 29.1741 5.60059 28.9674 5.60059 28.6573C5.60059 28.3471 5.8028 28.1404 6.10612 28.1404H28.1977C28.5011 28.1404 28.7033 28.3471 28.7033 28.6573C28.7033 28.9674 28.4505 29.1741 28.1977 29.1741Z" fill="#985BEF" stroke="#985BEF" stroke-width="2"/>
<path d="M28.1977 34.1878H6.10612C5.8028 34.1878 5.60059 33.9811 5.60059 33.6709C5.60059 33.3608 5.8028 33.1541 6.10612 33.1541H28.1977C28.5011 33.1541 28.7033 33.3608 28.7033 33.6709C28.7033 33.9811 28.4505 34.1878 28.1977 34.1878Z" fill="#985BEF" stroke="#985BEF" stroke-width="2"/>
<path d="M28.1977 39.2015H6.10612C5.8028 39.2015 5.60059 38.9947 5.60059 38.6846C5.60059 38.3745 5.8028 38.1677 6.10612 38.1677H28.1977C28.5011 38.1677 28.7033 38.3745 28.7033 38.6846C28.7033 38.9947 28.4505 39.2015 28.1977 39.2015Z" fill="#985BEF" stroke="#985BEF" stroke-width="2"/>
<path d="M28.1977 44.2152H6.10612C5.8028 44.2152 5.60059 44.0084 5.60059 43.6983C5.60059 43.3881 5.8028 43.1814 6.10612 43.1814H28.1977C28.5011 43.1814 28.7033 43.3881 28.7033 43.6983C28.7033 44.0084 28.4505 44.2152 28.1977 44.2152Z" fill="#985BEF" stroke="#985BEF" stroke-width="2"/>
<path d="M28.1977 49.2288H6.10612C5.8028 49.2288 5.60059 49.0221 5.60059 48.7119C5.60059 48.4018 5.8028 48.1951 6.10612 48.1951H28.1977C28.5011 48.1951 28.7033 48.4018 28.7033 48.7119C28.7033 49.0221 28.4505 49.2288 28.1977 49.2288Z" fill="#985BEF" stroke="#985BEF" stroke-width="2"/>
</svg>
