<svg width="67" height="69" viewBox="0 0 67 69" fill="none" xmlns="http://www.w3.org/2000/svg">
<path d="M54.4372 68H11.7417C5.82834 68 1 63.1717 1 57.204V11.7417C1 5.82834 5.82834 1 11.7417 1H54.4372C60.3506 1 65.1789 5.82834 65.1789 11.7417V57.204C65.1789 63.1717 60.3506 68 54.4372 68ZM11.7417 2.08502C6.4251 2.08502 2.08502 6.4251 2.08502 11.7417V57.204C2.08502 62.5206 6.4251 66.8607 11.7417 66.8607H54.4372C59.7538 66.8607 64.0939 62.5206 64.0939 57.204V11.7417C64.0939 6.4251 59.7538 2.08502 54.4372 2.08502H11.7417Z" fill="#985BEF" stroke="#985BEF" stroke-width="2"/>
<path d="M49.5409 38.9123H16.6381C11.2308 38.9123 6.84375 34.5252 6.84375 29.1179V17.3852C6.84375 11.9779 11.2308 7.59082 16.6381 7.59082H49.5409C54.9482 7.59082 59.3353 11.9779 59.3353 17.3852V29.1179C59.3353 34.5252 54.9482 38.9123 49.5409 38.9123ZM16.6381 8.61106C11.7919 8.61106 7.86399 12.539 7.86399 17.3852V29.1179C7.86399 33.9641 11.7919 37.892 16.6381 37.892H49.5409C54.3871 37.892 58.315 33.9641 58.315 29.1179V17.3852C58.315 12.539 54.3871 8.61106 49.5409 8.61106H16.6381Z" fill="#985BEF" stroke="#985BEF" stroke-width="2"/>
<path d="M55.765 47.1257H10.4662C10.1601 47.1257 9.95605 46.9217 9.95605 46.6156C9.95605 46.3095 10.1601 46.1055 10.4662 46.1055H55.765C56.071 46.1055 56.2751 46.3095 56.2751 46.6156C56.2751 46.9217 56.02 47.1257 55.765 47.1257Z" fill="#985BEF" stroke="#985BEF" stroke-width="2"/>
<path d="M55.765 52.8894H10.4662C10.1601 52.8894 9.95605 52.6853 9.95605 52.3793C9.95605 52.0732 10.1601 51.8691 10.4662 51.8691H55.765C56.071 51.8691 56.2751 52.0732 56.2751 52.3793C56.2751 52.6853 56.02 52.8894 55.765 52.8894Z" fill="#985BEF" stroke="#985BEF" stroke-width="2"/>
<path d="M55.765 58.654H10.4662C10.1601 58.654 9.95605 58.45 9.95605 58.1439C9.95605 57.8378 10.1601 57.6338 10.4662 57.6338H55.765C56.071 57.6338 56.2751 57.8378 56.2751 58.1439C56.2751 58.45 56.02 58.654 55.765 58.654Z" fill="#985BEF" stroke="#985BEF" stroke-width="2"/>
<path d="M33.618 33.6644C33.4434 33.6644 33.2687 33.5334 33.2251 33.3587L30.6054 26.3731L29.252 22.3563L26.7633 28.7744C26.7196 28.9054 26.5887 29.0363 26.414 29.0363C26.2394 29.0363 26.1084 28.9927 26.0211 28.8617L18.3368 19.1691L13.1849 26.0238C13.0539 26.1984 12.7483 26.2421 12.5736 26.1111C12.399 25.9801 12.3553 25.6745 12.4863 25.4998L17.9875 18.1649C18.0749 18.0776 18.2058 17.9902 18.3368 17.9902C18.4678 17.9902 18.5988 18.0339 18.6861 18.1649L26.2394 27.7265L28.9027 20.9155C28.99 20.7408 29.1646 20.6535 29.3393 20.6535C29.5139 20.6535 29.6886 20.7845 29.7322 20.9592L31.4786 26.1111L33.6617 32.0489L36.0193 26.1984L38.5517 19.2564C38.5953 19.0817 38.77 18.9944 38.9446 18.9508C39.1192 18.9508 39.2939 19.0381 39.3812 19.1691L43.136 26.635H52.4794C52.7413 26.635 52.916 26.8097 52.916 27.0716C52.916 27.3336 52.7413 27.5082 52.4794 27.5082H42.874C42.6994 27.5082 42.5684 27.4209 42.4811 27.2463L39.0756 20.4352L36.8925 26.4604L34.0983 33.3587C33.9236 33.577 33.7927 33.6644 33.618 33.6644Z" fill="#985BEF" stroke="#985BEF" stroke-width="2"/>
</svg>
