<svg width="94" height="87" viewBox="0 0 94 87" fill="none" xmlns="http://www.w3.org/2000/svg">
<path d="M9.4406 75.6439C9.23908 75.6439 9.03756 75.6439 8.83604 75.6439C8.09713 75.6439 7.4254 75.579 6.95519 74.9949C6.82084 74.8001 6.6865 74.6054 6.61932 74.3458C5.20869 73.4371 3.99957 72.2038 3.05914 70.9056C1.98437 69.2829 1.24547 67.4655 1.04395 65.5831V65.5182V63.8955C1.04395 63.8306 1.04395 63.8306 1.04395 63.7657C1.24547 62.9868 1.51416 62.2728 1.98437 61.5588C2.38741 60.9097 2.99197 60.3256 3.59653 59.8712C3.6637 57.0152 3.99957 54.1593 4.40261 51.3033C4.73847 49.0315 5.27586 46.8246 5.81324 44.6177V43.7739L5.34303 42.9301C4.6713 41.7617 4.40261 40.3987 4.53695 39.1005V37.2182L4.26826 35.7902C4.26826 35.7253 4.26826 35.7253 4.26826 35.6603V33.4535C4.26826 33.1289 4.33543 32.8044 4.46978 32.4798C4.60413 32.1553 4.80565 31.8957 5.00717 31.7009C5.20869 31.5711 5.41021 31.5062 5.61173 31.5711C6.4178 31.7658 7.02236 32.0904 7.55975 32.5447C7.82844 32.7395 7.96279 32.9991 8.09713 33.1938C8.29865 33.3886 8.433 33.6482 8.76887 33.9078C8.90321 34.0376 9.10473 34.1675 9.23908 34.2973C9.50777 34.1675 9.84364 34.1025 10.1123 34.1025C10.4482 34.0376 10.7841 34.0376 11.1199 34.0376C11.4558 34.0376 11.7917 34.0376 12.1275 34.1025C12.4634 34.1675 12.7321 34.2324 13.0008 34.2973C13.1351 34.1675 13.3366 34.0376 13.471 33.9078C13.8069 33.6482 13.9412 33.3886 14.1427 33.1938C14.2771 32.9991 14.4786 32.8044 14.6801 32.5447C15.1503 32.0904 15.8221 31.7658 16.561 31.5711C16.7625 31.5062 17.0312 31.5711 17.1655 31.7009C17.4342 31.8957 17.5686 32.2202 17.7029 32.4798C17.9044 32.8693 17.9044 33.2587 17.9044 33.5184V35.7253C17.9044 35.7902 17.9044 35.7902 17.9044 35.8551L17.5686 37.2182V39.1005C17.7029 40.4636 17.4342 41.7617 16.7625 42.9301L16.2923 43.7739V44.6177C16.8968 46.8246 17.367 49.0964 17.7029 51.3033C18.1731 54.0943 18.4418 57.0152 18.509 59.8712C19.1807 60.3256 19.7181 60.9097 20.1211 61.5588C20.5914 62.2079 20.86 62.9868 21.0616 63.7657C21.0616 63.8306 21.0616 63.8306 21.0616 63.8955V65.5182V65.5831C20.86 67.4655 20.1211 69.3478 19.0464 70.9056C18.1059 72.2687 16.8968 73.4371 15.4862 74.3458C15.419 74.6054 15.3518 74.8001 15.1503 74.9949C14.6801 75.579 14.0084 75.579 13.2695 75.6439C12.4634 75.6439 11.5901 75.7089 10.9856 75.2545C10.6497 75.579 10.1123 75.6439 9.4406 75.6439ZM11.1199 73.3072C11.4558 73.3072 11.7245 73.5669 11.7917 73.8914C11.7917 74.0212 11.8588 74.0861 11.8588 74.1511C12.0604 74.4107 12.6649 74.3458 13.3366 74.3458C13.7397 74.3458 14.1427 74.3458 14.2099 74.216C14.2771 74.151 14.2771 74.0212 14.2771 73.9563C14.2771 73.7616 14.4114 73.502 14.6129 73.4371C15.9564 72.5932 17.1655 71.4898 18.0388 70.1916C18.9792 68.7636 19.6509 67.1409 19.8524 65.4533V63.9604C19.7181 63.3763 19.4494 62.7921 19.1135 62.2728C18.7105 61.6886 18.1731 61.1694 17.5686 60.715C17.367 60.5852 17.2999 60.3905 17.2999 60.1957C17.2327 57.2749 16.964 54.354 16.4938 51.498C16.1579 49.2911 15.6877 47.0193 15.0831 44.8124C15.0831 44.7475 15.0831 44.6826 15.0831 44.6177V43.5792C15.0831 43.4494 15.0832 43.3845 15.1503 43.2546L15.6877 42.281C16.2251 41.3074 16.4266 40.2688 16.3594 39.1654V39.1005V37.0883C16.3594 37.0234 16.3594 37.0234 16.3594 36.9585L16.6953 35.5954V33.4535C16.6953 33.3236 16.6953 33.1289 16.6281 32.9991C16.6281 32.9991 16.6281 32.9991 16.6281 32.9342C16.2923 33.064 15.9564 33.2587 15.6877 33.4535C15.5534 33.5833 15.419 33.778 15.2847 33.9078C15.0832 34.1675 14.8816 34.4271 14.4786 34.8165C14.2099 35.0762 13.874 35.3358 13.5382 35.5305C13.3366 35.6603 13.068 35.6603 12.8664 35.5954C12.5977 35.4656 12.2619 35.4007 11.9932 35.3358C11.7245 35.2709 11.4558 35.2709 11.2543 35.3358C11.1871 35.3358 11.1871 35.3358 11.1199 35.3358C10.8512 35.3358 10.5825 35.3358 10.381 35.3358C10.0452 35.4007 9.77647 35.4656 9.50777 35.5954C9.30625 35.6603 9.03756 35.6603 8.83604 35.5305C8.50017 35.3358 8.16431 35.0762 7.89561 34.8165C7.49258 34.492 7.29106 34.1675 7.08954 33.9078C6.95519 33.7131 6.82084 33.5833 6.6865 33.4535C6.4178 33.1938 6.14911 33.064 5.74607 32.9342C5.74607 32.9342 5.74607 32.9342 5.74607 32.9991C5.6789 33.1938 5.6789 33.3236 5.6789 33.4535V35.6603L6.01476 37.0234C6.01476 37.0883 6.01476 37.0883 6.01476 37.1532V39.1005V39.1654C5.88042 40.2688 6.14911 41.3074 6.6865 42.281L7.22388 43.2546C7.29106 43.3195 7.29106 43.4494 7.29106 43.5792V44.6826C7.29106 44.7475 7.29106 44.8124 7.29106 44.8773C6.61932 47.0193 6.14911 49.2262 5.74607 51.4331C5.27586 54.2891 5.00717 57.2099 4.93999 60.1308C4.93999 60.3256 4.80565 60.5203 4.6713 60.6501C4.06674 61.0395 3.52935 61.5588 3.12632 62.2079C2.79045 62.7272 2.52176 63.3113 2.38741 63.8955V65.3884C2.52176 66.5568 2.99197 68.3742 4.20109 70.1267C5.07434 71.4249 6.28346 72.5283 7.62692 73.3722C7.82844 73.502 7.96279 73.6967 7.96279 73.8914C7.96279 73.9563 7.96279 74.0861 8.02996 74.1511C8.09713 74.2809 8.50017 74.2809 8.90321 74.2809C9.50777 74.2809 10.1795 74.3458 10.381 74.0861C10.4482 74.0212 10.4482 73.9563 10.4482 73.8265C10.5154 73.5669 10.7841 73.3072 11.1199 73.3072Z" fill="#985BEF" stroke="#985BEF" stroke-width="2.08743"/>
<path d="M37.724 61.091C34.7012 61.091 32.2158 58.6894 32.2158 55.7685C32.2158 52.8477 34.7012 50.446 37.724 50.446C40.7468 50.446 43.2322 52.8477 43.2322 55.7685C43.2322 58.7543 40.7468 61.091 37.724 61.091ZM37.724 51.8091C35.4401 51.8091 33.5593 53.6266 33.5593 55.8334C33.5593 58.0403 35.4401 59.8578 37.724 59.8578C40.0079 59.8578 41.8888 58.0403 41.8888 55.8334C41.8888 53.6266 40.0079 51.8091 37.724 51.8091Z" fill="#985BEF" stroke="#985BEF" stroke-width="2.08743"/>
<path d="M86.9916 68.5764C83.9688 68.5764 81.4834 66.1748 81.4834 63.2539C81.4834 60.333 83.9688 57.9314 86.9916 57.9314C90.0144 57.9314 92.4998 60.333 92.4998 63.2539C92.4998 66.1748 90.0144 68.5764 86.9916 68.5764ZM86.9916 59.2945C84.7077 59.2945 82.8269 61.1119 82.8269 63.3188C82.8269 65.5257 84.7077 67.3431 86.9916 67.3431C89.2755 67.3431 91.1563 65.5257 91.1563 63.3188C91.1563 61.1119 89.2755 59.2945 86.9916 59.2945Z" fill="#985BEF" stroke="#985BEF" stroke-width="2.08743"/>
<path d="M54.6615 85.0437C51.6387 85.0437 49.1533 82.642 49.1533 79.7212C49.1533 76.8003 51.6387 74.3987 54.6615 74.3987C57.6843 74.3987 60.1697 76.8003 60.1697 79.7212C60.1697 82.707 57.6843 85.0437 54.6615 85.0437ZM54.6615 75.7618C52.3776 75.7618 50.4968 77.5792 50.4968 79.7861C50.4968 81.993 52.3776 83.8104 54.6615 83.8104C56.9454 83.8104 58.8263 81.993 58.8263 79.7861C58.8263 77.5792 56.9454 75.7618 54.6615 75.7618Z" fill="#985BEF" stroke="#985BEF" stroke-width="2.08743"/>
<path d="M62.6709 72.2041C62.4022 72.2041 62.2007 72.0743 62.0664 71.8796C61.8648 71.555 61.9992 71.1656 62.3351 70.9709L74.5606 64.6747C74.8964 64.48 75.2995 64.6098 75.501 64.9344C75.7025 65.2589 75.5682 65.6484 75.2323 65.8431L63.0068 72.1392C62.8724 72.1392 62.7381 72.2041 62.6709 72.2041Z" fill="#985BEF" stroke="#985BEF" stroke-width="2.08743"/>
<path d="M46.2138 72.9831C46.1466 72.9831 46.0795 72.9831 46.0123 72.9831L28.1442 67.5308C27.8084 67.401 27.6068 67.0765 27.674 66.687C27.8083 66.3625 28.1442 66.1677 28.5473 66.2327L46.4153 71.685C46.7512 71.8148 46.9527 72.1393 46.8855 72.5288C46.8184 72.8533 46.5497 72.9831 46.2138 72.9831Z" fill="#985BEF" stroke="#985BEF" stroke-width="2.08743"/>
<path d="M76.375 60.0662C76.3078 60.0662 76.3078 60.0662 76.2406 60.0662L50.1102 55.6524C49.7744 55.5875 49.5057 55.263 49.5729 54.8735C49.64 54.549 49.9759 54.2893 50.3789 54.3543L76.5093 58.768C76.8452 58.8329 77.1139 59.1575 77.0467 59.5469C76.9124 59.8715 76.6437 60.0662 76.375 60.0662Z" fill="#985BEF" stroke="#985BEF" stroke-width="2.08743"/>
<path d="M46.4813 48.5779C46.2798 48.5779 46.1454 48.513 46.0111 48.3832C45.7424 48.1236 45.7424 47.7341 46.0111 47.4745L52.7956 41.1784C53.0643 40.9187 53.4673 40.9187 53.736 41.1784C54.0047 41.438 54.0047 41.8275 53.736 42.0871L46.9515 48.3832C46.8172 48.513 46.6828 48.5779 46.4813 48.5779Z" fill="#985BEF" stroke="#985BEF" stroke-width="2.08743"/>
<path d="M72.5464 50.5894H61.8659C58.5744 50.5894 55.8203 47.9931 55.8203 44.7477V29.2995C55.8203 28.91 56.089 28.6504 56.492 28.6504C56.8951 28.6504 57.1638 28.91 57.1638 29.2995V44.7477C57.1638 47.2142 59.2461 49.2913 61.8659 49.2913H72.5464C75.099 49.2913 77.2486 47.2791 77.2486 44.7477V29.2995C77.2486 28.91 77.5173 28.6504 77.9203 28.6504C78.3233 28.6504 78.592 28.91 78.592 29.2995V44.7477C78.5249 47.9931 75.8379 50.5894 72.5464 50.5894Z" fill="#985BEF" stroke="#985BEF" stroke-width="2.08743"/>
<path d="M67.24 22.9827C60.9929 22.9827 55.8877 18.0497 55.8877 12.0132C55.8877 5.97674 60.9257 1.0437 67.24 1.0437C73.5543 1.0437 78.5922 5.97674 78.5922 12.0132C78.5251 18.0497 73.4871 22.9827 67.24 22.9827ZM67.24 2.34187C61.7318 2.34187 57.2312 6.69073 57.2312 12.0132C57.2312 17.3357 61.7318 21.6846 67.24 21.6846C72.7482 21.6846 77.2488 17.3357 77.2488 12.0132C77.1816 6.69073 72.7482 2.34187 67.24 2.34187Z" fill="#985BEF" stroke="#985BEF" stroke-width="2.08743"/>
</svg>
