<svg width="37" height="40" viewBox="0 0 37 40" fill="none" xmlns="http://www.w3.org/2000/svg">
<path d="M17.8157 38.2647C17.4593 38.2256 17.1029 38.1865 9.02414 23.7057C5.10357 16.661 1.18299 9.49883 1.14339 9.42056C1.06418 9.30314 1.06418 9.14659 1.14339 9.02918C1.22259 8.91177 1.3414 8.8335 1.4998 8.8335H35.0821C35.2405 8.8335 35.3593 8.91177 35.4385 9.02918C35.5177 9.14659 35.5177 9.30314 35.4385 9.42056C33.7357 12.2776 18.6078 37.5211 18.1722 38.0691C18.093 38.1865 17.9345 38.2647 17.8157 38.2647ZM2.17303 9.61624C7.83609 19.9876 16.0733 34.8207 17.7761 37.208C19.4394 34.5076 28.9834 18.657 34.4089 9.61624H2.17303Z" fill="#985BEF" stroke="#985BEF" stroke-width="2.16873"/>
<path d="M3.51987 6.75929C3.36146 6.75929 3.20305 6.68101 3.16345 6.52447C1.93579 3.55003 1.14376 1.6323 1.14376 1.6323C1.06456 1.51489 1.10416 1.35834 1.18336 1.24093C1.26256 1.12352 1.38137 1.08438 1.50017 1.08438H35.0825C35.2013 1.08438 35.3597 1.16266 35.3993 1.28007C35.4785 1.39748 35.4785 1.51489 35.4389 1.67144L33.34 6.28964C33.2608 6.48533 33.0232 6.5636 32.8252 6.48533C32.6272 6.40705 32.548 6.17223 32.6272 5.97654L34.4885 1.86713H2.0942C2.41102 2.64987 3.04464 4.17623 3.87628 6.21137C3.95549 6.40705 3.87628 6.64188 3.67827 6.72015C3.63867 6.75929 3.55947 6.75929 3.51987 6.75929Z" fill="#985BEF" stroke="#985BEF" stroke-width="2.16873"/>
</svg>
