<?xml version="1.0" encoding="utf-8"?>
<!-- Generator: Adobe Illustrator 24.2.1, SVG Export Plug-In . SVG Version: 6.00 Build 0)  -->
<svg version="1.1" id="Layer_1" xmlns="http://www.w3.org/2000/svg" xmlns:xlink="http://www.w3.org/1999/xlink" x="0px" y="0px"
	 viewBox="0 0 24 24" style="enable-background:new 0 0 24 24;" xml:space="preserve">
<style type="text/css">
	.st0{fill:#985BEF;stroke:#985BEF;stroke-width:3;}
</style>
<path class="st0" d="M12,14.5c-0.1,0-0.1,0-0.1,0L1,7.9C0.9,7.8,0.9,7.6,0.9,7.5C1,7.4,1.2,7.4,1.3,7.4L12,14l11.1-6.8
	c0.1-0.1,0.3,0,0.4,0.1s0,0.3-0.1,0.4l-11.2,6.9C12.1,14.5,12,14.5,12,14.5z"/>
<path class="st0" d="M19.6,19.8H4.4c-2.2,0-3.9-1.7-3.9-3.9V9.6c0-0.1,0.1-0.3,0.3-0.3C0.9,9.3,1,9.4,1,9.6v6.3
	c0,1.9,1.5,3.4,3.4,3.4h15.2c1.9,0,3.4-1.5,3.4-3.4V9.7c0-0.1,0.1-0.3,0.3-0.3c0.1,0,0.3,0.1,0.3,0.3v6.2
	C23.5,18,21.7,19.8,19.6,19.8z"/>
<path class="st0" d="M22.6,6.7c-0.1,0-0.1,0-0.1,0c-1-0.6-2.2-1.1-3.3-1.5C15.9,4,13,3.8,11.6,3.8c-2.1,0-4.3,0.4-6.3,1
	C3.8,5.3,2.4,5.9,1.1,6.7C1,6.8,0.9,6.7,0.8,6.6s0-0.3,0.1-0.4c1.4-0.8,2.8-1.4,4.3-1.9c2.1-0.7,4.3-1.1,6.5-1.1
	c1.5,0,4.4,0.2,7.8,1.4c1.2,0.4,2.3,1,3.4,1.6C23,6.3,23.1,6.4,23,6.5C22.8,6.7,22.7,6.7,22.6,6.7z"/>
</svg>
