<svg width="75" height="55" viewBox="0 0 75 55" fill="none" xmlns="http://www.w3.org/2000/svg">
<path d="M37.2021 36.5325C37.0378 36.5325 36.9282 36.4781 36.7639 36.4236L2.64325 15.553C2.25987 15.335 2.15033 14.7901 2.36941 14.4087C2.58848 14.0272 3.13616 13.9182 3.51954 14.1362L37.2021 34.7888L72.1443 13.3733C72.5276 13.1553 73.0206 13.2643 73.2944 13.6458C73.5135 14.0272 73.4039 14.5176 73.0206 14.7901L37.6402 36.4236C37.4759 36.5325 37.3664 36.5325 37.2021 36.5325Z" fill="#985BEF" stroke="#985BEF" stroke-width="2"/>
<path d="M61.0809 53.0433H13.3229C6.5316 53.0433 1 47.5395 1 40.837V20.9473C1 20.5113 1.38338 20.1299 1.82152 20.1299C2.25967 20.1299 2.64305 20.4568 2.64305 20.9473V40.837C2.64305 46.6677 7.40789 51.463 13.3229 51.463H61.1356C66.9958 51.463 71.8155 46.7221 71.8155 40.837V21.3287C71.8155 20.8928 72.1988 20.5113 72.637 20.5113C73.0751 20.5113 73.4585 20.8928 73.4585 21.3287V40.7825C73.4037 47.5395 67.8721 53.0433 61.0809 53.0433Z" fill="#985BEF" stroke="#985BEF" stroke-width="2"/>
<path d="M70.5556 11.9565C70.3913 11.9565 70.2818 11.902 70.1175 11.8475C66.8314 9.94023 63.3262 8.30546 59.7663 6.99765C49.4698 3.18318 40.3783 2.63826 35.942 2.69275C29.3151 2.69275 22.469 3.83709 16.0611 5.9078C11.5153 7.37909 7.13388 9.39531 3.02626 11.793C2.64288 12.0654 2.14996 11.902 1.87612 11.5205C1.65705 11.1391 1.76658 10.6486 2.14996 10.3762C6.42189 7.92402 10.9129 5.9078 15.5682 4.38201C22.1404 2.25681 29.1508 1.05798 35.942 1.00349C40.5426 0.948996 49.7984 1.49392 60.3687 5.41737C64.0382 6.77968 67.5981 8.46894 70.9938 10.4307C71.3771 10.6486 71.5415 11.1391 71.2676 11.5205C71.1033 11.793 70.8295 11.9565 70.5556 11.9565Z" fill="#985BEF" stroke="#985BEF" stroke-width="2"/>
</svg>
