<svg width="135" height="101" viewBox="0 0 135 101" fill="none" xmlns="http://www.w3.org/2000/svg">
<path d="M47.706 78.3391C38.6512 82.2919 23.4754 78.7952 15.6346 73.1193C6.63038 66.5313 -4.1444 51.5308 1.62238 40.2804C2.78585 38.0506 8.50204 37.3411 10.1208 39.3175C14.6229 43.8278 12.4983 51.6321 13.4089 57.2573C15.9382 73.0687 32.075 77.4776 45.5308 76.3627L47.706 78.3391Z" fill="#1E1C1D"/>
<path d="M62.2243 84.5217C57.0645 86.1434 53.7259 89.3361 53.7764 92.4781C53.7764 94.0998 54.7376 95.316 55.2434 96.0255C58.6327 100.384 67.0299 102.411 72.4426 98.4073C75.7813 95.9241 78.1588 91.0591 76.6918 88.7786C75.5789 86.9542 72.6449 87.7651 64.3995 85.2312C63.4889 84.9271 62.7301 84.6738 62.2243 84.5217Z" fill="#1E1C1D"/>
<path d="M102.743 84.5217C107.903 86.1434 111.242 89.3361 111.191 92.4781C111.191 94.0998 110.23 95.316 109.724 96.0255C106.335 100.384 97.9378 102.411 92.5251 98.4073C89.1864 95.9241 86.8089 91.0591 88.2759 88.7786C89.3888 86.9542 92.3227 87.7651 100.568 85.2312C101.479 84.9271 102.238 84.6738 102.743 84.5217Z" fill="#1E1C1D"/>
<path d="M53.2197 83.0015C46.5423 78.6433 40.3203 69.9268 39.865 69.1159C39.4097 68.2544 39.0051 67.3929 39.0051 67.3929C38.8533 67.0888 38.7521 66.8354 38.651 66.582C33.3395 53.9127 38.4486 41.4461 39.7639 38.0507C40.7756 35.4155 42.2426 33.0336 43.5578 30.5504C46.7447 24.2664 49.3751 17.7291 52.3597 11.3437C54.029 7.7963 56.8619 0.701468 61.2628 0.194694C68.1425 -0.616144 70.6212 8.45511 72.5434 13.5228C78.7149 12.9147 84.937 12.864 91.159 13.4722C95.0541 1.76569 102.035 -7.60962 110.129 8.9112C114.783 18.4892 118.374 28.574 123.686 37.848C129.958 48.8956 128.491 57.004 125.608 65.011C121.662 75.9574 112.051 81.1771 107.903 83.559C87.1627 95.5188 62.7804 89.1842 53.2197 83.0015Z" fill="#BA89FF"/>
<mask id="mask0_153_583" style="mask-type:luminance" maskUnits="userSpaceOnUse" x="36" y="0" width="93" height="91">
<path d="M53.2197 83.0015C46.5423 78.6433 40.3203 69.9268 39.865 69.1159C39.4097 68.2544 39.0051 67.3929 39.0051 67.3929C38.8533 67.0888 38.7521 66.8354 38.651 66.582C33.3395 53.9127 38.4486 41.4461 39.7639 38.0507C40.7756 35.4155 42.2426 33.0336 43.5578 30.5504C46.7447 24.2664 49.3751 17.7291 52.3597 11.3437C54.029 7.7963 56.8619 0.701468 61.2628 0.194694C68.1425 -0.616144 70.6212 8.45511 72.5434 13.5228C78.7149 12.9147 84.937 12.864 91.159 13.4722C95.0541 1.76569 102.035 -7.60962 110.129 8.9112C114.783 18.4892 118.374 28.574 123.686 37.848C129.958 48.8956 128.491 57.004 125.608 65.011C121.662 75.9574 112.051 81.1771 107.903 83.559C87.1627 95.5188 62.7804 89.1842 53.2197 83.0015Z" fill="white"/>
</mask>
<g mask="url(#mask0_153_583)">
<path d="M70.8237 34.0472C70.9249 34.2499 70.9755 34.4526 70.9755 34.6553C70.9755 34.5539 70.9249 34.4526 70.9249 34.3006C70.9249 34.5033 70.9249 34.706 70.9249 34.9594C70.9249 34.858 70.9755 34.7567 70.9755 34.6046C70.9249 34.8073 70.9249 34.9594 70.8237 35.1621C70.7731 35.2634 70.7731 35.2634 70.8743 35.0607C70.8743 35.1114 70.8237 35.1621 70.8237 35.1621C70.7731 35.2128 70.672 35.3648 70.672 35.4155C70.7731 35.2634 70.8237 35.2634 70.7225 35.3648C70.6719 35.4155 70.672 35.4661 70.6214 35.4661C70.5708 35.5675 70.4696 35.6182 70.419 35.6689C70.2673 35.8209 70.1155 35.9729 69.9637 36.0743C69.9132 36.1249 69.7614 36.1756 69.7108 36.277C69.8626 36.1756 69.9132 36.1249 69.7614 36.2263C69.7108 36.277 69.6602 36.277 69.6602 36.3277C69.5085 36.429 69.3061 36.581 69.1544 36.6317C69.0532 36.6824 68.952 36.7331 68.9014 36.7838C68.8003 36.8344 68.8003 36.8344 69.0026 36.7331C68.952 36.7331 68.9015 36.7838 68.8509 36.7838C68.6485 36.8344 68.4462 36.8851 68.2438 36.9358C68.345 36.9358 68.4462 36.8851 68.5979 36.8851C68.345 36.9358 68.1427 36.9358 67.8897 36.8851C67.9909 36.8851 68.0921 36.9358 68.2438 36.9358C68.1427 36.9358 68.0921 36.9358 68.0415 36.8851C67.3839 36.7331 66.6251 37.0878 66.4733 37.7466C66.3216 38.4054 66.6757 39.1656 67.3333 39.3176C68.2944 39.5203 69.205 39.3683 70.1155 38.9629C70.7731 38.6588 71.3802 38.2027 71.9366 37.6959C72.5942 37.1385 73.1001 36.5304 73.353 35.7195C73.6059 34.9594 73.6059 34.0472 73.3024 33.3377C73.2012 33.0336 73.0495 32.7802 72.746 32.5775C72.493 32.4255 72.0884 32.3748 71.7848 32.4255C71.0766 32.6789 70.5202 33.3884 70.8237 34.0472Z" fill="#BA89FF"/>
</g>
<mask id="mask1_153_583" style="mask-type:luminance" maskUnits="userSpaceOnUse" x="36" y="0" width="93" height="91">
<path d="M53.2197 83.0015C46.5423 78.6433 40.3203 69.9268 39.865 69.1159C39.4097 68.2544 39.0051 67.3929 39.0051 67.3929C38.8533 67.0888 38.7521 66.8354 38.651 66.582C33.3395 53.9127 38.4486 41.4461 39.7639 38.0507C40.7756 35.4155 42.2426 33.0336 43.5578 30.5504C46.7447 24.2664 49.3751 17.7291 52.3597 11.3437C54.029 7.7963 56.8619 0.701468 61.2628 0.194694C68.1425 -0.616144 70.6212 8.45511 72.5434 13.5228C78.7149 12.9147 84.937 12.864 91.159 13.4722C95.0541 1.76569 102.035 -7.60962 110.129 8.9112C114.783 18.4892 118.374 28.574 123.686 37.848C129.958 48.8956 128.491 57.004 125.608 65.011C121.662 75.9574 112.051 81.1771 107.903 83.559C87.1627 95.5188 62.7804 89.1842 53.2197 83.0015Z" fill="white"/>
</mask>
<g mask="url(#mask1_153_583)">
<path d="M90.9062 35.01C90.9062 35.7195 91.0074 36.5303 91.2604 37.1891C91.4121 37.5945 91.6144 38 91.9685 38.304C92.3226 38.6081 92.7779 38.8108 93.2332 38.9121C93.6885 39.0135 94.0932 39.0642 94.5484 39.1149C94.7508 39.1149 94.9025 39.1655 95.1049 39.1655C95.206 39.1655 95.3072 39.1655 95.3578 39.1655C95.4084 39.1655 95.6613 39.1655 95.4084 39.1655C95.2061 39.1655 95.0543 39.0642 94.9025 38.9121C94.8014 38.7601 94.7508 38.7094 94.8014 38.7601C94.8014 38.8108 94.8013 38.8108 94.8519 38.8108C94.9531 38.9628 95.0543 39.0642 95.1555 39.1655C95.459 39.4189 95.8636 39.5203 96.2683 39.4696C96.673 39.4189 97.1283 39.2162 97.4824 38.9628C97.7353 38.7601 97.9882 38.5574 98.0388 38.2027C98.14 37.8986 98.0894 37.4932 97.8871 37.2398C97.533 36.733 96.7236 36.3783 96.1672 36.7837C96.066 36.8344 95.9648 36.9357 95.8637 36.9864C95.7119 37.0878 95.9142 36.9357 95.9648 36.9357C95.9142 36.9357 95.9142 36.9357 95.8637 36.9864C95.6107 37.0371 95.8131 37.0878 96.5719 37.0878C96.7236 37.2398 96.8754 37.3918 97.0271 37.5439C96.9259 37.3918 96.8754 37.2398 96.7236 37.1384C96.5213 36.9357 96.3189 36.7837 96.066 36.733C95.7625 36.6317 95.459 36.6317 95.1555 36.6317C94.9025 36.6317 94.599 36.5303 94.3461 36.581C94.4978 36.581 94.599 36.581 94.3461 36.581C94.2955 36.581 94.1943 36.581 94.1438 36.5303C93.992 36.5303 93.8908 36.4796 93.739 36.429C93.6885 36.429 93.6379 36.429 93.5873 36.3783H93.5367C93.4355 36.3276 93.4861 36.3783 93.6885 36.429L93.5873 36.3783C93.5873 36.429 93.8402 36.581 93.6885 36.429C93.5873 36.3276 93.8402 36.6317 93.7896 36.5303C93.7896 36.4796 93.6885 36.429 93.6885 36.3783C93.6885 36.429 93.7896 36.6823 93.739 36.4796C93.739 36.429 93.6885 36.3783 93.6885 36.3276C93.6379 36.2262 93.6379 36.1249 93.6379 36.0235C93.6379 35.9729 93.6379 35.9222 93.5873 35.8715C93.5873 35.8715 93.5367 35.5674 93.5873 35.7701C93.5873 35.9729 93.5873 35.7701 93.5873 35.7195C93.5873 35.6688 93.5873 35.5674 93.5873 35.5168C93.5873 35.3647 93.5873 35.2127 93.5873 35.0607C93.5873 34.4019 93.0308 33.7431 92.3226 33.7937C91.5133 33.7431 90.9062 34.3005 90.9062 35.01Z" fill="#BA89FF"/>
</g>
<path d="M72.2419 35.4691C72.8258 33.1632 71.8064 30.9144 69.965 30.4464C68.1235 29.9784 66.1574 31.4684 65.5734 33.7744C64.9895 36.0803 66.0089 38.3291 67.8503 38.7971C69.6918 39.2651 71.658 37.7751 72.2419 35.4691Z" fill="#080605"/>
<path d="M96.5768 38.8443C98.4182 38.3763 99.4377 36.1276 98.8537 33.8216C98.2698 31.5156 96.3036 30.0257 94.4622 30.4937C92.6207 30.9617 91.6013 33.2104 92.1852 35.5164C92.7692 37.8224 94.7353 39.3123 96.5768 38.8443Z" fill="#080605"/>
<path d="M52.0563 46.007C51.7528 46.007 51.4998 45.9057 51.3481 45.6523C50.4375 44.7908 39.7134 37.2398 33.0866 32.6789C32.6819 32.3748 32.5808 31.8174 32.8337 31.3613C33.1372 30.9558 33.6936 30.8545 34.1489 31.1079C52.4104 43.7772 52.7645 44.3853 52.8657 44.588C53.1186 45.0441 52.9668 45.6016 52.5622 45.855C52.4104 46.007 52.2586 46.007 52.0563 46.007Z" fill="#080605"/>
<path d="M29.7479 64.5043C29.3938 64.5043 29.0398 64.3016 28.888 63.9468C28.6857 63.4908 28.888 62.9333 29.3433 62.7306C49.6282 53.71 50.3364 53.6593 50.5893 53.71C51.0952 53.71 51.4998 54.1154 51.4998 54.6729C51.4998 55.129 51.1457 55.5344 50.6905 55.5851C49.4764 55.8891 37.4876 61.2103 30.102 64.4536C30.0009 64.4536 29.8491 64.5043 29.7479 64.5043Z" fill="#080605"/>
<path d="M50.1343 51.3282C50.0331 51.3282 49.932 51.3282 49.8308 51.2775C48.6167 51.0241 35.515 50.5174 27.4213 50.264C26.9154 50.264 26.5107 49.8079 26.5107 49.3011C26.5107 48.7943 26.966 48.3889 27.4719 48.3889C49.6284 49.1491 50.286 49.4531 50.4884 49.5545C50.9437 49.8079 51.146 50.3653 50.8931 50.8214C50.8425 51.1255 50.4884 51.3282 50.1343 51.3282Z" fill="#080605"/>
<path d="M127.277 64.5043C127.075 64.5043 126.923 64.4536 126.772 64.3522C108.51 51.6829 108.156 51.0748 108.055 50.872C107.802 50.4159 107.954 49.8585 108.358 49.6051C108.763 49.3517 109.269 49.4531 109.572 49.8078C110.483 50.6693 121.207 58.2203 127.834 62.7812C128.239 63.0853 128.34 63.6427 128.087 64.0988C127.834 64.3522 127.581 64.5043 127.277 64.5043Z" fill="#080605"/>
<path d="M110.331 41.8009C109.826 41.8009 109.37 41.3955 109.421 40.8381C109.421 40.382 109.775 39.9766 110.23 39.9259C111.444 39.6218 123.433 34.3007 130.819 31.0573C131.274 30.8546 131.83 31.0573 132.033 31.5134C132.235 31.9695 132.033 32.527 131.577 32.7297C111.495 41.6996 110.534 41.8009 110.331 41.8009Z" fill="#080605"/>
<path d="M133.398 47.0712C133.348 47.0712 133.348 47.0712 133.398 47.0712C111.191 46.311 110.534 46.0069 110.331 45.9056C109.876 45.6522 109.674 45.0948 109.927 44.6387C110.129 44.2332 110.635 44.0305 111.039 44.1826C112.254 44.4359 125.355 44.9427 133.449 45.1961C133.955 45.1961 134.36 45.6522 134.36 46.159C134.309 46.7164 133.854 47.0712 133.398 47.0712Z" fill="#080605"/>
<path d="M68.5471 13.3707C68.1424 13.3707 67.7883 13.1173 67.6366 12.7119C65.9673 6.73198 62.7804 4.14744 61.5157 4.4515C60.4028 4.70489 59.1888 7.54282 59.1888 11.6477C59.1888 12.1545 58.7841 12.5599 58.2782 12.5599C57.7724 12.5599 57.3677 12.1545 57.3677 11.6477C57.3677 7.5935 58.5311 3.28592 61.111 2.67779C64.045 1.96831 67.7883 6.27589 69.4577 12.2558C69.6094 12.7626 69.3059 13.2694 68.8001 13.4214C68.6989 13.32 68.6483 13.3707 68.5471 13.3707Z" fill="#080605"/>
<path d="M106.891 13.3707C106.487 13.3707 106.133 13.1173 105.981 12.7119C104.311 6.73198 101.125 4.14744 99.86 4.4515C98.7471 4.70489 97.533 7.54282 97.533 11.6477C97.533 12.1545 97.1283 12.5599 96.6225 12.5599C96.1166 12.5599 95.7119 12.1545 95.7119 11.6477C95.7119 7.5935 96.8754 3.28592 99.4553 2.67779C102.389 1.96831 106.133 6.27589 107.802 12.2558C107.954 12.7626 107.65 13.2694 107.144 13.4214C107.043 13.32 106.993 13.3707 106.891 13.3707Z" fill="#080605"/>
<path d="M91.0579 59.9941C90.8556 59.9941 90.6532 59.9941 90.4509 59.9434C88.2251 59.5887 87.011 57.5616 85.8981 55.7372C84.9876 54.2169 84.0771 52.7472 82.9136 52.6965C81.6995 52.5952 80.6878 53.9635 79.4738 55.5345C78.0574 57.4095 76.4892 59.4873 73.9599 59.7914C70.8742 60.1968 67.5861 57.7136 63.9439 52.2404C63.6404 51.835 63.7922 51.2269 64.1969 50.9228C64.6015 50.6188 65.2086 50.7708 65.5121 51.1762C68.5978 55.8385 71.4812 58.1697 73.707 57.8656C75.4269 57.6629 76.6916 55.9906 77.9562 54.3182C79.322 52.4938 80.789 50.5681 83.0148 50.7201C85.19 50.8722 86.3534 52.7979 87.4663 54.673C88.4275 56.2946 89.338 57.7643 90.7038 57.967C92.019 58.1697 94.2448 57.2575 97.7352 51.835C97.9882 51.3789 98.5952 51.2776 98.9999 51.531C99.4551 51.7843 99.5563 52.3925 99.3034 52.7979C96.3188 57.6629 93.5872 59.9941 91.0579 59.9941Z" fill="#080605"/>
</svg>
