<svg width="135" height="101" viewBox="0 0 135 101" fill="none" xmlns="http://www.w3.org/2000/svg">
<path d="M47.706 78.3472C38.6512 82.3 23.4754 78.8033 15.6346 73.1274C6.63035 66.5393 -4.1444 51.5388 1.62238 40.2885C2.78585 38.0587 8.50201 37.3492 10.1208 39.3256C14.6229 43.8359 12.4983 51.6402 13.4088 57.2654C15.8875 73.0767 32.075 77.4856 45.5308 76.3707L47.706 78.3472Z" fill="#1E1C1D"/>
<path d="M62.2242 84.5298C57.0645 86.1515 53.7259 89.3441 53.7764 92.4861C53.7764 94.1078 54.7376 95.3241 55.2434 96.0335C58.6327 100.392 67.0299 102.419 72.4426 98.4154C75.7813 95.9322 78.1588 91.0672 76.6918 88.7867C75.5789 86.9623 72.6449 87.7731 64.3995 85.2393C63.4889 84.9352 62.7301 84.6818 62.2242 84.5298Z" fill="#1E1C1D"/>
<path d="M102.794 84.5298C107.953 86.1515 111.292 89.3441 111.242 92.4861C111.242 94.1078 110.28 95.3241 109.775 96.0335C106.385 100.392 97.9881 102.419 92.5754 98.4154C89.2367 95.9322 86.8592 91.0672 88.3262 88.7867C89.439 86.9623 92.373 87.7731 100.619 85.2393C101.529 84.9352 102.288 84.6818 102.794 84.5298Z" fill="#1E1C1D"/>
<path d="M53.2705 83.0095C46.5931 78.6513 40.3711 69.9347 39.9158 69.1239C39.4605 68.2624 39.0559 67.4009 39.0559 67.4009C38.9041 67.0968 38.8029 66.8434 38.7017 66.59C33.3902 53.9207 38.4994 41.4541 39.8147 38.0587C40.8264 35.4235 42.2934 33.0416 43.6086 30.5584C46.7955 24.2744 49.4259 17.7371 52.4105 11.3517C54.0798 7.8043 56.9127 0.709463 61.3136 0.20269C68.1933 -0.608148 70.672 8.4631 72.5942 13.5308C78.7657 12.9227 84.9878 12.872 91.2098 13.4802C95.0543 1.67233 102.086 -7.6523 110.179 8.86852C114.833 18.4465 118.425 28.5313 123.736 37.8053C130.009 48.853 128.542 56.9613 125.659 64.9684C121.713 75.9147 112.102 81.1345 107.954 83.5163C87.2135 95.5268 62.7806 89.1922 53.2705 83.0095Z" fill="#BA89FF"/>
<mask id="mask0_153_626" style="mask-type:luminance" maskUnits="userSpaceOnUse" x="36" y="-1" width="93" height="92">
<path d="M53.2705 83.0095C46.5931 78.6513 40.3711 69.9347 39.9158 69.1239C39.4605 68.2624 39.0559 67.4009 39.0559 67.4009C38.9041 67.0968 38.8029 66.8434 38.7017 66.59C33.3902 53.9207 38.4994 41.4541 39.8147 38.0587C40.8264 35.4235 42.2934 33.0416 43.6086 30.5584C46.7955 24.2744 49.4259 17.7371 52.4105 11.3517C54.0798 7.8043 56.9127 0.709463 61.3136 0.20269C68.1933 -0.608148 70.672 8.4631 72.5942 13.5308C78.7657 12.9227 84.9878 12.872 91.2098 13.4802C95.0543 1.67233 102.086 -7.6523 110.179 8.86852C114.833 18.4465 118.425 28.5313 123.736 37.8053C130.009 48.853 128.542 56.9613 125.659 64.9684C121.713 75.9147 112.102 81.1345 107.954 83.5163C87.2135 95.5268 62.7806 89.1922 53.2705 83.0095Z" fill="white"/>
</mask>
<g mask="url(#mask0_153_626)">
<path d="M72.8977 30.7104C71.6837 30.3556 70.4697 31.2678 70.1661 32.4334C70.0144 32.9908 70.065 33.599 70.1661 34.1057C70.3179 34.8659 70.9755 35.4234 71.7343 35.4234C72.3919 35.4234 72.9989 35.0686 73.3024 34.5618C73.7071 33.9537 73.606 33.0922 73.2013 32.5347C72.746 31.9266 71.9366 31.6732 71.1779 31.9773C70.4191 32.2814 70.0144 33.1429 70.2673 33.903C70.419 34.3591 70.8237 34.8152 71.3296 34.9673C71.7848 35.0686 72.1895 35.0179 72.5436 34.8152C72.8472 34.6632 73.0495 34.3591 73.2013 34.1057C73.3025 33.9537 73.353 33.8017 73.4542 33.6496C73.4036 33.751 73.3024 33.8017 73.2519 33.903C73.3024 33.8524 73.353 33.8017 73.4036 33.751C73.3024 33.8017 73.2518 33.903 73.1507 33.9537C73.2012 33.903 73.3024 33.8524 73.353 33.8524C73.2518 33.903 73.1507 33.9537 73.0495 34.0044C73.1001 33.9537 73.2013 33.9537 73.3024 33.9537C73.2013 33.9537 73.1001 34.0044 72.9484 34.0044C73.0495 34.0044 73.1001 34.0044 73.2013 34.0044C73.1001 34.0044 72.9989 33.9537 72.8471 33.9537C72.9483 33.9537 72.9989 34.0044 73.1001 34.0044C72.9989 33.9537 72.8977 33.903 72.7966 33.8524H72.8471C73.1507 33.0922 73.5048 32.332 73.8083 31.5212C72.9483 31.3692 72.139 31.3692 71.279 31.5212C70.5202 31.6225 69.812 31.8759 69.1544 32.2307C68.5474 32.5347 68.345 33.3963 68.6991 33.9537C69.1038 34.5618 69.812 34.7139 70.4191 34.4098C70.5202 34.3591 70.672 34.3084 70.7731 34.2578C70.672 34.3084 70.5708 34.3591 70.4696 34.4098C70.9755 34.2071 71.4814 34.0551 71.9872 34.0044C71.886 34.0044 71.7848 34.0551 71.6331 34.0551C72.1389 34.0044 72.6954 34.0044 73.2013 34.0551C73.1001 34.0551 72.9989 34.0044 72.8471 34.0044C72.8977 34.0044 72.9483 34.0044 73.0495 34.0551C73.4036 34.1057 73.7071 34.1057 74.0106 33.903C74.2636 33.751 74.4153 33.5483 74.5165 33.2949C74.7188 32.7374 74.5671 31.9773 74.0106 31.7239C73.6565 31.5719 73.3025 31.4705 72.9484 31.4705C72.5943 31.4705 72.1895 31.5719 71.886 31.7746C71.5825 31.9773 71.3296 32.2307 71.1272 32.5347C71.026 32.6868 70.9755 32.8895 70.8743 32.9908C70.9249 32.8895 71.0261 32.8388 71.0766 32.7374C71.0261 32.7881 71.0261 32.7881 70.9755 32.8388C71.0767 32.7881 71.1273 32.6868 71.2284 32.6361C71.1778 32.6361 71.1778 32.6868 71.1272 32.6868C71.2284 32.6361 71.3296 32.5854 71.4308 32.5347C71.4308 32.5347 71.3802 32.5347 71.3296 32.5347C71.4307 32.5347 71.532 32.4841 71.6837 32.4841H71.6331C71.7342 32.4841 71.8355 32.5347 71.9872 32.5347C71.9366 32.5347 71.9366 32.5347 71.886 32.5347C71.9872 32.5854 72.0884 32.6361 72.1896 32.6868C72.1896 32.6868 72.1389 32.6868 72.1389 32.6361C72.2401 32.6868 72.2907 32.7881 72.3919 32.8388L72.3413 32.7881C72.3919 32.8895 72.4931 32.9402 72.5436 33.0415L72.4931 32.9908C72.5437 33.0922 72.5942 33.1935 72.6448 33.2949C72.6448 33.2442 72.5942 33.2442 72.5942 33.1935C72.5942 33.2949 72.6448 33.3963 72.6448 33.5483C72.6448 33.4976 72.6448 33.4976 72.6448 33.4469C72.6448 33.5483 72.5942 33.6496 72.5942 33.8017C72.5942 33.751 72.5942 33.751 72.5942 33.7003C72.5436 33.8017 72.4931 33.903 72.4425 34.0044C72.4425 33.9537 72.4931 33.9537 72.4931 33.9537C72.4425 34.0551 72.3413 34.1057 72.2907 34.2071L72.3413 34.1564C72.2401 34.2071 72.1895 34.3084 72.0884 34.3591L72.1389 34.3084C72.0378 34.3591 71.9366 34.4098 71.8354 34.4605C71.886 34.4605 71.9366 34.4605 71.9366 34.4098C71.8355 34.4098 71.7343 34.4605 71.5825 34.4605C71.6331 34.4605 71.6331 34.4605 71.6837 34.4605C71.5825 34.4605 71.4813 34.4098 71.3296 34.4098C71.3802 34.4098 71.4308 34.4098 71.4814 34.4605C71.3802 34.4098 71.279 34.3591 71.1779 34.3084C71.2284 34.3084 71.2284 34.3084 71.279 34.3591C71.1778 34.3084 71.1272 34.2071 71.0261 34.1564C71.0767 34.2071 71.0766 34.2071 71.1272 34.2578C71.0766 34.1564 70.9755 34.1057 70.9249 34.0044C70.9249 34.0551 70.9755 34.0551 70.9755 34.1057C70.9249 34.0044 70.8743 33.903 70.8237 33.8017C70.8237 33.8523 70.8743 33.903 70.8743 33.9537C70.8743 33.8524 70.8237 33.751 70.8237 33.599C70.8237 33.6496 70.8237 33.751 70.8237 33.8017C70.8237 33.7003 70.8743 33.599 70.8743 33.4469C70.8743 33.4976 70.8743 33.5483 70.8237 33.599C70.8743 33.4976 70.9249 33.3963 70.9755 33.2949C70.9755 33.3456 70.9249 33.3456 70.9249 33.3963C70.9755 33.2949 71.0766 33.2442 71.1272 33.1429C71.0766 33.1935 71.0767 33.1935 71.0261 33.2442C71.1272 33.1935 71.1778 33.0922 71.279 33.0415C71.2284 33.0922 71.1778 33.0922 71.1272 33.1429C71.2284 33.0922 71.3296 33.0415 71.4308 32.9908C71.3802 32.9908 71.3296 33.0415 71.3296 33.0415C71.4307 33.0415 71.532 32.9908 71.6837 32.9908C71.6331 32.9908 71.5825 32.9908 71.5825 32.9908C71.6837 32.9908 71.7849 33.0415 71.9366 33.0415C71.8861 33.0415 71.886 33.0415 71.8354 32.9908C71.9366 33.0415 72.0378 33.0922 72.1389 33.1429C72.1389 33.1429 72.0884 33.1429 72.0884 33.0922C72.1895 33.1429 72.2401 33.2442 72.3413 33.2949L72.2907 33.2442C72.3413 33.3456 72.4425 33.3963 72.4931 33.4976C72.4931 33.4469 72.4425 33.4469 72.4425 33.3963C72.4931 33.4976 72.5436 33.599 72.5942 33.7003C72.5436 33.6496 72.5436 33.5483 72.5436 33.4976C72.5436 33.599 72.5942 33.7003 72.5942 33.8524C72.5436 33.5483 72.5436 33.2949 72.5942 32.9908C72.5942 33.0922 72.5436 33.1935 72.5436 33.3456C72.5436 33.2442 72.5942 33.0922 72.6448 32.9908C72.5942 33.0922 72.4931 33.1429 72.4425 33.2442C72.4931 33.1935 72.5436 33.1429 72.6448 33.0415C72.5436 33.0922 72.493 33.1935 72.3919 33.2442C72.4425 33.1935 72.5436 33.1429 72.5942 33.0922C72.493 33.1429 72.3919 33.1935 72.2907 33.2442C72.3413 33.2442 72.3919 33.1935 72.4931 33.1935C72.3919 33.1935 72.2907 33.2442 72.1389 33.2442C72.1895 33.2442 72.2907 33.2442 72.3413 33.2442C72.2401 33.2442 72.139 33.1935 71.9872 33.1935C72.0378 33.1935 72.0883 33.1935 72.1389 33.2442C72.746 33.4469 73.5554 32.9908 73.7071 32.3827C73.9095 31.5719 73.5553 30.9131 72.8977 30.7104Z" fill="#BA89FF"/>
</g>
<mask id="mask1_153_626" style="mask-type:luminance" maskUnits="userSpaceOnUse" x="36" y="-1" width="93" height="92">
<path d="M53.2705 83.0095C46.5931 78.6513 40.3711 69.9347 39.9158 69.1239C39.4605 68.2624 39.0559 67.4009 39.0559 67.4009C38.9041 67.0968 38.8029 66.8434 38.7017 66.59C33.3902 53.9207 38.4994 41.4541 39.8147 38.0587C40.8264 35.4235 42.2934 33.0416 43.6086 30.5584C46.7955 24.2744 49.4259 17.7371 52.4105 11.3517C54.0798 7.8043 56.9127 0.709463 61.3136 0.20269C68.1933 -0.608148 70.672 8.4631 72.5942 13.5308C78.7657 12.9227 84.9878 12.872 91.2098 13.4802C95.0543 1.67233 102.086 -7.6523 110.179 8.86852C114.833 18.4465 118.425 28.5313 123.736 37.8053C130.009 48.853 128.542 56.9613 125.659 64.9684C121.713 75.9147 112.102 81.1345 107.954 83.5163C87.2135 95.5268 62.7806 89.1922 53.2705 83.0095Z" fill="white"/>
</mask>
<g mask="url(#mask1_153_626)">
<path d="M93.1319 31.0145C92.8283 31.2172 92.5248 31.3693 92.2719 31.572C91.9178 31.8254 91.5131 32.0787 91.3108 32.4842C90.8049 33.3964 91.1085 34.5113 91.9178 35.1194C92.1202 35.2714 92.3225 35.3728 92.5754 35.4741C92.7778 35.5755 93.0307 35.5755 93.2836 35.5755C93.7389 35.5755 94.1942 35.4234 94.5989 35.2207C95.0035 34.9674 95.3071 34.6633 95.6106 34.3085C95.8635 33.9538 96.0659 33.3964 96.0153 32.9403C95.9647 32.6362 95.9647 32.4842 95.8129 32.1801C95.7623 32.0281 95.6612 31.9267 95.56 31.8254C95.4082 31.6733 95.2565 31.5213 95.0541 31.4199C94.7506 31.2679 94.4471 31.1665 94.1436 31.2172C93.6883 31.2172 93.3342 31.4199 93.0307 31.6733C92.7778 31.876 92.6766 32.2308 92.6766 32.5855C92.6766 32.8896 92.8284 33.2443 93.0307 33.4977C93.2836 33.7004 93.5872 33.9031 93.9413 33.8525C94.2954 33.8525 94.5989 33.7004 94.8518 33.4977C94.8518 33.4977 94.9024 33.4977 94.9024 33.447C94.8012 33.4977 94.7506 33.5991 94.6494 33.6497C94.7 33.6497 94.7 33.5991 94.7506 33.5991C94.6495 33.6497 94.5483 33.7004 94.4471 33.7511C94.4977 33.7511 94.4977 33.7511 94.5483 33.7511C94.4471 33.7511 94.346 33.8018 94.1942 33.8018C94.2448 33.8018 94.2448 33.8018 94.2953 33.8018C94.1942 33.8018 94.093 33.7511 93.9413 33.7511C93.9919 33.7511 94.0424 33.7511 94.093 33.8018C93.9918 33.7511 93.8907 33.7004 93.7895 33.6497C93.8401 33.6497 93.8907 33.7004 93.9413 33.7511C93.8401 33.7004 93.7895 33.5991 93.6883 33.5484C93.7389 33.5991 93.7895 33.5991 93.7895 33.6497C93.7389 33.5484 93.6377 33.4977 93.5871 33.3964C93.6377 33.447 93.6377 33.447 93.6377 33.4977C93.5871 33.3964 93.5366 33.295 93.486 33.1936C93.486 33.2443 93.486 33.295 93.5366 33.295C93.5366 33.1936 93.486 33.0923 93.486 32.9403C93.486 32.9909 93.486 33.0923 93.486 33.143C93.486 33.0416 93.5366 32.9403 93.5366 32.7882C93.5366 32.8896 93.486 32.9403 93.486 33.0416C93.5366 32.9403 93.6378 32.8896 93.6883 32.7882C93.5872 32.8896 93.486 32.9909 93.3848 33.0923C93.486 33.0416 93.5365 32.9403 93.6377 32.8896C93.5365 32.9909 93.3848 33.0416 93.2836 33.0923C93.3848 33.0416 93.486 32.9909 93.5871 32.9403C93.486 32.9909 93.3848 33.0416 93.2331 33.0416C93.3342 33.0416 93.4354 32.9909 93.5871 32.9909C93.486 32.9909 93.3848 32.9909 93.2836 32.9909C93.3848 32.9909 93.486 33.0416 93.6377 33.0416C93.5365 33.0416 93.486 32.9909 93.3848 32.9909C93.486 33.0416 93.5872 33.0923 93.6883 33.143C93.6378 33.0923 93.5366 33.0923 93.486 33.0416C93.5872 33.0923 93.6377 33.1936 93.7389 33.2443C93.6883 33.1936 93.6377 33.143 93.5871 33.0923C93.6377 33.1936 93.7389 33.2443 93.7895 33.3457C93.7389 33.295 93.6883 33.1936 93.6883 33.143C93.7389 33.2443 93.7895 33.3457 93.8401 33.447C93.7895 33.3964 93.7895 33.295 93.7895 33.2443C93.7895 33.3457 93.8401 33.447 93.8401 33.5991C93.8401 33.5484 93.8401 33.447 93.8401 33.3964C93.8401 33.4977 93.7895 33.5991 93.7895 33.7511C93.7895 33.7004 93.8401 33.6497 93.8401 33.5991C93.7895 33.7004 93.7389 33.8018 93.6883 33.9031C93.6883 33.8525 93.7389 33.8018 93.7895 33.7511C93.7389 33.8524 93.6377 33.9031 93.5871 34.0045C93.6377 33.9538 93.6883 33.8524 93.7895 33.8018C93.6883 33.8524 93.6377 33.9538 93.5366 34.0045C93.8907 33.7511 94.2954 33.4977 94.7001 33.2443C94.953 33.0923 95.2059 32.7882 95.2565 32.4842C95.3577 32.1801 95.3071 31.7747 95.1047 31.5213C94.953 31.2679 94.6494 31.0145 94.3459 30.9638C93.7895 30.8118 93.4354 30.8118 93.1319 31.0145Z" fill="#BA89FF"/>
</g>
<path d="M52.1071 46.015C51.8036 46.015 51.5506 45.9136 51.3989 45.6602C50.4883 44.7987 39.7641 37.2478 33.1374 32.6868C32.7327 32.3828 32.6315 31.8253 32.8845 31.3692C33.1374 30.9131 33.7444 30.8624 34.1997 31.1158C52.4612 43.7852 52.8153 44.3933 52.9164 44.596C53.1694 45.0521 53.0176 45.6095 52.6129 45.8629C52.4106 46.015 52.2588 46.015 52.1071 46.015Z" fill="#080605"/>
<path d="M29.748 64.5124C29.3939 64.5124 29.0398 64.3096 28.888 63.9549C28.6857 63.4988 28.888 62.9414 29.3433 62.7386C49.6282 53.7181 50.3364 53.6674 50.5893 53.7181C51.0952 53.7181 51.4999 54.1235 51.4999 54.6809C51.4999 55.137 51.1458 55.5425 50.6905 55.5931C49.4765 55.8972 37.4876 61.2183 30.1021 64.4617C30.0009 64.4617 29.8998 64.5124 29.748 64.5124Z" fill="#080605"/>
<path d="M50.1846 51.3363C50.0835 51.3363 49.9822 51.3363 49.8811 51.2856C48.667 51.0322 35.5653 50.5254 27.4716 50.272C26.9657 50.272 26.561 49.8159 26.561 49.3092C26.561 48.8024 27.0163 48.397 27.5222 48.397C49.6788 49.1571 50.3364 49.4612 50.5387 49.5626C50.994 49.8159 51.1964 50.3734 50.9434 50.8295C50.8423 51.1336 50.5387 51.3363 50.1846 51.3363Z" fill="#080605"/>
<path d="M127.277 64.5123C127.075 64.5123 126.923 64.4616 126.772 64.3603C108.51 51.6909 108.156 51.0828 108.055 50.8801C107.802 50.424 107.954 49.8666 108.358 49.6132C108.763 49.3598 109.269 49.4611 109.572 49.8159C110.483 50.6774 121.207 58.2283 127.834 62.7893C128.239 63.0933 128.34 63.6508 128.087 64.1069C127.884 64.3603 127.581 64.5123 127.277 64.5123Z" fill="#080605"/>
<path d="M110.331 41.8088C109.825 41.8088 109.37 41.4033 109.421 40.8459C109.421 40.3898 109.775 39.9844 110.23 39.9337C111.444 39.6296 123.433 34.3085 130.819 31.0651C131.274 30.8624 131.83 31.0651 132.033 31.5212C132.235 31.9773 132.033 32.5348 131.577 32.7375C111.545 41.7074 110.584 41.8088 110.331 41.8088Z" fill="#080605"/>
<path d="M133.398 47.0792C111.191 46.3191 110.534 46.015 110.331 45.9136C109.876 45.7109 109.674 45.1028 109.927 44.6467C110.129 44.2413 110.635 44.0386 111.039 44.1906C112.254 44.444 125.355 44.9508 133.449 45.2042C133.955 45.2042 134.359 45.6603 134.359 46.167C134.309 46.7245 133.904 47.0792 133.398 47.0792Z" fill="#080605"/>
<path d="M68.5476 13.3788C68.1429 13.3788 67.7889 13.1254 67.6371 12.72C65.9678 6.74004 62.7808 4.15549 61.5162 4.45956C60.4033 4.71294 59.1892 7.55088 59.1892 11.6557C59.1892 12.1625 58.7846 12.5679 58.2787 12.5679C57.7729 12.5679 57.3682 12.1625 57.3682 11.6557C57.3682 7.60155 58.5316 3.29398 61.1115 2.68585C64.0455 1.97637 67.7888 6.28394 69.4582 12.2639C69.6099 12.7706 69.3064 13.2774 68.8005 13.4295C68.75 13.3281 68.6488 13.3788 68.5476 13.3788Z" fill="#080605"/>
<path d="M106.942 13.3788C106.537 13.3788 106.183 13.1254 106.032 12.72C104.362 6.74004 101.175 4.15549 99.9107 4.45956C98.7978 4.71294 97.5838 7.55088 97.5838 11.6557C97.5838 12.1625 97.1791 12.5679 96.6732 12.5679C96.1673 12.5679 95.7627 12.1625 95.7627 11.6557C95.7627 7.60155 96.9262 3.29398 99.5061 2.68585C102.44 1.97637 106.183 6.28394 107.853 12.2639C108.004 12.7706 107.701 13.2774 107.195 13.4295C107.094 13.3281 106.993 13.3788 106.942 13.3788Z" fill="#080605"/>
<path d="M91.1087 60.0019C90.9063 60.0019 90.704 60.0019 90.5017 59.9512C88.2759 59.5965 87.0618 57.5694 85.949 55.745C85.0384 54.2247 84.1279 52.755 82.9644 52.7044C81.7503 52.603 80.7386 53.9713 79.5246 55.5423C78.1082 57.4173 76.54 59.4951 74.0107 59.7992C70.925 60.2046 67.6369 57.7214 63.9947 52.2483C63.6912 51.8428 63.8429 51.2347 64.2476 50.9306C64.6523 50.6266 65.2593 50.7786 65.5629 51.184C68.6486 55.8464 71.532 58.1775 73.7578 57.8734C75.4777 57.6707 76.7424 55.9984 78.007 54.326C79.3728 52.5016 80.8398 50.5759 83.0656 50.7279C85.2408 50.88 86.4042 52.8057 87.5171 54.6808C88.4782 56.2518 89.3888 57.7721 90.7546 57.9748C92.0698 58.1775 94.2956 57.2653 97.786 51.8428C98.039 51.3867 98.646 51.2854 99.0507 51.5388C99.506 51.7922 99.6071 52.4003 99.3542 52.8057C96.319 57.6707 93.638 60.0019 91.1087 60.0019Z" fill="#080605"/>
<path d="M71.9365 38.4641C71.5318 38.4641 71.1777 38.2107 71.0259 37.8053C70.8236 37.1972 70.4189 36.2343 69.6095 35.3728C68.699 34.4606 67.7378 34.0045 67.0296 33.8018C66.625 33.7004 66.3721 33.295 66.3721 32.8389C66.3721 32.4335 66.7262 32.0281 67.1309 31.9774C67.7379 31.8761 68.6484 31.572 69.4578 30.8118C70.5201 29.849 70.8742 28.6834 71.0259 28.0753C71.1271 27.6698 71.4812 27.3658 71.8859 27.3151C72.2906 27.2644 72.6953 27.5685 72.847 27.9739C73.0999 28.7341 73.6058 29.7983 74.6681 30.7612C75.3257 31.3186 76.0339 31.7747 76.8939 32.0281C77.2986 32.1801 77.6021 32.5855 77.5515 33.0416C77.5009 33.4977 77.1468 33.8525 76.6915 33.8525C76.1857 33.9032 75.174 34.0552 74.314 34.866C73.2011 35.8289 72.9988 37.1465 72.9482 37.6533C72.8976 38.1094 72.5435 38.4641 72.1388 38.5148C71.987 38.4641 71.9365 38.4641 71.9365 38.4641ZM69.6601 32.991C70.1154 33.295 70.5201 33.6498 70.9754 34.0552C71.2789 34.3592 71.5318 34.6633 71.7342 35.0181C72.0377 34.4606 72.4424 33.9538 72.9988 33.4471C73.3529 33.143 73.707 32.8896 74.0611 32.6869C73.8082 32.5349 73.6058 32.3322 73.4034 32.1294C72.847 31.6227 72.3918 31.1159 72.0377 30.5584C71.7341 31.1159 71.2789 31.6733 70.7224 32.1801C70.3683 32.5349 70.0142 32.7883 69.6601 32.991Z" fill="#080605"/>
<path d="M93.4355 38.4641C93.0308 38.4641 92.6767 38.2107 92.525 37.8053C92.3226 37.1465 91.9179 36.2343 91.1085 35.3728C90.198 34.4606 89.2369 34.0045 88.5287 33.8018C88.124 33.7004 87.8711 33.295 87.8711 32.8389C87.8711 32.4335 88.2252 32.0281 88.6299 31.9774C89.2369 31.8761 90.1474 31.572 90.9568 30.8118C92.0191 29.849 92.3732 28.6834 92.525 28.0753C92.6261 27.6698 92.9802 27.3658 93.3849 27.3151C93.7896 27.2644 94.1943 27.5685 94.346 27.9739C94.599 28.7341 95.1048 29.7983 96.1671 30.7612C96.8247 31.3186 97.5329 31.7747 98.3929 32.0281C98.7976 32.1801 99.1011 32.5855 99.0505 33.0416C99 33.4977 98.6458 33.8525 98.1905 33.8525C97.6847 33.9032 96.673 34.0552 95.813 34.866C94.7002 35.8289 94.4978 37.1465 94.4472 37.6533C94.3967 38.1094 94.0425 38.4641 93.6378 38.5148C93.4861 38.4641 93.4861 38.4641 93.4355 38.4641ZM91.1592 32.991C91.6144 33.295 92.0191 33.6498 92.4744 34.0552C92.7779 34.3592 93.0308 34.6633 93.2332 35.0181C93.5367 34.4606 93.9414 33.9538 94.4978 33.4471C94.8519 33.143 95.206 32.8896 95.5601 32.6869C95.3072 32.5349 95.1048 32.3322 94.9025 32.1294C94.346 31.6227 93.8908 31.1159 93.5367 30.5584C93.2332 31.1159 92.7779 31.6733 92.2215 32.1801C91.8674 32.5349 91.5133 32.7883 91.1592 32.991Z" fill="#080605"/>
</svg>
