<svg width="135" height="101" viewBox="0 0 135 101" fill="none" xmlns="http://www.w3.org/2000/svg">
<path d="M47.7021 78.4009C38.6473 82.3537 23.4715 78.857 15.6307 73.1811C6.62647 66.5931 -4.14831 51.5925 1.61847 40.3422C2.78195 38.1124 8.49814 37.4029 10.1169 39.3793C14.619 43.8896 12.4944 51.6939 13.405 57.3191C15.9343 73.1304 32.0711 77.5394 45.5269 76.4245L47.7021 78.4009Z" fill="#1E1C1D"/>
<path d="M62.2204 84.5835C57.0606 86.2052 53.722 89.3978 53.7725 92.5398C53.7725 94.1615 54.7337 95.3778 55.2395 96.0873C58.6288 100.446 67.026 102.473 72.4387 98.4691C75.7774 95.9859 78.1549 91.1209 76.6879 88.8404C75.575 87.016 72.641 87.8268 64.3956 85.293C63.485 84.9889 62.7262 84.7355 62.2204 84.5835Z" fill="#1E1C1D"/>
<path d="M102.79 84.5835C107.95 86.2052 111.289 89.3978 111.238 92.5398C111.238 94.1615 110.277 95.3778 109.771 96.0873C106.382 100.446 97.9846 102.473 92.5719 98.4691C89.2333 95.9859 86.8558 91.1209 88.3227 88.8404C89.4356 87.016 92.3696 87.8268 100.615 85.293C101.526 84.9889 102.284 84.7355 102.79 84.5835Z" fill="#1E1C1D"/>
<path d="M53.2666 83.0632C46.5892 78.705 40.3672 69.9885 39.9119 69.1776C39.4566 68.3161 39.0519 67.4546 39.0519 67.4546C38.9002 67.1505 38.799 66.8971 38.6978 66.6438C33.3863 53.9744 38.4955 41.5078 39.8107 38.1124C40.8224 35.4772 42.2894 33.0953 43.6047 30.6121C46.7916 24.3281 49.422 17.7908 52.4066 11.4054C54.0759 7.85801 56.9087 0.763174 61.3097 0.256401C68.1894 -0.554437 70.6681 8.51681 72.5903 13.5845C78.7618 12.9764 84.9838 12.9257 91.2059 13.5339C95.0504 1.72605 102.082 -7.59859 110.176 8.92223C114.829 18.5003 118.421 28.585 123.733 37.859C130.005 48.9067 128.538 57.0151 125.655 65.0221C121.709 75.9684 112.098 81.1882 107.95 83.57C87.2096 95.5805 62.7767 89.2965 53.2666 83.0632Z" fill="#BA89FF"/>
<mask id="mask0_153_487" style="mask-type:luminance" maskUnits="userSpaceOnUse" x="36" y="0" width="93" height="91">
<path d="M53.2666 83.0632C46.5892 78.705 40.3672 69.9885 39.9119 69.1776C39.4566 68.3161 39.0519 67.4546 39.0519 67.4546C38.9002 67.1505 38.799 66.8971 38.6978 66.6438C33.3863 53.9744 38.4955 41.5078 39.8107 38.1124C40.8224 35.4772 42.2894 33.0953 43.6047 30.6121C46.7916 24.3281 49.422 17.7908 52.4066 11.4054C54.0759 7.85801 56.9087 0.763174 61.3097 0.256401C68.1894 -0.554437 70.6681 8.51681 72.5903 13.5845C78.7618 12.9764 84.9838 12.9257 91.2059 13.5339C95.0504 1.72605 102.082 -7.59859 110.176 8.92223C114.829 18.5003 118.421 28.585 123.733 37.859C130.005 48.9067 128.538 57.0151 125.655 65.0221C121.709 75.9684 112.098 81.1882 107.95 83.57C87.2096 95.5805 62.7767 89.2965 53.2666 83.0632Z" fill="white"/>
</mask>
<g mask="url(#mask0_153_487)">
<path d="M68.5436 33.298C66.5202 32.8926 63.8392 33.5007 62.878 35.5278C62.4734 36.44 62.3216 37.5042 62.3722 38.4671C62.4734 39.7847 63.8392 40.4942 64.9521 40.8489C66.0144 41.153 67.1778 41.153 68.2401 41.1023C69.4542 41.0516 70.5671 40.8489 71.427 39.8861C71.7811 39.4806 72.0847 39.0752 72.3882 38.6698C72.8434 38.0617 73.2481 37.4029 73.0458 36.6427C72.7423 35.3758 71.2753 35.0717 70.1624 35.0717C69.0495 35.021 67.9872 35.3251 66.9755 35.7812C66.4696 36.0346 66.0144 36.3893 65.6097 36.7441C65.4073 36.8961 65.2556 37.0988 65.0532 37.2508C65.0026 37.2508 64.8509 37.4029 65.0026 37.3015C64.9521 37.3522 64.8509 37.4029 64.8003 37.4029C64.9015 37.3522 64.9015 37.3522 64.7497 37.4029C65.205 37.6056 65.7108 37.8083 66.1661 37.9603C66.2167 38.011 66.1155 37.8083 66.1155 37.7576C66.1155 37.7069 66.0144 37.4536 66.0649 37.6056C66.0649 37.5549 66.0649 37.3015 66.0649 37.3522C66.0649 37.4536 66.1661 37.0988 66.0649 37.3522C66.1155 37.2508 66.1661 37.2508 66.0649 37.3015C66.2673 37.0988 66.1155 37.3015 66.0144 37.3015C65.9132 37.3015 65.8626 37.3015 65.7614 37.3015C65.9638 37.3015 65.7614 37.3522 65.7614 37.2508C65.7108 37.2002 65.7108 37.2002 65.7614 37.2508C65.812 37.3015 65.8626 37.3522 65.9132 37.3522C65.9638 37.4029 66.0144 37.4536 66.0649 37.5549C65.9132 37.4029 66.1155 37.6056 66.1155 37.6563C66.2167 37.7576 66.2673 37.859 66.3685 38.011C66.672 38.4671 67.0261 38.8725 67.3296 39.3286C67.6331 39.734 68.0378 39.9874 68.5942 39.9367C69.1507 39.8861 69.4542 39.5313 69.6565 39.0245C70.1118 37.9096 69.5554 36.592 68.5436 36.0346C68.0378 35.7812 67.4308 35.6292 66.8743 35.7812C66.1155 35.9839 65.6097 36.8454 65.8626 37.6056C66.2167 38.8725 67.7849 39.0245 68.8472 39.0752C69.5554 39.0752 70.3142 38.9739 70.7188 38.3151C71.1235 37.6563 70.9212 36.6934 70.213 36.3386C69.6059 36.0346 68.7966 36.1866 68.4931 36.7947C68.1895 37.3522 68.3413 38.2137 68.9483 38.5178C68.9483 38.5178 68.9989 38.5178 68.9989 38.5685C68.8472 38.4164 68.6954 38.2644 68.5436 38.1124C68.5436 38.1124 68.5436 38.163 68.5942 38.163C68.5436 37.9603 68.4931 37.7576 68.4425 37.5042C68.4425 37.5549 68.4425 37.5549 68.4425 37.6056C68.4931 37.4029 68.5436 37.2002 68.5942 36.9468C68.5942 36.9468 68.5942 36.9975 68.5436 36.9975C68.6954 36.8454 68.8472 36.6934 68.9989 36.5414C69.4036 36.4907 69.4542 36.44 69.2013 36.4907C69.1001 36.4907 68.9989 36.4907 68.8977 36.4907C68.746 36.4907 68.5942 36.4907 68.4425 36.44C68.5436 36.44 68.1895 36.3893 68.1895 36.3893C68.0884 36.3893 67.9872 36.3386 67.886 36.3386C67.4813 36.1866 67.6331 36.44 68.3413 37.0988C68.2907 37.3015 68.2401 37.5042 68.1895 37.7576C68.139 37.8083 68.139 37.859 68.0884 37.859C67.886 37.9603 67.7343 38.0617 67.5319 38.163C67.4308 38.163 67.3296 38.163 67.279 38.163C67.4308 38.2137 67.4308 38.2137 67.3296 38.163C67.3802 38.163 67.3802 38.2137 67.4308 38.2137C67.3802 38.2137 67.3296 38.163 67.3296 38.1124C67.3802 38.2137 67.4308 38.2644 67.3802 38.163C67.3296 38.1124 67.3296 38.0617 67.3296 38.011C67.3296 38.163 67.3296 38.163 67.3296 38.011C67.3296 38.1124 67.279 38.163 67.2284 38.2644C67.9872 38.163 68.746 38.0617 69.5554 37.9603C69.0495 37.2508 68.5436 36.4907 67.9872 35.7812C67.4813 35.1224 66.7226 34.6663 65.9132 34.6663C64.9015 34.717 64.1427 35.4265 63.7886 36.3386C63.4345 37.3015 63.6874 38.2137 64.0921 39.1259C64.2944 39.6327 65.0532 39.8354 65.5085 39.6834C66.3179 39.4806 66.8743 38.9232 67.4813 38.3657C67.5319 38.3151 67.5825 38.2644 67.6837 38.2137C67.6837 38.2137 67.886 38.0617 67.7343 38.163C67.8354 38.0617 67.9872 38.011 68.0884 37.9096C68.2401 37.8083 68.3919 37.7576 68.5436 37.6563C68.6448 37.6056 68.7966 37.5549 68.8977 37.5549C69.0495 37.5042 69.2013 37.4535 69.3024 37.4535C69.4036 37.4535 69.4542 37.4029 69.5554 37.4029C69.7577 37.3522 69.4036 37.4029 69.606 37.4029C69.9601 37.3522 70.3141 37.3522 70.6682 37.4029C70.4659 37.3522 70.82 37.4535 70.8706 37.4535C70.9718 37.4535 71.0224 37.5042 71.1235 37.5042C71.2753 37.5549 71.0729 37.5042 71.0729 37.5042C70.9718 37.2508 70.82 36.9468 70.7188 36.6934C70.7188 36.6934 70.7188 36.6427 70.7694 36.6427C70.7188 36.6934 70.6683 36.7947 70.6177 36.8454C70.6683 36.7441 70.5165 36.9468 70.5165 36.9468C70.4153 37.0481 70.3647 37.1495 70.2636 37.2508C70.0106 37.5549 69.8083 37.8083 69.5554 38.0617C69.5048 38.1124 69.353 38.2137 69.4036 38.163C69.3024 38.2137 69.2013 38.2137 69.1507 38.2137C69.1001 38.2137 69.0495 38.2137 68.9989 38.2644C69.1001 38.2644 69.1001 38.2644 68.9989 38.2644C68.2401 38.3657 67.4308 38.3657 66.6214 38.3151C66.0144 38.2644 65.4073 38.1124 64.8509 37.7576C64.4968 37.5042 64.8003 37.7069 64.8003 37.7069C64.8003 37.7576 65.0026 38.0617 64.9521 38.1124C65.0026 38.1124 64.9521 37.6563 64.9521 37.6056C64.9521 37.4536 64.9521 37.3015 65.0026 37.1495C65.0026 37.0988 65.0532 36.8454 65.0026 36.9975C65.0026 37.1495 65.0532 36.8454 65.0532 36.7947C65.0532 36.6934 65.1038 36.6427 65.1038 36.5414C65.1038 36.4907 65.205 36.2373 65.1544 36.3386C65.1038 36.4907 65.205 36.2373 65.205 36.2373C65.205 36.1866 65.3567 35.9839 65.2556 36.1359C65.3062 36.0853 65.3567 36.0346 65.4073 35.9332C65.4579 35.8826 65.5591 35.8319 65.4579 35.8826C65.6603 35.7812 65.812 35.6292 66.0144 35.5785C65.9132 35.6292 65.9638 35.5785 66.0144 35.5785C66.1155 35.5278 66.2167 35.4771 66.3179 35.4771C66.419 35.4771 66.4696 35.4265 66.5708 35.4265C66.5708 35.4265 66.8743 35.3758 66.8237 35.3758C67.1272 35.3251 67.5825 35.3758 67.8354 35.4265C68.4931 35.5785 69.2518 35.2237 69.4036 34.5649C69.6059 34.2102 69.2518 33.45 68.5436 33.298Z" fill="#BA89FF"/>
</g>
<mask id="mask1_153_487" style="mask-type:luminance" maskUnits="userSpaceOnUse" x="36" y="0" width="93" height="91">
<path d="M53.2666 83.0632C46.5892 78.705 40.3672 69.9885 39.9119 69.1776C39.4566 68.3161 39.0519 67.4546 39.0519 67.4546C38.9002 67.1505 38.799 66.8971 38.6978 66.6438C33.3863 53.9744 38.4955 41.5078 39.8107 38.1124C40.8224 35.4772 42.2894 33.0953 43.6047 30.6121C46.7916 24.3281 49.422 17.7908 52.4066 11.4054C54.0759 7.85801 56.9087 0.763174 61.3097 0.256401C68.1894 -0.554437 70.6681 8.51681 72.5903 13.5845C78.7618 12.9764 84.9838 12.9257 91.2059 13.5339C95.0504 1.72605 102.082 -7.59859 110.176 8.92223C114.829 18.5003 118.421 28.585 123.733 37.859C130.005 48.9067 128.538 57.0151 125.655 65.0221C121.709 75.9684 112.098 81.1882 107.95 83.57C87.2096 95.5805 62.7767 89.2965 53.2666 83.0632Z" fill="white"/>
</mask>
<g mask="url(#mask1_153_487)">
<path d="M65.7104 34.413C64.6481 34.6664 63.6364 34.9198 62.5741 35.1731C61.9671 35.3252 61.3601 35.4772 60.9048 35.9333C60.5001 36.3387 60.1966 36.8962 60.0448 37.4536C59.6401 38.7206 60.0448 40.0889 61.2589 40.697C62.22 41.2038 63.4847 41.5585 64.547 41.4571C65.1034 41.4065 65.7104 41.3051 66.2163 41.0517C66.4692 40.8997 66.6716 40.7477 66.8739 40.5449C67.1268 40.2409 67.228 39.8861 67.4304 39.5314C67.3292 39.7848 67.4303 39.5821 67.4809 39.4807C67.5315 39.3794 67.5821 39.3287 67.6327 39.2273C67.4809 39.4807 67.6833 39.1767 67.7339 39.126C67.7844 39.0246 67.8856 38.9739 67.9362 38.8726C68.2903 38.4672 68.6444 38.0618 68.8468 37.6057C69.1503 37.0482 69.3526 36.4908 69.302 35.8826C69.2514 35.1731 68.8467 34.5143 68.2397 34.2103C67.9362 34.0582 67.5821 33.9569 67.228 34.0076C66.8739 34.0076 66.621 34.1596 66.3175 34.261C66.3175 34.261 65.9128 34.3623 66.1657 34.3116C66.0645 34.3116 66.0139 34.3116 65.9128 34.3116C65.5587 34.3623 65.2046 34.3623 64.8505 34.4637C64.3446 34.6157 63.8388 34.8184 63.3835 35.0211C62.827 35.2745 62.1694 35.4265 61.6636 35.7813C60.3989 36.6428 60.146 38.5179 61.3095 39.5314C61.8153 39.9875 62.6247 40.0382 63.08 39.5314C63.5352 39.0246 63.5858 38.2138 63.08 37.7577C62.8776 37.555 63.08 37.7577 63.08 37.8084C63.08 37.7577 63.0294 37.7577 63.0294 37.707C63.08 37.859 63.08 37.859 63.08 37.7577C63.0294 37.555 63.08 37.9604 63.08 37.8084V37.7577C63.0294 37.9097 63.08 37.9097 63.08 37.8084C63.08 37.859 62.9282 38.0111 63.08 37.859C63.08 37.859 62.9282 38.0618 62.9282 38.0111L63.1306 37.9097C63.1811 37.9097 63.4847 37.7577 63.2317 37.859C63.8893 37.555 64.547 37.3016 65.2552 37.0482C65.4069 36.9975 65.5587 36.9975 65.7104 36.8962C65.9128 36.8455 65.4575 36.8962 65.8116 36.8962C65.9128 36.8962 65.9634 36.8962 66.0645 36.8962C66.5198 36.8455 66.9751 36.7948 67.3798 36.6428C67.5821 36.5414 67.4809 36.6428 67.3798 36.5921C67.1774 36.5414 67.0763 36.4908 66.9245 36.3894C67.0763 36.4908 66.9245 36.3894 66.8739 36.288C66.8739 36.2374 66.8739 35.984 66.8233 36.136C66.8233 36.3387 66.9245 35.984 66.8233 36.136C66.8233 36.1867 66.7222 36.4401 66.8233 36.2374C66.7727 36.3894 66.6716 36.5414 66.5704 36.6935C66.5198 36.7948 66.4692 36.8455 66.4186 36.9469C66.4692 36.8962 66.5704 36.7948 66.4186 36.9469C66.3175 37.0482 66.2163 37.1496 66.1151 37.2509C65.8622 37.555 65.5587 37.859 65.3563 38.1631C65.2552 38.3658 65.154 38.5685 65.0528 38.8219C64.9517 38.9739 65.154 38.6699 65.0528 38.8219V38.8726C65.0022 38.9739 65.0022 38.9739 65.1034 38.8726C64.9011 38.9739 65.0528 38.9233 65.1034 38.8726C65.0022 38.9233 64.9516 38.9233 64.8505 38.9233C64.7999 38.9233 64.4458 38.9739 64.6987 38.9739C64.547 38.9739 64.3952 38.9739 64.1929 38.9739C64.0917 38.9739 64.0411 38.9739 63.9399 38.9739C64.1423 38.9739 63.9399 38.9739 63.8893 38.9739C63.4847 38.8726 63.08 38.7712 62.6753 38.6192C62.5741 38.5685 62.5235 38.5685 62.4224 38.5179H62.3718C62.4729 38.5685 62.5235 38.5685 62.3718 38.5179C62.22 38.5179 62.3718 38.3658 62.3718 38.5179L62.3212 38.4672C62.2706 38.4165 62.2706 38.4165 62.3718 38.5179C62.2706 38.2138 62.5235 38.7712 62.3718 38.5179C62.3212 38.4165 62.3718 38.3658 62.3718 38.5179C62.3718 38.4165 62.4224 38.2645 62.4729 38.1631C62.5235 37.9097 62.5235 38.0618 62.4729 38.1124C62.5235 38.0111 62.5741 37.9097 62.6247 37.8084C62.7259 37.707 62.7259 37.707 62.6753 37.7577C62.6247 37.8084 62.5741 37.8084 62.5235 37.8084C62.6247 37.707 62.9788 37.6563 63.1306 37.6563C63.3329 37.6057 63.5858 37.555 63.7882 37.5043C64.6481 37.3016 65.5081 37.0482 66.368 36.8455C67.0257 36.6935 67.4809 35.9333 67.228 35.2745C67.0762 34.6157 66.4186 34.2103 65.7104 34.413Z" fill="#BA89FF"/>
</g>
<mask id="mask2_153_487" style="mask-type:luminance" maskUnits="userSpaceOnUse" x="36" y="0" width="93" height="91">
<path d="M53.2666 83.0632C46.5892 78.705 40.3672 69.9885 39.9119 69.1776C39.4566 68.3161 39.0519 67.4546 39.0519 67.4546C38.9002 67.1505 38.799 66.8971 38.6978 66.6438C33.3863 53.9744 38.4955 41.5078 39.8107 38.1124C40.8224 35.4772 42.2894 33.0953 43.6047 30.6121C46.7916 24.3281 49.422 17.7908 52.4066 11.4054C54.0759 7.85801 56.9087 0.763174 61.3097 0.256401C68.1894 -0.554437 70.6681 8.51681 72.5903 13.5845C78.7618 12.9764 84.9838 12.9257 91.2059 13.5339C95.0504 1.72605 102.082 -7.59859 110.176 8.92223C114.829 18.5003 118.421 28.585 123.733 37.859C130.005 48.9067 128.538 57.0151 125.655 65.0221C121.709 75.9684 112.098 81.1882 107.95 83.57C87.2096 95.5805 62.7767 89.2965 53.2666 83.0632Z" fill="white"/>
</mask>
<g mask="url(#mask2_153_487)">
<path d="M98.136 36.6934C98.8442 37.0988 99.5524 37.4535 100.261 37.8589C100.311 37.9096 100.362 37.9096 100.412 37.9603C100.615 38.0616 100.311 37.8589 100.463 38.011C100.514 38.0616 100.564 38.1123 100.615 38.163C100.615 38.163 100.767 38.3657 100.716 38.2644C100.615 38.163 100.766 38.3657 100.766 38.3657C100.817 38.4164 100.868 38.5177 100.868 38.5684C100.868 38.6191 100.969 38.8218 100.918 38.6698C100.868 38.5177 100.969 38.8218 100.969 38.8725C101.019 39.0245 101.07 39.2272 101.121 39.3793C101.121 39.4806 101.171 39.582 101.171 39.6833C101.171 39.5313 101.171 39.7847 101.171 39.7847C101.171 39.9874 101.222 40.1901 101.222 40.3928C101.222 40.4435 101.222 40.5955 101.222 40.6969C101.222 40.9503 101.272 40.8996 101.424 40.4942C101.424 40.2915 101.525 40.1901 101.677 40.1394C101.576 40.0887 101.272 40.2408 101.171 40.2915C101.374 40.2408 100.969 40.2915 100.918 40.2915C100.716 40.2915 100.564 40.2915 100.362 40.2915C100.261 40.2915 100.159 40.2915 100.109 40.2915C100.008 40.2915 100.008 40.2915 100.109 40.2915C100.058 40.2915 100.008 40.2915 99.9571 40.2915C99.1983 40.1394 98.4396 39.9367 97.7314 39.6833C97.6302 39.6326 97.5796 39.6326 97.4784 39.582C97.4784 39.582 97.2761 39.4806 97.4278 39.582C97.2761 39.5313 97.1243 39.4299 96.9726 39.3286C96.8208 39.2779 96.7196 39.1766 96.5679 39.0752C96.5173 39.0245 96.4161 38.9738 96.3655 38.9232C96.315 38.8725 96.315 38.8725 96.3655 38.9232C96.315 38.8725 96.315 38.8725 96.2644 38.8218C96.062 38.6191 96.2138 38.7711 96.2138 38.7711C96.2644 38.9232 96.2138 38.7205 96.2138 38.7205C96.2138 38.9232 96.2138 38.7205 96.2138 38.6698C96.2138 38.6191 96.2138 38.5177 96.2138 38.4671C96.2138 38.4164 96.2138 38.315 96.2138 38.2644C96.1126 38.4671 96.1632 38.3657 96.2138 38.315C96.1632 38.4671 96.062 38.5177 95.9608 38.5684C95.8597 38.6191 95.9103 38.5684 96.0114 38.5684C95.7585 38.5684 95.9609 38.5684 96.0114 38.5684C96.1126 38.5684 96.2138 38.5684 96.3149 38.5684C96.5173 38.5684 96.6691 38.5684 96.8714 38.5684C96.9726 38.5684 97.0737 38.5684 97.1749 38.5684C97.1749 38.5684 97.4278 38.6191 97.2761 38.5684C97.4278 38.6191 97.6302 38.6191 97.7819 38.6698C97.9337 38.7205 98.0855 38.7711 98.2372 38.8218C98.0349 38.7205 98.2372 38.8218 98.2878 38.8725C98.3384 38.9232 98.4396 38.9738 98.4901 39.0245C98.3384 38.9232 98.6925 39.2779 98.5407 39.0752C98.5913 39.1259 98.5913 39.1766 98.6419 39.2779C98.4901 39.0245 98.6419 39.4806 98.6419 39.1766C98.6419 39.2272 98.6419 39.3793 98.6419 39.3793C98.5913 39.3286 98.6925 39.1766 98.6925 39.1259C98.5913 39.1766 98.6419 39.2779 98.6925 39.1259L98.6419 39.1766C98.5913 39.2272 98.5913 39.2272 98.6925 39.1259C98.6419 39.1766 98.5407 39.1766 98.4901 39.1766C98.2878 39.1766 98.389 39.2272 98.4901 39.1766C98.389 39.1766 98.2878 39.1766 98.2372 39.1766C98.0349 39.1766 98.4396 39.2272 98.2372 39.1766C98.1866 39.1766 98.0855 39.1259 98.0349 39.1259C97.8831 39.1259 98.0349 39.1259 98.0855 39.1766C98.0349 39.1259 97.9337 39.1259 97.8831 39.0752C97.8325 39.0245 97.7819 38.9738 97.6808 38.9738C97.7314 39.0245 97.8831 39.0752 97.6808 38.9738C97.6302 38.9232 97.5796 38.8725 97.529 38.8218C97.6808 38.9738 97.529 38.8218 97.4784 38.7205C97.3773 38.5177 97.4278 38.6698 97.4784 38.7205C97.4784 38.6698 97.4278 38.5684 97.4278 38.5177C97.4278 38.6191 97.4278 38.7205 97.4278 38.5177C97.3773 38.7711 97.4278 38.5684 97.2761 38.9232C97.0737 38.9232 97.2255 39.0245 97.2761 38.9232C97.3773 38.9232 97.4784 38.9232 97.2761 38.9232C97.3773 38.9232 97.4784 38.9232 97.5796 38.9232C97.9843 38.9232 98.0349 38.9232 98.4396 39.0752C98.8442 39.1766 98.8948 39.1766 99.2489 39.4299C99.1478 39.2779 99.1983 39.3793 99.2489 39.4299C99.1983 39.3793 99.1478 39.3286 99.1478 39.2272C99.1478 39.1259 99.2489 38.7205 99.0972 38.9738C99.0972 38.9738 99.1478 38.7711 99.1983 38.8218C99.1983 38.8218 99.0466 39.0245 99.0466 38.9738C99.0972 38.9232 99.2489 38.8725 98.996 38.9738C98.8948 39.0245 98.8442 39.0752 98.7431 39.0752C98.8948 39.0245 98.6419 39.0752 98.5913 39.0752C98.389 39.1259 98.7431 39.0752 98.5407 39.0752C98.4901 39.0752 98.2372 39.0752 98.389 39.0752C98.5407 39.0752 98.3384 39.0245 98.2878 39.0245C98.136 39.0245 98.389 39.1259 98.2878 39.0245C98.2372 39.0245 98.0855 38.8725 98.1866 38.9738C98.0855 38.8218 98.3384 39.0752 98.1866 38.9738C98.2878 39.0752 98.136 38.9232 98.136 38.9232C98.136 39.1259 98.2372 39.2779 98.136 39.4299C98.0855 39.5313 98.0349 39.582 97.9337 39.6326C97.9337 39.6326 97.6808 39.7847 97.8831 39.6326C97.9337 39.582 98.136 39.582 97.8325 39.6326C97.8831 39.6326 97.9843 39.6326 98.0349 39.6326C98.136 39.6326 98.2372 39.6326 98.2878 39.6326C98.2878 39.6326 98.5407 39.6326 98.3384 39.6326C98.5407 39.6326 98.7431 39.6833 98.9454 39.7847C99.1478 39.8354 99.3501 39.886 99.5019 39.9874C99.3501 39.9367 99.5524 39.9874 99.5524 40.0381C99.6536 40.0887 99.8054 40.1394 99.9065 40.1901C99.9571 40.2408 100.058 40.2408 100.109 40.2915C100.058 40.2915 100.058 40.2408 100.008 40.2408C100.109 40.3421 100.109 40.3421 100.058 40.2915C100.058 40.2408 99.9065 39.9874 99.9571 39.8354C99.9571 39.734 100.008 39.6326 100.058 39.582C100.008 39.582 100.008 39.6326 99.9571 39.6326C100.058 39.582 100.109 39.582 100.008 39.582C99.9571 39.582 99.7548 39.6326 99.9065 39.6326C100.058 39.6326 99.7042 39.582 99.9571 39.6326C99.9065 39.6326 99.8054 39.582 99.7548 39.582C99.9571 39.6833 99.603 39.4806 99.603 39.4806C99.4513 39.3793 99.2995 39.2779 99.1478 39.1766C99.0972 39.1259 98.996 39.0752 98.9454 39.0245C98.8442 38.9738 98.996 39.0752 98.8442 38.9738C98.6925 38.8218 98.5407 38.7205 98.389 38.5684C98.136 38.315 97.8325 38.011 97.6302 37.7576C97.5796 37.7069 97.529 37.6056 97.4784 37.5549C97.5796 37.7069 97.4784 37.5042 97.4278 37.4535C97.4278 37.4535 97.4278 37.4028 97.3773 37.4028C97.4278 37.6056 97.3773 37.7576 97.2255 37.9096C97.2255 38.163 97.1243 38.3657 96.922 38.4164C96.9726 38.4164 96.9726 38.4164 97.0232 38.3657C96.922 38.3657 96.922 38.4671 97.0232 38.3657C97.1749 38.3657 97.2761 38.3657 97.4278 38.3657C97.3773 38.3657 97.2255 38.315 97.4784 38.3657C97.5796 38.4164 97.7314 38.4164 97.8325 38.4671C98.4396 38.7205 99.2489 38.2137 99.4007 37.6056C99.5524 36.8961 99.1983 36.2879 98.5407 36.0346C97.2255 35.5278 95.0503 35.7305 94.8986 37.5042C94.848 38.2644 95.3538 38.8725 95.8091 39.4299C96.1632 39.8354 96.5173 40.2408 96.9726 40.5955C97.9843 41.457 99.1478 42.3185 100.514 42.0652C101.93 41.8118 103.093 40.2408 102.233 38.8725C101.879 38.315 101.272 37.9603 100.665 37.7069C100.008 37.4028 99.3501 37.2508 98.5913 37.1495C97.2761 36.9974 95.6068 37.6056 95.6573 39.1766C95.7585 40.6462 97.2255 41.7104 98.6419 41.5584C100.058 41.457 101.778 40.3421 101.525 38.7205C101.323 37.3015 99.8054 36.592 98.5407 36.3893C97.2255 36.1866 95.4044 36.2879 94.9491 37.8589C94.595 39.1766 95.455 40.5448 96.5679 41.153C97.6808 41.7611 99.0972 41.8118 100.159 41.0516C101.374 40.0887 101.374 38.4164 100.412 37.3015C99.5524 36.2879 98.0855 36.0346 96.8208 35.9839C96.1632 35.9332 95.455 35.9839 94.848 36.2879C94.1398 36.6427 93.7857 37.3522 93.7351 38.1123C93.6845 38.7205 93.7857 39.4806 94.0892 40.0381C94.4433 40.6462 95.0503 41.0516 95.6573 41.3557C96.7196 41.9131 97.8831 42.3185 99.0466 42.5719C100.311 42.8253 101.879 42.9774 103.043 42.3185C103.852 41.8625 103.953 41.0009 103.852 40.1394C103.802 39.4806 103.751 38.7711 103.549 38.163C103.346 37.5549 103.043 36.9974 102.638 36.4907C102.233 35.9839 101.677 35.6798 101.121 35.3757C100.564 35.0717 100.008 34.7676 99.4513 34.4636C98.8948 34.1595 98.0349 34.3115 97.7314 34.9197C97.3773 35.5785 97.529 36.3386 98.136 36.6934Z" fill="#BA89FF"/>
</g>
<path d="M77.0925 32.9432C77.042 32.9432 76.9914 32.9432 76.9408 32.9432L60.551 30.308C60.0451 30.2066 59.691 29.7505 59.7922 29.2437C59.8934 28.737 60.3487 28.3822 60.8545 28.4836L76.3338 30.9668L76.6879 28.737C76.789 28.2302 77.2443 27.8755 77.7502 27.9768C78.256 28.0782 78.6101 28.5343 78.5089 29.041L78.0031 32.183C77.9525 32.5884 77.5478 32.9432 77.0925 32.9432Z" fill="#080605"/>
<path d="M72.2526 35.5771C72.8366 33.2711 71.8172 31.0223 69.9757 30.5543C68.1343 30.0863 66.1681 31.5763 65.5842 33.8823C65.0002 36.1883 66.0196 38.437 67.8611 38.905C69.7025 39.373 71.6687 37.883 72.2526 35.5771Z" fill="#080605"/>
<path d="M87.4117 32.9432C86.9565 32.9432 86.5518 32.6391 86.5012 32.183L85.9953 29.041C85.8942 28.5343 86.2483 28.0275 86.7541 27.9768C87.26 27.8755 87.7658 28.2302 87.8164 28.737L88.1705 30.9668L103.65 28.4836C104.156 28.3822 104.611 28.737 104.712 29.2437C104.813 29.7505 104.459 30.2066 103.953 30.308L87.5635 32.9432C87.5129 32.8925 87.4623 32.9432 87.4117 32.9432Z" fill="#080605"/>
<path d="M96.6159 38.8954C98.4573 38.4274 99.4767 36.1786 98.8928 33.8727C98.3088 31.5667 96.3427 30.0767 94.5012 30.5447C92.6598 31.0127 91.6404 33.2614 92.2243 35.5674C92.8083 37.8734 94.7744 39.3634 96.6159 38.8954Z" fill="#080605"/>
<path d="M69.1505 53.2649C68.8976 53.2649 68.6952 53.1636 68.4929 53.0115C68.1388 52.6568 68.0882 52.0487 68.4423 51.6939C70.7187 49.3121 75.0691 47.7918 79.8241 47.6904C84.8827 47.5891 89.5366 49.1601 92.0153 51.6939C92.3694 52.0487 92.3694 52.6568 91.9647 53.0115C91.6106 53.3663 91.0036 53.3663 90.6495 52.9609C88.5755 50.7817 84.3263 49.4641 79.8241 49.5148C75.5749 49.5655 71.7304 50.8831 69.7575 52.9609C69.6564 53.1636 69.4034 53.2649 69.1505 53.2649Z" fill="#080605"/>
<path d="M52.1032 46.1193C51.8502 46.1193 51.5467 46.018 51.395 45.7646C50.4844 44.9031 39.7602 37.3521 33.1335 32.7912C32.7288 32.4871 32.6276 31.9297 32.8806 31.4736C33.1841 31.0681 33.7405 30.9668 34.1958 31.2202C52.4573 43.8895 52.8114 44.4976 52.9125 44.7004C53.1655 45.1565 53.0137 45.7139 52.609 45.9673C52.4067 46.0686 52.2549 46.1193 52.1032 46.1193Z" fill="#080605"/>
<path d="M29.7441 64.5661C29.39 64.5661 29.0359 64.3634 28.8841 64.0086C28.6818 63.5525 28.8841 62.9951 29.3394 62.7924C49.6243 53.7718 50.3325 53.7211 50.5854 53.7718C51.0913 53.7718 51.4959 54.1772 51.4959 54.7347C51.4959 55.1908 51.1418 55.5962 50.6866 55.6468C49.4725 55.9509 37.4837 61.272 30.0982 64.5154C29.997 64.5661 29.8958 64.5661 29.7441 64.5661Z" fill="#080605"/>
<path d="M50.1807 51.39C50.0795 51.39 49.9784 51.39 49.8772 51.3393C48.6631 51.0859 35.5614 50.5791 27.4677 50.3257C26.9618 50.3257 26.5571 49.8696 26.5571 49.3629C26.5571 48.8561 26.9618 48.4507 27.5183 48.4507C49.6748 49.2108 50.3325 49.5149 50.5348 49.6163C50.9901 49.8696 51.1924 50.4271 50.9395 50.8832C50.8383 51.1873 50.5348 51.39 50.1807 51.39Z" fill="#080605"/>
<path d="M127.274 64.566C127.071 64.566 126.919 64.5154 126.768 64.414C108.506 51.7447 108.152 51.1365 108.051 50.9338C107.798 50.4777 107.95 49.9203 108.354 49.6669C108.759 49.4135 109.265 49.5148 109.568 49.8696C110.479 50.7311 121.203 58.282 127.83 62.843C128.235 63.1471 128.336 63.7045 128.083 64.1606C127.881 64.414 127.577 64.566 127.274 64.566Z" fill="#080605"/>
<path d="M110.327 41.8625C109.822 41.8625 109.366 41.457 109.417 40.8996C109.417 40.4435 109.771 40.0381 110.226 39.9874C111.44 39.6833 123.429 34.3622 130.815 31.1189C131.27 30.9161 131.826 31.1189 132.029 31.575C132.231 32.0311 132.029 32.5885 131.574 32.7912C111.542 41.7611 110.58 41.8625 110.327 41.8625Z" fill="#080605"/>
<path d="M133.394 47.1837C111.187 46.4236 110.53 46.1195 110.327 46.0181C109.872 45.8154 109.67 45.2073 109.923 44.7512C110.125 44.3458 110.631 44.1431 111.036 44.2951C112.25 44.5485 125.351 45.0553 133.445 45.3087C133.951 45.3087 134.356 45.7648 134.356 46.2715C134.305 46.7783 133.9 47.1837 133.394 47.1837Z" fill="#080605"/>
<path d="M68.594 13.4325C68.1893 13.4325 67.8352 13.1791 67.6835 12.7737C66.0141 6.79375 62.8272 4.2092 61.5626 4.51327C60.4497 4.76666 59.2356 7.60459 59.2356 11.7095C59.2356 12.2162 58.831 12.6216 58.3251 12.6216C57.8192 12.6216 57.4146 12.2162 57.4146 11.7095C57.4146 7.65527 58.578 3.34769 61.1579 2.73956C64.0919 2.03008 67.8352 6.33765 69.5046 12.3176C69.6563 12.8244 69.3528 13.3311 68.8469 13.4832C68.7458 13.4325 68.6446 13.4325 68.594 13.4325Z" fill="#080605"/>
<path d="M106.938 13.4326C106.534 13.4326 106.179 13.1792 106.028 12.7738C104.358 6.74321 101.171 4.15867 99.9068 4.46273C98.7939 4.71612 97.5799 7.55405 97.5799 11.6589C97.5799 12.1657 97.1752 12.5711 96.6693 12.5711C96.1635 12.5711 95.7588 12.1657 95.7588 11.6589C95.7588 7.60473 96.9223 3.29715 99.5021 2.68902C102.436 1.97954 106.179 6.28712 107.849 12.267C108.001 12.7738 107.697 13.2806 107.191 13.4326C107.09 13.4326 106.989 13.4326 106.938 13.4326Z" fill="#080605"/>
</svg>
