<svg width="135" height="101" viewBox="0 0 135 101" fill="none" xmlns="http://www.w3.org/2000/svg">
<path d="M47.706 78.3472C38.6512 82.3 23.4754 78.8033 15.6346 73.1274C6.63035 66.5393 -4.1444 51.5388 1.62238 40.2885C2.78585 38.0587 8.50207 37.3492 10.1208 39.3256C14.623 43.8359 12.4984 51.6402 13.4089 57.2654C15.9382 73.0767 32.0751 77.4856 45.5309 76.3707L47.706 78.3472Z" fill="#1E1C1D"/>
<path d="M62.2243 84.5298C57.0646 86.1515 53.7259 89.3441 53.7764 92.4861C53.7764 94.1078 54.7376 95.3241 55.2434 96.0335C58.6327 100.392 67.0299 102.419 72.4426 98.4154C75.7813 95.9322 78.1588 91.0672 76.6918 88.7867C75.5789 86.9623 72.6449 87.7731 64.3995 85.2393C63.4889 84.9352 62.7302 84.6818 62.2243 84.5298Z" fill="#1E1C1D"/>
<path d="M102.743 84.5298C107.903 86.1515 111.242 89.3441 111.191 92.4861C111.191 94.1078 110.23 95.3241 109.724 96.0335C106.335 100.392 97.9377 102.419 92.525 98.4154C89.1864 95.9322 86.8089 91.0672 88.2759 88.7867C89.3888 86.9623 92.3227 87.7731 100.568 85.2393C101.529 84.9352 102.288 84.6818 102.743 84.5298Z" fill="#1E1C1D"/>
<path d="M53.2704 83.0095C46.5931 78.6513 40.371 69.9347 39.9158 69.1239C39.4605 68.2624 39.0558 67.4009 39.0558 67.4009C38.9041 67.0968 38.8029 66.8434 38.7018 66.59C33.3902 53.9207 38.4994 41.4541 39.8146 38.0587C40.8263 35.4235 42.2933 33.0416 43.6086 30.5584C46.7955 24.2744 49.4259 17.7371 52.4105 11.3517C54.0798 7.8043 56.9126 0.709463 61.3136 0.20269C68.1932 -0.608148 70.672 8.4631 72.5942 13.5308C78.7657 12.9227 84.9877 12.872 91.2098 13.4802C95.0543 1.67233 102.086 -7.6523 110.179 8.86852C114.833 18.4465 118.425 28.5313 123.736 37.8053C130.009 48.853 128.542 56.9613 125.659 64.9684C121.713 75.9147 112.102 81.1345 107.954 83.5163C87.2135 95.5268 62.7806 89.1922 53.2704 83.0095Z" fill="#BA89FF"/>
<mask id="mask0_153_669" style="mask-type:luminance" maskUnits="userSpaceOnUse" x="36" y="-1" width="93" height="92">
<path d="M53.2704 83.0095C46.5931 78.6513 40.371 69.9347 39.9158 69.1239C39.4605 68.2624 39.0558 67.4009 39.0558 67.4009C38.9041 67.0968 38.8029 66.8434 38.7018 66.59C33.3902 53.9207 38.4994 41.4541 39.8146 38.0587C40.8263 35.4235 42.2933 33.0416 43.6086 30.5584C46.7955 24.2744 49.4259 17.7371 52.4105 11.3517C54.0798 7.8043 56.9126 0.709463 61.3136 0.20269C68.1932 -0.608148 70.672 8.4631 72.5942 13.5308C78.7657 12.9227 84.9877 12.872 91.2098 13.4802C95.0543 1.67233 102.086 -7.6523 110.179 8.86852C114.833 18.4465 118.425 28.5313 123.736 37.8053C130.009 48.853 128.542 56.9613 125.659 64.9684C121.713 75.9147 112.102 81.1345 107.954 83.5163C87.2135 95.5268 62.7806 89.1922 53.2704 83.0095Z" fill="white"/>
</mask>
<g mask="url(#mask0_153_669)">
<path d="M101.428 50.9308C102.288 58.5324 97.5328 65.0191 90.6532 67.8571C87.3651 69.2254 83.3688 70.0869 79.8278 69.4788C76.1856 68.82 74.2634 65.2725 71.1271 63.6002C68.5472 62.1812 66.2708 66.1341 68.8507 67.553C70.773 68.6172 72.1387 70.3403 73.8081 71.6579C75.4774 72.9755 77.3997 73.7863 79.5243 74.0397C84.077 74.6985 88.9333 73.6343 93.0813 71.8099C101.124 68.2625 107.043 60.0528 105.981 50.9815C105.627 48.0929 101.074 48.0422 101.428 50.9308Z" fill="#BA89FF"/>
</g>
<mask id="mask1_153_669" style="mask-type:luminance" maskUnits="userSpaceOnUse" x="36" y="-1" width="93" height="92">
<path d="M53.2704 83.0095C46.5931 78.6513 40.371 69.9347 39.9158 69.1239C39.4605 68.2624 39.0558 67.4009 39.0558 67.4009C38.9041 67.0968 38.8029 66.8434 38.7018 66.59C33.3902 53.9207 38.4994 41.4541 39.8146 38.0587C40.8263 35.4235 42.2933 33.0416 43.6086 30.5584C46.7955 24.2744 49.4259 17.7371 52.4105 11.3517C54.0798 7.8043 56.9126 0.709463 61.3136 0.20269C68.1932 -0.608148 70.672 8.4631 72.5942 13.5308C78.7657 12.9227 84.9877 12.872 91.2098 13.4802C95.0543 1.67233 102.086 -7.6523 110.179 8.86852C114.833 18.4465 118.425 28.5313 123.736 37.8053C130.009 48.853 128.542 56.9613 125.659 64.9684C121.713 75.9147 112.102 81.1345 107.954 83.5163C87.2135 95.5268 62.7806 89.1922 53.2704 83.0095Z" fill="white"/>
</mask>
<g mask="url(#mask1_153_669)">
<path d="M79.7772 31.4198C75.6292 25.6933 68.7495 29.9502 63.8427 32.18C61.1617 33.3963 63.4886 37.3491 66.1191 36.1328C67.9908 35.2713 74.061 31.3185 75.781 33.751C77.5515 36.0822 81.4972 33.8017 79.7772 31.4198Z" fill="#BA89FF"/>
</g>
<mask id="mask2_153_669" style="mask-type:luminance" maskUnits="userSpaceOnUse" x="36" y="-1" width="93" height="92">
<path d="M53.2704 83.0095C46.5931 78.6513 40.371 69.9347 39.9158 69.1239C39.4605 68.2624 39.0558 67.4009 39.0558 67.4009C38.9041 67.0968 38.8029 66.8434 38.7018 66.59C33.3902 53.9207 38.4994 41.4541 39.8146 38.0587C40.8263 35.4235 42.2933 33.0416 43.6086 30.5584C46.7955 24.2744 49.4259 17.7371 52.4105 11.3517C54.0798 7.8043 56.9126 0.709463 61.3136 0.20269C68.1932 -0.608148 70.672 8.4631 72.5942 13.5308C78.7657 12.9227 84.9877 12.872 91.2098 13.4802C95.0543 1.67233 102.086 -7.6523 110.179 8.86852C114.833 18.4465 118.425 28.5313 123.736 37.8053C130.009 48.853 128.542 56.9613 125.659 64.9684C121.713 75.9147 112.102 81.1345 107.954 83.5163C87.2135 95.5268 62.7806 89.1922 53.2704 83.0095Z" fill="white"/>
</mask>
<g mask="url(#mask2_153_669)">
<path d="M103.401 31.5719C101.883 30.761 101.023 29.2914 99.3539 28.7339C97.7857 28.1765 96.0658 28.2272 94.4471 28.3792C91.0579 28.6833 88.1239 29.6968 86.9098 33.1429C85.9487 35.9301 90.3497 37.0957 91.3108 34.3591C91.9178 32.6868 95.56 32.6868 96.9764 32.8895C98.6963 33.1429 99.6575 34.7645 101.175 35.5247C103.704 36.893 105.981 32.9402 103.401 31.5719Z" fill="#BA89FF"/>
</g>
<path d="M52.1071 46.0151C51.8541 46.0151 51.5506 45.9137 51.3989 45.6603C50.4883 44.7988 39.7641 37.2479 33.1374 32.6869C32.7327 32.3829 32.6315 31.8254 32.8845 31.3693C33.188 30.9639 33.7444 30.8625 34.1997 31.1159C52.4612 43.7853 52.8153 44.3934 52.9164 44.5961C53.1694 45.0522 53.0176 45.6097 52.6129 45.863C52.4106 46.0151 52.2588 46.0151 52.1071 46.0151Z" fill="#080605"/>
<path d="M29.7479 64.5123C29.3938 64.5123 29.0398 64.3096 28.888 63.9548C28.6857 63.4988 28.888 62.9413 29.3433 62.7386C49.6282 53.6673 50.3364 53.718 50.5893 53.718C51.0952 53.718 51.4998 54.1234 51.4998 54.6809C51.4998 55.137 51.1457 55.5424 50.6905 55.5931C49.4764 55.8971 37.4876 61.2183 30.1021 64.4616C30.0009 64.4616 29.8491 64.5123 29.7479 64.5123Z" fill="#080605"/>
<path d="M50.1846 51.3363C50.0834 51.3363 49.9822 51.3363 49.8811 51.2856C48.667 51.0322 35.5653 50.5254 27.4715 50.272C26.9657 50.272 26.561 49.8159 26.561 49.3092C26.561 48.8024 27.0163 48.397 27.5221 48.397C49.6787 49.1571 50.3363 49.4612 50.5387 49.5626C50.9939 49.8159 51.1963 50.3734 50.9434 50.8295C50.8422 51.1336 50.4881 51.3363 50.1846 51.3363Z" fill="#080605"/>
<path d="M127.277 64.5123C127.075 64.5123 126.923 64.4616 126.772 64.3603C108.51 51.6909 108.156 51.0828 108.055 50.8801C107.802 50.424 107.954 49.8666 108.358 49.6132C108.763 49.3598 109.269 49.4611 109.572 49.8159C110.483 50.6774 121.207 58.2283 127.834 62.7893C128.239 63.0933 128.34 63.6508 128.087 64.1069C127.884 64.3603 127.581 64.5123 127.277 64.5123Z" fill="#080605"/>
<path d="M110.331 41.8088C109.826 41.8088 109.37 41.4033 109.421 40.8459C109.421 40.3898 109.775 39.9844 110.23 39.9337C111.444 39.6296 123.433 34.3085 130.819 31.0651C131.274 30.8624 131.83 31.0651 132.033 31.5212C132.235 31.9773 132.033 32.5348 131.577 32.7375C111.545 41.7074 110.584 41.8088 110.331 41.8088Z" fill="#080605"/>
<path d="M133.398 47.0792C111.191 46.3191 110.534 46.015 110.331 45.9136C109.876 45.6603 109.674 45.1028 109.927 44.6467C110.129 44.2413 110.635 44.0386 111.04 44.1906C112.254 44.444 125.355 44.9508 133.449 45.2042C133.955 45.2042 134.36 45.6603 134.36 46.167C134.309 46.7245 133.904 47.0792 133.398 47.0792Z" fill="#080605"/>
<path d="M68.5477 13.3788C68.143 13.3788 67.7889 13.1254 67.6371 12.72C65.9678 6.74004 62.7809 4.15549 61.5162 4.45956C60.4033 4.71294 59.1893 7.55088 59.1893 11.6557C59.1893 12.1625 58.7846 12.5679 58.2787 12.5679C57.7729 12.5679 57.3682 12.1625 57.3682 11.6557C57.3682 7.60155 58.5316 3.29398 61.1115 2.68585C64.0455 1.97637 67.7888 6.28394 69.4582 12.2639C69.6099 12.7706 69.3065 13.2774 68.8006 13.4295C68.75 13.3281 68.6488 13.3788 68.5477 13.3788Z" fill="#080605"/>
<path d="M106.891 13.3788C106.487 13.3788 106.133 13.1254 105.981 12.72C104.312 6.74004 101.125 4.15549 99.8599 4.45956C98.747 4.71294 97.533 7.55088 97.533 11.6557C97.533 12.1625 97.1283 12.5679 96.6225 12.5679C96.1166 12.5679 95.7119 12.1625 95.7119 11.6557C95.7119 7.60155 96.8754 3.29398 99.4553 2.68585C102.389 1.97637 106.133 6.28394 107.802 12.2639C107.954 12.7706 107.65 13.2774 107.144 13.4295C107.094 13.3281 106.993 13.3788 106.891 13.3788Z" fill="#080605"/>
<path d="M79.0694 34.6633C78.7153 34.6633 78.3612 34.4606 78.2095 34.1059C78.0071 33.6498 76.1355 29.849 72.0886 29.0888C68.4464 28.43 64.6019 30.5078 62.7302 34.1059C62.4773 34.5619 61.9208 34.7647 61.4656 34.5113C61.0103 34.2579 60.8079 33.7004 61.0609 33.2443C63.2866 28.8861 67.9405 26.4029 72.3921 27.2137C77.4001 28.1259 79.6258 32.7376 79.8788 33.2443C80.0811 33.7004 79.8788 34.2579 79.4235 34.4606C79.3224 34.6126 79.2211 34.6633 79.0694 34.6633Z" fill="#080605"/>
<path d="M103.3 34.6633C102.946 34.6633 102.592 34.4606 102.44 34.1059C102.238 33.6498 100.366 29.849 96.319 29.0888C92.6768 28.43 88.8323 30.5078 86.9606 34.1059C86.7077 34.5619 86.1513 34.7647 85.696 34.5113C85.2407 34.2579 85.0384 33.7004 85.2913 33.2443C87.5171 28.8861 92.171 26.4029 96.6226 27.2137C101.631 28.1259 103.856 32.7376 104.109 33.2443C104.312 33.7004 104.109 34.2579 103.654 34.4606C103.553 34.6126 103.401 34.6633 103.3 34.6633Z" fill="#080605"/>
<path d="M62.578 47.5353C65.8661 47.2312 68.3448 48.9036 71.4811 49.6638C79.9795 51.5895 89.4391 51.4881 97.5834 48.1941C100.416 47.0285 104.564 47.1299 104.716 51.1334C104.817 56.2518 102.288 60.5087 99.0504 64.2082C89.085 74.0396 69.913 72.7726 62.3757 60.306C60.0487 56.4545 57.7724 50.3732 62.578 47.5353Z" fill="#060201"/>
</svg>
