<svg width="135" height="101" viewBox="0 0 135 101" fill="none" xmlns="http://www.w3.org/2000/svg">
<path d="M47.706 78.3472C38.6512 82.3 23.4754 78.8033 15.6346 73.1274C6.63036 66.5393 -4.1444 51.5388 1.62238 40.2885C2.78585 38.0587 8.50204 37.3492 10.1208 39.3256C14.6229 43.8359 12.4983 51.6402 13.4089 57.2654C15.9382 73.0767 32.075 77.4856 45.5308 76.3707L47.706 78.3472Z" fill="#1E1C1D"/>
<path d="M62.2746 84.5298C57.1148 86.1515 53.7762 89.3441 53.8267 92.4861C53.8267 94.1078 54.7879 95.3241 55.2937 96.0335C58.683 100.392 67.0802 102.419 72.4929 98.4154C75.8316 95.9322 78.2091 91.0672 76.7421 88.7867C75.6292 86.9623 72.6952 87.7731 64.4498 85.2393C63.4886 84.9352 62.7298 84.6818 62.2746 84.5298Z" fill="#1E1C1D"/>
<path d="M102.794 84.5298C107.954 86.1515 111.293 89.3441 111.242 92.4861C111.242 94.1078 110.281 95.3241 109.775 96.0335C106.386 100.392 97.9885 102.419 92.5759 98.4154C89.2372 95.9322 86.8597 91.0672 88.3267 88.7867C89.4395 86.9623 92.3735 87.7731 100.619 85.2393C101.53 84.9352 102.288 84.6818 102.794 84.5298Z" fill="#1E1C1D"/>
<path d="M53.2704 83.0095C46.5931 78.6513 40.3711 69.9347 39.9158 69.1239C39.4605 68.2624 39.0559 67.4009 39.0559 67.4009C38.9041 67.0968 38.8029 66.8434 38.7017 66.59C33.3902 53.9207 38.4994 41.4541 39.8146 38.0587C40.8264 35.4235 42.2933 33.0416 43.6086 30.5584C46.7955 24.2744 49.4259 17.7371 52.4105 11.3517C54.0798 7.8043 56.9126 0.709463 61.3136 0.20269C68.1933 -0.608148 70.672 8.4631 72.5942 13.5308C78.7657 12.9227 84.9877 12.872 91.2098 13.4802C95.0543 1.67233 102.086 -7.6523 110.179 8.86852C114.833 18.4465 118.425 28.5313 123.736 37.8053C130.009 48.853 128.542 56.9613 125.659 64.9684C121.713 75.9147 112.102 81.1345 107.954 83.5163C87.2135 95.5268 62.8312 89.1922 53.2704 83.0095Z" fill="#BA89FF"/>
<mask id="mask0_153_540" style="mask-type:luminance" maskUnits="userSpaceOnUse" x="36" y="-1" width="93" height="92">
<path d="M53.2704 83.0095C46.5931 78.6513 40.3711 69.9347 39.9158 69.1239C39.4605 68.2624 39.0559 67.4009 39.0559 67.4009C38.9041 67.0968 38.8029 66.8434 38.7017 66.59C33.3902 53.9207 38.4994 41.4541 39.8146 38.0587C40.8264 35.4235 42.2933 33.0416 43.6086 30.5584C46.7955 24.2744 49.4259 17.7371 52.4105 11.3517C54.0798 7.8043 56.9126 0.709463 61.3136 0.20269C68.1933 -0.608148 70.672 8.4631 72.5942 13.5308C78.7657 12.9227 84.9877 12.872 91.2098 13.4802C95.0543 1.67233 102.086 -7.6523 110.179 8.86852C114.833 18.4465 118.425 28.5313 123.736 37.8053C130.009 48.853 128.542 56.9613 125.659 64.9684C121.713 75.9147 112.102 81.1345 107.954 83.5163C87.2135 95.5268 62.8312 89.1922 53.2704 83.0095Z" fill="white"/>
</mask>
<g mask="url(#mask0_153_540)">
<path d="M71.9367 35.1194C71.6837 35.3728 71.3802 35.7275 71.0767 35.9302C71.1273 35.8795 71.279 35.7782 71.1273 35.8795C71.0767 35.9302 71.0767 35.9302 71.0261 35.9809C70.9249 36.0316 70.8744 36.0822 70.7732 36.1329C70.6214 36.2343 70.4191 36.3356 70.2167 36.437C70.1156 36.4877 70.065 36.5383 69.9638 36.5383C69.9132 36.5383 69.8626 36.589 69.8626 36.589C69.6603 36.6904 69.8626 36.589 69.9638 36.5383C69.812 36.6397 69.5591 36.6904 69.4074 36.741C69.0027 36.8424 68.6486 36.9437 68.2439 36.9944C68.3451 36.9944 68.4462 36.9438 68.598 36.9438H68.5474C68.1933 36.9944 67.8898 37.0451 67.6369 37.2985C67.4345 37.5012 67.2322 37.8559 67.2828 38.2107C67.2828 38.5147 67.3839 38.8695 67.6369 39.1229C67.8898 39.3256 68.1933 39.5283 68.5474 39.4776C69.6097 39.3256 70.5708 39.0722 71.532 38.5654C72.3919 38.1093 73.1507 37.5519 73.8083 36.8424C74.2636 36.3356 74.3142 35.5248 73.8083 35.0687C73.2519 34.6633 72.4425 34.6126 71.9367 35.1194Z" fill="#BA89FF"/>
</g>
<mask id="mask1_153_540" style="mask-type:luminance" maskUnits="userSpaceOnUse" x="36" y="-1" width="93" height="92">
<path d="M53.2704 83.0095C46.5931 78.6513 40.3711 69.9347 39.9158 69.1239C39.4605 68.2624 39.0559 67.4009 39.0559 67.4009C38.9041 67.0968 38.8029 66.8434 38.7017 66.59C33.3902 53.9207 38.4994 41.4541 39.8146 38.0587C40.8264 35.4235 42.2933 33.0416 43.6086 30.5584C46.7955 24.2744 49.4259 17.7371 52.4105 11.3517C54.0798 7.8043 56.9126 0.709463 61.3136 0.20269C68.1933 -0.608148 70.672 8.4631 72.5942 13.5308C78.7657 12.9227 84.9877 12.872 91.2098 13.4802C95.0543 1.67233 102.086 -7.6523 110.179 8.86852C114.833 18.4465 118.425 28.5313 123.736 37.8053C130.009 48.853 128.542 56.9613 125.659 64.9684C121.713 75.9147 112.102 81.1345 107.954 83.5163C87.2135 95.5268 62.8312 89.1922 53.2704 83.0095Z" fill="white"/>
</mask>
<g mask="url(#mask1_153_540)">
<path d="M97.1283 34.258C97.1789 34.4607 97.1789 34.6634 97.2295 34.9168C97.2295 34.8154 97.1789 34.7141 97.1789 34.562C97.2801 35.1702 97.3307 35.7783 97.2295 36.3864C97.2295 36.2851 97.2801 36.1837 97.2801 36.0317C97.2801 36.133 97.2295 36.2851 97.1789 36.3864C97.2295 36.2851 97.2801 36.1837 97.3307 36.0824C97.2801 36.133 97.2295 36.1837 97.2295 36.2344C97.3812 36.0824 97.3812 36.0317 97.2801 36.133L97.2295 36.1837C97.1789 36.2344 97.1283 36.2851 97.0777 36.3357C96.926 36.4878 97.3307 36.133 97.0777 36.3357C96.8754 36.4878 96.6224 36.6398 96.3695 36.7412C96.4707 36.6905 96.5718 36.6398 96.673 36.5891C96.3189 36.7412 95.9648 36.8425 95.6107 36.8932C95.7119 36.8932 95.8131 36.8425 95.9648 36.8425C95.6107 36.8932 95.2566 36.8932 94.9025 36.8425C95.0037 36.8425 95.1049 36.8932 95.2566 36.8932C95.1555 36.8932 95.0543 36.8425 94.9531 36.8425C94.2955 36.6905 93.5367 37.0452 93.385 37.704C93.2332 38.3628 93.5873 39.123 94.2449 39.275C95.6613 39.5791 97.2801 39.3257 98.4435 38.4642C98.8482 38.1601 99.2023 37.9067 99.4552 37.5013C99.7082 37.0452 99.8093 36.5385 99.8093 36.0317C99.8093 35.2208 99.7082 34.3593 99.5564 33.5485C99.4552 32.8897 98.5953 32.4843 97.9883 32.687C97.3307 32.9404 97.0271 33.5485 97.1283 34.258Z" fill="#BA89FF"/>
</g>
<path d="M72.2888 35.4696C72.8727 33.1637 71.8533 30.9149 70.0119 30.4469C68.1704 29.9789 66.2042 31.4689 65.6203 33.7749C65.0364 36.0808 66.0558 38.3296 67.8972 38.7976C69.7387 39.2656 71.7048 37.7756 72.2888 35.4696Z" fill="#080605"/>
<path d="M96.6256 38.8465C98.4671 38.3785 99.4865 36.1298 98.9025 33.8238C98.3186 31.5178 96.3524 30.0279 94.511 30.4959C92.6696 30.9639 91.6501 33.2126 92.2341 35.5186C92.818 37.8246 94.7842 39.3145 96.6256 38.8465Z" fill="#080605"/>
<path d="M91.3616 53.1604C91.1087 53.1604 90.8557 53.0591 90.704 52.8564C88.63 50.6772 84.3807 49.3596 79.8786 49.4103C75.6294 49.461 71.7849 50.7786 69.812 52.8564C69.4579 53.2111 68.8509 53.2618 68.4968 52.907C68.1427 52.5523 68.0921 51.9442 68.4462 51.5894C70.7226 49.2076 75.073 47.6873 79.828 47.5859C84.8866 47.4846 89.5405 49.0556 92.0192 51.5894C92.3733 51.9442 92.3733 52.5523 91.9686 52.907C91.8169 53.1098 91.6145 53.1604 91.3616 53.1604Z" fill="#080605"/>
<path d="M52.1071 46.0151C51.8036 46.0151 51.5506 45.9137 51.3989 45.6603C50.4883 44.7988 39.7641 37.2479 33.1374 32.6869C32.7327 32.3829 32.6315 31.8254 32.8845 31.3693C33.188 30.9639 33.7444 30.8625 34.1997 31.1159C52.4612 43.7853 52.8153 44.3934 52.9165 44.5961C53.1694 45.0522 53.0176 45.6097 52.6129 45.863C52.4612 46.0151 52.2588 46.0151 52.1071 46.0151Z" fill="#080605"/>
<path d="M29.748 64.5124C29.3939 64.5124 29.0398 64.3096 28.888 63.9549C28.6857 63.4988 28.888 62.9414 29.3433 62.7386C49.6282 53.7181 50.3364 53.6674 50.5893 53.7181C51.0952 53.7181 51.4998 54.1235 51.4998 54.6809C51.4998 55.137 51.1458 55.5425 50.6905 55.5931C49.4764 55.8972 37.4876 61.2183 30.1021 64.4617C30.0009 64.4617 29.8997 64.5124 29.748 64.5124Z" fill="#080605"/>
<path d="M50.1846 51.3363C50.0834 51.3363 49.9823 51.3363 49.8811 51.2856C48.667 51.0322 35.5653 50.5254 27.4716 50.272C26.9657 50.272 26.561 49.8159 26.561 49.3092C26.561 48.8024 27.0163 48.397 27.5222 48.397C49.6787 49.1571 50.3364 49.4612 50.5387 49.5626C50.994 49.8159 51.1963 50.3734 50.9434 50.8295C50.8928 51.1336 50.5387 51.3363 50.1846 51.3363Z" fill="#080605"/>
<path d="M127.328 64.5123C127.126 64.5123 126.974 64.4616 126.822 64.3603C108.561 51.6909 108.207 51.0828 108.106 50.8801C107.853 50.424 108.004 49.8666 108.409 49.6132C108.814 49.3598 109.32 49.4611 109.623 49.8159C110.534 50.6774 121.258 58.2283 127.885 62.7893C128.289 63.0933 128.39 63.6508 128.138 64.1069C127.885 64.3603 127.581 64.5123 127.328 64.5123Z" fill="#080605"/>
<path d="M110.331 41.8088C109.826 41.8088 109.37 41.4033 109.421 40.8459C109.421 40.3898 109.775 39.9844 110.23 39.9337C111.444 39.6296 123.433 34.3085 130.819 31.0651C131.274 30.8624 131.83 31.0651 132.033 31.5212C132.235 31.9773 132.033 32.5348 131.577 32.7375C111.545 41.7074 110.584 41.8088 110.331 41.8088Z" fill="#080605"/>
<path d="M133.398 47.0792C111.191 46.3191 110.534 46.015 110.331 45.9136C109.876 45.6603 109.674 45.1028 109.927 44.6467C110.129 44.2413 110.635 44.0386 111.039 44.1906C112.254 44.444 125.355 44.9508 133.449 45.2042C133.955 45.2042 134.36 45.6603 134.36 46.167C134.309 46.7245 133.904 47.0792 133.398 47.0792Z" fill="#080605"/>
<path d="M68.5979 13.3788C68.1932 13.3788 67.8391 13.1254 67.6874 12.72C66.018 6.74004 62.8311 4.15549 61.5665 4.45956C60.4536 4.71294 59.2395 7.55088 59.2395 11.6557C59.2395 12.1625 58.8349 12.5679 58.329 12.5679C57.8231 12.5679 57.4185 12.1625 57.4185 11.6557C57.4185 7.60155 58.5819 3.29398 61.1618 2.68585C64.0958 1.97637 67.8391 6.28394 69.5085 12.2639C69.6602 12.7706 69.3567 13.2774 68.8509 13.4295C68.7497 13.3281 68.6485 13.3788 68.5979 13.3788Z" fill="#080605"/>
<path d="M106.942 13.3788C106.537 13.3788 106.183 13.1254 106.032 12.72C104.362 6.74004 101.175 4.15549 99.9107 4.45956C98.7978 4.71294 97.5838 7.55088 97.5838 11.6557C97.5838 12.1625 97.1791 12.5679 96.6732 12.5679C96.1674 12.5679 95.7627 12.1625 95.7627 11.6557C95.7627 7.60155 96.9262 3.29398 99.5061 2.68585C102.44 1.97637 106.183 6.28394 107.853 12.2639C108.004 12.7706 107.701 13.2774 107.195 13.4295C107.094 13.3281 107.043 13.3788 106.942 13.3788Z" fill="#080605"/>
</svg>
