<svg width="94" height="78" viewBox="0 0 94 78" fill="none" xmlns="http://www.w3.org/2000/svg">
<path d="M92.2328 12.2309H61.0262C60.5998 12.2309 60.2588 11.8932 60.2588 11.4709C60.2588 11.0487 60.5998 10.7109 61.0262 10.7109H92.2328C92.6592 10.7109 93.0002 11.0487 93.0002 11.4709C93.0002 11.8932 92.6592 12.2309 92.2328 12.2309Z" fill="#FE5936" stroke="#985BEF" stroke-width="2"/>
<path d="M30.5867 12.2309H1.76738C1.34106 12.2309 1 11.8932 1 11.4709C1 11.0487 1.34106 10.7109 1.76738 10.7109H30.5867C31.013 10.7109 31.354 11.0487 31.354 11.4709C31.354 11.8932 31.013 12.2309 30.5867 12.2309Z" fill="#FE5936" stroke="#985BEF" stroke-width="2"/>
<path d="M45.7642 21.9422C39.9662 21.9422 35.1914 17.2133 35.1914 11.4711C35.2767 5.72889 39.9662 1 45.7642 1C51.5621 1 56.3369 5.72889 56.3369 11.4711C56.3369 17.2133 51.6474 21.9422 45.7642 21.9422ZM45.7642 2.43556C40.7336 2.43556 36.7262 6.48889 36.7262 11.3867C36.7262 16.3689 40.8188 20.3378 45.7642 20.3378C50.7095 20.3378 54.8022 16.2844 54.8022 11.3867C54.8874 6.48889 50.7947 2.43556 45.7642 2.43556Z" fill="#FE5936" stroke="#985BEF" stroke-width="2"/>
<path d="M80.5728 47.9422C74.7748 47.9422 70 43.2133 70 37.4711C70.0853 31.7289 74.7748 27 80.5728 27C86.3707 27 91.1455 31.7289 91.1455 37.4711C91.1455 43.2133 86.456 47.9422 80.5728 47.9422ZM80.5728 28.4356C75.5422 28.4356 71.5348 32.4889 71.5348 37.3867C71.5348 42.3689 75.6274 46.3378 80.5728 46.3378C85.5181 46.3378 89.6108 42.2844 89.6108 37.3867C89.696 32.4889 85.6033 28.4356 80.5728 28.4356Z" fill="#FE5936" stroke="#985BEF" stroke-width="2"/>
<path d="M65.0334 39.7602H1.76738C1.34106 39.7602 1 39.4225 1 39.0002C1 38.578 1.34106 38.2402 1.76738 38.2402H65.0334C65.4597 38.2402 65.8007 38.578 65.8007 39.0002C65.8007 39.4225 65.4597 39.7602 65.0334 39.7602Z" fill="#FE5936" stroke="#985BEF" stroke-width="2"/>
<path d="M92.2332 67.289H31.2693C30.843 67.289 30.502 66.9513 30.502 66.529C30.502 66.1068 30.843 65.769 31.2693 65.769H92.2332C92.6595 65.769 93.0006 66.1068 93.0006 66.529C93.0006 66.9513 92.6595 67.289 92.2332 67.289Z" fill="#FE5936" stroke="#985BEF" stroke-width="2"/>
<path d="M16.8589 76.9998C11.0609 76.9998 6.28613 72.271 6.28613 66.5287C6.28613 60.7865 11.0609 56.0576 16.8589 56.0576C22.6568 56.0576 27.4316 60.7865 27.4316 66.6132C27.4316 72.3554 22.6568 76.9998 16.8589 76.9998ZM16.8589 57.5776C11.9136 57.5776 7.82089 61.631 7.82089 66.6132C7.82089 71.5954 11.9136 75.5643 16.8589 75.5643C21.8042 75.5643 25.8969 71.511 25.8969 66.6132C25.8969 61.631 21.8895 57.5776 16.8589 57.5776Z" fill="#FE5936" stroke="#985BEF" stroke-width="2"/>
</svg>
