<svg width="69" height="63" viewBox="0 0 69 63" fill="none" xmlns="http://www.w3.org/2000/svg">
<path d="M61.336 51.1451H7.54391C3.94176 51.1451 1 48.2587 1 44.6507V30.2186C1 26.6106 3.94176 23.6641 7.54391 23.6641H61.336C64.9382 23.6641 67.8799 26.6106 67.8799 30.2186V44.5906C67.8199 48.2587 64.9382 51.1451 61.336 51.1451ZM7.54391 24.9269C4.60215 24.9269 2.20072 27.3322 2.20072 30.2788V44.6507C2.20072 47.5972 4.60215 50.0026 7.54391 50.0026H61.336C64.2778 50.0026 66.6792 47.5972 66.6792 44.6507V30.2186C66.6792 27.2721 64.2778 24.8667 61.336 24.8667H7.54391V24.9269Z" fill="#985BEF" stroke="#985BEF" stroke-width="2"/>
<path d="M65.1183 61.5328H3.76165C2.26075 61.5328 1 60.27 1 58.7666C1 57.2633 2.26075 56.0005 3.76165 56.0005H65.1183C66.6192 56.0005 67.8799 57.2633 67.8799 58.7666C67.8199 60.3301 66.6192 61.5328 65.1183 61.5328ZM3.76165 57.2633C2.92115 57.2633 2.20072 57.9849 2.20072 58.8268C2.20072 59.6686 2.92115 60.3902 3.76165 60.3902H65.1183C65.9588 60.3902 66.6792 59.6686 66.6792 58.8268C66.6792 57.9849 65.9588 57.2633 65.1183 57.2633H3.76165Z" fill="#985BEF" stroke="#985BEF" stroke-width="2"/>
<path d="M64.0383 19.3069H5.9236C5.56339 19.3069 5.32324 19.0664 5.32324 18.7055V16.1799C5.32324 16.1198 5.32324 16.0597 5.32324 15.9995C6.94421 10.5875 8.56518 8.0619 10.3062 8.0619C10.3062 8.0619 10.3062 8.0619 10.3663 8.0619C11.9872 8.12203 13.0078 10.2868 13.9684 12.3915C14.5087 13.6543 15.3492 15.5185 15.8895 15.4583C16.2498 15.4583 16.5499 14.2557 16.8501 13.1733C17.4505 11.1287 18.2309 8.30243 20.5123 5.71668C22.4335 3.55187 26.756 0.124257 30.7784 1.20666C32.7596 1.74786 33.6602 3.13094 34.4406 4.33361C35.1611 5.41602 35.8215 6.49842 37.2623 6.91936C39.3035 7.58083 40.9245 6.49842 42.8456 5.29575C44.7668 4.09308 46.9281 2.71 49.6297 3.25121C51.791 3.67214 52.7516 4.99508 53.8322 6.49842C54.9128 8.00176 56.1136 9.62537 58.9353 11.0686C60.9765 12.0908 62.8976 12.5118 64.3985 12.8726C66.2596 13.2935 67.6404 13.5341 67.8806 14.7969C68.1808 16.0597 67.0401 17.5029 64.3385 19.1866C64.2784 19.2468 64.1584 19.3069 64.0383 19.3069ZM6.52396 18.1042H63.8582C66.7399 16.2401 66.7999 15.3381 66.7399 15.0374C66.6198 14.5563 65.5392 14.3158 64.1584 14.0151C62.6575 13.7145 60.5562 13.2334 58.3949 12.151C55.3331 10.5875 53.9523 8.72337 52.8716 7.22003C51.851 5.83695 51.1306 4.81468 49.4496 4.45388C47.2283 3.97281 45.4272 5.11535 43.5661 6.31802C41.5849 7.58083 39.5437 8.90377 37.0222 8.0619C35.1611 7.46056 34.3206 6.13762 33.5401 4.99508C32.7596 3.79241 32.0992 2.77014 30.5383 2.40933C27.4765 1.56746 23.6942 3.97281 21.4128 6.55855C19.3116 8.9639 18.5912 11.6098 18.0508 13.5341C17.5706 15.3381 17.2103 16.6009 16.0096 16.661C14.6288 16.7813 13.7883 14.9773 12.8878 12.8726C12.1673 11.249 11.2668 9.26457 10.3663 9.20444C9.82593 9.20444 8.50514 9.8659 6.52396 16.2401V18.1042Z" fill="#985BEF" stroke="#985BEF" stroke-width="2"/>
<path d="M34.9806 45.4072C30.5607 45.4072 26.9609 41.8016 26.9609 37.3745C26.9609 32.9474 30.5607 29.3418 34.9806 29.3418C39.4005 29.3418 43.0002 32.9474 43.0002 37.3745C43.0002 41.8016 39.4005 45.4072 34.9806 45.4072ZM34.9806 30.2546C31.0619 30.2546 27.8723 33.4494 27.8723 37.3745C27.8723 41.2996 31.0619 44.4944 34.9806 44.4944C38.8993 44.4944 42.0889 41.2996 42.0889 37.3745C42.0889 33.4494 38.8993 30.2546 34.9806 30.2546Z" fill="#985BEF" stroke="#985BEF" stroke-width="2"/>
</svg>
