<svg width="89" height="103" viewBox="0 0 89 103" fill="none" xmlns="http://www.w3.org/2000/svg">
<path d="M46 96.8C45.7 96.8 45.5 96.7 45.3 96.5C44 95.3 14.7 65.4 12.1 60.1C8.1 53.9 6 46.7 6 39.3C6 18.2 23.1 1 44.2 1C65.3 1 82.5 18.2 82.5 39.3C82.5 48 79.7 56.1 74.3 62.9C74 63.3 73.7 63.6 73.4 64L46.7 96.5C46.6 96.7 46.3 96.8 46 96.8ZM44.2 3C24.2 3 8 19.3 8 39.3C8 46.4 10 53.2 13.9 59.1L14 59.2C15.7 63.1 37 85.1 46 94.3L71.9 62.7C72.2 62.3 72.5 62 72.8 61.6C77.9 55.2 80.5 47.4 80.5 39.2C80.5 19.3 64.2 3 44.2 3Z" fill="#985BEF" stroke="#985BEF" stroke-width="2"/>
<path d="M44.2 101.9C29.3 101.9 1 100.4 1 94.5001C1 88.1001 34.8 87.2001 38.7 87.1001C39.2 87.1001 39.7 87.5001 39.7 88.1001C39.7 88.7001 39.3 89.1001 38.7 89.1001C13.3 89.6001 3 93.1001 3 94.5001C3 96.3001 17.5 99.9001 44.2 99.9001C70.9 99.9001 85.4 96.3001 85.4 94.5001C85.4 93.0001 75.5 89.9001 52.6 89.2001C52 89.2001 51.6 88.7001 51.6 88.2001C51.6 87.6001 52.1 87.2001 52.6 87.2001C58.4 87.4001 87.4 88.6001 87.4 94.5001C87.4 100.4 59.2 101.9 44.2 101.9Z" fill="#985BEF" stroke="#985BEF" stroke-width="2"/>
<path d="M44.2 74.1C29.3 74.1 1 72.6 1 66.7C1 65.2 2.4 63 14.2 61.2C14.7 61.1 15.3 61.5 15.3 62C15.4 62.5 15 63.1 14.5 63.1C5 64.6 3 66.3 3 66.7C3 68.5 17.5 72.1 44.2 72.1C70.9 72.1 85.4 68.5 85.4 66.7C85.4 66.3 83.4 64.6 73.8 63.1C73.3 63 72.9 62.5 73 62C73.1 61.5 73.6 61.1 74.1 61.2C86 63 87.4 65.2 87.4 66.8C87.4 72.6 59.2 74.1 44.2 74.1Z" fill="#985BEF" stroke="#985BEF" stroke-width="2"/>
<path d="M44.2 42.8999C29.3 42.8999 1 41.2999 1 35.3999C1 33.7999 2.9 32.4999 6.8 31.3999C7.3 31.2999 7.9 31.5999 8 32.0999C8.1 32.5999 7.8 33.1999 7.3 33.2999C3.3 34.4999 3 35.3999 3 35.3999C3 37.1999 17.5 40.7999 44.2 40.7999C70.9 40.7999 85.4 37.1999 85.4 35.3999C85.4 35.3999 85.1 34.3999 80.7 33.1999C80.2 33.0999 79.9 32.4999 80 31.9999C80.1 31.4999 80.7 31.0999 81.2 31.2999C85.4 32.3999 87.3 33.6999 87.3 35.3999C87.4 41.2999 59.2 42.8999 44.2 42.8999Z" fill="#985BEF" stroke="#985BEF" stroke-width="2"/>
<path d="M45.4004 58.3999C32.7004 58.3999 22.4004 48.0999 22.4004 35.3999C22.4004 22.6999 32.7004 12.3999 45.4004 12.3999C58.1004 12.3999 68.4004 22.6999 68.4004 35.3999C68.4004 48.0999 58.1004 58.3999 45.4004 58.3999ZM45.4004 14.4999C33.8004 14.4999 24.4004 23.8999 24.4004 35.4999C24.4004 47.0999 33.8004 56.4999 45.4004 56.4999C57.0004 56.4999 66.4004 47.0999 66.4004 35.4999C66.4004 23.8999 57.0004 14.4999 45.4004 14.4999Z" fill="#985BEF" stroke="#985BEF" stroke-width="2"/>
</svg>
