<svg width="52" height="52" viewBox="0 0 52 52" fill="none" xmlns="http://www.w3.org/2000/svg">
<path d="M38.0721 22.3571C32.0572 22.3571 27.1436 17.4435 27.1436 11.4285C27.1436 5.41361 32.0572 0.5 38.0721 0.5C44.087 0.5 49.0006 5.41361 49.0006 11.4285C49.0006 17.4435 44.1294 22.3571 38.0721 22.3571ZM38.0721 1.34717C32.5231 1.34717 27.9907 5.87955 27.9907 11.4285C27.9907 16.9775 32.5231 21.5099 38.0721 21.5099C43.6211 21.5099 48.1535 16.9775 48.1535 11.4285C48.1958 5.87955 43.6634 1.34717 38.0721 1.34717Z" fill="#985BEF" stroke="#A2A2A2"/>
<path d="M25.9998 38.2416C24.0936 38.2416 22.5264 36.6744 22.5264 34.7682C22.5264 32.8621 24.0936 31.2948 25.9998 31.2948C27.9059 31.2948 29.4732 32.8621 29.4732 34.7682C29.4732 36.6744 27.9059 38.2416 25.9998 38.2416ZM25.9998 32.142C24.5596 32.142 23.3735 33.328 23.3735 34.7682C23.3735 36.2084 24.5596 37.3945 25.9998 37.3945C27.44 37.3945 28.626 36.2084 28.626 34.7682C28.626 33.328 27.44 32.142 25.9998 32.142Z" fill="#985BEF" stroke="#A2A2A2"/>
<path d="M48.0261 45.019C46.12 45.019 44.5527 43.4518 44.5527 41.5456C44.5527 39.6395 46.12 38.0722 48.0261 38.0722C49.9323 38.0722 51.4996 39.6395 51.4996 41.5456C51.4996 43.4518 49.9323 45.019 48.0261 45.019ZM48.0261 38.9617C46.586 38.9617 45.3999 40.1478 45.3999 41.588C45.3999 43.0282 46.586 44.2142 48.0261 44.2142C49.4663 44.2142 50.6524 43.0282 50.6524 41.588C50.61 40.1478 49.4663 38.9617 48.0261 38.9617Z" fill="#985BEF" stroke="#A2A2A2"/>
<path d="M30.659 51.3729C28.7528 51.3729 27.1855 49.8056 27.1855 47.8994C27.1855 45.9933 28.7528 44.426 30.659 44.426C32.5651 44.426 34.1324 45.9933 34.1324 47.8994C34.1324 49.8056 32.5651 51.3729 30.659 51.3729ZM30.659 45.3156C29.2188 45.3156 28.0327 46.5016 28.0327 47.9418C28.0327 49.382 29.2188 50.568 30.659 50.568C32.0992 50.568 33.2852 49.382 33.2852 47.9418C33.2852 46.5016 32.0992 45.3156 30.659 45.3156Z" fill="#985BEF" stroke="#A2A2A2"/>
<path d="M35.3609 44.8496C35.1914 44.8496 35.0643 44.7649 34.9796 44.6378C34.8526 44.426 34.9373 44.1718 35.1491 44.0448L39.6391 41.6727C39.8509 41.5456 40.105 41.6303 40.2321 41.8421C40.3592 42.0539 40.2745 42.3081 40.0627 42.4351L35.5727 44.8072C35.4879 44.8496 35.4032 44.8496 35.3609 44.8496Z" fill="#985BEF" stroke="#A2A2A2"/>
<path d="M24.9839 45.4003C24.9415 45.4003 24.8992 45.4003 24.8568 45.4003L23.2896 44.892C23.0778 44.8073 22.9507 44.5955 22.993 44.3413C23.0778 44.1295 23.2896 44.0025 23.5437 44.0448L25.111 44.5531C25.3228 44.6378 25.4499 44.8496 25.4075 45.1038C25.3651 45.2732 25.1957 45.4003 24.9839 45.4003ZM18.5877 43.3671C18.5454 43.3671 18.503 43.3671 18.4607 43.3671L13.6318 41.7998C13.42 41.7151 13.2929 41.5033 13.3353 41.2491C13.42 41.0374 13.6318 40.9103 13.8859 40.9526L18.7148 42.4775C18.9266 42.5623 19.0537 42.7741 19.0113 43.0282C18.9266 43.24 18.7572 43.3671 18.5877 43.3671Z" fill="#985BEF" stroke="#A2A2A2"/>
<path d="M48.1598 36.8927C48.1175 36.8927 48.1175 36.8927 48.0751 36.8927L43.0768 36.0031C42.865 35.9608 42.6956 35.749 42.7379 35.4948C42.7803 35.2407 42.9921 35.1136 43.2462 35.156L48.2446 36.0455C48.4564 36.0879 48.6258 36.2996 48.5834 36.5538C48.5411 36.7232 48.3293 36.8927 48.1598 36.8927ZM38.1208 35.1136C38.0785 35.1136 38.0785 35.1136 38.0361 35.1136L33.0378 34.2664C32.826 34.2241 32.6566 34.0123 32.6989 33.7581C32.7413 33.5463 32.9531 33.3769 33.2072 33.4193L38.2055 34.3088C38.4173 34.3511 38.5868 34.5629 38.5444 34.8171C38.5021 34.9865 38.3326 35.1136 38.1208 35.1136Z" fill="#985BEF" stroke="#A2A2A2"/>
<path d="M25.1521 29.431C25.025 29.431 24.9403 29.3886 24.8556 29.3039C24.6862 29.1345 24.6862 28.8803 24.8556 28.7109L28.5408 25.1951C28.7102 25.0257 28.9644 25.0257 29.1338 25.1951C29.3033 25.3646 29.3033 25.6187 29.1338 25.7882L25.4486 29.3039C25.3639 29.3886 25.2792 29.431 25.1521 29.431Z" fill="#985BEF" stroke="#A2A2A2"/>
<path d="M29.1764 17.4435C29.134 17.4435 29.0493 17.4435 29.007 17.4012C28.7952 17.3165 28.7104 17.0623 28.7952 16.8505L31.1249 11.8945L31.845 5.92197C31.8873 5.75253 32.0144 5.5831 32.1839 5.54074C32.3533 5.49838 32.5651 5.62546 32.6498 5.79489L35.2337 11.598H40.3167L41.7146 6.17612C41.7569 6.00669 41.9264 5.87961 42.0958 5.87961C42.2652 5.87961 42.4347 5.96433 42.5194 6.13376L44.9762 11.8098L47.9837 15.4103C48.1531 15.5798 48.1107 15.8763 47.9413 16.0033C47.7719 16.1728 47.4753 16.1304 47.3483 15.961L44.2984 12.3181C44.2561 12.2758 44.2561 12.2334 44.2561 12.2334L42.2652 7.57396L41.0792 12.1063C41.0368 12.2758 40.8674 12.4029 40.6556 12.4029H34.9795C34.8101 12.4029 34.6407 12.3181 34.5983 12.1487L32.5227 7.48924L31.9721 12.0216C31.9721 12.064 31.9721 12.1063 31.9297 12.1487L29.5576 17.147C29.5153 17.3588 29.3458 17.4435 29.1764 17.4435Z" fill="#985BEF" stroke="#A2A2A2"/>
<path d="M11.6827 39.5971C11.5556 39.5971 11.4709 39.5547 11.3862 39.47C10.539 38.5804 2.9568 30.8712 2.23671 29.3886C1.09302 27.6519 0.5 25.661 0.5 23.5855C0.5 17.6976 5.28653 12.8687 11.2168 12.8687C17.147 12.8687 21.9335 17.6552 21.9335 23.5855C21.9335 25.9999 21.1287 28.2873 19.6461 30.1934C19.5614 30.2781 19.4767 30.4052 19.392 30.4899L12.0216 39.47C11.9368 39.5547 11.8098 39.5971 11.6827 39.5971ZM11.2168 13.7159C5.75248 13.7159 1.34717 18.1636 1.34717 23.5855C1.34717 25.4916 1.89784 27.3554 2.9568 28.965L2.99916 29.0074C3.42275 29.9393 8.294 35.107 11.6827 38.5381L18.7142 29.9393C18.799 29.8546 18.8837 29.7275 18.9684 29.6428C20.3662 27.9061 21.0863 25.7881 21.0863 23.5431C21.044 18.1636 16.6387 13.7159 11.2168 13.7159Z" fill="#985BEF" stroke="#A2A2A2"/>
<path d="M11.0479 29.0074C7.6592 29.0074 4.94824 26.2541 4.94824 22.9078C4.94824 19.5614 7.70156 16.7657 11.0479 16.7657C14.3942 16.7657 17.1475 19.5191 17.1475 22.8654C17.1475 26.2117 14.4366 29.0074 11.0479 29.0074ZM11.0479 17.6129C8.12514 17.6129 5.79542 19.985 5.79542 22.8654C5.79542 25.7881 8.1675 28.1179 11.0479 28.1179C13.9283 28.1179 16.3427 25.7882 16.3427 22.9078C16.3427 19.985 13.9706 17.6129 11.0479 17.6129Z" fill="#985BEF" stroke="#A2A2A2"/>
</svg>
