<svg width="73" height="65" viewBox="0 0 73 65" fill="none" xmlns="http://www.w3.org/2000/svg">
<path d="M36.0359 63.011C35.8629 63.011 35.7476 62.9535 35.6323 62.8387L6.68441 34.2392C1.95587 29.5874 -0.00474465 22.7534 1.49455 16.4362C1.49455 16.3214 1.55221 16.1491 1.55221 16.0342C2.12886 13.7371 3.10917 11.4974 4.49313 9.54479C7.0304 5.69707 11.0093 2.88306 15.6225 1.73448C19.6014 0.700766 23.4649 0.758195 27.1555 1.90677C31.2497 3.1702 34.1907 5.46735 36.0359 7.3625C37.8812 5.46735 40.7645 3.1702 44.8587 1.90677C48.5493 0.758195 52.4128 0.700766 56.3917 1.73448C61.0049 2.94049 64.9261 5.69707 67.5211 9.54479C68.8474 11.5548 69.8277 13.7371 70.462 16.0342C70.5197 16.1491 70.5197 16.264 70.5773 16.4362C72.0766 22.7534 70.0583 29.5874 65.3875 34.2392L36.4396 62.8387C36.3243 63.011 36.1513 63.011 36.0359 63.011ZM21.216 2.13648C19.4861 2.13648 17.6984 2.3662 15.9108 2.82563C11.5859 3.9742 7.83771 6.5585 5.47344 10.1765C4.20481 12.0717 3.28217 14.1391 2.70551 16.3214C2.64785 16.4362 2.64785 16.5511 2.59018 16.666C1.20622 22.6385 3.05151 29.0131 7.49172 33.4352L36.0359 61.6327L64.5802 33.4352C69.0204 29.0706 70.8656 22.6385 69.4817 16.666C69.4817 16.5511 69.424 16.4362 69.3663 16.3214C68.7897 14.1391 67.8671 12.0717 66.5984 10.1765C64.1765 6.5585 60.4859 3.9742 56.161 2.82563C52.4128 1.84934 48.7223 1.90677 45.2623 2.99792C41.0528 4.26135 38.1695 6.73078 36.4973 8.5685C36.2666 8.79822 35.8629 8.79822 35.6323 8.5685C33.96 6.73078 31.0191 4.26135 26.8672 2.99792C24.9642 2.42363 23.119 2.13648 21.216 2.13648Z" fill="#985BEF" stroke="#985BEF" stroke-width="2"/>
<path d="M37.8797 48.4238H34.1891C32.4592 48.4238 31.0752 47.0455 31.0752 45.3227V16.5509C31.0752 14.828 32.4592 13.4497 34.1891 13.4497H37.8797C39.6096 13.4497 40.9936 14.828 40.9936 16.5509V33.8943C40.9936 34.2389 40.7629 34.4686 40.4169 34.4686C40.0709 34.4686 39.8403 34.2389 39.8403 33.8943V16.5509C39.8403 15.4597 38.9753 14.5983 37.8797 14.5983H34.1891C33.0935 14.5983 32.2285 15.4597 32.2285 16.5509V45.3227C32.2285 46.4138 33.0935 47.2752 34.1891 47.2752H37.8797C38.9753 47.2752 39.8403 46.4138 39.8403 45.3227V36.3063C39.8403 35.9618 40.0709 35.7321 40.4169 35.7321C40.7629 35.7321 40.9936 35.9618 40.9936 36.3063V45.3227C40.9936 47.0455 39.6096 48.4238 37.8797 48.4238Z" fill="#985BEF" stroke="#985BEF" stroke-width="2"/>
<path d="M50.4514 35.9046H21.5612C19.8312 35.9046 18.4473 34.5263 18.4473 32.8034V29.128C18.4473 27.4051 19.8312 26.0269 21.5612 26.0269H28.654C29 26.0269 29.2306 26.2566 29.2306 26.6011C29.2306 26.9457 29 27.1754 28.654 27.1754H21.5612C20.4655 27.1754 19.6006 28.0369 19.6006 29.128V32.8034C19.6006 33.8946 20.4655 34.756 21.5612 34.756H50.4514C51.547 34.756 52.412 33.8946 52.412 32.8034V29.128C52.412 28.0369 51.547 27.1754 50.4514 27.1754H41.3403C40.9943 27.1754 40.7637 26.9457 40.7637 26.6011C40.7637 26.2566 40.9943 26.0269 41.3403 26.0269H50.4514C52.1813 26.0269 53.5653 27.4051 53.5653 29.128V32.8034C53.623 34.4689 52.1813 35.9046 50.4514 35.9046Z" fill="#985BEF" stroke="#985BEF" stroke-width="2"/>
</svg>
