<svg width="111" height="72" viewBox="0 0 111 72" fill="none" xmlns="http://www.w3.org/2000/svg">
<path d="M108.099 68.8C107.999 68.8 107.799 68.8 107.699 68.7L91.8992 62.1H42.7992C42.1992 62.1 41.7992 61.7 41.7992 61.1C41.7992 60.5 42.1992 60.1 42.7992 60.1H92.0992C92.1992 60.1 92.3992 60.1 92.4992 60.2L106.699 66.1L103.099 48.5C103.099 48.4 103.099 48.4 103.099 48.3V11.1C103.099 6.6 99.4992 3 94.9992 3H18.6992C12.8992 3 8.19922 7.7 8.19922 13.5V31.2C8.19922 31.8 7.79922 32.2 7.19922 32.2C6.59922 32.2 6.19922 31.8 6.19922 31.2V13.5C6.19922 6.6 11.7992 1 18.6992 1H94.9992C100.599 1 105.099 5.5 105.099 11.1V48.3L109.099 67.6C109.199 68 108.999 68.3 108.799 68.6C108.599 68.7 108.299 68.8 108.099 68.8Z" fill="#985BEF" stroke="#985BEF" stroke-width="2"/>
<path d="M38.4998 42.7C37.9998 42.7 37.5998 42.4 37.4998 41.9C37.3998 41.4 37.7998 40.8 38.2998 40.7C41.0998 40.2 43.1998 37.8 43.1998 34.9C43.1998 31.6 40.5998 29 37.2998 29C34.3998 29 31.9998 31.1 31.4998 33.9C31.3998 34.4 30.8998 34.8 30.2998 34.7C29.7998 34.6 29.3998 34.1 29.4998 33.5C30.1998 29.7 33.3998 27 37.2998 27C41.6998 27 45.1998 30.5 45.1998 34.9C45.1998 38.8 42.3998 42 38.6998 42.7C38.5998 42.7 38.4998 42.7 38.4998 42.7Z" fill="#985BEF" stroke="#985BEF" stroke-width="2"/>
<path d="M59.3004 42.8C54.9004 42.8 51.4004 39.3 51.4004 34.9C51.4004 30.5 54.9004 27 59.3004 27C63.7004 27 67.2004 30.5 67.2004 34.9C67.2004 39.3 63.6004 42.8 59.3004 42.8ZM59.3004 29C56.0004 29 53.4004 31.6 53.4004 34.9C53.4004 38.2 56.0004 40.8 59.3004 40.8C62.6004 40.8 65.2004 38.2 65.2004 34.9C65.2004 31.7 62.5004 29 59.3004 29Z" fill="#985BEF" stroke="#985BEF" stroke-width="2"/>
<path d="M79.7008 42.8C75.3008 42.8 71.8008 39.3 71.8008 34.9C71.8008 30.5 75.3008 27 79.7008 27C84.1008 27 87.6008 30.5 87.6008 34.9C87.6008 39.3 84.0008 42.8 79.7008 42.8ZM79.7008 29C76.4008 29 73.8008 31.6 73.8008 34.9C73.8008 38.2 76.4008 40.8 79.7008 40.8C83.0008 40.8 85.6008 38.2 85.6008 34.9C85.6008 31.7 82.9008 29 79.7008 29Z" fill="#985BEF" stroke="#985BEF" stroke-width="2"/>
<path d="M21.2 71.0001C10.1 71.0001 1 61.9001 1 50.8001C1 39.7001 10.1 30.6001 21.2 30.6001C32.3 30.6001 41.4 39.7001 41.4 50.8001C41.4 61.9001 32.4 71.0001 21.2 71.0001ZM21.2 32.6001C11.2 32.6001 3 40.7001 3 50.8001C3 60.9001 11.2 69.0001 21.2 69.0001C31.2 69.0001 39.4 60.8001 39.4 50.8001C39.4 40.8001 31.3 32.6001 21.2 32.6001Z" fill="#985BEF" stroke="#985BEF" stroke-width="2"/>
<path d="M26.5992 59.5C26.2992 59.5 26.0992 59.4 25.8992 59.2L17.9992 51.3C17.7992 51.1 17.6992 50.9 17.6992 50.6V41.5C17.6992 40.9 18.0992 40.5 18.6992 40.5C19.2992 40.5 19.6992 40.9 19.6992 41.5V50.1L27.2992 57.7C27.6992 58.1 27.6992 58.7 27.2992 59.1C27.0992 59.4 26.8992 59.5 26.5992 59.5Z" fill="#985BEF" stroke="#985BEF" stroke-width="2"/>
</svg>
