<svg width="63" height="78" viewBox="0 0 63 78" fill="none" xmlns="http://www.w3.org/2000/svg">
<path d="M32.3891 76.2294C32.1654 76.2294 32.0163 76.1548 31.8671 76.0057C30.8979 74.9619 7.85937 51.5506 5.84629 47.3753C2.64028 42.529 1 36.8626 1 31.047C1 14.4951 14.4951 1 31.047 1C47.599 1 61.094 14.4951 61.094 31.047C61.094 37.8318 58.8573 44.2438 54.682 49.612C54.4583 49.9103 54.2346 50.2085 53.9364 50.5067L32.9855 76.0057C32.8364 76.0802 32.6127 76.2294 32.3891 76.2294ZM31.047 2.49117C15.3152 2.49117 2.49117 15.3152 2.49117 31.047C2.49117 36.6389 4.05689 42.0071 7.11378 46.6297L7.18834 46.7043C8.53039 49.7612 25.306 67.1332 32.3891 74.3654L52.7435 49.4629C52.9672 49.1647 53.1908 48.941 53.4145 48.6428C57.4407 43.5728 59.5283 37.459 59.5283 30.9725C59.5283 15.3152 46.7788 2.49117 31.047 2.49117Z" fill="white"/>
<path d="M53.4145 48.6428C53.1908 48.941 52.9672 49.1647 52.7435 49.4629L32.3891 74.3654C25.306 67.1332 8.53039 49.7612 7.18834 46.7043L7.11378 46.6297C4.05689 42.0071 2.49117 36.6389 2.49117 31.047C2.49117 15.3152 15.3152 2.49117 31.047 2.49117C46.7788 2.49117 59.5283 15.3152 59.5283 30.9725C59.5283 37.459 57.4407 43.5728 53.4145 48.6428ZM53.4145 48.6428L54.011 49.0901M32.3891 76.2294C32.1654 76.2294 32.0163 76.1548 31.8671 76.0057C30.8979 74.9619 7.85937 51.5506 5.84629 47.3753C2.64028 42.529 1 36.8626 1 31.047C1 14.4951 14.4951 1 31.047 1C47.599 1 61.094 14.4951 61.094 31.047C61.094 37.8318 58.8573 44.2438 54.682 49.612C54.4583 49.9103 54.2346 50.2085 53.9364 50.5067L32.9855 76.0057C32.8364 76.0802 32.6127 76.2294 32.3891 76.2294Z" stroke="#985BEF" stroke-width="2"/>
<path d="M30.6751 46.0341C21.2807 46.0341 13.6758 38.4291 13.6758 29.1093C13.6758 19.7895 21.2807 12.1846 30.6005 12.1846C39.9203 12.1846 47.5253 19.7895 47.5253 29.1093C47.5253 38.4291 39.9949 46.0341 30.6751 46.0341ZM30.6751 13.6012C22.1009 13.6012 15.1669 20.5351 15.1669 29.1093C15.1669 37.6835 22.1009 44.5429 30.6005 44.5429C39.1002 44.5429 46.0341 37.609 46.0341 29.1093C46.0341 20.6097 39.1747 13.6012 30.6751 13.6012Z" fill="white" stroke="#985BEF" stroke-width="2"/>
<path d="M20.5354 42.5292C20.3862 42.5292 20.2371 42.4463 20.088 42.3633C19.7152 42.0315 19.6407 41.9486 19.7898 24.1972C19.7898 23.7824 20.1626 23.3677 20.5354 23.3677H41.9336C42.381 23.3677 42.6792 23.6995 42.6792 24.1972V39.7919C42.6792 40.2896 42.381 40.6214 41.9336 40.6214C41.4863 40.6214 41.188 40.2896 41.188 39.7919V25.0267H21.2809C21.2064 31.4968 21.2064 40.5384 21.2809 41.4509C21.3555 41.6997 21.2809 41.9486 21.1318 42.1974C20.9827 42.4463 20.759 42.5292 20.5354 42.5292Z" fill="white" stroke="#985BEF" stroke-width="2"/>
<path d="M36.9376 30.8984H25.0083C24.5609 30.8984 24.2627 30.6002 24.2627 30.1528C24.2627 29.7055 24.5609 29.4072 25.0083 29.4072H36.9376C37.385 29.4072 37.6832 29.7055 37.6832 30.1528C37.6832 30.6002 37.385 30.8984 36.9376 30.8984Z" fill="white" stroke="#985BEF" stroke-width="2"/>
<path d="M36.9376 35.6699H25.0083C24.5609 35.6699 24.2627 35.3716 24.2627 34.9243C24.2627 34.4769 24.5609 34.1787 25.0083 34.1787H36.9376C37.385 34.1787 37.6832 34.4769 37.6832 34.9243C37.6832 35.3716 37.385 35.6699 36.9376 35.6699Z" fill="white" stroke="#985BEF" stroke-width="2"/>
<path d="M36.9376 40.4414H25.0083C24.5609 40.4414 24.2627 40.1431 24.2627 39.6958C24.2627 39.2484 24.5609 38.9502 25.0083 38.9502H36.9376C37.385 38.9502 37.6832 39.2484 37.6832 39.6958C37.6832 40.1431 37.385 40.4414 36.9376 40.4414Z" fill="white" stroke="#985BEF" stroke-width="2"/>
</svg>
