<svg width="104" height="104" viewBox="0 0 104 104" fill="none" xmlns="http://www.w3.org/2000/svg">
<path d="M51.8 102.6C23.8 102.6 1 79.8 1 51.8C1 23.8 23.8 1 51.8 1C79.8 1 102.6 23.8 102.6 51.8C102.6 79.8 79.8 102.6 51.8 102.6ZM51.8 2.7C24.7 2.7 2.7 24.7 2.7 51.8C2.7 78.9 24.7 100.9 51.8 100.9C78.9 100.9 100.9 78.9 100.9 51.8C100.9 24.7 78.9 2.7 51.8 2.7Z" fill="#985BEF" stroke="#985BEF" stroke-width="2"/>
<path d="M55.8992 90.5001H47.6992C44.0992 90.5001 41.1992 87.6001 41.1992 84.0001V19.6001C41.1992 16.0001 44.0992 13.1001 47.6992 13.1001H55.8992C59.4992 13.1001 62.3992 16.0001 62.3992 19.6001V58.4001C62.3992 58.9001 61.9992 59.2001 61.5992 59.2001C61.1992 59.2001 60.7992 58.8001 60.7992 58.4001V19.6001C60.7992 16.9001 58.5992 14.7001 55.8992 14.7001H47.6992C44.9992 14.7001 42.7992 16.9001 42.7992 19.6001V84.0001C42.7992 86.7001 44.9992 88.9001 47.6992 88.9001H55.8992C58.5992 88.9001 60.7992 86.7001 60.7992 84.0001V63.8001C60.7992 63.3001 61.1992 63.0001 61.5992 63.0001C61.9992 63.0001 62.3992 63.4001 62.3992 63.8001V84.0001C62.3992 87.6001 59.4992 90.5001 55.8992 90.5001Z" fill="#985BEF" stroke="#985BEF" stroke-width="2"/>
<path d="M83.9996 62.4002H19.5996C15.9996 62.4002 13.0996 59.5002 13.0996 55.9002V47.7002C13.0996 44.1002 15.9996 41.2002 19.5996 41.2002H35.3996C35.8996 41.2002 36.1996 41.6002 36.1996 42.0002C36.1996 42.4002 35.7996 42.8002 35.3996 42.8002H19.5996C16.8996 42.8002 14.6996 45.0002 14.6996 47.7002V55.9002C14.6996 58.6002 16.8996 60.8002 19.5996 60.8002H83.9996C86.6996 60.8002 88.8996 58.6002 88.8996 55.9002V47.7002C88.8996 45.0002 86.6996 42.8002 83.9996 42.8002H63.6996C63.1996 42.8002 62.8996 42.4002 62.8996 42.0002C62.8996 41.6002 63.2996 41.2002 63.6996 41.2002H83.9996C87.5996 41.2002 90.4996 44.1002 90.4996 47.7002V55.9002C90.4996 59.5002 87.5996 62.4002 83.9996 62.4002Z" fill="#985BEF" stroke="#985BEF" stroke-width="2"/>
</svg>
