<svg width="50" height="115" viewBox="0 0 50 115" fill="none" xmlns="http://www.w3.org/2000/svg">
<path d="M47.803 114H2.19701C1.4788 114 1 113.514 1 112.786C1 112.058 1.4788 111.572 2.19701 111.572H47.803C48.5212 111.572 49 112.058 49 112.786C49 113.514 48.5212 114 47.803 114Z" fill="#985BEF" stroke="#985BEF" stroke-width="2"/>
<path d="M25.0603 114C24.3421 114 23.8633 113.515 23.8633 112.786V87.2977C23.8633 86.5695 24.3421 86.084 25.0603 86.084C25.7785 86.084 26.2573 86.5695 26.2573 87.2977V112.786C26.2573 113.393 25.6588 114 25.0603 114Z" fill="#985BEF" stroke="#985BEF" stroke-width="2"/>
<path d="M39.4233 88.5113H10.5754C8.1814 88.5113 6.14648 86.4479 6.14648 84.0204V5.49087C6.14648 3.06337 8.1814 1 10.5754 1H39.3036C41.6976 1 43.7325 3.06337 43.7325 5.49087V83.899C43.8522 86.4479 41.8173 88.5113 39.4233 88.5113ZM10.5754 3.4275C9.49811 3.4275 8.5405 4.3985 8.5405 5.49087V83.899C8.5405 84.9914 9.49811 85.9624 10.5754 85.9624H39.3036C40.3809 85.9624 41.3385 84.9914 41.3385 83.899V5.49087C41.4582 4.3985 40.5006 3.4275 39.4233 3.4275H10.5754Z" fill="#985BEF" stroke="#985BEF" stroke-width="2"/>
<path d="M28.7705 73.0964H20.1521C19.4339 73.0964 18.9551 72.6109 18.9551 71.8827C18.9551 71.1544 19.4339 70.6689 20.1521 70.6689H28.7705C29.4887 70.6689 29.9675 71.1544 29.9675 71.8827C29.9675 72.6109 29.4887 73.0964 28.7705 73.0964Z" fill="#985BEF" stroke="#985BEF" stroke-width="2"/>
<path d="M28.7705 63.6296H20.1521C19.4339 63.6296 18.9551 63.1441 18.9551 62.4159C18.9551 61.6876 19.4339 61.2021 20.1521 61.2021H28.7705C29.4887 61.2021 29.9675 61.6876 29.9675 62.4159C29.9675 63.1441 29.4887 63.6296 28.7705 63.6296Z" fill="#985BEF" stroke="#985BEF" stroke-width="2"/>
<path d="M28.7705 54.1624H20.1521C19.4339 54.1624 18.9551 53.6769 18.9551 52.9486C18.9551 52.2204 19.4339 51.7349 20.1521 51.7349H28.7705C29.4887 51.7349 29.9675 52.2204 29.9675 52.9486C29.9675 53.6769 29.4887 54.1624 28.7705 54.1624Z" fill="#985BEF" stroke="#985BEF" stroke-width="2"/>
<path d="M28.7705 44.6951H20.1521C19.4339 44.6951 18.9551 44.2096 18.9551 43.4813C18.9551 42.7531 19.4339 42.2676 20.1521 42.2676H28.7705C29.4887 42.2676 29.9675 42.7531 29.9675 43.4813C29.9675 44.2096 29.4887 44.6951 28.7705 44.6951Z" fill="#985BEF" stroke="#985BEF" stroke-width="2"/>
<path d="M28.7705 35.2278H20.1521C19.4339 35.2278 18.9551 34.7423 18.9551 34.014C18.9551 33.2858 19.4339 32.8003 20.1521 32.8003H28.7705C29.4887 32.8003 29.9675 33.2858 29.9675 34.014C29.9675 34.7423 29.4887 35.2278 28.7705 35.2278Z" fill="#985BEF" stroke="#985BEF" stroke-width="2"/>
<path d="M28.7705 25.7605H20.1521C19.4339 25.7605 18.9551 25.275 18.9551 24.5468C18.9551 23.8185 19.4339 23.333 20.1521 23.333H28.7705C29.4887 23.333 29.9675 23.8185 29.9675 24.5468C29.9675 25.275 29.4887 25.7605 28.7705 25.7605Z" fill="#985BEF" stroke="#985BEF" stroke-width="2"/>
<path d="M28.7705 16.2932H20.1521C19.4339 16.2932 18.9551 15.8077 18.9551 15.0795C18.9551 14.3512 19.4339 13.8657 20.1521 13.8657H28.7705C29.4887 13.8657 29.9675 14.3512 29.9675 15.0795C29.9675 15.8077 29.4887 16.2932 28.7705 16.2932Z" fill="#985BEF" stroke="#985BEF" stroke-width="2"/>
</svg>
