<svg width="58" height="78" viewBox="0 0 58 78" fill="none" xmlns="http://www.w3.org/2000/svg">
<path d="M34.4568 71.2854H24.378C21.2768 71.2854 18.7124 68.8012 18.7124 65.6663V50.7018C18.7124 50.3469 18.951 50.1104 19.3088 50.1104C19.6666 50.1104 19.9052 50.3469 19.9052 50.7018V65.6663C19.9052 68.0914 21.8732 70.1025 24.378 70.1025H34.4568C36.902 70.1025 38.9297 68.1506 38.9297 65.6663V50.7018C38.9297 50.3469 39.1682 50.1104 39.526 50.1104C39.8839 50.1104 40.1224 50.3469 40.1224 50.7018V65.6663C40.1224 68.8012 37.558 71.2854 34.4568 71.2854Z" fill="#985BEF" stroke="#985BEF" stroke-width="2"/>
<path d="M29.4472 51.8255C23.543 51.8255 18.772 47.0936 18.772 41.2379C18.772 35.3823 23.543 30.6504 29.4472 30.6504C35.3513 30.6504 40.1223 35.3823 40.1223 41.2379C40.1223 47.0345 35.2917 51.8255 29.4472 51.8255ZM29.4472 31.8334C24.199 31.8334 19.9647 36.0329 19.9647 41.2379C19.9647 46.443 24.199 50.6425 29.4472 50.6425C34.6953 50.6425 38.9296 46.3838 38.9296 41.2379C38.9296 36.092 34.6357 31.8334 29.4472 31.8334Z" fill="#985BEF" stroke="#985BEF" stroke-width="2"/>
<path d="M52.4081 24.0852C52.1099 24.0852 51.8117 23.8486 51.8117 23.4937C51.5732 17.5789 49.0088 12.1372 44.5956 8.11514C40.1823 4.09306 34.4571 2.02287 28.4933 2.25947C16.9236 2.73265 7.67969 11.7232 7.02367 23.1388C7.02367 23.4937 6.72548 23.7303 6.36765 23.6711C6.00982 23.6711 5.77127 23.3754 5.83091 23.0205C6.54657 10.9543 16.2675 1.54969 28.4337 1.01735C34.6957 0.78076 40.7787 2.96925 45.4305 7.22792C50.0822 11.4866 52.7659 17.224 53.0045 23.4937C53.0641 23.8486 52.7659 24.0852 52.4081 24.0852Z" fill="#985BEF" stroke="#985BEF" stroke-width="2"/>
<path d="M40.9574 76.0175H17.0426C8.21619 76.0175 1 68.9197 1 60.1066V26.5104C1 26.1555 1.23855 25.9189 1.59638 25.9189H56.4036C56.7614 25.9189 57 26.1555 57 26.5104V60.1658C57 68.9197 49.8434 76.0175 40.9574 76.0175ZM2.19276 27.1019V60.1658C2.19276 68.2691 8.8722 74.8937 17.0426 74.8937H40.9574C49.1278 74.8937 55.8072 68.2691 55.8072 60.1658V27.1019H2.19276Z" fill="#985BEF" stroke="#985BEF" stroke-width="2"/>
</svg>
