<svg width="63" height="50" viewBox="0 0 63 50" fill="none" xmlns="http://www.w3.org/2000/svg">
<path d="M1.6553 48.0809C1.48398 48.0809 1.36977 48.0238 1.25557 47.9096C1.14136 47.8525 1.08427 47.6811 1.08428 47.5098L1.08583 27.5798C1.08585 27.4085 1.14296 27.2942 1.25718 27.18L25.4722 1.25573C25.5864 1.14153 25.7578 1.08444 25.872 1.08444L60.5925 1.08714C61.1636 1.08719 61.6204 1.54407 61.6203 2.11513L61.6168 47.0577C61.6168 47.3432 61.3884 47.6287 61.0457 47.6287L1.6553 48.0809ZM2.22794 27.8083L2.22645 46.9389L60.4748 46.4294L60.4782 2.22926L26.1574 2.22659L2.22794 27.8083Z" fill="black" fill-opacity="0.5" stroke="#985BEF" stroke-width="2.16873"/>
<path d="M52.3092 37.9765L16.7321 37.9737C16.3895 37.9737 16.1611 37.7452 16.1611 37.4026C16.1611 37.06 16.3896 36.8316 16.7322 36.8316L52.3093 36.8344C52.652 36.8344 52.8804 37.0628 52.8803 37.4055C52.8803 37.7481 52.6519 37.9765 52.3092 37.9765Z" fill="black" fill-opacity="0.5" stroke="#985BEF" stroke-width="2.16873"/>
<path d="M52.309 28.155L32.0934 28.1534C31.7508 28.1534 31.5224 27.9249 31.5224 27.5823C31.5224 27.2397 31.7509 27.0112 32.0935 27.0113L52.3091 27.0128C52.6517 27.0129 52.8801 27.2413 52.8801 27.584C52.8801 27.9266 52.6516 28.155 52.309 28.155Z" fill="black" fill-opacity="0.5" stroke="#985BEF" stroke-width="2.16873"/>
<path d="M52.3099 17.8189L34.2643 17.8175C33.9217 17.8174 33.6933 17.589 33.6933 17.2464C33.6933 16.9037 33.9218 16.6753 34.2644 16.6753L52.31 16.6767C52.6526 16.6768 52.881 16.9052 52.881 17.2478C52.881 17.5905 52.6525 17.8189 52.3099 17.8189Z" fill="black" fill-opacity="0.5" stroke="#985BEF" stroke-width="2.16873"/>
<path d="M52.3109 7.48244L34.2653 7.48103C33.9227 7.48101 33.6943 7.25257 33.6943 6.90993C33.6943 6.56729 33.9228 6.33888 34.2654 6.33891L52.3109 6.34031C52.6536 6.34034 52.882 6.56878 52.882 6.91142C52.8819 7.25406 52.6535 7.48246 52.3109 7.48244Z" fill="black" fill-opacity="0.5" stroke="#985BEF" stroke-width="2.16873"/>
<path d="M19.2455 28.1522L1.65685 28.1509C1.31421 28.1509 1.08581 27.9224 1.08583 27.5798C1.08586 27.2371 1.3143 27.0087 1.65694 27.0088L19.2456 27.0101C22.6149 27.0104 25.3562 24.2695 25.3565 20.9002L25.358 1.65547C25.358 1.31283 25.5864 1.08442 25.9291 1.08445C26.2717 1.08448 26.5001 1.31292 26.5001 1.65556L26.4986 20.9574C26.4412 24.9549 23.243 28.1526 19.2455 28.1522Z" fill="black" fill-opacity="0.5" stroke="#985BEF" stroke-width="2.16873"/>
</svg>
