<?xml version="1.0" encoding="utf-8"?>
<!-- Generator: Adobe Illustrator 24.2.1, SVG Export Plug-In . SVG Version: 6.00 Build 0)  -->
<svg version="1.1" id="Layer_1" xmlns="http://www.w3.org/2000/svg" xmlns:xlink="http://www.w3.org/1999/xlink" x="0px" y="0px"
	 viewBox="0 0 24 24" style="enable-background:new 0 0 24 24;" xml:space="preserve">
<style type="text/css">
	.st0{fill:#985BEF;}
	.st1{fill:none;stroke:#985BEF;stroke-width:0.5768;}
	.st2{fill:#985BEF;stroke:#985BEF;stroke-width:0.5768;}
</style>
<g>
	<path class="st0" d="M18.8,7.1c-0.1,0-0.2-0.1-0.2-0.2c-0.1-1.7-0.8-3.3-2.1-4.5c-1.3-1.2-2.9-1.8-4.6-1.7c-3.3,0.1-6,2.8-6.2,6.1
		C5.7,6.9,5.6,7,5.5,7C5.3,7,5.3,6.9,5.3,6.8c0.2-3.5,3-6.3,6.6-6.4c1.8-0.1,3.6,0.6,4.9,1.8c1.3,1.2,2.1,2.9,2.2,4.8
		C19,7,18.9,7.1,18.8,7.1C18.8,7.1,18.8,7.1,18.8,7.1z"/>
	<path class="st1" d="M18.8,7.1c-0.1,0-0.2-0.1-0.2-0.2c-0.1-1.7-0.8-3.3-2.1-4.5c-1.3-1.2-2.9-1.8-4.6-1.7c-3.3,0.1-6,2.8-6.2,6.1
		C5.7,6.9,5.6,7,5.5,7C5.3,7,5.3,6.9,5.3,6.8c0.2-3.5,3-6.3,6.6-6.4c1.8-0.1,3.6,0.6,4.9,1.8c1.3,1.2,2.1,2.9,2.2,4.8
		C19,7,18.9,7.1,18.8,7.1z M18.8,7.1C18.8,7.1,18.8,7.1,18.8,7.1z"/>
	<path class="st2" d="M7.4,17.9c-0.1,0-0.2-0.1-0.2-0.2v-3.3c0-0.1,0.1-0.2,0.2-0.2s0.2,0.1,0.2,0.2v3.3C7.6,17.8,7.5,17.9,7.4,17.9
		z"/>
	<path class="st2" d="M9.1,16.3H5.8c-0.1,0-0.2-0.1-0.2-0.2c0-0.1,0.1-0.2,0.2-0.2h3.3c0.1,0,0.2,0.1,0.2,0.2
		C9.3,16.2,9.2,16.3,9.1,16.3z"/>
	<path class="st2" d="M8.6,17.4c-0.1,0-0.1,0-0.1-0.1L6.2,15c-0.1-0.1-0.1-0.2,0-0.3c0.1-0.1,0.2-0.1,0.3,0l2.3,2.3
		c0.1,0.1,0.1,0.2,0,0.3C8.7,17.4,8.6,17.4,8.6,17.4z"/>
	<path class="st2" d="M6.3,17.4c-0.1,0-0.1,0-0.1-0.1c-0.1-0.1-0.1-0.2,0-0.3l2.3-2.3c0.1-0.1,0.2-0.1,0.3,0c0.1,0.1,0.1,0.2,0,0.3
		l-2.3,2.3C6.4,17.4,6.3,17.4,6.3,17.4z"/>
	<path class="st2" d="M11.9,17.9c-0.1,0-0.2-0.1-0.2-0.2v-3.3c0-0.1,0.1-0.2,0.2-0.2c0.1,0,0.2,0.1,0.2,0.2v3.3
		C12.1,17.8,12,17.9,11.9,17.9z"/>
	<path class="st2" d="M13.5,16.3h-3.3c-0.1,0-0.2-0.1-0.2-0.2c0-0.1,0.1-0.2,0.2-0.2h3.3c0.1,0,0.2,0.1,0.2,0.2
		C13.7,16.2,13.6,16.3,13.5,16.3z"/>
	<path class="st2" d="M13,17.4c-0.1,0-0.1,0-0.1-0.1L10.6,15c-0.1-0.1-0.1-0.2,0-0.3c0.1-0.1,0.2-0.1,0.3,0l2.3,2.3
		c0.1,0.1,0.1,0.2,0,0.3C13.2,17.4,13.1,17.4,13,17.4z"/>
	<path class="st2" d="M10.8,17.4c-0.1,0-0.1,0-0.1-0.1c-0.1-0.1-0.1-0.2,0-0.3l2.3-2.3c0.1-0.1,0.2-0.1,0.3,0c0.1,0.1,0.1,0.2,0,0.3
		l-2.3,2.3C10.9,17.4,10.8,17.4,10.8,17.4z"/>
	<path class="st2" d="M16.6,17.9c-0.1,0-0.2-0.1-0.2-0.2v-3.3c0-0.1,0.1-0.2,0.2-0.2c0.1,0,0.2,0.1,0.2,0.2v3.3
		C16.8,17.8,16.7,17.9,16.6,17.9z"/>
	<path class="st2" d="M18.2,16.3h-3.2c-0.1,0-0.2-0.1-0.2-0.2c0-0.1,0.1-0.2,0.2-0.2h3.3c0.1,0,0.2,0.1,0.2,0.2
		C18.4,16.2,18.3,16.3,18.2,16.3z"/>
	<path class="st2" d="M17.7,17.4c-0.1,0-0.1,0-0.1-0.1L15.3,15c-0.1-0.1-0.1-0.2,0-0.3c0.1-0.1,0.2-0.1,0.3,0l2.3,2.3
		c0.1,0.1,0.1,0.2,0,0.3C17.8,17.4,17.8,17.4,17.7,17.4z"/>
	<path class="st2" d="M15.4,17.4c-0.1,0-0.1,0-0.1-0.1c-0.1-0.1-0.1-0.2,0-0.3l2.3-2.3c0.1-0.1,0.2-0.1,0.3,0c0.1,0.1,0.1,0.2,0,0.3
		l-2.3,2.3C15.5,17.4,15.4,17.4,15.4,17.4z"/>
	<path class="st2" d="M15.4,23.7H8.5c-2.6,0-4.6-2.1-4.6-4.7V9.2C3.9,9.1,4,9,4.1,9h15.9c0.1,0,0.2,0.1,0.2,0.2V19
		C20.1,21.6,18,23.7,15.4,23.7z M4.3,9.4V19c0,2.4,1.9,4.3,4.3,4.3h6.9c2.4,0,4.3-1.9,4.3-4.3V9.4H4.3z"/>
</g>
</svg>
