<svg width="59" height="83" viewBox="0 0 59 83" fill="none" xmlns="http://www.w3.org/2000/svg">
<path d="M52.5727 24.5595C52.2451 24.5595 51.9174 24.2973 51.9174 23.9039C51.6553 17.9372 49.0996 12.364 44.709 8.29877C40.3184 4.29914 34.6173 2.20098 28.654 2.39768C17.055 2.85666 7.81513 11.9706 7.15983 23.4449C7.15983 23.8383 6.83217 24.1006 6.43899 24.035C6.0458 24.035 5.78368 23.7072 5.84921 23.3138C6.57005 11.1182 16.3341 1.5453 28.5884 1.02076C34.9449 0.758493 40.9738 2.98779 45.6264 7.31526C50.2791 11.6427 52.9659 17.4782 53.228 23.8383C53.2936 24.2317 52.9659 24.5595 52.5727 24.5595C52.6383 24.5595 52.6383 24.5595 52.5727 24.5595Z" fill="#985BEF"/>
<path d="M52.5727 24.5595C52.2451 24.5595 51.9174 24.2973 51.9174 23.9039C51.6553 17.9372 49.0996 12.364 44.709 8.29877C40.3184 4.29914 34.6173 2.20098 28.654 2.39768C17.055 2.85666 7.81513 11.9706 7.15983 23.4449C7.15983 23.8383 6.83217 24.1006 6.43899 24.035C6.0458 24.035 5.78368 23.7072 5.84921 23.3138C6.57005 11.1182 16.3341 1.5453 28.5884 1.02076C34.9449 0.758493 40.9738 2.98779 45.6265 7.31526C50.2791 11.6427 52.9659 17.4782 53.228 23.8383C53.2936 24.2317 52.9659 24.5595 52.5727 24.5595ZM52.5727 24.5595C52.6383 24.5595 52.6383 24.5595 52.5727 24.5595Z" stroke="#985BEF" stroke-width="2"/>
<path d="M13.3194 61.8707C12.9262 61.8707 12.6641 61.6085 12.6641 61.215V49.9374C12.6641 49.544 12.9262 49.2817 13.3194 49.2817C13.7126 49.2817 13.9747 49.544 13.9747 49.9374V61.215C13.9747 61.5429 13.7126 61.8707 13.3194 61.8707Z" fill="#985BEF" stroke="#985BEF" stroke-width="2"/>
<path d="M18.9552 56.2318H7.68387C7.29069 56.2318 7.02856 55.9695 7.02856 55.5761C7.02856 55.1827 7.29069 54.9204 7.68387 54.9204H18.9552C19.3484 54.9204 19.6105 55.1827 19.6105 55.5761C19.6105 55.9695 19.3484 56.2318 18.9552 56.2318Z" fill="#985BEF" stroke="#985BEF" stroke-width="2"/>
<path d="M17.3169 60.2315C17.1203 60.2315 16.9892 60.1659 16.8582 60.0348L8.8634 52.0355C8.60128 51.7733 8.60128 51.3799 8.8634 51.1176C9.12553 50.8553 9.51871 50.8553 9.78083 51.1176L17.7756 59.1169C18.0377 59.3791 18.0377 59.7725 17.7756 60.0348C17.6445 60.1659 17.4479 60.2315 17.3169 60.2315Z" fill="#985BEF" stroke="#985BEF" stroke-width="2"/>
<path d="M9.32212 60.2309C9.12553 60.2309 8.99446 60.1653 8.8634 60.0342C8.60128 59.7719 8.60128 59.3785 8.8634 59.1162L16.8582 51.1825C17.1203 50.9203 17.5135 50.9203 17.7756 51.1825C18.0377 51.4448 18.0377 51.8382 17.7756 52.1005L9.78083 60.0342C9.64977 60.1653 9.51871 60.2309 9.32212 60.2309Z" fill="#985BEF" stroke="#985BEF" stroke-width="2"/>
<path d="M28.8498 61.8707C28.4566 61.8707 28.1945 61.6085 28.1945 61.215V49.9374C28.1945 49.544 28.4566 49.2817 28.8498 49.2817C29.243 49.2817 29.5051 49.544 29.5051 49.9374V61.215C29.5051 61.5429 29.1775 61.8707 28.8498 61.8707Z" fill="#985BEF" stroke="#985BEF" stroke-width="2"/>
<path d="M34.4857 56.2318H23.2144C22.8212 56.2318 22.5591 55.9695 22.5591 55.5761C22.5591 55.1827 22.8212 54.9204 23.2144 54.9204H34.4857C34.8789 54.9204 35.141 55.1827 35.141 55.5761C35.141 55.9695 34.8134 56.2318 34.4857 56.2318Z" fill="#985BEF" stroke="#985BEF" stroke-width="2"/>
<path d="M32.7818 60.2315C32.5852 60.2315 32.4542 60.1659 32.3231 60.0348L24.3939 52.0355C24.1317 51.7733 24.1317 51.3799 24.3939 51.1176C24.656 50.8553 25.0492 50.8553 25.3113 51.1176L33.3061 59.1169C33.5682 59.3791 33.5682 59.7725 33.3061 60.0348C33.175 60.1659 32.9784 60.2315 32.7818 60.2315Z" fill="#985BEF" stroke="#985BEF" stroke-width="2"/>
<path d="M24.8526 60.2309C24.656 60.2309 24.5249 60.1653 24.3939 60.0342C24.1317 59.7719 24.1317 59.3785 24.3939 59.1162L32.3886 51.1825C32.6507 50.9203 33.0439 50.9203 33.3061 51.1825C33.5682 51.4448 33.5682 51.8382 33.3061 52.1005L25.3113 60.0342C25.1802 60.1653 25.0492 60.2309 24.8526 60.2309Z" fill="#985BEF" stroke="#985BEF" stroke-width="2"/>
<path d="M44.9711 61.8707C44.5779 61.8707 44.3158 61.6085 44.3158 61.215V49.9374C44.3158 49.544 44.5779 49.2817 44.9711 49.2817C45.3643 49.2817 45.6264 49.544 45.6264 49.9374V61.215C45.6264 61.5429 45.2988 61.8707 44.9711 61.8707Z" fill="#985BEF" stroke="#985BEF" stroke-width="2"/>
<path d="M50.541 56.2318H39.3352C38.9421 56.2318 38.6799 55.9695 38.6799 55.5761C38.6799 55.1827 38.9421 54.9204 39.3352 54.9204H50.6065C50.9997 54.9204 51.2619 55.1827 51.2619 55.5761C51.2619 55.9695 50.9342 56.2318 50.541 56.2318Z" fill="#985BEF" stroke="#985BEF" stroke-width="2"/>
<path d="M48.9027 60.2315C48.7061 60.2315 48.575 60.1659 48.4439 60.0348L40.5147 52.0355C40.2526 51.7733 40.2526 51.3799 40.5147 51.1176C40.7768 50.8553 41.17 50.8553 41.4321 51.1176L49.3614 59.1169C49.6235 59.3791 49.6235 59.7725 49.3614 60.0348C49.2303 60.1659 49.0993 60.2315 48.9027 60.2315Z" fill="#985BEF" stroke="#985BEF" stroke-width="2"/>
<path d="M40.9734 60.2309C40.7768 60.2309 40.6458 60.1653 40.5147 60.0342C40.2526 59.7719 40.2526 59.3785 40.5147 59.1162L48.5095 51.1825C48.7716 50.9203 49.1648 50.9203 49.4269 51.1825C49.689 51.4448 49.689 51.8382 49.4269 52.1005L41.4321 60.0342C41.3011 60.1653 41.1045 60.2309 40.9734 60.2309Z" fill="#985BEF" stroke="#985BEF" stroke-width="2"/>
<path d="M41.1049 82H17.1206C8.2084 82 1 74.722 1 65.8048V31.8407C1 31.4473 1.26212 31.1851 1.65531 31.1851H56.6357C57.0289 31.1851 57.291 31.4473 57.291 31.8407V65.8703C57.291 74.722 50.0171 82 41.1049 82ZM2.31062 32.4964V65.8703C2.31062 74.0663 8.92924 80.6886 17.1206 80.6886H41.1049C49.2963 80.6886 55.9149 74.0663 55.9149 65.8703V32.4964H2.31062Z" fill="#985BEF" stroke="#985BEF" stroke-width="2"/>
</svg>
