<?xml version="1.0" encoding="utf-8"?>
<!-- Generator: Adobe Illustrator 24.2.1, SVG Export Plug-In . SVG Version: 6.00 Build 0)  -->
<svg version="1.1" id="Layer_1" xmlns="http://www.w3.org/2000/svg" xmlns:xlink="http://www.w3.org/1999/xlink" x="0px" y="0px"
	 viewBox="0 0 24 24" style="enable-background:new 0 0 24 24;" xml:space="preserve">
<style type="text/css">
	.st0{fill:#985BEF;}
	.st1{fill:none;stroke:#985BEF;stroke-width:0.5768;}
	.st2{fill:#985BEF;stroke:#985BEF;stroke-width:0.5768;}
	.st3{fill:#985BEF;stroke:#985BEF;stroke-width:0.6052;}
</style>
<g>
	<path class="st0" d="M18.8,7.1c-0.1,0-0.2-0.1-0.2-0.2c-0.1-1.7-0.8-3.3-2.1-4.5s-2.9-1.8-4.6-1.7c-3.3,0.1-6,2.8-6.2,6.1
		C5.7,6.9,5.6,7,5.5,7C5.3,7,5.3,6.9,5.3,6.8c0.2-3.5,3-6.3,6.6-6.4c1.8-0.1,3.6,0.6,4.9,1.8S18.9,5.1,19,7C19,7,18.9,7.1,18.8,7.1
		L18.8,7.1z"/>
	<path class="st1" d="M18.8,7.1c-0.1,0-0.2-0.1-0.2-0.2c-0.1-1.7-0.8-3.3-2.1-4.5s-2.9-1.8-4.6-1.7c-3.3,0.1-6,2.8-6.2,6.1
		C5.7,6.9,5.6,7,5.5,7C5.3,7,5.3,6.9,5.3,6.8c0.2-3.5,3-6.3,6.6-6.4c1.8-0.1,3.6,0.6,4.9,1.8S18.9,5.1,19,7C19,7,18.9,7.1,18.8,7.1z
		 M18.8,7.1L18.8,7.1z"/>
	<path class="st2" d="M7.4,17.9c-0.1,0-0.2-0.1-0.2-0.2v-3.3c0-0.1,0.1-0.2,0.2-0.2s0.2,0.1,0.2,0.2v3.3C7.6,17.8,7.5,17.9,7.4,17.9
		z"/>
	<path class="st2" d="M9.1,16.3H5.8c-0.1,0-0.2-0.1-0.2-0.2s0.1-0.2,0.2-0.2h3.3c0.1,0,0.2,0.1,0.2,0.2C9.3,16.2,9.2,16.3,9.1,16.3z
		"/>
	<path class="st2" d="M8.6,17.4c-0.1,0-0.1,0-0.1-0.1L6.2,15c-0.1-0.1-0.1-0.2,0-0.3s0.2-0.1,0.3,0L8.8,17c0.1,0.1,0.1,0.2,0,0.3
		C8.7,17.4,8.6,17.4,8.6,17.4z"/>
	<path class="st2" d="M6.3,17.4c-0.1,0-0.1,0-0.1-0.1c-0.1-0.1-0.1-0.2,0-0.3l2.3-2.3c0.1-0.1,0.2-0.1,0.3,0s0.1,0.2,0,0.3l-2.3,2.3
		C6.4,17.4,6.3,17.4,6.3,17.4z"/>
	<path class="st2" d="M11.9,17.9c-0.1,0-0.2-0.1-0.2-0.2v-3.3c0-0.1,0.1-0.2,0.2-0.2c0.1,0,0.2,0.1,0.2,0.2v3.3
		C12.1,17.8,12,17.9,11.9,17.9z"/>
	<path class="st2" d="M13.5,16.3h-3.3c-0.1,0-0.2-0.1-0.2-0.2s0.1-0.2,0.2-0.2h3.3c0.1,0,0.2,0.1,0.2,0.2
		C13.7,16.2,13.6,16.3,13.5,16.3z"/>
	<path class="st2" d="M13,17.4c-0.1,0-0.1,0-0.1-0.1L10.6,15c-0.1-0.1-0.1-0.2,0-0.3s0.2-0.1,0.3,0l2.3,2.3c0.1,0.1,0.1,0.2,0,0.3
		C13.2,17.4,13.1,17.4,13,17.4z"/>
	<path class="st2" d="M10.8,17.4c-0.1,0-0.1,0-0.1-0.1c-0.1-0.1-0.1-0.2,0-0.3l2.3-2.3c0.1-0.1,0.2-0.1,0.3,0s0.1,0.2,0,0.3L11,17.3
		C10.9,17.4,10.8,17.4,10.8,17.4z"/>
	<path class="st2" d="M16.6,17.9c-0.1,0-0.2-0.1-0.2-0.2v-3.3c0-0.1,0.1-0.2,0.2-0.2s0.2,0.1,0.2,0.2v3.3
		C16.8,17.8,16.7,17.9,16.6,17.9z"/>
	<path class="st2" d="M18.2,16.3H15c-0.1,0-0.2-0.1-0.2-0.2s0.1-0.2,0.2-0.2h3.3c0.1,0,0.2,0.1,0.2,0.2
		C18.4,16.2,18.3,16.3,18.2,16.3z"/>
	<path class="st2" d="M17.7,17.4c-0.1,0-0.1,0-0.1-0.1L15.3,15c-0.1-0.1-0.1-0.2,0-0.3s0.2-0.1,0.3,0l2.3,2.3c0.1,0.1,0.1,0.2,0,0.3
		C17.8,17.4,17.8,17.4,17.7,17.4z"/>
	<path class="st2" d="M15.4,17.4c-0.1,0-0.1,0-0.1-0.1c-0.1-0.1-0.1-0.2,0-0.3l2.3-2.3c0.1-0.1,0.2-0.1,0.3,0c0.1,0.1,0.1,0.2,0,0.3
		l-2.3,2.3C15.5,17.4,15.4,17.4,15.4,17.4z"/>
	<path class="st3" d="M15.74,23.7h-7.6c-2.86,0-5.06-2.1-5.06-4.7V9.2C3.08,9.1,3.19,9,3.3,9h17.5c0.11,0,0.22,0.1,0.22,0.2V19
		C20.91,21.6,18.6,23.7,15.74,23.7z M3.52,9.4V19c0,2.4,2.09,4.3,4.73,4.3h7.6c2.64,0,4.73-1.9,4.73-4.3V9.4H3.52z"/>
</g>
</svg>
