<svg width="43" height="67" viewBox="0 0 43 67" fill="none" xmlns="http://www.w3.org/2000/svg">
<path d="M33.1586 65.0933H9.06564C4.66911 65.0933 1.09326 61.4515 1.09326 56.9739V9.21267C1.09326 4.73505 4.66911 1.09326 9.06564 1.09326H33.1586C37.5552 1.09326 41.131 4.73505 41.131 9.21267V56.9142C41.1896 61.4515 37.6138 65.0933 33.1586 65.0933ZM9.06564 2.28729C5.31393 2.28729 2.26567 5.39177 2.26567 9.21267V56.9142C2.26567 60.7351 5.31393 63.8395 9.06564 63.8395H33.1586C36.9104 63.8395 39.9586 60.7351 39.9586 56.9142V9.21267C40.0172 5.39177 36.969 2.28729 33.1586 2.28729H9.06564Z" fill="#985BEF" stroke="#985BEF" stroke-width="2.18654"/>
<path d="M40.6039 10.5261H1.67995C1.32823 10.5261 1.09375 10.2873 1.09375 9.92905C1.09375 9.57084 1.32823 9.33203 1.67995 9.33203H40.6039C40.9557 9.33203 41.1901 9.57084 41.1901 9.92905C41.1901 10.2873 40.897 10.5261 40.6039 10.5261Z" fill="#985BEF" stroke="#985BEF" stroke-width="2.18654"/>
<path d="M8.34171 52.0431C8.16585 52.0431 7.98999 51.9834 7.93137 51.864C7.7555 51.6849 7.7555 51.3864 7.87275 51.1476L11.7417 44.4013C8.98653 41.7148 7.4624 37.9536 7.4624 34.073C7.4624 26.1327 13.7934 19.7446 21.5313 19.7446C29.2692 19.7446 35.6002 26.1924 35.6002 34.073C35.6002 41.9536 29.2692 48.4013 21.5313 48.4013C20.3003 48.4013 19.0693 48.2222 17.8382 47.9237L8.57619 51.9834C8.51757 51.9834 8.45895 52.0431 8.34171 52.0431ZM12.9727 44.5805L9.80722 50.1327L17.6037 46.7297C17.721 46.67 17.8968 46.6103 18.0141 46.67C19.1865 47.0282 20.3589 47.2073 21.5899 47.2073C28.7416 47.2073 34.4864 41.2969 34.4864 34.073C34.4864 26.8491 28.683 20.9387 21.5899 20.9387C14.4969 20.9387 8.69343 26.8491 8.69343 34.073C8.69343 37.7745 10.2176 41.3566 12.9727 43.864C13.09 44.0431 13.09 44.3416 12.9727 44.5805Z" fill="#985BEF" stroke="#985BEF" stroke-width="2.18654"/>
<path d="M21.649 40.3681C18.1704 40.3681 15.313 37.458 15.313 33.9152C15.313 30.3725 18.1704 27.4624 21.649 27.4624C25.1276 27.4624 27.985 30.3725 27.985 33.9152C27.985 37.458 25.1276 40.3681 21.649 40.3681ZM21.649 29.8664C19.537 29.8664 17.7977 31.6378 17.7977 33.7887C17.7977 35.9397 19.537 37.711 21.649 37.711C23.761 37.711 25.5003 35.9397 25.5003 33.7887C25.5003 31.6378 23.761 29.8664 21.649 29.8664Z" fill="#985BEF" stroke="#985BEF" stroke-width="2"/>
</svg>
