<?xml version="1.0" encoding="utf-8"?>
<!-- Generator: Adobe Illustrator 24.2.1, SVG Export Plug-In . SVG Version: 6.00 Build 0)  -->
<svg version="1.1" id="Layer_1" xmlns="http://www.w3.org/2000/svg" xmlns:xlink="http://www.w3.org/1999/xlink" x="0px" y="0px"
	 viewBox="0 0 24 24" style="enable-background:new 0 0 24 24;" xml:space="preserve">
<style type="text/css">
	.st0{fill:#985BEF;stroke:#985BEF;stroke-width:0.7954;}
	.st1{fill:#985BEF;stroke:#985BEF;stroke-width:0.7276;}
</style>
<g>
	<path class="st0" d="M16.4,23.7H7.6c-1.6,0-2.9-1.3-2.9-3V3.3c0-1.6,1.3-3,2.9-3h8.8c1.6,0,2.9,1.3,2.9,3v17.4
		C19.3,22.3,18,23.7,16.4,23.7z M7.6,0.8C6.2,0.8,5.1,2,5.1,3.3v17.4c0,1.4,1.1,2.5,2.5,2.5h8.8c1.4,0,2.5-1.1,2.5-2.5V3.3
		c0-1.4-1.1-2.5-2.5-2.5C16.4,0.8,7.6,0.8,7.6,0.8z"/>
	<path class="st0" d="M19.1,3.8H4.9c-0.1,0-0.2-0.1-0.2-0.2c0-0.1,0.1-0.2,0.2-0.2h14.2c0.1,0,0.2,0.1,0.2,0.2
		C19.3,3.7,19.2,3.8,19.1,3.8z"/>
	<path class="st0" d="M7.3,18.9c-0.1,0-0.1,0-0.1-0.1c-0.1-0.1-0.1-0.2,0-0.3L8.6,16c-1-1-1.6-2.3-1.6-3.8C7,9.3,9.3,7,12.1,7
		s5.1,2.3,5.1,5.2s-2.3,5.2-5.1,5.2c-0.4,0-0.9-0.1-1.3-0.2L7.3,18.9C7.4,18.9,7.4,18.9,7.3,18.9z M9,16.2l-1.2,2l2.8-1.2h0.1
		c0.4,0.1,0.9,0.2,1.3,0.2c2.6,0,4.7-2.2,4.7-4.8S14.6,7.6,12,7.6s-4.7,2.2-4.7,4.8C7.5,13.7,8,15,9,15.9C9.1,16,9.1,16.1,9,16.2z"
		/>
	<path class="st1" d="M12.2,14.7c-1.3,0-2.3-1.1-2.3-2.3c0-1.3,1-2.3,2.3-2.3s2.3,1.1,2.3,2.3S13.5,14.7,12.2,14.7z M12.2,10.9
		c-0.8,0-1.4,0.6-1.4,1.4c0,0.8,0.6,1.4,1.4,1.4c0.8,0,1.4-0.6,1.4-1.4C13.6,11.5,13,10.9,12.2,10.9z"/>
</g>
</svg>
