<svg width="31" height="58" viewBox="0 0 31 58" fill="none" xmlns="http://www.w3.org/2000/svg">
<path d="M22.1643 57.1721H8.04819C3.88198 57.1721 0.5 53.7786 0.5 49.5983V28.3033C0.5 28.0082 0.696057 27.8115 0.990142 27.8115C1.28423 27.8115 1.48028 28.0082 1.48028 28.3033V49.5491C1.48028 53.1885 4.42114 56.1393 8.04819 56.1393H22.1643C25.7913 56.1393 28.7322 53.1885 28.7322 49.5491V28.3033C28.7322 28.0082 28.9282 27.8115 29.2223 27.8115C29.5164 27.8115 29.7125 28.0082 29.7125 28.3033V49.5491C29.7125 53.7295 26.3305 57.1721 22.1643 57.1721Z" fill="#A2A2A2" stroke="#A2A2A2"/>
<path d="M15.1062 29.8114C7.0679 29.8114 0.5 23.2213 0.5 15.1557C0.5 7.09016 7.0679 0.5 15.1062 0.5C23.1446 0.5 29.7125 7.09016 29.7125 15.1557C29.7125 23.2213 23.1446 29.8114 15.1062 29.8114ZM15.1062 1.48361C7.60706 1.48361 1.48028 7.63114 1.48028 15.1557C1.48028 22.6803 7.60706 28.8278 15.1062 28.8278C22.6054 28.8278 28.7322 22.6803 28.7322 15.1557C28.7322 7.63114 22.6054 1.48361 15.1062 1.48361Z" fill="#A2A2A2" stroke="#A2A2A2"/>
</svg>
