<svg width="75" height="77" viewBox="0 0 75 77" fill="none" xmlns="http://www.w3.org/2000/svg">
<path d="M59.016 62.7889H6.06268C5.81052 62.7889 5.55836 62.5987 5.49532 62.4086C5.43228 62.1551 5.49532 61.9016 5.68444 61.7115L13.3753 54.9306C13.6274 54.6771 14.0057 54.7405 14.2578 54.994C14.51 55.2475 14.447 55.6277 14.1948 55.8812L7.76475 61.5848H57.44L51.3252 56.1347C51.073 55.8812 51.01 55.501 51.2622 55.2475C51.5143 54.994 51.8926 54.9306 52.1447 55.1841L59.4573 61.6481C59.6464 61.8383 59.7095 62.0918 59.6464 62.3453C59.5204 62.6621 59.3312 62.7889 59.016 62.7889Z" fill="#985BEF" stroke="#985BEF" stroke-width="2"/>
<path d="M51.7664 56.1979C51.3882 56.1979 51.136 55.9444 51.136 55.5641V52.9658H14.3838V55.374C14.3838 55.7542 14.1317 56.0077 13.7534 56.0077C13.3752 56.0077 13.123 55.7542 13.123 55.374V52.3321C13.123 51.9519 13.3752 51.6984 13.7534 51.6984H51.7664C52.1446 51.6984 52.3968 51.9519 52.3968 52.3321V55.5641C52.3968 55.9444 52.0816 56.1979 51.7664 56.1979Z" fill="#985BEF" stroke="#985BEF" stroke-width="2"/>
<path d="M51.1987 46.692H14.8247C14.4465 46.692 14.1943 46.4385 14.1943 46.0583V27.8068C14.1943 17.4136 22.6417 8.92163 32.9802 8.92163C43.3187 8.92163 51.766 17.4136 51.766 27.8068V46.0583C51.8291 46.4385 51.5769 46.692 51.1987 46.692ZM15.4551 45.4245H50.5683V27.8068C50.5683 18.1107 42.6883 10.1891 33.0432 10.1891C23.3351 10.1891 15.4551 18.0474 15.4551 27.8068V45.4245Z" fill="#985BEF" stroke="#985BEF" stroke-width="2"/>
<path d="M7.95392 20.3921C7.70176 20.3921 7.4496 20.2654 7.38656 20.0119C7.26048 19.7584 5.05409 14.3717 8.52128 9.68209C11.232 5.94308 15.4556 5.49947 16.2752 5.4361C16.5904 5.4361 16.9056 5.68959 16.9686 6.00645C16.9686 6.38669 16.7164 6.64018 16.4012 6.70356C15.6448 6.76693 11.9254 7.14717 9.52991 10.3792C6.50401 14.4984 8.45824 19.2514 8.58432 19.5049C8.7104 19.8218 8.58432 20.202 8.26912 20.3288C8.08 20.3921 8.01696 20.3921 7.95392 20.3921Z" fill="#985BEF" stroke="#985BEF" stroke-width="2"/>
<path d="M2.2165 14.4984C1.96434 14.4984 1.71218 14.3717 1.64914 14.1182C1.5861 13.9281 -0.242047 9.49196 2.5317 5.62621C4.73809 2.52092 8.20528 2.20406 8.89871 2.14069C9.21391 2.14069 9.52911 2.39418 9.59215 2.71104C9.59215 3.09128 9.33999 3.34477 9.02479 3.40815C8.45744 3.47152 5.49457 3.78839 3.60338 6.38668C1.20787 9.68208 2.8469 13.6112 2.8469 13.6112C2.97298 13.9281 2.8469 14.3083 2.5317 14.4351C2.34258 14.4351 2.27954 14.4984 2.2165 14.4984Z" fill="#985BEF" stroke="#985BEF" stroke-width="2"/>
<path d="M59.3308 72.2948C59.0156 72.2948 58.7635 72.1047 58.7004 71.7878C58.6374 71.471 58.8265 71.0907 59.2047 71.0274C59.8982 70.9006 63.5545 69.95 65.4457 66.3378C67.8412 61.8383 65.1935 57.4022 65.0674 57.212C64.8783 56.8952 65.0044 56.5149 65.2566 56.3248C65.5718 56.1347 65.95 56.2614 66.1391 56.5149C66.2652 56.7051 69.2281 61.7749 66.5173 66.9081C64.374 70.964 60.2134 72.0413 59.4569 72.2315C59.3939 72.2948 59.3939 72.2948 59.3308 72.2948Z" fill="#985BEF" stroke="#985BEF" stroke-width="2"/>
<path d="M67.0847 75.0198C66.7695 75.0198 66.5174 74.8297 66.4543 74.5129C66.3913 74.196 66.5804 73.8158 66.9586 73.7524C67.526 73.6256 70.4258 72.8652 71.9388 70.0134C73.83 66.4011 71.7497 62.8522 71.6236 62.7255C71.4345 62.4086 71.5605 62.0284 71.8127 61.8382C72.1279 61.6481 72.5061 61.7749 72.6953 62.0284C72.8213 62.2185 75.2169 66.3377 73.0105 70.5837C71.2453 73.9425 67.8412 74.8297 67.2108 74.9565C67.1478 75.0198 67.0847 75.0198 67.0847 75.0198Z" fill="#985BEF" stroke="#985BEF" stroke-width="2"/>
<path d="M33.0433 70.0768C28.8827 70.0768 25.4785 66.6546 25.4785 62.472C25.4785 62.0917 25.7307 61.8383 26.1089 61.8383C26.4872 61.8383 26.7393 62.0917 26.7393 62.472C26.7393 65.9575 29.5761 68.8093 33.0433 68.8093C36.5105 68.8093 39.3473 65.9575 39.3473 62.472C39.3473 62.0917 39.5994 61.8383 39.9777 61.8383C40.3559 61.8383 40.608 62.0917 40.608 62.472C40.608 66.6546 37.2039 70.0768 33.0433 70.0768Z" fill="#985BEF" stroke="#985BEF" stroke-width="2"/>
<path d="M39.9777 9.2385C39.5994 9.2385 39.3473 8.98501 39.3473 8.60477C39.3473 5.11925 36.5105 2.26746 33.0433 2.26746C29.5761 2.26746 26.7393 5.11925 26.7393 8.60477C26.7393 8.98501 26.4872 9.2385 26.1089 9.2385C25.7307 9.2385 25.4785 8.98501 25.4785 8.60477C25.4785 4.42215 28.8827 1 33.0433 1C37.2039 1 40.608 4.42215 40.608 8.60477C40.608 8.98501 40.2928 9.2385 39.9777 9.2385Z" fill="#985BEF" stroke="#985BEF" stroke-width="2"/>
<path d="M44.2672 38.131C44.2041 38.131 44.1411 38.131 44.078 38.131C43.7628 38.0676 43.5107 37.6873 43.6368 37.3705C43.8889 36.4833 45.654 28.625 40.4848 22.5412C37.4589 18.9289 33.5504 17.7248 31.4701 17.2812C31.1549 17.2178 30.9027 16.901 30.9658 16.5207C31.0288 16.2039 31.344 15.9504 31.7223 16.0137C33.9286 16.4574 38.2153 17.7882 41.4934 21.6539C47.1039 28.2448 45.1497 36.7367 44.8976 37.624C44.8345 37.9408 44.5824 38.131 44.2672 38.131Z" fill="#985BEF" stroke="#985BEF" stroke-width="2"/>
</svg>
