<svg width="115" height="85" viewBox="0 0 115 85" fill="none" xmlns="http://www.w3.org/2000/svg">
<path d="M108.441 83.2759H6.1413C4.1413 83.2759 2.3413 82.0759 1.4413 80.2759C0.641295 78.3759 0.941295 76.2759 2.2413 74.7759L26.7413 47.0759C27.7413 45.9759 29.1413 45.3759 30.5413 45.3759H39.4413C40.0413 45.3759 40.4413 45.7759 40.4413 46.3759C40.4413 46.9759 40.0413 47.3759 39.4413 47.3759H30.5413C29.6413 47.3759 28.7413 47.7759 28.2413 48.4759L3.8413 76.0759C3.0413 76.9759 2.8413 78.2759 3.3413 79.4759C3.8413 80.6759 4.9413 81.2759 6.2413 81.2759H108.441C109.941 81.2759 110.941 80.2759 111.341 79.3759C111.741 78.4759 111.741 77.0759 110.641 75.9759L82.8413 48.1759C82.2413 47.5759 81.4413 47.2759 80.6413 47.2759H78.1413C77.5413 47.2759 77.1413 46.8759 77.1413 46.2759C77.1413 45.6759 77.5413 45.2759 78.1413 45.2759H80.6413C82.0413 45.2759 83.3413 45.7759 84.2413 46.7759L112.041 74.4759C113.541 75.9759 113.941 78.0759 113.141 80.0759C112.341 82.0759 110.541 83.2759 108.441 83.2759Z" fill="#985BEF" stroke="#985BEF" stroke-width="2"/>
<path d="M88.6413 76.276H25.9413C24.5413 76.276 23.3413 75.476 22.7413 74.176C22.1413 72.876 22.3413 71.476 23.3413 70.376L38.3413 53.376C39.0413 52.576 39.9413 52.176 41.0413 52.176H42.7413C43.3413 52.176 43.7413 52.576 43.7413 53.176C43.7413 53.776 43.3413 54.176 42.7413 54.176H41.0413C40.6413 54.176 40.1413 54.376 39.8413 54.676L24.8413 71.676C24.4413 72.176 24.3413 72.776 24.6413 73.276C24.9413 73.776 25.4413 74.176 26.0413 74.176H88.8413C89.4413 74.176 90.0413 73.776 90.2413 73.276C90.4413 72.676 90.3413 72.076 89.9413 71.576L72.9413 54.576C72.5413 54.176 72.5413 53.576 72.9413 53.176C73.3413 52.776 73.9413 52.776 74.3413 53.176L91.3413 70.176C92.3413 71.176 92.6413 72.676 92.1413 74.076C91.3413 75.476 90.1413 76.276 88.6413 76.276Z" fill="#985BEF" stroke="#985BEF" stroke-width="2"/>
<path d="M58.6415 73.476C56.4415 73.476 54.4415 72.276 53.4415 70.276L27.9415 19.476C27.0415 17.776 27.1415 15.676 28.0415 13.976C29.0415 12.276 30.7415 11.176 32.6415 10.976C37.0415 10.676 41.2415 9.47599 45.0415 7.67599C47.8415 6.27599 50.4415 4.57599 52.8415 2.47599C55.0415 0.575986 58.2415 0.475986 60.4415 2.37599C62.9415 4.47599 65.6415 6.27599 68.5415 7.67599C73.2415 9.87599 78.3415 11.176 83.7415 11.276C85.7415 11.376 87.5415 12.376 88.5415 14.176C89.5415 15.876 89.6415 17.976 88.7415 19.776L63.8415 70.276C62.8415 72.276 60.8415 73.476 58.6415 73.476ZM55.1415 69.376C55.8415 70.676 57.0415 71.476 58.5415 71.476C60.0415 71.476 61.3415 70.676 61.9415 69.376L87.1415 18.876C87.7415 17.676 87.6415 16.376 87.0415 15.176C86.3415 14.076 85.1415 13.376 83.8415 13.276C78.1415 13.076 72.7415 11.776 67.8415 9.47599C64.7415 7.97599 61.9415 6.17599 59.2415 3.97599C57.7415 2.77599 55.6415 2.77599 54.2415 3.97599C51.8415 6.27599 49.0415 8.07599 46.0415 9.57599C41.9415 11.576 37.5415 12.776 32.9415 13.076C31.6415 13.176 30.5415 13.876 29.8415 14.976C29.2415 16.076 29.1415 17.376 29.7415 18.576L55.1415 69.376Z" fill="#985BEF" stroke="#985BEF" stroke-width="2"/>
<path d="M58.3259 42.076C51.8049 42.076 46.5195 37.477 46.5195 31.8484C46.5195 29.9951 47.0687 28.1418 48.1669 26.563V19.9734C48.1669 19.7675 48.3042 19.4929 48.5101 19.4243C48.7161 19.287 48.922 19.287 49.1279 19.3556L55.0311 21.964C57.159 21.4149 59.4928 21.4149 61.552 21.964L67.5239 19.3556C67.7298 19.287 68.0044 19.287 68.1416 19.4243C68.3476 19.5616 68.4848 19.7675 68.4848 19.9734V26.6316C69.5145 28.2104 70.0636 29.9264 70.0636 31.7798C70.1322 37.477 64.8468 42.076 58.3259 42.076ZM49.6084 21.0717V26.7689C49.6084 26.9062 49.5398 27.0435 49.4711 27.1808C48.4415 28.5536 47.961 30.201 47.961 31.8484C47.961 36.722 52.6286 40.7032 58.3945 40.7032C64.1604 40.7032 68.8281 36.722 68.8281 31.8484C68.8281 30.2697 68.3476 28.6909 67.3866 27.3181C67.3179 27.1808 67.2493 27.0435 67.2493 26.9062V21.0717L62.1698 23.2682C61.8953 23.4055 61.6893 23.4055 61.552 23.4055C59.5614 22.8564 57.2963 22.8564 55.237 23.4055C55.0997 23.4741 54.8938 23.4055 54.7565 23.4055L49.6084 21.0717Z" fill="#985BEF" stroke="#985BEF" stroke-width="2"/>
<path d="M48.9232 27.5926C48.5114 27.5926 48.2368 27.3181 48.2368 26.9062V26.7689C48.2368 26.3571 48.5114 26.0825 48.9232 26.0825C49.3351 26.0825 49.6096 26.3571 49.6096 26.7689V26.9062C49.6096 27.3181 49.2664 27.5926 48.9232 27.5926Z" fill="#985BEF" stroke="#985BEF" stroke-width="2"/>
</svg>
