<svg width="67" height="76" viewBox="0 0 67 76" fill="none" xmlns="http://www.w3.org/2000/svg">
<path d="M25.9179 50.4015C12.166 50.4015 1 39.2876 1 25.6717C1 12.0557 12.166 1 25.9179 1C39.6698 1 50.8358 12.0557 50.8358 25.6717C50.8358 39.2876 39.6698 50.4015 25.9179 50.4015ZM25.9179 2.16376C12.8125 2.16376 2.17537 12.6958 2.17537 25.6717C2.17537 38.6475 12.8125 49.1796 25.9179 49.1796C39.0233 49.1796 49.6605 38.6475 49.6605 25.6717C49.6605 12.6958 39.0233 2.16376 25.9179 2.16376Z" fill="#985BEF" stroke="#985BEF" stroke-width="2"/>
<path d="M25.5876 42.9998C16.1479 42.9998 8.41113 35.3877 8.41113 25.9931C8.41113 20.5008 11.136 15.3458 15.6613 12.1661C15.9046 12.0215 16.1965 12.0697 16.3425 12.2624C16.4885 12.5033 16.4398 12.7924 16.2452 12.9369C11.9632 15.9239 9.43296 20.8381 9.43296 25.9931C9.43296 34.8578 16.6831 42.0363 25.6363 42.0363C30.7941 42.0363 35.66 39.5792 38.7255 35.4841C38.8714 35.2914 39.212 35.2432 39.4067 35.3877C39.6013 35.5323 39.65 35.8695 39.504 36.0622C36.2439 40.3982 31.0374 42.9998 25.5876 42.9998Z" fill="#985BEF" stroke="#985BEF" stroke-width="2"/>
<path d="M33.5989 57.8446C33.3051 57.8446 33.07 57.6701 33.0113 57.3791C32.9525 57.0882 33.1288 56.7391 33.4226 56.6809C40.4749 55.0516 46.8219 50.9785 51.2883 45.2179C51.4646 44.9851 51.876 44.9269 52.1111 45.1015C52.3461 45.2761 52.4049 45.6834 52.2286 45.9161C47.5859 51.8513 41.0038 56.0408 33.7165 57.7865C33.7165 57.8446 33.6577 57.8446 33.5989 57.8446Z" fill="#985BEF" stroke="#985BEF" stroke-width="2"/>
<path d="M64.9228 74.3702C64.6878 74.3702 64.5115 74.2538 64.3939 74.021C63.6299 73.0319 51.2885 61.3361 43.1197 53.5971C42.8846 53.3644 42.8846 53.0152 43.1197 52.7825C43.3547 52.5497 43.7074 52.5497 43.9424 52.7825C65.5693 73.1482 65.5693 73.4974 65.5693 73.8465C65.5105 74.1374 65.2754 74.3702 64.9228 74.3702Z" fill="#985BEF" stroke="#985BEF" stroke-width="2"/>
</svg>
