<svg width="55" height="62" viewBox="0 0 55 62" fill="none" xmlns="http://www.w3.org/2000/svg">
<path d="M54.0006 31.7439C53.9448 32.3635 53.889 32.9832 33.2469 47.0296C23.2048 53.8462 12.9953 60.6628 12.8837 60.7317C12.7163 60.8694 12.4932 60.8694 12.3258 60.7317C12.1585 60.594 12.0469 60.3874 12.0469 60.112L12.0469 1.72321C12.0469 1.44779 12.1585 1.24123 12.3258 1.10352C12.4932 0.965813 12.7163 0.965813 12.8837 1.10352C16.9563 4.06427 52.9406 30.3668 53.7216 31.1242C53.889 31.2619 54.0006 31.5373 54.0006 31.7439ZM13.1627 58.9415C27.9469 49.0952 49.0911 34.7735 52.4942 31.8127C48.6448 28.9208 26.05 12.3268 13.1627 2.89375L13.1627 58.9415Z" fill="#985BEF" stroke="#985BEF" stroke-width="2"/>
<path d="M9.08947 56.5998C9.08947 56.8752 8.9779 57.1506 8.75474 57.2195C4.51474 59.354 1.78105 60.7311 1.78105 60.7311C1.61368 60.8688 1.39053 60.7999 1.22316 60.6622C1.05579 60.5245 1 60.318 1 60.1114L0.999998 1.72263C0.999998 1.51606 1.11158 1.24065 1.27895 1.17179C1.44631 1.03408 1.61368 1.03408 1.83684 1.10294L8.42 4.75224C8.69895 4.88994 8.81053 5.30307 8.69895 5.64735C8.58737 5.99162 8.25263 6.12933 7.97368 5.99162L2.11579 2.75545L2.11579 59.0786C3.23158 58.5277 5.40737 57.4261 8.30842 55.9801C8.58737 55.8424 8.92211 55.9801 9.03369 56.3244C9.08947 56.3932 9.08947 56.531 9.08947 56.5998Z" fill="#985BEF" stroke="#985BEF" stroke-width="2"/>
</svg>
