<svg width="63" height="50" viewBox="0 0 63 50" fill="none" xmlns="http://www.w3.org/2000/svg">
<path d="M1.6553 48.0804C1.48398 48.0804 1.36977 48.0233 1.25557 47.9091C1.14136 47.852 1.08427 47.6807 1.08428 47.5093L1.08583 27.5793C1.08585 27.408 1.14296 27.2938 1.25718 27.1796L25.4722 1.25524C25.5864 1.14104 25.7578 1.08395 25.872 1.08396L60.5925 1.08665C61.1636 1.0867 61.6204 1.54358 61.6203 2.11464L61.6168 47.0572C61.6168 47.3427 61.3884 47.6282 61.0457 47.6282L1.6553 48.0804ZM2.22794 27.8078L2.22645 46.9384L60.4748 46.4289L60.4782 2.22877L26.1574 2.2261L2.22794 27.8078Z" fill="black" fill-opacity="0.5" stroke="#985BEF" stroke-width="2.16873"/>
<path d="M52.3073 37.976L16.7302 37.9732C16.3875 37.9732 16.1591 37.7448 16.1591 37.4021C16.1592 37.0595 16.3876 36.8311 16.7302 36.8311L52.3074 36.8339C52.65 36.8339 52.8784 37.0623 52.8784 37.405C52.8784 37.7476 52.6499 37.976 52.3073 37.976Z" fill="black" fill-opacity="0.5" stroke="#985BEF" stroke-width="2.16873"/>
<path d="M52.3071 28.1545L32.0915 28.1529C31.7488 28.1529 31.5204 27.9244 31.5205 27.5818C31.5205 27.2392 31.7489 27.0108 32.0916 27.0108L52.3071 27.0124C52.6498 27.0124 52.8782 27.2408 52.8782 27.5835C52.8781 27.9261 52.6497 28.1545 52.3071 28.1545Z" fill="black" fill-opacity="0.5" stroke="#985BEF" stroke-width="2.16873"/>
<path d="M52.3099 17.8184L34.2643 17.817C33.9217 17.8169 33.6933 17.5885 33.6933 17.2459C33.6933 16.9032 33.9218 16.6748 34.2644 16.6748L52.31 16.6763C52.6526 16.6763 52.881 16.9047 52.881 17.2474C52.881 17.59 52.6525 17.8184 52.3099 17.8184Z" fill="black" fill-opacity="0.5" stroke="#985BEF" stroke-width="2.16873"/>
<path d="M52.3099 7.48244L34.2643 7.48103C33.9217 7.48101 33.6933 7.25257 33.6933 6.90993C33.6933 6.56729 33.9218 6.33888 34.2644 6.33891L52.31 6.34031C52.6526 6.34034 52.881 6.56878 52.881 6.91142C52.881 7.25406 52.6525 7.48246 52.3099 7.48244Z" fill="black" fill-opacity="0.5" stroke="#985BEF" stroke-width="2.16873"/>
<path d="M19.2455 28.1518L1.65685 28.1504C1.31421 28.1504 1.08581 27.9219 1.08583 27.5793C1.08586 27.2367 1.3143 27.0082 1.65694 27.0083L19.2456 27.0096C22.6149 27.0099 25.3562 24.269 25.3565 20.8998L25.358 1.65498C25.358 1.31234 25.5864 1.08393 25.9291 1.08396C26.2717 1.08399 26.5001 1.31243 26.5001 1.65507L26.4986 20.9569C26.4412 24.9544 23.243 28.1521 19.2455 28.1518Z" fill="black" fill-opacity="0.5" stroke="#985BEF" stroke-width="2.16873"/>
</svg>
