<svg width="79" height="47" viewBox="0 0 79 47" fill="none" xmlns="http://www.w3.org/2000/svg">
<path d="M67.7256 44.8903H11.2502C5.67739 44.8903 1.12402 40.3369 1.12402 34.7641V11.2497C1.12402 5.67691 5.67739 1.12354 11.2502 1.12354H67.7256C73.2984 1.12354 77.8517 5.67691 77.8517 11.2497V34.7641C77.9197 40.3369 73.3663 44.8903 67.7256 44.8903ZM11.2502 2.48275C6.42496 2.48275 2.48324 6.42447 2.48324 11.2497V34.7641C2.48324 39.5893 6.42496 43.5311 11.2502 43.5311H67.7256C72.5508 43.5311 76.4925 39.5893 76.4925 34.7641V11.2497C76.5605 6.42447 72.6187 2.48275 67.7256 2.48275H11.2502Z" fill="black" fill-opacity="0.5" stroke="#985BEF" stroke-width="2.24748"/>
<path d="M67.9974 10.1624H11.454C11.0463 10.1624 10.7744 9.89059 10.7744 9.48283C10.7744 9.07507 11.0463 8.80322 11.454 8.80322H67.9974C68.4051 8.80322 68.677 9.07507 68.677 9.48283C68.677 9.89059 68.3372 10.1624 67.9974 10.1624Z" fill="black" fill-opacity="0.5" stroke="#985BEF" stroke-width="2.24748"/>
<path d="M67.9974 18.453H11.454C11.0463 18.453 10.7744 18.1811 10.7744 17.7734C10.7744 17.3656 11.0463 17.0938 11.454 17.0938H67.9974C68.4051 17.0938 68.677 17.3656 68.677 17.7734C68.677 18.1811 68.3372 18.453 67.9974 18.453Z" fill="black" fill-opacity="0.5" stroke="#985BEF" stroke-width="2.24748"/>
<path d="M67.9974 26.6771H11.454C11.0463 26.6771 10.7744 26.4052 10.7744 25.9975C10.7744 25.5897 11.0463 25.3179 11.454 25.3179H67.9974C68.4051 25.3179 68.677 25.5897 68.677 25.9975C68.677 26.4052 68.3372 26.6771 67.9974 26.6771Z" fill="black" fill-opacity="0.5" stroke="#985BEF" stroke-width="2.24748"/>
<path d="M67.9974 34.9002H11.454C11.0463 34.9002 10.7744 34.6284 10.7744 34.2206C10.7744 33.8129 11.0463 33.541 11.454 33.541H67.9974C68.4051 33.541 68.677 33.8129 68.677 34.2206C68.677 34.6284 68.3372 34.9002 67.9974 34.9002Z" fill="black" fill-opacity="0.5" stroke="#985BEF" stroke-width="2.24748"/>
</svg>
