<svg width="78" height="89" viewBox="0 0 78 89" fill="none" xmlns="http://www.w3.org/2000/svg">
<path d="M46.4802 76.0563C46.2661 76.0563 46.1234 75.9849 45.9806 75.8421C45.0528 74.9139 24.141 53.6371 22.3567 49.853C19.5018 45.4263 17.9316 40.2856 17.9316 35.0021C17.9316 19.8656 30.2075 7.65649 45.2669 7.65649C60.3263 7.65649 72.6022 19.937 72.6022 35.0021C72.6022 41.2138 70.6038 47.0685 66.7497 51.8522C66.5356 52.1378 66.3215 52.4234 66.1074 52.6376L47.1226 75.8421C46.9085 75.9849 46.6943 76.0563 46.4802 76.0563ZM45.2669 9.08446C30.9926 9.08446 19.3591 20.7224 19.3591 35.0021C19.3591 40.0714 20.7865 44.9265 23.57 49.139L23.6414 49.2104C24.8547 51.995 40.0568 67.7026 46.4802 74.2713L64.9654 51.7094C65.1796 51.4238 65.3937 51.2096 65.6078 50.924C69.2477 46.3545 71.1748 40.7854 71.1748 34.9307C71.1034 20.651 59.4698 9.08446 45.2669 9.08446Z" fill="#985BEF"/>
<path d="M65.6078 50.924C65.3937 51.2096 65.1796 51.4238 64.9654 51.7094L46.4802 74.2713C40.0568 67.7026 24.8547 51.995 23.6414 49.2104L23.57 49.139C20.7865 44.9265 19.3591 40.0714 19.3591 35.0021C19.3591 20.7224 30.9926 9.08446 45.2669 9.08446C59.4698 9.08446 71.1034 20.651 71.1748 34.9307C71.1748 40.7854 69.2477 46.3545 65.6078 50.924ZM65.6078 50.924L66.1788 51.3524M46.4802 76.0563C46.2661 76.0563 46.1234 75.9849 45.9806 75.8421C45.0528 74.9139 24.141 53.6371 22.3567 49.853C19.5018 45.4263 17.9316 40.2856 17.9316 35.0021C17.9316 19.8656 30.2075 7.65649 45.2669 7.65649C60.3263 7.65649 72.6022 19.937 72.6022 35.0021C72.6022 41.2138 70.6038 47.0685 66.7497 51.8522C66.5356 52.1378 66.3215 52.4234 66.1074 52.6376L47.1226 75.8421C46.9085 75.9849 46.6943 76.0563 46.4802 76.0563Z" stroke="#985BEF" stroke-width="2"/>
<path d="M44.9118 48.6396C36.4186 48.6396 29.4956 41.7139 29.4956 33.2175C29.4956 24.7211 36.4186 17.7954 44.9118 17.7954C53.405 17.7954 60.3281 24.7211 60.3281 33.2175C60.3281 41.7139 53.405 48.6396 44.9118 48.6396ZM44.9118 19.152C37.2037 19.152 30.923 25.4351 30.923 33.1461C30.923 40.8571 37.2037 47.1402 44.9118 47.1402C52.62 47.1402 58.9007 40.8571 58.9007 33.1461C58.9007 25.4351 52.62 19.152 44.9118 19.152Z" fill="#985BEF" stroke="#985BEF" stroke-width="2"/>
<path d="M8.15478 26.9343C7.79792 26.9343 7.44107 26.6487 7.44107 26.2917C7.29832 24.1498 7.22695 16.7243 12.9367 10.584C19.2174 3.87258 27.5678 4.01537 29.2094 4.08677C29.6376 4.08677 29.9231 4.44376 29.8517 4.87215C29.8517 5.30055 29.4949 5.58614 29.0666 5.51474C27.5678 5.44334 19.717 5.30055 13.9359 11.5122C8.58301 17.2241 8.65438 24.1498 8.79712 26.1489C8.93987 26.5773 8.58301 26.9343 8.15478 26.9343Z" fill="#985BEF" stroke="#985BEF" stroke-width="2"/>
<path d="M1.7317 18.7949C1.37484 18.7949 1.01798 18.5093 1.01798 18.1524C0.946612 16.5102 0.875241 10.7269 5.30027 6.01461C10.1535 0.873916 16.577 0.945315 17.8617 1.01671C18.2899 1.01671 18.5754 1.37371 18.504 1.8021C18.504 2.23049 18.1471 2.51608 17.7189 2.44468C16.577 2.37328 10.7245 2.30189 6.29947 7.01419C2.30267 11.2981 2.30267 16.5102 2.44541 18.0096C2.51678 18.438 2.2313 18.7235 1.7317 18.7949C1.80307 18.7949 1.80307 18.7949 1.7317 18.7949Z" fill="#985BEF"/>
<path d="M1.7317 18.7949C1.37484 18.7949 1.01798 18.5093 1.01798 18.1524C0.946612 16.5102 0.875241 10.7269 5.30027 6.01461C10.1535 0.873916 16.577 0.945315 17.8617 1.01671C18.2899 1.01671 18.5754 1.37371 18.504 1.8021C18.504 2.23049 18.1471 2.51608 17.7189 2.44468C16.577 2.37328 10.7245 2.30189 6.29947 7.01419C2.30267 11.2981 2.30267 16.5102 2.44541 18.0096C2.51678 18.438 2.2313 18.7235 1.7317 18.7949ZM1.7317 18.7949C1.80307 18.7949 1.80307 18.7949 1.7317 18.7949Z" stroke="#985BEF" stroke-width="2"/>
<path d="M50.1914 82.3395C49.8345 82.3395 49.549 82.3395 49.3349 82.3395C48.9067 82.3395 48.6212 81.9825 48.6926 81.5541C48.6926 81.1257 49.0494 80.8401 49.4777 80.9115C50.9765 80.9829 58.8273 81.1257 64.6084 74.914C69.9613 69.2021 69.8899 62.2765 69.7472 60.2773C69.7472 59.8489 70.0326 59.5633 70.3895 59.4919C70.8177 59.4919 71.1032 59.7775 71.1746 60.1345C71.3173 62.2765 71.3887 69.7019 65.679 75.8422C60.112 81.6969 52.9749 82.3395 50.1914 82.3395Z" fill="#985BEF" stroke="#985BEF" stroke-width="2"/>
<path d="M60.2561 87.9799C59.9706 87.9799 59.7565 87.9799 59.6137 87.9799C59.1855 87.9799 58.9 87.6229 58.9714 87.1945C58.9714 86.7661 59.3282 86.4805 59.7565 86.5519C60.8984 86.6233 66.7509 86.6947 71.1759 81.9824C75.1727 77.6985 75.1727 72.4864 75.03 70.987C75.03 70.5587 75.3154 70.2731 75.6723 70.2017C76.1005 70.2017 76.386 70.4873 76.4574 70.8442C76.6001 72.4864 76.6715 78.1983 72.2465 82.9106C67.8928 87.4801 62.3258 87.9799 60.2561 87.9799Z" fill="#985BEF" stroke="#985BEF" stroke-width="2"/>
</svg>
