<svg width="50" height="66" viewBox="0 0 50 66" fill="none" xmlns="http://www.w3.org/2000/svg">
<path d="M19.3423 61.1932L10.7817 58.0401C4.85872 55.8584 1.78422 49.2247 3.95928 43.3196L15.9561 10.7492C18.1311 4.84405 24.7741 1.78963 30.6971 3.97127L39.2114 7.10738C45.1807 9.30606 48.2089 15.9227 46.0338 21.8278L34.054 54.3521C31.9083 60.3204 25.2653 63.3748 19.3423 61.1932ZM30.3572 4.89394C24.9432 2.89979 18.8697 5.6924 16.8815 11.0901L4.90174 43.6144C2.89661 49.0582 5.72457 55.0771 11.1386 57.0712L19.6529 60.2074C25.1132 62.2186 31.1404 59.4089 33.1286 54.0112L45.1084 21.4869C47.1428 16.1063 44.3318 10.0413 38.9178 8.0471L30.3572 4.89394Z" fill="#985BEF" stroke="#985BEF" stroke-width="2"/>
<path d="M35.5162 36.9713L13.5363 28.8753C13.2586 28.7731 13.1415 28.5204 13.2435 28.2436C13.3454 27.9668 13.5985 27.8504 13.8761 27.9527L35.856 36.0486C36.1337 36.1509 36.2508 36.4036 36.1488 36.6804C36.0469 36.9572 35.7938 37.0735 35.5162 36.9713Z" fill="#985BEF" stroke="#985BEF" stroke-width="2"/>
<path d="M28.4542 28.608C28.2691 28.5399 28.118 28.3794 28.1397 28.1779L27.475 12.0056L18.9882 18.7819C18.7644 18.9614 18.4698 18.9053 18.2894 18.6817C18.109 18.4581 18.1647 18.1642 18.3885 17.9847L27.6268 10.5946C27.7704 10.4903 27.9432 10.4491 28.1283 10.5173C28.3134 10.5855 28.4012 10.775 28.3965 10.9305L29.0366 26.8841L32.5698 22.9986C32.7304 22.8481 32.9032 22.807 33.0883 22.8752L37.2991 24.4262C37.5768 24.5284 37.6939 24.7812 37.5919 25.058C37.49 25.3348 37.2369 25.4511 36.9593 25.3489L33.026 23.9001L28.9726 28.4846C28.8121 28.6351 28.6393 28.6762 28.4542 28.608Z" fill="#985BEF" stroke="#985BEF" stroke-width="2"/>
<path d="M20.2178 53.3949C20.1715 53.3778 20.1715 53.3778 20.2178 53.3949C19.9864 53.3096 19.8986 53.1201 19.9033 52.9647L19.2339 36.9479L15.7007 40.8334C15.5402 40.9838 15.3674 41.025 15.1823 40.9568L10.9714 39.4058C10.6937 39.3035 10.5766 39.0508 10.6786 38.774C10.7805 38.4972 11.0336 38.3808 11.3112 38.4831L15.1982 39.9148L19.3272 35.4105C19.4877 35.26 19.6605 35.2189 19.8456 35.2871C20.0307 35.3553 20.1818 35.5157 20.1601 35.7173L20.8248 51.8895L29.3116 45.1132C29.5354 44.9337 29.83 44.9898 30.0104 45.2135C30.1908 45.4371 30.1351 45.7309 29.9113 45.9105L20.673 53.3006C20.5294 53.4049 20.3566 53.446 20.2178 53.3949Z" fill="#985BEF"/>
<path d="M20.2178 53.3949C20.1715 53.3778 20.1715 53.3778 20.2178 53.3949ZM20.2178 53.3949C19.9864 53.3096 19.8986 53.1201 19.9033 52.9647L19.2339 36.9479L15.7007 40.8334C15.5402 40.9838 15.3674 41.025 15.1823 40.9568L10.9714 39.4058C10.6937 39.3035 10.5766 39.0508 10.6786 38.774C10.7805 38.4972 11.0336 38.3808 11.3112 38.4831L15.1982 39.9148L19.3272 35.4105C19.4877 35.26 19.6605 35.2189 19.8456 35.2871C20.0307 35.3553 20.1818 35.5157 20.1601 35.7173L20.8248 51.8895L29.3116 45.1132C29.5354 44.9337 29.83 44.9898 30.0104 45.2135C30.1908 45.4371 30.1351 45.7309 29.9113 45.9105L20.673 53.3006C20.5294 53.4049 20.3566 53.446 20.2178 53.3949Z" stroke="#985BEF" stroke-width="2"/>
</svg>
