<svg width="65" height="50" viewBox="0 0 65 50" fill="none" xmlns="http://www.w3.org/2000/svg">
<path d="M32.1511 42.0688C25.3761 42.0688 19.8584 36.551 19.8584 29.7761C19.8584 23.0011 25.3761 17.4834 32.1511 17.4834C38.926 17.4834 44.4438 23.0011 44.4438 29.7761C44.4438 36.551 38.926 42.0688 32.1511 42.0688ZM32.1511 18.8803C26.1444 18.8803 21.2553 23.7694 21.2553 29.7761C21.2553 35.7827 26.1444 40.6719 32.1511 40.6719C38.1577 40.6719 43.0469 35.7827 43.0469 29.7761C43.0469 23.7694 38.1577 18.8803 32.1511 18.8803Z" fill="#985BEF" stroke="#985BEF" stroke-width="2"/>
<path d="M63.2317 8.19401H1.69845C1.27938 8.19401 1 7.91463 1 7.49557V1.69845C1 1.27938 1.27938 1 1.69845 1H63.2317C63.6508 1 63.9302 1.27938 63.9302 1.69845V7.49557C63.9302 7.84479 63.5809 8.19401 63.2317 8.19401ZM2.3969 6.79712H62.5333V2.3969H2.3969V6.79712Z" fill="#985BEF" stroke="#985BEF" stroke-width="2"/>
<path d="M56.5266 48.4943H8.3337C4.28271 48.4943 1 45.2116 1 41.0908V18.8801C1 14.8291 4.28271 11.4766 8.40355 11.4766H56.5965C60.6475 11.4766 64 14.7593 64 18.8801V41.0908C63.9302 45.2116 60.5776 48.4943 56.5266 48.4943ZM8.40355 12.8735C5.12084 12.8735 2.3969 15.5276 2.3969 18.8801V41.0908C2.3969 44.3735 5.051 47.0974 8.40355 47.0974H56.5965C59.8792 47.0974 62.6031 44.4433 62.6031 41.0908V18.8801C62.6031 15.5974 59.949 12.8735 56.5965 12.8735H8.40355Z" fill="#985BEF" stroke="#985BEF" stroke-width="2"/>
</svg>
