<svg width="119" height="119" viewBox="0 0 119 119" fill="none" xmlns="http://www.w3.org/2000/svg">
<path d="M65.6205 117.754H53.0871C47.8194 117.754 43.5508 113.485 43.5508 108.218V10.4933C43.5508 5.22566 47.8194 0.957031 53.0871 0.957031H65.6205C70.8882 0.957031 75.1568 5.22566 75.1568 10.4933V69.3459C75.1568 69.8909 74.7935 70.2542 74.2486 70.2542C73.7037 70.2542 73.3404 69.8909 73.3404 69.3459V10.4933C73.3404 6.2247 69.8891 2.77347 65.6205 2.77347H53.0871C48.8185 2.77347 45.3672 6.2247 45.3672 10.4933V108.127C45.3672 112.396 48.8185 115.847 53.0871 115.847H65.6205C69.8891 115.847 73.3404 112.396 73.3404 108.127V77.6107C73.3404 77.0658 73.7037 76.7025 74.2486 76.7025C74.7935 76.7025 75.1568 77.0658 75.1568 77.6107V108.218C75.1568 113.485 70.8882 117.754 65.6205 117.754Z" fill="black" stroke="black" stroke-width="1.91471"/>
<path d="M108.218 75.1588H10.4933C5.22566 75.1588 0.957031 70.8901 0.957031 65.6225V53.089C0.957031 47.8214 5.22566 43.5527 10.4933 43.5527H34.5611C35.1061 43.5527 35.4694 43.916 35.4694 44.461C35.4694 45.0059 35.1061 45.3692 34.5611 45.3692H10.4933C6.2247 45.3692 2.77347 48.8204 2.77347 53.089V65.6225C2.77347 69.8911 6.2247 73.3423 10.4933 73.3423H108.127C112.396 73.3423 115.847 69.8911 115.847 65.6225V53.089C115.847 48.8204 112.396 45.3692 108.127 45.3692H77.4291C76.8842 45.3692 76.5209 45.0059 76.5209 44.461C76.5209 43.916 76.8842 43.5527 77.4291 43.5527H108.218C113.485 43.5527 117.754 47.8214 117.754 53.089V65.6225C117.754 70.8901 113.485 75.1588 108.218 75.1588Z" fill="black" stroke="black" stroke-width="1.91471"/>
</svg>
