<svg width="120" height="93" viewBox="0 0 120 93" fill="none" xmlns="http://www.w3.org/2000/svg">
<path d="M73.2484 91.5C68.4506 91.5 63.8709 90.0612 60.0545 87.2942C56.1291 90.0612 51.5494 91.5 46.8607 91.5C34.8663 91.5 24.9436 82.3138 23.8532 70.25C11.3136 69.8073 1.5 59.5143 1.5 46.8971C1.5 46.233 1.93616 45.7903 2.5904 45.7903C3.24464 45.7903 3.6808 46.233 3.6808 46.8971C3.6808 58.6289 13.0582 68.1471 24.6165 68.1471C25.1617 68.1471 25.7069 68.5898 25.7069 69.1432C26.2521 80.4323 35.5205 89.2864 46.6426 89.2864C51.2223 89.2864 55.5839 87.8476 59.1822 85.0807C59.6184 84.7487 60.0545 84.7487 60.4907 85.0807C64.198 87.8476 68.5596 89.2864 73.0303 89.2864C84.1524 89.2864 93.4208 80.4323 93.966 69.1432C93.966 68.5898 94.5112 68.1471 95.0564 68.1471C106.615 68.1471 116.101 58.6289 116.101 46.8971C116.101 35.1653 106.724 25.6471 95.1654 25.6471C84.0433 25.6471 74.7749 34.5013 74.2297 45.7903C74.2297 46.3437 73.6845 46.7864 73.1393 46.7864C71.9399 46.7864 70.7404 46.8971 69.541 47.1185C69.1048 47.2291 68.7777 47.0078 68.4506 46.6757C67.5783 45.4583 65.9427 45.1263 64.7432 45.901C63.4348 46.6757 63.1076 48.4466 63.8709 49.7747C64.198 50.3281 63.98 50.9921 63.5438 51.3242C62.9986 51.6562 62.3444 51.4349 62.0172 50.9921C60.5997 48.5573 61.363 45.4583 63.6528 44.0195C65.6156 42.802 68.2325 43.1341 69.7591 44.7942C70.5224 44.6836 71.3947 44.5729 72.158 44.5729C73.3574 32.6198 83.2801 23.3229 95.2745 23.3229C108.032 23.3229 118.391 33.8372 118.391 46.7864C118.391 59.4036 108.577 69.8073 96.2558 70.25C95.1654 82.3138 85.2428 91.5 73.2484 91.5Z" fill="white" stroke="white" stroke-width="3"/>
<path d="M2.5904 48.0039C1.93616 48.0039 1.5 47.5612 1.5 46.8971C1.5 33.9479 11.8588 23.4336 24.6165 23.4336C25.2707 23.4336 25.7069 23.8763 25.7069 24.5404C25.7069 25.2044 25.2707 25.6471 24.6165 25.6471C13.0582 25.5365 3.6808 35.1654 3.6808 46.8971C3.6808 47.4505 3.24464 48.0039 2.5904 48.0039Z" fill="white" stroke="white" stroke-width="3"/>
<path d="M63.7625 35.8294H55.5845C54.9303 35.8294 54.4941 35.3867 54.4941 34.7226C54.4941 34.0586 54.9303 33.6158 55.5845 33.6158H63.7625C64.4168 33.6158 64.8529 34.0586 64.8529 34.7226C64.8529 35.3867 64.3077 35.8294 63.7625 35.8294Z" fill="white" stroke="white" stroke-width="3"/>
<path d="M34.8662 26.4023C34.6482 26.4023 34.4301 26.2917 34.212 26.181C33.7758 25.849 33.6668 25.1849 33.9939 24.6315L50.1318 1.94271C50.3499 1.72135 50.677 1.5 51.0042 1.5C51.3313 1.5 51.6584 1.72135 51.8765 1.94271L68.1235 24.6315C68.4506 25.0742 68.3415 25.849 67.9054 26.181C67.4692 26.513 66.7059 26.4023 66.3788 25.9596L51.0042 4.48828L35.7386 25.849C35.5205 26.181 35.1934 26.4023 34.8662 26.4023Z" fill="white" stroke="white" stroke-width="3"/>
<path d="M55.5837 67.9257H46.5334C45.8791 67.9257 45.443 67.483 45.443 66.819V35.8294H38.4644C37.8102 35.8294 37.374 35.3867 37.374 34.7226C37.374 34.0586 37.8102 33.6158 38.4644 33.6158H46.5334C47.1876 33.6158 47.6238 34.0586 47.6238 34.7226V65.7122H54.4933V34.7226C54.4933 34.0586 54.9295 33.6158 55.5837 33.6158C56.238 33.6158 56.6741 34.0586 56.6741 34.7226V66.819C56.6741 67.483 56.1289 67.9257 55.5837 67.9257Z" fill="white" stroke="white" stroke-width="3"/>
</svg>
