<?xml version="1.0" encoding="utf-8"?>
<!-- Generator: Adobe Illustrator 24.2.1, SVG Export Plug-In . SVG Version: 6.00 Build 0)  -->
<svg version="1.1" id="Layer_1" xmlns="http://www.w3.org/2000/svg" xmlns:xlink="http://www.w3.org/1999/xlink" x="0px" y="0px"
	 viewBox="0 0 24 24" style="enable-background:new 0 0 24 24;" xml:space="preserve">
<style type="text/css">
	.st0{fill:#985BEF;stroke:#985BEF;stroke-width:1.8;}
</style>
<path class="st0" d="M15.39,23.67H9.61c-1.71,0-3.09-1.39-3.09-3.1v-8.72c0-0.12,0.08-0.2,0.2-0.2c0.12,0,0.2,0.08,0.2,0.2v8.7
	c0,1.49,1.2,2.7,2.69,2.7h5.78c1.49,0,2.69-1.21,2.69-2.7v-8.7c0-0.12,0.08-0.2,0.2-0.2c0.12,0,0.2,0.08,0.2,0.2v8.7
	C18.48,22.26,17.1,23.67,15.39,23.67z"/>
<path class="st0" d="M12.5,12.33c-3.29,0-5.98-2.7-5.98-6s2.69-6,5.98-6c3.29,0,5.98,2.7,5.98,6S15.79,12.33,12.5,12.33z M12.5,0.73
	c-3.07,0-5.58,2.52-5.58,5.6s2.51,5.6,5.58,5.6c3.07,0,5.58-2.52,5.58-5.6S15.57,0.73,12.5,0.73z"/>
</svg>
