<svg width="43" height="82" viewBox="0 0 43 82" fill="none" xmlns="http://www.w3.org/2000/svg">
<path d="M31.1154 80.2355H11.4927C5.70128 80.2355 1 75.5183 1 69.7072V40.105C1 39.6948 1.27254 39.4214 1.68134 39.4214C2.09015 39.4214 2.36269 39.6948 2.36269 40.105V69.6389C2.36269 74.6979 6.45076 78.7998 11.4927 78.7998H31.1154C36.1574 78.7998 40.2454 74.6979 40.2454 69.6389V40.105C40.2454 39.6948 40.518 39.4214 40.9268 39.4214C41.3356 39.4214 41.6081 39.6948 41.6081 40.105V69.6389C41.6081 75.4499 36.9069 80.2355 31.1154 80.2355Z" fill="#985BEF" stroke="#985BEF" stroke-width="2"/>
<path d="M21.3043 41.7457C10.1302 41.7457 1.00018 32.5848 1.00018 21.3729C1.00018 10.161 10.1302 1 21.3043 1C32.4783 1 41.6083 10.161 41.6083 21.3729C41.6083 32.5848 32.4783 41.7457 21.3043 41.7457ZM21.3043 2.36731C10.8797 2.36731 2.36287 10.913 2.36287 21.3729C2.36287 31.8328 10.8797 40.3784 21.3043 40.3784C31.7288 40.3784 40.2456 31.8328 40.2456 21.3729C40.2456 10.913 31.7288 2.36731 21.3043 2.36731Z" fill="#985BEF" stroke="#985BEF" stroke-width="2"/>
</svg>
