<svg width="47" height="59" viewBox="0 0 47 59" fill="none" xmlns="http://www.w3.org/2000/svg">
<path d="M24.3787 57.7294C24.2085 57.7294 24.0951 57.6726 23.9816 57.5592C23.2443 56.7651 5.71814 38.9554 4.18673 35.7792C1.74782 32.0924 0.5 27.7818 0.5 23.3577C0.5 10.7661 10.7661 0.5 23.3577 0.5C35.9493 0.5 46.2154 10.7661 46.2154 23.3577C46.2154 28.5191 44.5139 33.397 41.3376 37.4807C41.1674 37.7076 40.9973 37.9345 40.7704 38.1613L24.8324 57.5592C24.719 57.6159 24.5488 57.7294 24.3787 57.7294ZM23.3577 1.63438C11.39 1.63438 1.63438 11.39 1.63438 23.3577C1.63438 27.6116 2.82547 31.6954 5.15095 35.212L5.20767 35.2687C6.22861 37.5942 18.9904 50.8097 24.3787 56.3114L39.8629 37.3673C40.0331 37.1404 40.2032 36.9702 40.3734 36.7434C43.4362 32.8865 45.0243 28.2355 45.0243 23.301C45.0243 11.39 35.3254 1.63438 23.3577 1.63438Z" fill="#A2A2A2"/>
<path d="M40.3734 36.7434C40.2032 36.9702 40.0331 37.1404 39.8629 37.3673L24.3787 56.3114C18.9904 50.8097 6.22861 37.5942 5.20767 35.2687L5.15095 35.212C2.82547 31.6954 1.63438 27.6116 1.63438 23.3577C1.63438 11.39 11.39 1.63438 23.3577 1.63438C35.3254 1.63438 45.0243 11.39 45.0243 23.301C45.0243 28.2355 43.4362 32.8865 40.3734 36.7434ZM40.3734 36.7434L40.8271 37.0837M24.3787 57.7294C24.2085 57.7294 24.0951 57.6726 23.9816 57.5592C23.2443 56.7651 5.71814 38.9554 4.18673 35.7792C1.74782 32.0924 0.5 27.7818 0.5 23.3577C0.5 10.7661 10.7661 0.5 23.3577 0.5C35.9493 0.5 46.2154 10.7661 46.2154 23.3577C46.2154 28.5191 44.5139 33.397 41.3376 37.4807C41.1674 37.7076 40.9973 37.9345 40.7704 38.1613L24.8324 57.5592C24.719 57.6159 24.5488 57.7294 24.3787 57.7294Z" stroke="#A2A2A2"/>
<path d="M23.0745 34.7579C15.9279 34.7579 10.1426 28.9726 10.1426 21.8828C10.1426 14.7929 15.9279 9.00757 23.0178 9.00757C30.1076 9.00757 35.893 14.7929 35.893 21.8828C35.893 28.9726 30.1643 34.7579 23.0745 34.7579ZM23.0745 10.0852C16.5518 10.0852 11.277 15.3601 11.277 21.8828C11.277 28.4054 16.5518 33.6236 23.0178 33.6236C29.4837 33.6236 34.7586 28.3487 34.7586 21.8828C34.7586 15.4168 29.5404 10.0852 23.0745 10.0852Z" fill="#A2A2A2" stroke="#A2A2A2"/>
<path d="M15.3612 32.0922C15.2478 32.0922 15.1343 32.0291 15.0209 31.966C14.7373 31.7136 14.6806 31.6505 14.794 18.1464C14.794 17.8309 15.0776 17.5154 15.3612 17.5154H31.6395C31.9799 17.5154 32.2067 17.7678 32.2067 18.1464V30.0098C32.2067 30.3884 31.9799 30.6408 31.6395 30.6408C31.2992 30.6408 31.0724 30.3884 31.0724 30.0098V18.7774H15.9284C15.8717 23.6995 15.8717 30.5777 15.9284 31.2719C15.9851 31.4612 15.9284 31.6505 15.815 31.8398C15.7015 32.0291 15.5314 32.0922 15.3612 32.0922Z" fill="#A2A2A2" stroke="#A2A2A2"/>
<path d="M27.8385 23.2444H18.7635C18.4232 23.2444 18.1963 23.0175 18.1963 22.6772C18.1963 22.3369 18.4232 22.11 18.7635 22.11H27.8385C28.1788 22.11 28.4057 22.3369 28.4057 22.6772C28.4057 23.0175 28.1788 23.2444 27.8385 23.2444Z" fill="#A2A2A2" stroke="#A2A2A2"/>
<path d="M27.8385 26.874H18.7635C18.4232 26.874 18.1963 26.6471 18.1963 26.3068C18.1963 25.9665 18.4232 25.7396 18.7635 25.7396H27.8385C28.1788 25.7396 28.4057 25.9665 28.4057 26.3068C28.4057 26.6471 28.1788 26.874 27.8385 26.874Z" fill="#A2A2A2" stroke="#A2A2A2"/>
<path d="M27.8385 30.5038H18.7635C18.4232 30.5038 18.1963 30.2769 18.1963 29.9366C18.1963 29.5963 18.4232 29.3694 18.7635 29.3694H27.8385C28.1788 29.3694 28.4057 29.5963 28.4057 29.9366C28.4057 30.2769 28.1788 30.5038 27.8385 30.5038Z" fill="#A2A2A2" stroke="#A2A2A2"/>
</svg>
