<svg width="54" height="77" viewBox="0 0 54 77" fill="none" xmlns="http://www.w3.org/2000/svg">
<path d="M52.35 75.9997H1.65C1.26 75.9997 1 75.7364 1 75.3413V21.8733C1 21.4782 1.26 21.2148 1.65 21.2148H11.79C12.18 21.2148 12.44 21.4782 12.44 21.8733C12.44 22.2684 12.18 22.5318 11.79 22.5318H2.3V74.6828H51.7V22.5318H41.95C41.56 22.5318 41.3 22.2684 41.3 21.8733C41.3 21.4782 41.56 21.2148 41.95 21.2148H52.35C52.74 21.2148 53 21.4782 53 21.8733V75.3413C53 75.6705 52.675 75.9997 52.35 75.9997Z" fill="#985BEF" stroke="#985BEF" stroke-width="2"/>
<path d="M44.0299 36.0962H9.90488C9.51488 36.0962 9.25488 35.8329 9.25488 35.4378C9.25488 35.0427 9.51488 34.7793 9.90488 34.7793H44.0299C44.4199 34.7793 44.6799 35.0427 44.6799 35.4378C44.6799 35.8329 44.4199 36.0962 44.0299 36.0962Z" fill="#985BEF" stroke="#985BEF" stroke-width="2"/>
<path d="M44.0299 46.6978H9.90488C9.51488 46.6978 9.25488 46.4344 9.25488 46.0393C9.25488 45.6442 9.51488 45.3809 9.90488 45.3809H44.0299C44.4199 45.3809 44.6799 45.6442 44.6799 46.0393C44.6799 46.4344 44.4199 46.6978 44.0299 46.6978Z" fill="#985BEF" stroke="#985BEF" stroke-width="2"/>
<path d="M44.0299 57.2994H9.90488C9.51488 57.2994 9.25488 57.036 9.25488 56.6409C9.25488 56.2458 9.51488 55.9824 9.90488 55.9824H44.0299C44.4199 55.9824 44.6799 56.2458 44.6799 56.6409C44.6799 57.036 44.4199 57.2994 44.0299 57.2994Z" fill="#985BEF" stroke="#985BEF" stroke-width="2"/>
<path d="M44.0299 67.9009H9.90488C9.51488 67.9009 9.25488 67.6375 9.25488 67.2425C9.25488 66.8474 9.51488 66.584 9.90488 66.584H44.0299C44.4199 66.584 44.6799 66.8474 44.6799 67.2425C44.6799 67.6375 44.4199 67.9009 44.0299 67.9009Z" fill="#985BEF" stroke="#985BEF" stroke-width="2"/>
<path d="M26.9997 27.6681C19.7197 27.6681 13.8047 21.676 13.8047 14.3011C13.8047 6.92625 19.7197 1 26.9997 1C34.2797 1 40.1947 6.9921 40.1947 14.367C40.1947 21.7419 34.2147 27.6681 26.9997 27.6681ZM26.9997 2.31694C20.4347 2.31694 15.1047 7.71642 15.1047 14.367C15.1047 21.0176 20.4347 26.3512 26.9997 26.3512C33.5647 26.3512 38.8947 20.9517 38.8947 14.3011C38.8947 7.65057 33.4997 2.31694 26.9997 2.31694Z" fill="#985BEF" stroke="#985BEF" stroke-width="2"/>
<path d="M27.7174 21.4581H26.2815C25.4739 21.4581 24.8457 20.8218 24.8457 20.0036V8.73091C24.8457 7.91273 25.4739 7.27637 26.2815 7.27637H27.7174C28.525 7.27637 29.1532 7.91273 29.1532 8.73091V15.5036C29.1532 15.7763 28.9737 15.9582 28.7045 15.9582C28.4353 15.9582 28.2558 15.7763 28.2558 15.5036V8.73091C28.2558 8.41273 28.0314 8.18546 27.7174 8.18546H26.2815C25.9674 8.18546 25.7431 8.41273 25.7431 8.73091V20.0036C25.7431 20.3218 25.9674 20.5491 26.2815 20.5491H27.7174C28.0314 20.5491 28.2558 20.3218 28.2558 20.0036V16.4582C28.2558 16.1854 28.4353 16.0036 28.7045 16.0036C28.9737 16.0036 29.1532 16.1854 29.1532 16.4582V20.0036C29.1532 20.7763 28.4801 21.4581 27.7174 21.4581Z" fill="#985BEF" stroke="#985BEF"/>
<path d="M32.5635 16.5033H21.4358C20.6282 16.5033 20 15.8669 20 15.0487V13.5942C20 12.776 20.6282 12.1396 21.4358 12.1396H24.1729C24.4421 12.1396 24.6216 12.3215 24.6216 12.5942C24.6216 12.8669 24.4421 13.0487 24.1729 13.0487H21.4358C21.1217 13.0487 20.8974 13.276 20.8974 13.5942V15.0487C20.8974 15.3669 21.1217 15.5942 21.4358 15.5942H32.5635C32.8776 15.5942 33.1019 15.3669 33.1019 15.0487V13.5942C33.1019 13.276 32.8776 13.0487 32.5635 13.0487H29.0636C28.7944 13.0487 28.615 12.8669 28.615 12.5942C28.615 12.3215 28.7944 12.1396 29.0636 12.1396H32.5635C33.3711 12.1396 33.9993 12.776 33.9993 13.5942V15.0487C33.9993 15.8669 33.3263 16.5033 32.5635 16.5033Z" fill="#985BEF" stroke="#985BEF"/>
</svg>
