<svg width="58" height="48" viewBox="0 0 58 48" fill="none" xmlns="http://www.w3.org/2000/svg">
<path d="M56.2565 47H1.6942C1.47854 47 1.26288 46.8889 1.11911 46.7778C0.975332 46.6111 0.975332 46.4444 1.04722 46.2778L25.6326 1.33333C25.7764 1.16667 25.992 1 26.2796 1C26.5671 1 26.7828 1.11111 26.9266 1.27778L56.8316 46.1667C56.9753 46.3333 56.9034 46.5556 56.8316 46.7222C56.7597 46.8889 56.544 47 56.2565 47ZM2.77251 45.8889H55.1063L26.4233 2.88889L2.77251 45.8889Z" fill="#985BEF" stroke="#985BEF" stroke-width="2"/>
<path d="M26.9991 36.3333C26.5678 36.3333 26.2803 36.1111 26.2803 35.7778V12.0556C26.2803 11.7222 26.5678 11.5 26.9991 11.5C27.4305 11.5 27.718 11.7222 27.718 12.0556V35.7778C27.718 36.1111 27.3586 36.3333 26.9991 36.3333Z" fill="#985BEF" stroke="#985BEF" stroke-width="2"/>
<path d="M26.9991 42.8333C26.5678 42.8333 26.2803 42.6111 26.2803 42.2778V40.5556C26.2803 40.2222 26.5678 40 26.9991 40C27.4305 40 27.718 40.2222 27.718 40.5556V42.2778C27.718 42.6111 27.3586 42.8333 26.9991 42.8333Z" fill="#985BEF" stroke="#985BEF" stroke-width="2"/>
</svg>
