<svg width="94" height="76" viewBox="0 0 94 76" fill="none" xmlns="http://www.w3.org/2000/svg">
<path d="M48.2843 66.1146C47.349 66.1146 46.4137 66.0404 45.7901 65.4467C44.9328 66.1889 43.6078 66.1146 42.3607 66.1146C41.3474 66.0404 40.3342 66.0404 39.7106 65.2983C39.4768 65.0014 39.3209 64.7046 39.243 64.3335C37.1385 62.9976 35.2679 61.2164 33.865 59.2126C32.2282 56.9119 31.2149 54.166 30.8252 51.3458V51.2716V48.8967C30.8252 48.8225 30.8252 48.8225 30.8252 48.7483C31.059 47.635 31.5267 46.5218 32.2282 45.557C32.8517 44.5922 33.7091 43.7016 34.7223 43.0337C34.8782 38.8034 35.2679 34.4989 35.9694 30.2687C36.515 26.929 37.2165 23.5893 38.1518 20.3238V18.8395L37.4503 17.5778C36.4371 15.8709 36.0473 13.9413 36.2812 12.0117V9.19151L35.8135 7.1877C35.8135 7.11349 35.8135 7.11349 35.8135 7.03927V3.69958C35.8135 3.25429 35.8915 2.809 36.0473 2.36371C36.2032 1.99263 36.515 1.54734 36.8268 1.25048C36.8268 1.02783 37.1385 0.953615 37.3724 1.02783C38.4636 1.32469 39.3989 1.76998 40.1783 2.43792C40.4901 2.73478 40.8018 3.03164 41.0357 3.3285C41.2695 3.69958 41.5813 3.99644 42.0489 4.44173C42.2827 4.7386 42.5166 4.96124 42.8283 5.18389C43.296 5.03546 43.7636 4.88703 44.2313 4.81281C44.699 4.7386 45.2445 4.7386 45.7122 4.7386C46.1799 4.7386 46.7255 4.7386 47.1931 4.81281C47.6608 4.88703 48.1284 5.03546 48.5961 5.18389C48.9078 4.96124 49.1417 4.7386 49.4534 4.51595C49.9211 4.07066 50.2329 3.7738 50.4667 3.40272C50.7005 3.10586 50.9343 2.809 51.3241 2.51214C52.0255 1.8442 52.9608 1.39891 54.13 1.10205C54.3638 1.02783 54.6756 1.10205 54.8315 1.25048C55.1432 1.54734 55.455 1.91841 55.6109 2.36371C55.7668 2.809 55.9227 3.25429 55.8447 3.7738V7.03927C55.8447 7.11349 55.8447 7.11349 55.8447 7.1877L55.3771 9.19151V12.0117C55.6109 13.9413 55.1432 15.8709 54.2079 17.5778L53.4285 18.8395V20.1754C54.2859 23.4408 55.0653 26.7805 55.6109 30.1202C56.3124 34.3505 56.7021 38.655 56.858 42.8853C57.8712 43.6274 58.6507 44.4438 59.3521 45.4086C59.9757 46.3734 60.4433 47.4124 60.7551 48.5998C60.7551 48.674 60.7551 48.674 60.7551 48.7483V51.1232V51.1974C60.4433 54.0175 59.3521 56.6893 57.7153 59.0642C56.3124 61.068 54.4418 62.8492 52.3373 64.185C52.2594 64.5561 52.1035 64.853 51.8697 65.1498C51.2461 65.892 50.2329 65.9662 49.2196 65.9662C48.9078 66.1146 48.5961 66.1146 48.2843 66.1146ZM45.7122 63.0718C46.1019 63.0718 46.4137 63.3687 46.4916 63.7398C46.4916 63.9624 46.5696 64.1108 46.6475 64.185C46.9593 64.6303 47.9725 64.5561 49.0637 64.5561C49.999 64.5561 50.3887 64.4819 50.5446 64.2593C50.6226 64.1108 50.7005 63.9624 50.7005 63.7398C50.7005 63.5171 50.8564 63.2202 51.0902 63.146C53.1947 61.8844 54.9874 60.2516 56.3124 58.322C57.7933 56.1698 58.7286 53.7207 59.0404 51.1974V48.8967C58.8065 47.9319 58.4168 47.1155 57.8712 46.2992C57.2477 45.3344 56.4683 44.5922 55.5329 43.9243C55.2991 43.7758 55.2212 43.5532 55.2212 43.3305C55.0653 39.0261 54.6756 34.6474 53.9741 30.4171C53.4285 27.0774 52.727 23.7377 51.7917 20.4722C51.7917 20.398 51.7917 20.3238 51.7917 20.3238V18.6911C51.7917 18.5426 51.7917 18.4684 51.8697 18.32L52.727 16.8357C53.5844 15.3514 53.8962 13.7186 53.7403 12.0859V12.0117V9.04308C53.7403 8.96887 53.7403 8.96887 53.7403 8.89465L54.2079 6.89084V3.62537C54.2079 3.40272 54.2079 3.10586 54.052 2.88321C54.052 2.809 53.9741 2.73478 53.8962 2.66057C53.2726 2.88321 52.727 3.18007 52.2594 3.62537C52.0255 3.84801 51.7917 4.07066 51.6358 4.36752C51.3241 4.7386 51.0123 5.10967 50.4667 5.62918C50.077 6.00026 49.6093 6.37133 49.0637 6.66819C48.8299 6.81662 48.5181 6.81662 48.2843 6.74241C47.8166 6.51976 47.349 6.37133 46.8813 6.37133C46.6475 6.2229 46.1799 6.2229 45.7901 6.2229C45.7122 6.2229 45.7122 6.2229 45.6343 6.2229C45.2445 6.2229 44.8548 6.2229 44.4651 6.2229C43.9975 6.29712 43.5298 6.44555 43.0622 6.59398C42.8283 6.66819 42.5166 6.66819 42.2827 6.51976C41.8151 6.2229 41.3474 5.85182 40.8798 5.48075C40.3342 4.96124 39.9445 4.51595 39.7106 4.21909C39.4768 3.92223 39.3209 3.69958 39.0871 3.47694C38.6194 3.10586 38.0738 2.73478 37.4503 2.51214C37.3724 2.58635 37.3724 2.66057 37.2944 2.73478C37.2165 2.95743 37.1385 3.18007 37.1385 3.47694V6.74241L37.6062 8.74622C37.6062 8.82044 37.6062 8.82044 37.6062 8.89465V11.8633V11.9375C37.4503 13.5702 37.7621 15.203 38.6194 16.6873L39.4768 18.1716C39.5548 18.2458 39.5547 18.3942 39.5547 18.5426V20.3238C39.5547 20.398 39.5547 20.4722 39.5547 20.4722C38.6974 23.7377 37.918 27.0774 37.3724 30.4171C36.6709 34.7216 36.2812 39.0261 36.1253 43.3305C36.1253 43.5532 35.9694 43.7758 35.8135 43.9243C34.8782 44.5922 34.0208 45.3344 33.4752 46.2992C32.9296 47.1155 32.5399 48.0061 32.3061 48.8967V51.1974C32.6179 53.7207 33.5532 56.244 35.0341 58.322C36.3591 60.2516 38.2297 61.9586 40.2562 63.146C40.4901 63.2945 40.6459 63.5171 40.6459 63.7398C40.6459 63.9624 40.7239 64.1108 40.8018 64.2593C40.9577 64.4819 41.4254 64.4819 42.2827 64.5561C43.3739 64.6303 44.3872 64.6303 44.6989 64.185C44.7769 64.0366 44.8548 63.8882 44.8548 63.7398C45.0107 63.3687 45.3225 63.0718 45.7122 63.0718Z" fill="#985BEF" stroke="#985BEF" stroke-width="2"/>
<path d="M92.2439 74.1298H1.75268C1.51885 74.1298 1.28502 73.9814 1.12914 73.833C0.973254 73.6103 0.973254 73.3877 1.0512 73.165L15.8603 31.2334C15.9382 30.9365 16.25 30.7139 16.5617 30.7139H33.3194C33.787 30.7139 34.0988 31.0107 34.0988 31.456C34.0988 31.9013 33.787 32.1982 33.3194 32.1982H17.1073L2.84387 72.6455H90.9188L67.4582 32.1982H58.0271C57.5595 32.1982 57.2477 31.9013 57.2477 31.456C57.2477 31.0107 57.5595 30.7139 58.0271 30.7139H67.9258C68.2376 30.7139 68.4714 30.8623 68.6273 31.0849L92.8674 73.0166C93.0233 73.2392 93.0233 73.5361 92.8674 73.7587C92.7115 73.9814 92.4777 74.1298 92.2439 74.1298Z" fill="#985BEF" stroke="#985BEF" stroke-width="2"/>
</svg>
