<svg width="75" height="21" viewBox="0 0 75 21" fill="none" xmlns="http://www.w3.org/2000/svg">
<path d="M68.0397 20H6.96034C3.66796 20 1 17.4339 1 14.2672V6.73276C1 3.56609 3.66796 1 6.96034 1H42.8927C43.2333 1 43.4603 1.21839 43.4603 1.54598C43.4603 1.87356 43.2333 2.09195 42.8927 2.09195H6.96034C4.29238 2.09195 2.1353 4.16667 2.1353 6.73276V14.2672C2.1353 16.8333 4.29238 18.908 6.96034 18.908H67.9829C70.6509 18.908 72.8079 16.8333 72.8079 14.2672V6.73276C72.8079 4.16667 70.6509 2.09195 67.9829 2.09195H48.7963C48.4557 2.09195 48.2286 1.87356 48.2286 1.54598C48.2286 1.21839 48.4557 1 48.7963 1H68.0397C71.332 1 74 3.56609 74 6.73276V14.2672C74 17.4339 71.332 20 68.0397 20Z" fill="#985BEF" stroke="#985BEF" stroke-width="2"/>
</svg>
